<svg width="20" height="20" viewBox="0 0 20 20" fill="none" xmlns="http://www.w3.org/2000/svg">
<path d="M14.2715 1.66699H4.89648C4.03354 1.66699 3.33398 2.41318 3.33398 3.33366V15.8337C3.33398 16.7541 4.03354 17.5003 4.89648 17.5003H14.2715C15.1344 17.5003 15.834 16.7541 15.834 15.8337V3.33366C15.834 2.41318 15.1344 1.66699 14.2715 1.66699Z" stroke="#2F2F2F" stroke-width="1.5" stroke-linecap="round" stroke-linejoin="round"/>
<rect x="5.08398" y="3.41699" width="9" height="4.83333" fill="#2F2F2F" stroke="#2F2F2F" stroke-width="1.5" stroke-linecap="round" stroke-linejoin="round"/>
<line x1="13.416" y1="9.91699" x2="12.416" y2="9.91699" stroke="#2F2F2F" stroke-width="1.5" stroke-linecap="round"/>
<line x1="13.416" y1="12.417" x2="12.416" y2="12.417" stroke="#2F2F2F" stroke-width="1.5" stroke-linecap="round"/>
<line x1="13.416" y1="14.083" x2="12.416" y2="14.083" stroke="#2F2F2F" stroke-width="1.5" stroke-linecap="round"/>
<line x1="13.416" y1="15.75" x2="12.416" y2="15.75" stroke="#2F2F2F" stroke-width="1.5" stroke-linecap="round"/>
<line x1="10.084" y1="9.91699" x2="9.08398" y2="9.91699" stroke="#2F2F2F" stroke-width="1.5" stroke-linecap="round"/>
<line x1="6.75" y1="9.91699" x2="5.75" y2="9.91699" stroke="#2F2F2F" stroke-width="1.5" stroke-linecap="round"/>
<line x1="10.084" y1="12.417" x2="9.08398" y2="12.417" stroke="#2F2F2F" stroke-width="1.5" stroke-linecap="round"/>
<line x1="6.75" y1="12.417" x2="5.75" y2="12.417" stroke="#2F2F2F" stroke-width="1.5" stroke-linecap="round"/>
<line x1="10.084" y1="14.083" x2="9.08398" y2="14.083" stroke="#2F2F2F" stroke-width="1.5" stroke-linecap="round"/>
<line x1="10.084" y1="15.75" x2="9.08398" y2="15.75" stroke="#2F2F2F" stroke-width="1.5" stroke-linecap="round"/>
<line x1="6.75" y1="14.083" x2="5.75" y2="14.083" stroke="#2F2F2F" stroke-width="1.5" stroke-linecap="round"/>
<line x1="6.75" y1="15.75" x2="5.75" y2="15.75" stroke="#2F2F2F" stroke-width="1.5" stroke-linecap="round"/>
</svg>
