<svg width="24" height="24" viewBox="0 0 24 24" fill="none" xmlns="http://www.w3.org/2000/svg">
<path d="M19 19V23" stroke="#2F2F2F" stroke-width="1.5" stroke-miterlimit="2.61313" stroke-linecap="round"/>
<path d="M17 21H21" stroke="#2F2F2F" stroke-width="1.5" stroke-miterlimit="2.61313" stroke-linecap="round"/>
<path d="M19 16.5V4C19 2.89543 18.1605 2 17.125 2H5.875C4.83947 2 4 2.89543 4 4V19C4 20.1046 4.83947 21 5.875 21H14" stroke="#2F2F2F" stroke-width="1.5" stroke-linecap="round" stroke-linejoin="round"/>
<rect x="6.25" y="4.25" width="10.5" height="5.5" stroke="#2F2F2F" stroke-width="1.5" stroke-linecap="round" stroke-linejoin="round"/>
<line x1="16.25" y1="11.75" x2="14.75" y2="11.75" stroke="#2F2F2F" stroke-width="1.5" stroke-linecap="round"/>
<line x1="16.25" y1="14.75" x2="14.75" y2="14.75" stroke="#2F2F2F" stroke-width="1.5" stroke-linecap="round"/>
<line x1="16.25" y1="16.75" x2="14.75" y2="16.75" stroke="#2F2F2F" stroke-width="1.5" stroke-linecap="round"/>
<line x1="16.25" y1="18.75" x2="14.75" y2="18.75" stroke="#2F2F2F" stroke-width="1.5" stroke-linecap="round"/>
<line x1="12.25" y1="11.75" x2="10.75" y2="11.75" stroke="#2F2F2F" stroke-width="1.5" stroke-linecap="round"/>
<line x1="8.25" y1="11.75" x2="6.75" y2="11.75" stroke="#2F2F2F" stroke-width="1.5" stroke-linecap="round"/>
<line x1="12.25" y1="14.75" x2="10.75" y2="14.75" stroke="#2F2F2F" stroke-width="1.5" stroke-linecap="round"/>
<line x1="8.25" y1="14.75" x2="6.75" y2="14.75" stroke="#2F2F2F" stroke-width="1.5" stroke-linecap="round"/>
<line x1="12.25" y1="16.75" x2="10.75" y2="16.75" stroke="#2F2F2F" stroke-width="1.5" stroke-linecap="round"/>
<line x1="12.25" y1="18.75" x2="10.75" y2="18.75" stroke="#2F2F2F" stroke-width="1.5" stroke-linecap="round"/>
<line x1="8.25" y1="16.75" x2="6.75" y2="16.75" stroke="#2F2F2F" stroke-width="1.5" stroke-linecap="round"/>
<line x1="8.25" y1="18.75" x2="6.75" y2="18.75" stroke="#2F2F2F" stroke-width="1.5" stroke-linecap="round"/>
</svg>
