<svg width="42" height="24" viewBox="0 0 42 24" fill="none" xmlns="http://www.w3.org/2000/svg">
<path d="M36.7688 0.975586L26.8856 9.11279L22.1516 8.01779C22.1516 8.01779 19.0154 11.1294 16.9964 11.6868C16.1348 11.9244 16.1252 13.1364 17.102 13.494C18.0896 13.8552 19.3832 13.5054 20.1392 12.5082C20.6432 11.8434 21.1742 11.3868 21.7304 11.139C21.7304 11.139 23.7692 13.1028 25.9916 12.5082C25.9916 12.5082 27.9452 14.0964 30.3368 15.3042C30.1958 16.1832 29.633 16.8792 29.0708 16.8426C29.1182 17.5764 28.2488 18.7236 27.4646 18.6726C27.4646 19.629 26.4476 20.1006 25.7006 20.0748C25.4072 20.8908 24.3416 21.3498 23.7542 20.9418C24.0614 20.0562 24.0842 19.17 23.4722 18.8766C22.8602 18.5832 22.1492 19.119 21.8678 20.6232C21.5858 22.1274 24.0476 22.3956 24.3908 21.2094" stroke="#3B352E" stroke-width="1.5" stroke-linecap="round" stroke-linejoin="round"/>
<path d="M0.695312 11.32L8.99391 15.3028L13.3691 6.00521L1.94331 0.774414M20.5277 17.6188C20.6237 17.431 21.1151 16.852 21.7793 17.2168C22.4441 17.5816 22.2635 18.331 22.1681 18.5188L20.9711 21.0388C20.7809 21.4156 20.2295 21.5032 19.8173 21.277L19.6703 21.196C19.2575 20.9698 19.0163 20.4472 19.2065 20.0704L20.5277 17.6188V17.6188ZM18.1031 17.2594C18.1613 17.1605 18.2387 17.0744 18.3308 17.006C18.4229 16.9376 18.5278 16.8884 18.6393 16.8613C18.7507 16.8343 18.8665 16.8298 18.9797 16.8483C19.0929 16.8668 19.2013 16.9079 19.2983 16.969C19.9631 17.3338 19.8263 17.9962 19.7435 18.1594L18.7115 20.353C18.5465 20.68 18.0155 20.7274 17.6033 20.5012L17.4563 20.4208C17.0435 20.194 16.7813 19.7116 16.9469 19.3846L18.1031 17.2594V17.2594ZM16.0355 16.465C16.1495 16.324 16.6877 15.943 17.2625 16.447C17.8373 16.9504 17.5685 17.5672 17.4545 17.7082L15.9977 19.6234C15.7691 19.9054 15.2405 19.8346 14.8841 19.522L14.7569 19.411C14.3999 19.0984 14.2427 18.5686 14.4713 18.2854L16.0355 16.465V16.465ZM14.8475 17.848C13.5941 17.1352 12.0413 15.4492 12.1475 13.546L14.8475 17.848ZM13.2071 6.87881L16.0865 8.12861L22.1495 8.01761L13.2071 6.87881ZM24.8717 14.7922C24.8717 14.7922 27.7787 16.7932 29.0687 16.8424L24.8717 14.7922ZM23.9807 16.5004C23.9807 16.5004 25.6931 17.8666 27.4625 18.6724L23.9807 16.5004ZM29.3813 14.7922C29.3813 14.7922 30.6863 14.0602 30.5453 12.0094L37.7057 7.94201L29.3813 14.7922ZM15.1655 7.85561L11.8007 14.1976L10.6457 13.6858L15.1655 7.85561Z" stroke="#3B352E" stroke-width="1.5" stroke-linecap="round" stroke-linejoin="round"/>
<path d="M34.2931 22.4095C37.6565 22.4095 40.3831 19.6829 40.3831 16.3195C40.3831 12.9561 37.6565 10.2295 34.2931 10.2295C30.9297 10.2295 28.2031 12.9561 28.2031 16.3195C28.2031 19.6829 30.9297 22.4095 34.2931 22.4095Z" fill="white"/>
<path d="M34.2931 23.1595C38.0708 23.1595 41.1331 20.0971 41.1331 16.3195C41.1331 12.5419 38.0708 9.47949 34.2931 9.47949C30.5155 9.47949 27.4531 12.5419 27.4531 16.3195C27.4531 20.0971 30.5155 23.1595 34.2931 23.1595Z" stroke="white" stroke-width="1.5"/>
<path d="M34.2931 22.4095C37.6565 22.4095 40.3831 19.6829 40.3831 16.3195C40.3831 12.9561 37.6565 10.2295 34.2931 10.2295C30.9297 10.2295 28.2031 12.9561 28.2031 16.3195C28.2031 19.6829 30.9297 22.4095 34.2931 22.4095Z" stroke="#3B352E" stroke-width="1.5"/>
<path d="M34.0781 13.1699V17.3699H37.0181" stroke="#3B352E" stroke-width="1.5" stroke-linecap="round"/>
</svg>
