<svg xmlns="http://www.w3.org/2000/svg" width="101" height="58" viewBox="0 0 101 58">
    <g fill="none" fill-rule="evenodd" stroke="#222" stroke-linecap="round" stroke-linejoin="round" stroke-width="2.5">
        <path d="M92.743 6.474L68.976 25.66 57.59 23.078s-7.541 7.336-12.396 8.65c-2.072.561-2.095 3.418.253 4.26 2.376.853 5.486.028 7.304-2.323 1.213-1.568 2.489-2.644 3.827-3.228 0 0 4.902 4.63 10.246 3.228 0 0 4.699 3.745 10.45 6.593-.339 2.072-1.692 3.712-3.045 3.626.115 1.73-1.977 4.435-3.861 4.315 0 2.254-2.446 3.366-4.242 3.306-.706 1.924-3.268 3.006-4.682 2.044.739-2.088.795-4.178-.678-4.87-1.472-.69-3.18.572-3.858 4.119-.677 3.547 5.243 4.178 6.067 1.382"/>
        <path d="M53.692 45.715c.23-.444 1.412-1.808 3.01-.948 1.598.86 1.164 2.627.935 3.07l-2.878 5.942c-.459.887-1.784 1.094-2.776.56l-.353-.19c-.992-.534-1.574-1.767-1.115-2.654l3.177-5.78zM47.861 44.867c.2-.386 1.276-1.544 2.874-.684a2.167 2.167 0 0 1 1.07 2.807l-2.48 5.171c-.398.771-1.674.883-2.666.35l-.354-.19c-.991-.534-1.622-1.673-1.224-2.444l2.78-5.01zM42.888 42.995c.276-.334 1.569-1.232 2.95-.044 1.383 1.188.737 2.642.462 2.975l-3.502 4.515c-.55.666-1.82.498-2.678-.239l-.306-.262c-.858-.737-1.237-1.986-.687-2.653l3.761-4.292zM40.032 46.254c-3.014-1.68-6.748-5.654-6.494-10.143M36.088 20.392l6.923 2.948 14.58-.262M64.138 39.05s6.991 4.718 10.092 4.834M61.995 43.078s4.118 3.22 8.374 5.12M74.983 39.05s3.137-1.727 2.8-6.56L95 22.9"/>
        <path d="M40.797 22.696L32.706 37.65l-2.778-1.208M6 30.864l19.956 9.39 10.52-21.92L9 6"/>
    </g>
</svg>
