<svg xmlns="http://www.w3.org/2000/svg" width="43" height="32" viewBox="0 0 43 32">
    <g fill="none" fill-rule="evenodd" stroke="#222" stroke-linejoin="round" stroke-width="2">
        <path d="M2.68 4.19L18.6 1.616a2.5 2.5 0 0 1 2.9 2.468V22.47 4.083a2.5 2.5 0 0 1 2.9-2.468L40.32 4.19A2 2 0 0 1 42 6.165v21.843a1 1 0 0 1-1.092.996l-15.633-1.446A3.457 3.457 0 0 0 21.5 31a3.457 3.457 0 0 0-3.775-3.442L2.092 29.004A1 1 0 0 1 1 28.008V6.165a2 2 0 0 1 1.68-1.974z"/>
        <path stroke-linecap="round" d="M27.39 19.541l8.72 1.043M6.89 20.584l8.72-1.043M27.39 14.786l8.72 1.043M6.89 15.829l8.72-1.043M27.39 10.03l8.72 1.043M6.89 11.073l8.72-1.043"/>
    </g>
</svg>
