<svg width="76" height="32" viewBox="0 0 76 32" fill="none" xmlns="http://www.w3.org/2000/svg">
<path d="M75.0022 5.5V21.3571H71.5737V19.4286C71.0022 20.3571 69.5022 21.7857 66.6451 21.7857C63.7165 21.7857 61.3594 19.8571 61.3594 16.2857V5.5H64.8594V15.5C64.8594 17.6429 66.0022 18.7857 67.7165 18.7857C70.0737 18.7857 71.5737 16.7857 71.5737 14.7857V5.5H75.0022Z" fill="#3B352E"/>
<path d="M58.0781 5.28613C55.6496 5.28613 54.0781 6.57185 53.5067 7.92899V5.50042H50.0781V21.3576H53.5781V13.8576C53.5781 10.6433 55.3638 8.92899 57.5781 8.64328C58.221 8.57185 58.7924 8.57185 59.4353 8.7147V5.42899C59.1496 5.42899 58.6496 5.28613 58.0781 5.28613Z" fill="#3B352E"/>
<path d="M48.3594 6.71429C48.3594 10.7857 45.7879 13.4286 41.5022 13.4286H36.0737V21.2857H32.3594V0H41.4308C45.7879 0 48.3594 2.64286 48.3594 6.71429ZM44.5737 6.71429C44.5737 4.64286 43.2879 3.28571 41.0737 3.28571H36.0022V10.2143H41.0737C43.3594 10.2143 44.5737 8.78571 44.5737 6.71429Z" fill="#3B352E"/>
<path d="M21.6462 0H0.289062V21.3571H21.6462V0Z" fill="#3B352E"/>
<path d="M35.4308 29.3567C35.4308 30.3567 34.8594 30.9996 34.0737 30.9996C33.5737 30.9996 33.2879 30.7853 33.0737 30.4996V31.9996H32.3594V27.7853H33.0737V28.2139C33.2879 27.9282 33.5737 27.7139 34.0737 27.7139C34.8594 27.7139 35.4308 28.3567 35.4308 29.3567ZM34.7165 29.3567C34.7165 28.6424 34.3594 28.2853 33.8594 28.2853C33.3594 28.2853 33.0022 28.7139 33.0022 29.3567C33.0022 29.9996 33.3594 30.4282 33.8594 30.4282C34.3594 30.4282 34.7165 30.071 34.7165 29.3567Z" fill="#3B352E"/>
<path d="M38.5033 28.9996V30.9996H37.7891V30.6424C37.6462 30.8567 37.3605 31.071 36.8605 31.071C36.2176 31.071 35.7891 30.7139 35.7891 30.071C35.7891 29.3567 36.3605 29.071 37.2891 29.071H37.7891V28.9996C37.7891 28.4996 37.5033 28.2853 37.1462 28.2853C36.7891 28.2853 36.5748 28.4282 36.3605 28.7139L35.9319 28.2853C36.2176 27.9282 36.6462 27.7139 37.2176 27.7139C37.9319 27.7139 38.5033 28.1424 38.5033 28.9996ZM37.7891 29.571H37.4319C36.8605 29.571 36.5033 29.6424 36.5033 30.071C36.5033 30.3567 36.7176 30.4996 37.0748 30.4996C37.5748 30.4996 37.8605 30.071 37.8605 29.7853V29.571H37.7891Z" fill="#3B352E"/>
<path d="M43.3605 30.9286C43.1462 31 42.9319 31.0714 42.7176 31.0714C42.1462 31.0714 41.7891 30.8571 41.7891 30.2143V28.4286H41.2891V27.8571H41.7891V27H42.5033V27.8571H43.2891V28.4286H42.5033V30C42.5033 30.3571 42.5748 30.4286 42.8605 30.4286C42.9319 30.4286 43.0748 30.4286 43.2176 30.3571L43.3605 30.9286Z" fill="#3B352E"/>
<path d="M44.9297 29.3567C44.9297 28.3567 45.5725 27.7139 46.5011 27.7139C47.4297 27.7139 48.0725 28.3567 48.0725 29.3567C48.0725 30.3567 47.4297 30.9996 46.5011 30.9996C45.644 31.071 44.9297 30.4282 44.9297 29.3567ZM47.3583 29.3567C47.3583 28.7139 47.0011 28.2853 46.5011 28.2853C46.0011 28.2853 45.644 28.7139 45.644 29.3567C45.644 29.9996 46.0011 30.4282 46.5011 30.4282C47.0725 30.4282 47.3583 29.9996 47.3583 29.3567Z" fill="#3B352E"/>
<path d="M49.5022 27.7857H50.2879V28.3571H49.5022V30.9286H48.7879V28.3571H48.3594V27.7857H48.7879V27.5C48.7879 26.8571 49.2165 26.5 49.7879 26.5C49.9308 26.5 50.1451 26.5 50.2879 26.5714L50.2165 27.1429C50.0737 27.1429 50.0022 27.0714 49.9308 27.0714C49.6451 27.0714 49.5022 27.2143 49.5022 27.5714V27.7857Z" fill="#3B352E"/>
<path d="M56.5781 30.9997H55.8638V27.8569L54.721 30.9997H53.9353L52.7924 27.8569V30.9997H52.0781V26.6426H53.0781L54.3638 30.0711L55.6496 26.6426H56.6496V30.9997H56.5781Z" fill="#3B352E"/>
<path d="M60.2891 30.9999L60.0033 30.7141C59.6462 30.9284 59.2891 31.0713 58.7891 31.0713C57.9319 31.0713 57.2891 30.6427 57.2891 29.857C57.2891 29.2856 57.6462 28.9284 58.0748 28.6427C57.8605 28.357 57.6462 28.0713 57.6462 27.6427C57.6462 26.9999 58.1462 26.5713 58.8605 26.5713C59.5748 26.5713 60.0748 26.9999 60.0748 27.6427C60.0748 28.1427 59.7176 28.4999 59.1462 28.857L60.0033 29.857C60.1462 29.7141 60.2176 29.4999 60.2891 29.2141L60.9319 29.357C60.8605 29.7141 60.7176 30.0713 60.5033 30.357L61.1462 31.0713H60.2891V30.9999ZM59.5748 30.2141L58.5748 29.0713C58.2176 29.2856 58.0748 29.4999 58.0748 29.7856C58.0748 30.2141 58.4319 30.4284 58.9319 30.4284C59.0748 30.4284 59.3605 30.357 59.5748 30.2141ZM58.3605 27.6427C58.3605 27.9284 58.5033 28.1427 58.7176 28.2856C59.1462 28.0713 59.3605 27.857 59.3605 27.5713C59.3605 27.357 59.2176 27.1427 58.8605 27.1427C58.5033 27.1427 58.3605 27.357 58.3605 27.6427Z" fill="#3B352E"/>
<path d="M65.2154 28.5714V30.9286H64.5725V30.5C64.3583 30.8571 63.9297 31.0714 63.4297 31.0714C62.2154 31.0714 61.4297 30.1429 61.4297 28.7857C61.4297 27.4286 62.2868 26.5 63.5011 26.5C64.144 26.5 64.7868 26.7857 65.2154 27.3571L64.5725 27.7857C64.2868 27.3571 63.9297 27.2143 63.5011 27.2143C62.7154 27.2143 62.144 27.7857 62.144 28.7857C62.144 29.7857 62.7154 30.3571 63.5011 30.3571C64.144 30.3571 64.5725 30 64.5725 29.2857V29.2143H63.4297V28.5714H65.2154Z" fill="#3B352E"/>
<path d="M70.2902 29.3567C70.2902 30.3567 69.7187 30.9996 68.933 30.9996C68.433 30.9996 68.1473 30.7853 67.933 30.4996V31.9996H67.2188V27.7853H67.933V28.2139C68.1473 27.9282 68.433 27.7139 68.933 27.7139C69.7187 27.7139 70.2902 28.3567 70.2902 29.3567ZM69.5759 29.3567C69.5759 28.6424 69.2188 28.2853 68.7188 28.2853C68.2188 28.2853 67.8616 28.7139 67.8616 29.3567C67.8616 29.9996 68.2188 30.4282 68.7188 30.4282C69.2188 30.4282 69.5759 30.071 69.5759 29.3567Z" fill="#3B352E"/>
<path d="M70.8594 26.5713H71.5737V30.9284H70.8594V26.5713Z" fill="#3B352E"/>
<path d="M72.0781 29.3567C72.0781 28.3567 72.721 27.7139 73.6495 27.7139C74.1495 27.7139 74.6495 27.8567 75.0067 28.4996L74.4353 28.7853C74.221 28.4282 74.0067 28.3567 73.721 28.3567C73.1496 28.3567 72.8638 28.7853 72.8638 29.4282C72.8638 30.071 73.221 30.4996 73.721 30.4996C74.0067 30.4996 74.2924 30.3567 74.4353 29.9996L75.0067 30.2853C74.6495 30.9282 74.1495 31.1424 73.6495 31.1424C72.721 31.071 72.0781 30.3567 72.0781 29.3567Z" fill="#3B352E"/>
<path d="M40.7913 27.7861C40.2913 27.7861 40.0056 28.0718 39.8627 28.2861V27.7861H39.1484V31.0004H39.8627V29.5004C39.8627 28.8576 40.2199 28.5004 40.6484 28.429C40.7913 28.429 40.8627 28.429 41.0056 28.429V27.7861C41.0056 27.7861 40.9341 27.7861 40.7913 27.7861Z" fill="#3B352E"/>
</svg>
