<svg width="24" height="24" viewBox="0 0 24 24" fill="none" xmlns="http://www.w3.org/2000/svg">
<path d="M12 13L11.5699 13.6144L12 13.9155L12.4301 13.6144L12 13ZM21.25 12C21.25 12.4142 21.5858 12.75 22 12.75C22.4142 12.75 22.75 12.4142 22.75 12H21.25ZM12 20.75C12.4142 20.75 12.75 20.4142 12.75 20C12.75 19.5858 12.4142 19.25 12 19.25V20.75ZM16.8483 19.3336C16.5555 19.6265 16.5555 20.1014 16.8483 20.3943C17.1412 20.6872 17.6161 20.6872 17.909 20.3943L16.8483 19.3336ZM22.1517 16.1517C22.4445 15.8588 22.4445 15.3839 22.1517 15.091C21.8588 14.7981 21.3839 14.7981 21.091 15.091L22.1517 16.1517ZM17.909 15.091C17.6161 14.7981 17.1412 14.7981 16.8483 15.091C16.5555 15.3839 16.5555 15.8588 16.8483 16.1517L17.909 15.091ZM21.091 20.3943C21.3839 20.6872 21.8588 20.6872 22.1517 20.3943C22.4445 20.1014 22.4445 19.6265 22.1517 19.3336L21.091 20.3943ZM4 4.75H20V3.25H4V4.75ZM20 4.75C20.6858 4.75 21.25 5.31421 21.25 6H22.75C22.75 4.48579 21.5142 3.25 20 3.25V4.75ZM4 19.25C3.31421 19.25 2.75 18.6858 2.75 18H1.25C1.25 19.5142 2.48579 20.75 4 20.75V19.25ZM2.75 18V6H1.25V18H2.75ZM2.75 6C2.75 5.31421 3.31421 4.75 4 4.75V3.25C2.48579 3.25 1.25 4.48579 1.25 6H2.75ZM21.5699 5.38558L11.5699 12.3856L12.4301 13.6144L22.4301 6.61442L21.5699 5.38558ZM12.4301 12.3856L2.4301 5.38558L1.5699 6.61442L11.5699 13.6144L12.4301 12.3856ZM21.25 6V12H22.75V6H21.25ZM12 19.25H4V20.75H12V19.25ZM17.909 20.3943L20.0303 18.273L18.9697 17.2123L16.8483 19.3336L17.909 20.3943ZM20.0303 18.273L22.1517 16.1517L21.091 15.091L18.9697 17.2123L20.0303 18.273ZM16.8483 16.1517L18.9697 18.273L20.0303 17.2123L17.909 15.091L16.8483 16.1517ZM18.9697 18.273L21.091 20.3943L22.1517 19.3336L20.0303 17.2123L18.9697 18.273Z" fill="#2F2F2F"/>
</svg>
