<svg width="120" height="120" viewBox="0 0 120 120" fill="none" xmlns="http://www.w3.org/2000/svg">
<g filter="url(#filter0_ii_1081_16384)">
<rect width="120" height="120" rx="60" fill="white"/>
<path d="M85.6667 56.334H34.3333C30.2832 56.334 27 59.6172 27 63.6673V89.334C27 93.3841 30.2832 96.6673 34.3333 96.6673H85.6667C89.7168 96.6673 93 93.3841 93 89.334V63.6673C93 59.6172 89.7168 56.334 85.6667 56.334Z" stroke="#181818" stroke-width="1.25" stroke-linecap="round" stroke-linejoin="round"/>
<path d="M41.6666 56.3329V41.6663C41.6621 37.1198 43.347 32.7338 46.3943 29.3597C49.4417 25.9856 53.634 23.8642 58.1575 23.4073C62.681 22.9504 67.2128 24.1906 70.8734 26.8871C74.5339 29.5836 77.0619 33.544 77.9666 37.9996" stroke="#181818" stroke-width="1.25" stroke-linecap="round" stroke-linejoin="round"/>
<path d="M85.3506 38.9725L83.2847 39.526C82.9194 39.6239 82.5302 39.5726 82.2027 39.3836C81.8752 39.1945 81.6362 38.8831 81.5384 38.5178L80.9848 36.4519M84.3061 48.8473L83.7526 46.7814C83.6547 46.4161 83.706 46.0269 83.895 45.6994C84.0841 45.3719 84.3955 45.1329 84.7608 45.0351L86.8267 44.4815M74.4313 47.8028L76.4972 47.2493C76.8625 47.1514 77.2517 47.2026 77.5792 47.3917C77.9067 47.5808 78.1457 47.8922 78.2435 48.2575L78.7971 50.3234M75.4758 37.928L76.0293 39.9939C76.1272 40.3592 76.076 40.7484 75.8869 41.0759C75.6978 41.4034 75.3864 41.6424 75.0211 41.7402L72.9552 42.2938" stroke="#181818" stroke-width="1.25" stroke-linecap="round" stroke-linejoin="round"/>
<path d="M57.0989 76.6309H57.7239C57.7239 76.4078 57.6049 76.2016 57.4118 76.0899L57.0989 76.6309ZM62.9011 76.6309L62.5881 76.0899C62.395 76.2016 62.2761 76.4078 62.2761 76.6309H62.9011ZM54.8228 71.6049C54.8228 68.7456 57.1407 66.4277 60 66.4277V65.1777C56.4503 65.1777 53.5728 68.0553 53.5728 71.6049H54.8228ZM57.4118 76.0899C55.8627 75.1938 54.8228 73.5204 54.8228 71.6049H53.5728C53.5728 73.9847 54.8664 76.0616 56.7859 77.1719L57.4118 76.0899ZM57.7239 83.6928V76.6309H56.4739V83.6928H57.7239ZM60 85.9689C58.7429 85.9689 57.7239 84.9499 57.7239 83.6928H56.4739C56.4739 85.6403 58.0525 87.2189 60 87.2189V85.9689ZM62.2761 83.6928C62.2761 84.9499 61.257 85.9689 60 85.9689V87.2189C61.9474 87.2189 63.5261 85.6403 63.5261 83.6928H62.2761ZM62.2761 76.6309V83.6928H63.5261V76.6309H62.2761ZM65.1771 71.6049C65.1771 73.5204 64.1372 75.1938 62.5881 76.0899L63.214 77.1719C65.1335 76.0616 66.4271 73.9847 66.4271 71.6049H65.1771ZM60 66.4277C62.8592 66.4277 65.1771 68.7456 65.1771 71.6049H66.4271C66.4271 68.0553 63.5496 65.1777 60 65.1777V66.4277Z" fill="#181818"/>
</g>
<defs>
<filter id="filter0_ii_1081_16384" x="0" y="0" width="120" height="122" filterUnits="userSpaceOnUse" color-interpolation-filters="sRGB">
<feFlood flood-opacity="0" result="BackgroundImageFix"/>
<feBlend mode="normal" in="SourceGraphic" in2="BackgroundImageFix" result="shape"/>
<feColorMatrix in="SourceAlpha" type="matrix" values="0 0 0 0 0 0 0 0 0 0 0 0 0 0 0 0 0 0 127 0" result="hardAlpha"/>
<feOffset dy="2"/>
<feGaussianBlur stdDeviation="2"/>
<feComposite in2="hardAlpha" operator="arithmetic" k2="-1" k3="1"/>
<feColorMatrix type="matrix" values="0 0 0 0 0.0392157 0 0 0 0 0.105882 0 0 0 0 0.219608 0 0 0 0.12 0"/>
<feBlend mode="normal" in2="shape" result="effect1_innerShadow_1081_16384"/>
<feColorMatrix in="SourceAlpha" type="matrix" values="0 0 0 0 0 0 0 0 0 0 0 0 0 0 0 0 0 0 127 0" result="hardAlpha"/>
<feOffset dy="1"/>
<feGaussianBlur stdDeviation="1"/>
<feComposite in2="hardAlpha" operator="arithmetic" k2="-1" k3="1"/>
<feColorMatrix type="matrix" values="0 0 0 0 0.0392157 0 0 0 0 0.105882 0 0 0 0 0.219608 0 0 0 0.08 0"/>
<feBlend mode="normal" in2="effect1_innerShadow_1081_16384" result="effect2_innerShadow_1081_16384"/>
</filter>
</defs>
</svg>
