<svg width="42" height="28" viewBox="0 0 42 28" fill="none" xmlns="http://www.w3.org/2000/svg">
<path fill-rule="evenodd" clip-rule="evenodd" d="M33.8645 16.5186C33.9613 16.7772 34.1299 17.0028 34.3505 17.169C34.5711 17.3351 34.8345 17.4348 35.1098 17.4563C35.1449 17.4628 35.1794 17.4715 35.2134 17.4823C35.1927 17.5108 35.1779 17.5431 35.1699 17.5773C34.714 19.2373 33.79 20.7309 32.5082 21.8799C32.1748 20.2128 31.6746 19.2126 31.0078 18.8791C31.6363 18.7386 32.2227 18.4516 32.7192 18.0413C33.2156 17.6311 33.6081 17.1093 33.8645 16.5186V16.5186Z" stroke="#3B352E" stroke-width="1.5" stroke-linecap="round" stroke-linejoin="round"/>
<path fill-rule="evenodd" clip-rule="evenodd" d="M28.3567 16.5186C28.2599 16.7772 28.0913 17.0028 27.8707 17.169C27.6501 17.3351 27.3866 17.4348 27.1113 17.4563C27.0763 17.4629 27.0418 17.4716 27.0078 17.4823C27.0283 17.5109 27.043 17.5432 27.0513 17.5773C27.5065 19.2372 28.43 20.7309 29.7115 21.8799C30.0449 20.2128 30.545 19.2126 31.2119 18.8791C30.5836 18.7384 29.9975 18.4513 29.5014 18.041C29.0052 17.6308 28.6129 17.1091 28.3567 16.5186Z" stroke="#3B352E" stroke-width="1.5" stroke-linecap="round" stroke-linejoin="round"/>
<path fill-rule="evenodd" clip-rule="evenodd" d="M26.2553 9.45483L26.2854 9.3498C26.4189 8.9497 26.711 8.86518 27.2101 9.56436C27.3076 9.40831 27.363 9.22959 27.3706 9.04573C28.4974 8.45708 30.9625 7.14075 31.0715 5.82992C31.069 5.79992 31.0746 5.79641 31.0715 5.82692C31.1816 7.15125 33.8783 8.48509 34.9925 9.06423C34.9491 9.2481 34.9543 9.44011 35.0075 9.62137C36.5609 7.36431 36.1818 12.4996 35.2456 11.8024C35.2417 12.9746 34.7849 14.0999 33.9708 14.9432C33.6291 15.3932 33.1973 15.7669 32.703 16.0406C32.2087 16.3143 31.6628 16.4818 31.1001 16.5326C30.5373 16.4818 29.9914 16.3143 29.4971 16.0406C29.0028 15.7669 28.571 15.3932 28.2293 14.9432C27.4244 14.1079 26.9687 12.9968 26.9555 11.8369C26.3919 12.128 26.0503 10.3005 26.2553 9.45483Z" stroke="#3B352E" stroke-width="1.5" stroke-linejoin="round"/>
<path d="M41.4945 26.4998C41.463 23.0684 40.5443 19.2375 39.0249 18.7979C38.5351 18.6588 38.0478 18.5118 37.563 18.3568C36.9594 17.1374 36.5708 14.3818 36.3437 12.1552C36.4641 12.0481 36.5625 11.9184 36.6333 11.7736C36.8894 11.1706 37.0307 10.525 37.0499 9.87013C37.1199 9.36312 37.049 8.84661 36.8448 8.37726V7.46603C36.8448 4.24222 33.9486 1.55355 31.0769 1.96865C28.2262 1.39001 25.3104 4.24422 25.3104 7.46703V8.48228C25.1566 8.92753 25.1033 9.40133 25.1544 9.86963C25.1734 10.5245 25.3145 11.17 25.5705 11.7731C25.5999 11.8309 25.6334 11.8865 25.6705 11.9396C25.443 14.2402 25.0389 17.199 24.3962 18.4213C23.9811 18.5523 23.5495 18.6773 23.1354 18.7974C22.9018 18.8719 22.693 19.0087 22.5312 19.193" stroke="#3B352E" stroke-width="1.5" stroke-linecap="round" stroke-linejoin="round"/>
<path d="M17.7584 15.5186C17.89 15.8616 17.7834 15.8496 18.4396 16.4823C18.3181 17.7491 18.2781 19.5491 16.5016 20.8799C16.092 19.213 15.0698 17.2125 14.2511 16.8789M10.6817 15.5186C10.5496 15.8616 10.6562 15.8496 10 16.4823C10.1215 17.7496 10.2241 19.5491 12.0005 20.8799C12.4101 19.213 13.3698 17.2125 14.1885 16.8789L10.6817 15.5186Z" stroke="#3B352E" stroke-width="1.5" stroke-linecap="round" stroke-linejoin="round"/>
<path fill-rule="evenodd" clip-rule="evenodd" d="M9.06312 9.52714L9.09513 9.42211C9.23766 9.02201 9.54824 8.93699 10.0794 9.63617C10.1717 9.477 10.2299 9.30039 10.2504 9.11754C10.3714 7.29008 10.4321 5.87623 10.4325 4.87598C11.3872 7.3766 17.5933 4.87598 18.3629 9.13454C18.3182 9.31844 18.3244 9.51105 18.381 9.69168C20.0349 7.43462 19.6313 12.5699 18.635 11.8732C18.6301 12.4608 18.5074 13.0414 18.2743 13.5808C18.0412 14.1202 17.7023 14.6073 17.2777 15.0135C16.901 15.4699 16.4363 15.8458 15.9114 16.1188C15.3864 16.3919 14.8118 16.5565 14.2219 16.6029C13.632 16.5564 13.0575 16.3918 12.5325 16.1187C12.0076 15.8457 11.5429 15.4698 11.1661 15.0135C10.7462 14.611 10.4101 14.1292 10.1773 13.596C9.94446 13.0629 9.81957 12.4889 9.80981 11.9072C9.20966 12.1983 8.84657 10.3709 9.06312 9.52564V9.52714Z" stroke="#3B352E" stroke-width="1.5" stroke-linejoin="round"/>
<path d="M19.506 17.3791C20.353 18.2512 21.3759 18.9332 22.5067 19.3796M19.501 10.5274C19.5675 10.4774 21.4365 3.37558 15.764 1.64515C13.582 0.974982 9.33843 1.20904 9.40644 3.8307C8.34968 3.80619 8.51222 5.51612 8.51222 6.46636C8.72927 9.01899 8.8493 10.3095 8.87231 10.3378L19.501 10.5274ZM9.00334 17.3791C7.12037 19.3796 2.50172 19.8797 1.50147 21.8802C0.819464 23.2813 0.476809 24.8233 0.501218 26.3813L9.00334 17.3791Z" stroke="#3B352E" stroke-width="1.5" stroke-linecap="round" stroke-linejoin="round"/>
<path d="M33.2581 11.8776C33.9487 11.8776 34.5084 11.3178 34.5084 10.6273C34.5084 9.93674 33.9487 9.37695 33.2581 9.37695C32.5676 9.37695 32.0078 9.93674 32.0078 10.6273C32.0078 11.3178 32.5676 11.8776 33.2581 11.8776Z" stroke="#3B352E" stroke-width="1.5" stroke-linejoin="round"/>
<path d="M16.2503 11.8776C16.9408 11.8776 17.5006 11.3178 17.5006 10.6273C17.5006 9.93674 16.9408 9.37695 16.2503 9.37695C15.5598 9.37695 15 9.93674 15 10.6273C15 11.3178 15.5598 11.8776 16.2503 11.8776Z" stroke="#3B352E" stroke-width="1.5" stroke-linejoin="round"/>
<path d="M15.2964 9.93725C15.1843 9.76791 15.0327 9.62841 14.8546 9.53082C14.6765 9.43322 14.4774 9.38047 14.2743 9.37712C14.0713 9.37377 13.8705 9.41993 13.6893 9.5116C13.5081 9.60326 13.352 9.73769 13.2344 9.90324" stroke="#3B352E" stroke-width="1.5" stroke-linejoin="round"/>
<path d="M12.2503 11.8776C12.9408 11.8776 13.5006 11.3178 13.5006 10.6273C13.5006 9.93674 12.9408 9.37695 12.2503 9.37695C11.5598 9.37695 11 9.93674 11 10.6273C11 11.3178 11.5598 11.8776 12.2503 11.8776Z" stroke="#3B352E" stroke-width="1.5" stroke-linejoin="round"/>
<path d="M32.3042 9.93725C32.1921 9.76791 32.0405 9.62841 31.8624 9.53082C31.6844 9.43322 31.4852 9.38047 31.2822 9.37712C31.0791 9.37377 30.8783 9.41993 30.6971 9.5116C30.5159 9.60326 30.3598 9.73769 30.2422 9.90324" stroke="#3B352E" stroke-width="1.5" stroke-linejoin="round"/>
<path d="M29.2581 11.8776C29.9487 11.8776 30.5084 11.3178 30.5084 10.6273C30.5084 9.93674 29.9487 9.37695 29.2581 9.37695C28.5676 9.37695 28.0078 9.93674 28.0078 10.6273C28.0078 11.3178 28.5676 11.8776 29.2581 11.8776Z" stroke="#3B352E" stroke-width="1.5" stroke-linejoin="round"/>
</svg>
