<svg width="24" height="24" viewBox="0 0 24 24" fill="none" xmlns="http://www.w3.org/2000/svg">
<path d="M1 3.99959V9.99959M1 9.99959H7M1 9.99959L5.64 5.63959C6.71475 4.5643 8.04437 3.77879 9.50481 3.35636C10.9652 2.93393 12.5089 2.88834 13.9917 3.22385C15.4745 3.55935 16.8482 4.26502 17.9845 5.27501C19.1209 6.28499 19.9828 7.56637 20.49 8.99959M23 19.9996V13.9996M23 13.9996H17M23 13.9996L18.36 18.3596C17.2853 19.4349 15.9556 20.2204 14.4952 20.6428C13.0348 21.0652 11.4911 21.1108 10.0083 20.7753C8.52547 20.4398 7.1518 19.7342 6.01547 18.7242C4.87913 17.7142 4.01717 16.4328 3.51 14.9996" stroke="#2F2F2F" stroke-width="1.5" stroke-linecap="round" stroke-linejoin="round"/>
</svg>
