<?xml version="1.0" encoding="UTF-8"?>
<svg width="150px" height="150px" viewBox="0 0 150 150" version="1.1" xmlns="http://www.w3.org/2000/svg" xmlns:xlink="http://www.w3.org/1999/xlink">
    <title>advantageIcon</title>
    <g id="advantageIcon" stroke="none" stroke-width="1" fill="none" fill-rule="evenodd">
        <g id="Group-4">
            <rect id="Rectangle" fill-opacity="0.08" fill="#3B352E" x="0" y="0" width="150" height="150" rx="75"></rect>
            <g id="Group-7" transform="translate(77.500000, 74.000000) rotate(-360.000000) translate(-77.500000, -74.000000) translate(40.000000, 39.000000)" fill-rule="nonzero">
                <path d="M35,-3 C47.9415861,-3 59.7776586,3.52245201 66.760978,14.130445 C67.6720109,15.5143471 67.2886747,17.3747595 65.9047725,18.2857924 C64.5208704,19.1968253 62.660458,18.813489 61.7494251,17.4295869 C55.8645824,8.49023203 45.9016445,3 35,3 C17.326888,3 3,17.326888 3,35 C3,52.673112 17.326888,67 35,67 C52.673112,67 67,52.673112 67,35 C67,32.4703198 66.7070494,29.9812607 66.1328572,27.5666007 C65.7495549,25.9546933 66.7455362,24.3372563 68.3574435,23.9539541 C69.9693509,23.5706518 71.5867879,24.5666331 71.9700901,26.1785404 C72.6522249,29.0471333 73,32.0020089 73,35 C73,55.9868205 55.9868205,73 35,73 C14.0131795,73 -3,55.9868205 -3,35 C-3,14.0131795 14.0131795,-3 35,-3 Z" id="Path" fill="#3B352E"></path>
                <path d="M72.8513112,3.90640582 C74.0075714,2.71971778 75.9069061,2.6950511 77.0935942,3.85131124 C78.2328147,4.96132097 78.3011163,6.75614828 77.2817727,7.94786408 L77.1486888,8.09359418 L39.1486888,47.0935942 C37.9156009,48.3591317 35.8753516,48.2831989 34.7355273,46.9680017 L34.6169265,46.8223503 L21.6169265,29.8223503 C20.6104702,28.5062152 20.8615145,26.6233828 22.1776497,25.6169265 C23.4431642,24.6491801 25.2326223,24.8440636 26.2631368,26.0305256 L26.3830735,26.1776497 L37.274,40.419 L72.8513112,3.90640582 Z" id="Path-25" fill="#055A60"></path>
            </g>
        </g>
    </g>
</svg>