<?xml version="1.0" encoding="UTF-8"?>
<svg width="150px" height="150px" viewBox="0 0 150 150" version="1.1" xmlns="http://www.w3.org/2000/svg" xmlns:xlink="http://www.w3.org/1999/xlink">
    <title>amount-meter</title>
    <defs>
        <rect id="path-1" x="0" y="0" width="150" height="150" rx="75"></rect>
    </defs>
    <g id="amount-meter" stroke="none" stroke-width="1" fill="none" fill-rule="evenodd">
        <g id="Group-2">
            <mask id="mask-2" fill="white">
                <use xlink:href="#path-1"></use>
            </mask>
            <use id="Mask" fill-opacity="0.08" fill="#3B352E" xlink:href="#path-1"></use>
            <g id="Group-3" mask="url(#mask-2)" fill-rule="nonzero">
                <g transform="translate(28.622469, 35.000000)">
                    <path d="M47.3775308,22 C62.8415038,22 75.3775308,34.536027 75.3775308,50 C75.3775308,65.463973 62.8415038,78 47.3775308,78 C31.9135578,78 19.3775308,65.463973 19.3775308,50 C19.3775308,48.3431458 20.7206766,47 22.3775308,47 C24.0343851,47 25.3775308,48.3431458 25.3775308,50 C25.3775308,62.1502645 35.2272663,72 47.3775308,72 C59.5277953,72 69.3775308,62.1502645 69.3775308,50 C69.3775308,37.8497355 59.5277953,28 47.3775308,28 C40.3574137,28 33.8927254,31.3068715 29.7604884,36.820273 C28.8298215,38.0620073 28.0325291,39.3983378 27.383445,40.8074697 C26.6902578,42.3123476 24.908374,42.9703529 23.4034961,42.2771656 C21.8986182,41.5839784 21.2406129,39.8020946 21.9338001,38.2972167 C22.7604783,36.502536 23.775323,34.8015692 24.9593123,33.2218416 C30.212797,26.2124251 38.4477754,22 47.3775308,22 Z" id="Path" fill="#3B352E"></path>
                    <path d="M13.6109477,35.83982 C14.2288135,34.3664476 15.8856178,33.6450709 17.3731836,34.1699439 L17.5377108,34.2334169 L48.5377108,47.2334169 C50.0656525,47.8741666 50.7848637,49.6322383 50.144114,51.16018 C49.5262481,52.6335524 47.8694439,53.3549291 46.381878,52.8300561 L46.2173508,52.7665831 L15.2173508,39.7665831 C13.6894091,39.1258334 12.9701979,37.3677617 13.6109477,35.83982 Z" id="Path-2" fill="#3B352E"></path>
                    <path d="M46.3775308,-3 C47.9752117,-3 49.2811917,-1.75108004 49.3724381,-0.176272788 L49.3775308,0 L49.3775308,7 C49.3775308,8.65685425 48.0343851,10 46.3775308,10 C44.7798499,10 43.4738699,8.75108004 43.3826235,7.17627279 L43.3775308,7 L43.3775308,0 C43.3775308,-1.65685425 44.7206766,-3 46.3775308,-3 Z" id="Path-27" fill="#055A60"></path>
                    <path d="M64.1723104,0.539601738 C65.7699913,0.539601738 67.0759713,1.7885217 67.1672177,3.36332895 L67.1723104,3.53960174 L67.1723104,10.5396017 C67.1723104,12.196456 65.8291647,13.5396017 64.1723104,13.5396017 C62.5746295,13.5396017 61.2686495,12.2906818 61.1774031,10.7158745 L61.1723104,10.5396017 L61.1723104,3.53960174 C61.1723104,1.88274749 62.5154562,0.539601738 64.1723104,0.539601738 Z" id="Path-27" fill="#055A60" transform="translate(64.172310, 7.039602) rotate(23.000000) translate(-64.172310, -7.039602) "></path>
                    <path d="M79.2579961,10.6195347 C80.855677,10.6195347 82.161657,11.8684546 82.2529034,13.4432619 L82.2579961,13.6195347 L82.2579961,20.6195347 C82.2579961,22.2763889 80.9148504,23.6195347 79.2579961,23.6195347 C77.6603153,23.6195347 76.3543353,22.3706147 76.2630888,20.7958075 L76.2579961,20.6195347 L76.2579961,13.6195347 C76.2579961,11.9626804 77.6011419,10.6195347 79.2579961,10.6195347 Z" id="Path-27" fill="#055A60" transform="translate(79.257996, 17.119535) rotate(45.000000) translate(-79.257996, -17.119535) "></path>
                    <path d="M89.3379291,25.7052204 C90.93561,25.7052204 92.24159,26.9541404 92.3328364,28.5289476 L92.3379291,28.7052204 L92.3379291,35.7052204 C92.3379291,37.3620746 90.9947833,38.7052204 89.3379291,38.7052204 C87.7402482,38.7052204 86.4342682,37.4563004 86.3430218,35.8814932 L86.3379291,35.7052204 L86.3379291,28.7052204 C86.3379291,27.0483661 87.6810748,25.7052204 89.3379291,25.7052204 Z" id="Path-27" fill="#055A60" transform="translate(89.337929, 32.205220) rotate(68.000000) translate(-89.337929, -32.205220) "></path>
                    <path d="M3.41713255,25.7052204 C5.01481343,25.7052204 6.32079343,26.9541404 6.41203986,28.5289476 L6.41713255,28.7052204 L6.41713255,35.7052204 C6.41713255,37.3620746 5.0739868,38.7052204 3.41713255,38.7052204 C1.81945167,38.7052204 0.513471672,37.4563004 0.422225245,35.8814932 L0.417132551,35.7052204 L0.417132551,28.7052204 C0.417132551,27.0483661 1.7602783,25.7052204 3.41713255,25.7052204 Z" id="Path-27" fill="#055A60" transform="translate(3.417133, 32.205220) rotate(293.000000) translate(-3.417133, -32.205220) "></path>
                    <path d="M13.4970655,10.6195347 C15.0947464,10.6195347 16.4007264,11.8684546 16.4919728,13.4432619 L16.4970655,13.6195347 L16.4970655,20.6195347 C16.4970655,22.2763889 15.1539197,23.6195347 13.4970655,23.6195347 C11.8993846,23.6195347 10.5934046,22.3706147 10.5021582,20.7958075 L10.4970655,20.6195347 L10.4970655,13.6195347 C10.4970655,11.9626804 11.8402112,10.6195347 13.4970655,10.6195347 Z" id="Path-27" fill="#055A60" transform="translate(13.497065, 17.119535) rotate(315.000000) translate(-13.497065, -17.119535) "></path>
                    <path d="M28.5827512,0.539601738 C30.1804321,0.539601738 31.4864121,1.7885217 31.5776585,3.36332895 L31.5827512,3.53960174 L31.5827512,10.5396017 C31.5827512,12.196456 30.2396055,13.5396017 28.5827512,13.5396017 C26.9850703,13.5396017 25.6790903,12.2906818 25.5878439,10.7158745 L25.5827512,10.5396017 L25.5827512,3.53960174 C25.5827512,1.88274749 26.925897,0.539601738 28.5827512,0.539601738 Z" id="Path-27" fill="#055A60" transform="translate(28.582751, 7.039602) rotate(338.000000) translate(-28.582751, -7.039602) "></path>
                </g>
            </g>
        </g>
    </g>
</svg>