<svg width="46" height="12" viewBox="0 0 46 12" fill="none" xmlns="http://www.w3.org/2000/svg">
<path d="M40.8516 6L30.8516 0.226497V11.7735L40.8516 6ZM31.8481 5C31.8224 5 31.7967 5 31.771 5C31.7453 5 31.7195 5 31.6938 5C31.668 5 31.6423 5 31.6165 5C31.5907 5 31.5649 5 31.5391 5C31.5133 5 31.4874 5 31.4616 5C31.4357 5 31.4099 5 31.384 5C31.3581 5 31.3322 5 31.3063 5C31.2804 5 31.2544 5 31.2285 5C31.2025 5 31.1766 5 31.1506 5C31.1246 5 31.0986 5 31.0726 5C31.0465 5 31.0205 5 30.9945 5C30.9684 5 30.9423 5 30.9163 5C30.8902 5 30.8641 5 30.838 5C30.8119 5 30.7857 5 30.7596 5C30.7334 5 30.7073 5 30.6811 5C30.6549 5 30.6287 5 30.6025 5C30.5763 5 30.5501 5 30.5239 5C30.4976 5 30.4714 5 30.4451 5C30.4188 5 30.3925 5 30.3662 5C30.34 5 30.3136 5 30.2873 5C30.261 5 30.2346 5 30.2083 5C30.1819 5 30.1556 5 30.1292 5C30.1028 5 30.0764 5 30.05 5C30.0236 5 29.9971 5 29.9707 5C29.9443 5 29.9178 5 29.8913 5C29.8649 5 29.8384 5 29.8119 5C29.7854 5 29.7589 5 29.7324 5C29.7058 5 29.6793 5 29.6528 5C29.6262 5 29.5996 5 29.5731 5C29.5465 5 29.5199 5 29.4933 5C29.4667 5 29.4401 5 29.4135 5C29.3868 5 29.3602 5 29.3335 5C29.3069 5 29.2802 5 29.2536 5C29.2269 5 29.2002 5 29.1735 5C29.1468 5 29.1201 5 29.0933 5C29.0666 5 29.0399 5 29.0131 5C28.9864 5 28.9596 5 28.9328 5C28.9061 5 28.8793 5 28.8525 5C28.8257 5 28.7989 5 28.7721 5C28.7452 5 28.7184 5 28.6916 5C28.6647 5 28.6379 5 28.611 5C28.5841 5 28.5573 5 28.5304 5C28.5035 5 28.4766 5 28.4497 5C28.4228 5 28.3959 5 28.3689 5C28.342 5 28.3151 5 28.2881 5C28.2612 5 28.2342 5 28.2072 5C28.1802 5 28.1533 5 28.1263 5C28.0993 5 28.0723 5 28.0453 5C28.0183 5 27.9912 5 27.9642 5C27.9372 5 27.9101 5 27.8831 5C27.856 5 27.829 5 27.8019 5C27.7748 5 27.7478 5 27.7207 5C27.6936 5 27.6665 5 27.6394 5C27.6123 5 27.5852 5 27.558 5C27.5309 5 27.5038 5 27.4766 5C27.4495 5 27.4223 5 27.3952 5C27.368 5 27.3409 5 27.3137 5C27.2865 5 27.2593 5 27.2321 5C27.2049 5 27.1777 5 27.1505 5C27.1233 5 27.0961 5 27.0689 5C27.0417 5 27.0144 5 26.9872 5C26.9599 5 26.9327 5 26.9054 5C26.8782 5 26.8509 5 26.8236 5C26.7964 5 26.7691 5 26.7418 5C26.7145 5 26.6872 5 26.6599 5C26.6326 5 26.6053 5 26.578 5C26.5507 5 26.5234 5 26.4961 5C26.4687 5 26.4414 5 26.4141 5C26.3867 5 26.3594 5 26.332 5C26.3047 5 26.2773 5 26.25 5C26.2226 5 26.1952 5 26.1678 5C26.1405 5 26.1131 5 26.0857 5C26.0583 5 26.0309 5 26.0035 5C25.9761 5 25.9487 5 25.9213 5C25.8939 5 25.8665 5 25.839 5C25.8116 5 25.7842 5 25.7568 5C25.7293 5 25.7019 5 25.6744 5C25.647 5 25.6195 5 25.5921 5C25.5646 5 25.5372 5 25.5097 5C25.4823 5 25.4548 5 25.4273 5C25.3998 5 25.3724 5 25.3449 5C25.3174 5 25.2899 5 25.2624 5C25.2349 5 25.2075 5 25.18 5C25.1525 5 25.125 5 25.0975 5C25.0699 5 25.0424 5 25.0149 5C24.9874 5 24.9599 5 24.9324 5C24.9049 5 24.8773 5 24.8498 5C24.8223 5 24.7947 5 24.7672 5C24.7397 5 24.7121 5 24.6846 5C24.6571 5 24.6295 5 24.602 5C24.5744 5 24.5469 5 24.5193 5C24.4918 5 24.4642 5 24.4367 5C24.4091 5 24.3816 5 24.354 5C24.3264 5 24.2989 5 24.2713 5C24.2438 5 24.2162 5 24.1886 5C24.161 5 24.1335 5 24.1059 5C24.0783 5 24.0508 5 24.0232 5C23.9956 5 23.968 5 23.9404 5C23.9129 5 23.8853 5 23.8577 5C23.8301 5 23.8025 5 23.775 5C23.7474 5 23.7198 5 23.6922 5C23.6646 5 23.637 5 23.6094 5C23.5818 5 23.5543 5 23.5267 5C23.4991 5 23.4715 5 23.4439 5C23.4163 5 23.3887 5 23.3611 5C23.3335 5 23.3059 5 23.2783 5C23.2508 5 23.2232 5 23.1956 5C23.168 5 23.1404 5 23.1128 5C23.0852 5 23.0576 5 23.03 5C23.0024 5 22.9748 5 22.9472 5C22.9196 5 22.8921 5 22.8645 5C22.8369 5 22.8093 5 22.7817 5C22.7541 5 22.7265 5 22.6989 5C22.6714 5 22.6438 5 22.6162 5C22.5886 5 22.561 5 22.5334 5C22.5059 5 22.4783 5 22.4507 5C22.4231 5 22.3955 5 22.368 5C22.3404 5 22.3128 5 22.2853 5C22.2577 5 22.2301 5 22.2025 5C22.175 5 22.1474 5 22.1199 5C22.0923 5 22.0647 5 22.0372 5C22.0096 5 21.9821 5 21.9545 5C21.9269 5 21.8994 5 21.8718 5C21.8443 5 21.8168 5 21.7892 5C21.7617 5 21.7341 5 21.7066 5C21.6791 5 21.6515 5 21.624 5C21.5965 5 21.5689 5 21.5414 5C21.5139 5 21.4864 5 21.4589 5C21.4313 5 21.4038 5 21.3763 5C21.3488 5 21.3213 5 21.2938 5C21.2663 5 21.2388 5 21.2113 5C21.1838 5 21.1563 5 21.1288 5C21.1013 5 21.0739 5 21.0464 5C21.0189 5 20.9914 5 20.964 5C20.9365 5 20.909 5 20.8816 5C20.8541 5 20.8267 5 20.7992 5C20.7718 5 20.7443 5 20.7169 5C20.6894 5 20.662 5 20.6346 5C20.6072 5 20.5797 5 20.5523 5C20.5249 5 20.4975 5 20.4701 5C20.4427 5 20.4153 5 20.3879 5C20.3605 5 20.3331 5 20.3057 5C20.2783 5 20.2509 5 20.2236 5C20.1962 5 20.1688 5 20.1415 5C20.1141 5 20.0868 5 20.0594 5C20.0321 5 20.0047 5 19.9774 5C19.9501 5 19.9227 5 19.8954 5C19.8681 5 19.8408 5 19.8135 5C19.7862 5 19.7589 5 19.7316 5C19.7043 5 19.677 5 19.6497 5C19.6224 5 19.5952 5 19.5679 5C19.5406 5 19.5134 5 19.4861 5C19.4589 5 19.4316 5 19.4044 5C19.3772 5 19.3499 5 19.3227 5C19.2955 5 19.2683 5 19.2411 5C19.2139 5 19.1867 5 19.1595 5C19.1323 5 19.1052 5 19.078 5C19.0508 5 19.0237 5 18.9965 5C18.9694 5 18.9422 5 18.9151 5C18.8879 5 18.8608 5 18.8337 5C18.8066 5 18.7795 5 18.7524 5C18.7253 5 18.6982 5 18.6711 5C18.644 5 18.617 5 18.5899 5C18.5628 5 18.5358 5 18.5087 5C18.4817 5 18.4547 5 18.4276 5C18.4006 5 18.3736 5 18.3466 5C18.3196 5 18.2926 5 18.2656 5C18.2386 5 18.2117 5 18.1847 5C18.1577 5 18.1308 5 18.1038 5C18.0769 5 18.05 5 18.0231 5C17.9961 5 17.9692 5 17.9423 5C17.9154 5 17.8885 5 17.8617 5C17.8348 5 17.8079 5 17.7811 5C17.7542 5 17.7274 5 17.7005 5C17.6737 5 17.6469 5 17.6201 5C17.5932 5 17.5664 5 17.5397 5C17.5129 5 17.4861 5 17.4593 5C17.4326 5 17.4058 5 17.3791 5C17.3523 5 17.3256 5 17.2989 5C17.2722 5 17.2455 5 17.2188 5C17.1921 5 17.1654 5 17.1387 5C17.1121 5 17.0854 5 17.0588 5C17.0321 5 17.0055 5 16.9789 5C16.9523 5 16.9257 5 16.8991 5C16.8725 5 16.8459 5 16.8193 5C16.7928 5 16.7662 5 16.7397 5C16.7132 5 16.6866 5 16.6601 5C16.6336 5 16.6071 5 16.5806 5C16.5541 5 16.5277 5 16.5012 5C16.4748 5 16.4483 5 16.4219 5C16.3955 5 16.369 5 16.3426 5C16.3162 5 16.2899 5 16.2635 5C16.2371 5 16.2108 5 16.1844 5C16.1581 5 16.1317 5 16.1054 5C16.0791 5 16.0528 5 16.0265 5C16.0002 5 15.974 5 15.9477 5C15.9215 5 15.8952 5 15.869 5C15.8428 5 15.8166 5 15.7904 5C15.7642 5 15.738 5 15.7118 5C15.6857 5 15.6595 5 15.6334 5C15.6073 5 15.5811 5 15.555 5C15.5289 5 15.5029 5 15.4768 5C15.4507 5 15.4247 5 15.3986 5C15.3726 5 15.3466 5 15.3206 5C15.2946 5 15.2686 5 15.2426 5C15.2166 5 15.1907 5 15.1647 5C15.1388 5 15.1129 5 15.087 5C15.0611 5 15.0352 5 15.0093 5C14.9834 5 14.9576 5 14.9317 5C14.9059 5 14.8801 5 14.8543 5C14.8285 5 14.8027 5 14.7769 5C14.7512 5 14.7254 5 14.6997 5C14.6739 5 14.6482 5 14.6225 5C14.5968 5 14.5712 5 14.5455 5C14.5198 5 14.4942 5 14.4686 5C14.4429 5 14.4173 5 14.3918 5C14.3662 5 14.3406 5 14.315 5C14.2895 5 14.264 5 14.2384 5C14.2129 5 14.1874 5 14.162 5C14.1365 5 14.111 5 14.0856 5C14.0601 5 14.0347 5 14.0093 5C13.9839 5 13.9585 5 13.9332 5C13.9078 5 13.8825 5 13.8572 5C13.8318 5 13.8065 5 13.7812 5C13.756 5 13.7307 5 13.7055 5C13.6802 5 13.655 5 13.6298 5C13.6046 5 13.5794 5 13.5542 5C13.5291 5 13.5039 5 13.4788 5C13.4537 5 13.4286 5 13.4035 5C13.3784 5 13.3533 5 13.3283 5C13.3033 5 13.2782 5 13.2532 5C13.2282 5 13.2033 5 13.1783 5C13.1533 5 13.1284 5 13.1035 5C13.0786 5 13.0537 5 13.0288 5C13.0039 5 12.9791 5 12.9543 5C12.9294 5 12.9046 5 12.8798 5C12.855 5 12.8303 5 12.8055 5C12.7808 5 12.7561 5 12.7314 5C12.7067 5 12.682 5 12.6573 5C12.6327 5 12.6081 5 12.5834 5C12.5588 5 12.5342 5 12.5097 5C12.4851 5 12.4606 5 12.4361 5C12.4115 5 12.387 5 12.3626 5C12.3381 5 12.3136 5 12.2892 5C12.2648 5 12.2404 5 12.216 5C12.1916 5 12.1672 5 12.1429 5C12.1186 5 12.0943 5 12.07 5C12.0457 5 12.0214 5 11.9972 5C11.9729 5 11.9487 5 11.9245 5C11.9003 5 11.8762 5 11.852 5C11.8279 5 11.8038 5 11.7797 5C11.7556 5 11.7315 5 11.7074 5C11.6834 5 11.6594 5 11.6354 5C11.6114 5 11.5874 5 11.5634 5C11.5395 5 11.5156 5 11.4917 5C11.4678 5 11.4439 5 11.42 5C11.3962 5 11.3724 5 11.3485 5C11.3247 5 11.301 5 11.2772 5C11.2535 5 11.2297 5 11.206 5C11.1824 5 11.1587 5 11.135 5C11.1114 5 11.0878 5 11.0642 5C11.0406 5 11.017 5 10.9935 5C10.9699 5 10.9464 5 10.9229 5C10.8994 5 10.8759 5 10.8525 5C10.8291 5 10.8057 5 10.7823 5C10.7589 5 10.7355 5 10.7122 5C10.6889 5 10.6655 5 10.6423 5C10.619 5 10.5957 5 10.5725 5C10.5493 5 10.5261 5 10.5029 5C10.4797 5 10.4566 5 10.4335 5C10.4104 5 10.3873 5 10.3642 5C10.3412 5 10.3181 5 10.2951 5C10.2721 5 10.2491 5 10.2262 5C10.2032 5 10.1803 5 10.1574 5C10.1345 5 10.1117 5 10.0888 5C10.066 5 10.0432 5 10.0204 5C9.99762 5 9.97487 5 9.95214 5C9.92942 5 9.90672 5 9.88406 5C9.86139 5 9.83875 5 9.81614 5C9.79354 5 9.77096 5 9.74841 5C9.72585 5 9.70333 5 9.68084 5C9.65835 5 9.63589 5 9.61345 5C9.59102 5 9.56861 5 9.54624 5C9.52386 5 9.50152 5 9.47921 5C9.45689 5 9.4346 5 9.41235 5C9.39009 5 9.36787 5 9.34567 5C9.32348 5 9.30131 5 9.27918 5C9.25704 5 9.23494 5 9.21286 5C9.19079 5 9.16875 5 9.14673 5C9.12472 5 9.10274 5 9.08078 5C9.05883 5 9.03691 5 9.01502 5C8.99313 5 8.97127 5 8.94945 5C8.92762 5 8.90582 5 8.88406 5C8.86229 5 8.84056 5 8.81885 5C8.79715 5 8.77548 5 8.75384 5C8.7322 5 8.71059 5 8.68902 5C8.66744 5 8.6459 5 8.62438 5C8.60287 5 8.58139 5 8.55994 5C8.53849 5 8.51708 5 8.49569 5C8.47431 5 8.45296 5 8.43164 5C8.41032 5 8.38903 5 8.36778 5C8.34652 5 8.3253 5 8.30411 5C8.28293 5 8.26177 5 8.24065 5C8.21952 5 8.19843 5 8.17738 5C8.15632 5 8.1353 5 8.11431 5C8.09332 5 8.07236 5 8.05144 5C8.03051 5 8.00962 5 7.98877 5C7.96791 5 7.94709 5 7.9263 5C7.90551 5 7.88475 5 7.86403 5C7.84331 5 7.82262 5 7.80197 5C7.78132 5 7.7607 5 7.74012 5C7.71953 5 7.69898 5 7.67846 5C7.65795 5 7.63747 5 7.61702 5C7.59657 5 7.57616 5 7.55579 5C7.53541 5 7.51507 5 7.49476 5C7.47445 5 7.45418 5 7.43394 5C7.4137 5 7.3935 5 7.37334 5C7.35317 5 7.33304 5 7.31294 5C7.29285 5 7.27279 5 7.25276 5C7.23274 5 7.21275 5 7.19279 5C7.17284 5 7.15292 5 7.13304 5C7.11316 5 7.09332 5 7.07351 5C7.0537 5 7.03392 5 7.01419 5C6.99445 5 6.97475 5 6.95509 5C6.93542 5 6.91579 5 6.8962 5C6.87661 5 6.85706 5 6.83754 5C6.81802 5 6.79854 5 6.7791 5C6.75966 5 6.74025 5 6.72088 5C6.70151 5 6.68218 5 6.66289 5C6.64359 5 6.62433 5 6.60511 5C6.58589 5 6.56671 5 6.54757 5C6.52842 5 6.50932 5 6.49025 5C6.47118 5 6.45215 5 6.43315 5C6.41416 5 6.3952 5 6.37629 5C6.35737 5 6.33849 5 6.31965 5C6.30081 5 6.28201 5 6.26324 5C6.24448 5 6.22576 5 6.20707 5C6.18838 5 6.16973 5 6.15113 5C6.13252 5 6.11395 5 6.09542 5C6.07689 5 6.05839 5 6.03994 5C6.02149 5 6.00307 5 5.9847 5C5.96633 5 5.94799 5 5.92969 5C5.9114 5 5.89314 5 5.87493 5C5.85671 5 5.83853 5 5.8204 5C5.80226 5 5.78416 5 5.76611 5C5.74805 5 5.73003 5 5.71206 5C5.69408 5 5.67615 5 5.65825 5C5.64035 5 5.6225 5 5.60468 5C5.58687 5 5.56909 5 5.55136 5C5.53363 5 5.51593 5 5.49828 5C5.48063 5 5.46302 5 5.44545 5C5.42788 5 5.41035 5 5.39286 5C5.37537 5 5.35792 5 5.34052 5C5.32311 5 5.30575 5 5.28843 5C5.2711 5 5.25382 5 5.23658 5C5.21934 5 5.20215 5 5.18499 5C5.16783 5 5.15072 5 5.13365 5C5.11658 5 5.09955 5 5.08256 5C5.06557 5 5.04863 5 5.03172 5C5.01482 5 4.99796 5 4.98114 5C4.96432 5 4.94755 5 4.93082 5C4.91408 5 4.89739 5 4.88075 5C4.8641 5 4.8475 5 4.83093 5C4.81437 5 4.79785 5 4.78138 5C4.7649 5 4.74847 5 4.73208 5C4.7157 5 4.69935 5 4.68305 5C4.66675 5 4.65049 5 4.63428 5C4.61806 5 4.60189 5 4.58577 5C4.56964 5 4.55356 5 4.53752 5C4.52148 5 4.50549 5 4.48954 5C4.47359 5 4.45768 5 4.44182 5C4.42596 5 4.41014 5 4.39437 5C4.37859 5 4.36287 5 4.34718 5C4.3315 5 4.31586 5 4.30027 5C4.28467 5 4.26912 5 4.25362 5C4.23812 5 4.22266 5 4.20725 5C4.19183 5 4.17646 5 4.16114 5C4.14582 5 4.13054 5 4.11531 5C4.10008 5 4.08489 5 4.06975 5C4.05461 5 4.03952 5 4.02447 5C4.00942 5 3.99442 5 3.97946 5C3.9645 5 3.94959 5 3.93473 5C3.91986 5 3.90504 5 3.89027 5C3.8755 5 3.86078 5 3.8461 5C3.83142 5 3.81679 5 3.8022 5C3.78761 5 3.77308 5 3.75858 5C3.74409 5 3.72965 5 3.71525 5C3.70085 5 3.6865 5 3.6722 5C3.65789 5 3.64364 5 3.62943 5C3.61522 5 3.60106 5 3.58695 5C3.57283 5 3.55877 5 3.54475 5C3.53073 5 3.51676 5 3.50284 5C3.48891 5 3.47504 5 3.46121 5C3.44739 5 3.43361 5 3.41988 5C3.40615 5 3.39246 5 3.37883 5C3.3652 5 3.35161 5 3.33808 5C3.32454 5 3.31105 5 3.29761 5C3.28417 5 3.27078 5 3.25744 5C3.2441 5 3.23081 5 3.21756 5C3.20432 5 3.19113 5 3.17798 5C3.16483 5 3.15174 5 3.13869 5C3.12565 5 3.11265 5 3.0997 5C3.08676 5 3.07386 5 3.06101 5C3.04816 5 3.03536 5 3.02261 5C3.00987 5 2.99717 5 2.98452 5C2.97187 5 2.95927 5 2.94673 5C2.93418 5 2.92168 5 2.90923 5C2.89679 5 2.88439 5 2.87204 5C2.8597 5 2.8474 5 2.83516 5C2.82291 5 2.81072 5 2.79858 5C2.78644 5 2.77434 5 2.7623 5C2.75026 5 2.73827 5 2.72633 5C2.7144 5 2.70251 5 2.69067 5C2.67884 5 2.66705 5 2.65532 5C2.64359 5 2.63191 5 2.62028 5C2.60865 5 2.59707 5 2.58555 5C2.57402 5 2.56255 5 2.55113 5C2.53971 5 2.52834 5 2.51702 5C2.5057 5 2.49444 5 2.48323 5C2.47201 5 2.46085 5 2.44975 5C2.43864 5 2.42759 5 2.41658 5C2.40558 5 2.39463 5 2.38374 5C2.37284 5 2.362 5 2.35121 5C2.34042 5 2.32968 5 2.319 5C2.30832 5 2.29769 5 2.28711 5C2.27654 5 2.26601 5 2.25554 5C2.24507 5 2.23466 5 2.2243 5C2.21393 5 2.20363 5 2.19337 5C2.18312 5 2.17292 5 2.16277 5C2.15263 5 2.14254 5 2.1325 5C2.12246 5 2.11248 5 2.10255 5C2.09262 5 2.08275 5 2.07293 5C2.06311 5 2.05334 5 2.04363 5C2.03392 5 2.02427 5 2.01467 5C2.00507 5 1.99552 5 1.98603 5C1.97654 5 1.96711 5 1.95773 5C1.94835 5 1.93902 5 1.92975 5C1.92048 5 1.91127 5 1.90211 5C1.89296 5 1.88385 5 1.87481 5C1.86576 5 1.85677 5 1.84784 5C1.8389 5 1.83002 5 1.8212 5C1.81238 5 1.80361 5 1.7949 5C1.78619 5 1.77754 5 1.76894 5C1.76035 5 1.75181 5 1.74332 5C1.73484 5 1.72641 5 1.71804 5C1.70967 5 1.70136 5 1.6931 5C1.68484 5 1.67665 5 1.6685 5C1.66036 5 1.65228 5 1.64425 5C1.63622 5 1.62825 5 1.62034 5C1.61242 5 1.60457 5 1.59677 5C1.58897 5 1.58123 5 1.57355 5C1.56587 5 1.55825 5 1.55068 5C1.54311 5 1.5356 5 1.52815 5C1.5207 5 1.51331 5 1.50598 5C1.49864 5 1.49137 5 1.48415 5C1.47694 5 1.46978 5 1.46268 5C1.45558 5 1.44854 5 1.44156 5C1.43457 5 1.42765 5 1.42079 5C1.41392 5 1.40712 5 1.40037 5C1.39363 5 1.38694 5 1.38031 5C1.37368 5 1.36712 5 1.36061 5C1.3541 5 1.34765 5 1.34126 5C1.33487 5 1.32854 5 1.32227 5C1.316 5 1.30979 5 1.30364 5C1.29749 5 1.2914 5 1.28537 5C1.27934 5 1.27337 5 1.26747 5C1.26156 5 1.25571 5 1.24992 5C1.24413 5 1.2384 5 1.23274 5C1.22707 5 1.22146 5 1.21592 5C1.21037 5 1.20489 5 1.19947 5C1.19404 5 1.18868 5 1.18338 5C1.17808 5 1.17284 5 1.16766 5C1.16248 5 1.15736 5 1.15231 5C1.14725 5 1.14226 5 1.13732 5C1.13239 5 1.12752 5 1.12271 5C1.1179 5 1.11316 5 1.10847 5C1.10379 5 1.09916 5 1.0946 5C1.09004 5 1.08554 5 1.08111 5C1.07667 5 1.0723 5 1.06799 5C1.06368 5 1.05943 5 1.05524 5C1.05105 5 1.04693 5 1.04287 5C1.03881 5 1.03481 5 1.03088 5C1.02694 5 1.02307 5 1.01926 5C1.01546 5 1.01171 5 1.00803 5C1.00435 5 1.00073 5 0.997176 5C0.993622 5 0.990131 5 0.986703 5C0.983276 5 0.979913 5 0.976613 5C0.973313 5 0.970077 5 0.966906 5C0.963734 5 0.960626 5 0.957583 5C0.954539 5 0.95156 5 0.948645 5C0.945731 5 0.94288 5 0.940094 5C0.937309 5 0.934587 5 0.931931 5C0.929274 5 0.926682 5 0.924156 5C0.921629 5 0.919167 5 0.91677 5C0.914373 5 0.912041 5 0.909774 5C0.907508 5 0.905306 5 0.90317 5C0.901034 5 0.898964 5 0.896959 5C0.894954 5 0.893014 5 0.891141 5C0.889267 5 0.887459 5 0.885717 5C0.883975 5 0.882299 5 0.880689 5C0.879079 5 0.877535 5 0.876057 5C0.874579 5 0.873168 5 0.871823 5C0.870478 5 0.869199 5 0.867987 5C0.866775 5 0.865629 5 0.86455 5C0.863472 5 0.86246 5 0.861515 5C0.86057 5 0.859691 5 0.85888 5C0.858069 5 0.857325 5 0.856649 5C0.855972 5 0.855362 5 0.85482 5C0.854278 5 0.853804 5 0.853396 5C0.852989 5 0.85265 5 0.852378 5C0.852107 5 0.851903 5 0.851767 5C0.851631 5 0.851562 5 0.851562 6C0.851562 7 0.851631 7 0.851767 7C0.851903 7 0.852107 7 0.852378 7C0.85265 7 0.852989 7 0.853396 7C0.853804 7 0.854278 7 0.85482 7C0.855362 7 0.855972 7 0.856649 7C0.857325 7 0.858069 7 0.85888 7C0.859691 7 0.86057 7 0.861515 7C0.86246 7 0.863472 7 0.86455 7C0.865629 7 0.866775 7 0.867987 7C0.869199 7 0.870478 7 0.871823 7C0.873168 7 0.874579 7 0.876057 7C0.877535 7 0.879079 7 0.880689 7C0.882299 7 0.883975 7 0.885717 7C0.887459 7 0.889267 7 0.891141 7C0.893014 7 0.894954 7 0.896959 7C0.898964 7 0.901034 7 0.90317 7C0.905306 7 0.907508 7 0.909774 7C0.912041 7 0.914373 7 0.91677 7C0.919167 7 0.921629 7 0.924156 7C0.926682 7 0.929274 7 0.931931 7C0.934587 7 0.937309 7 0.940094 7C0.94288 7 0.945731 7 0.948645 7C0.95156 7 0.954539 7 0.957583 7C0.960626 7 0.963734 7 0.966906 7C0.970077 7 0.973313 7 0.976613 7C0.979913 7 0.983276 7 0.986703 7C0.990131 7 0.993622 7 0.997176 7C1.00073 7 1.00435 7 1.00803 7C1.01171 7 1.01546 7 1.01926 7C1.02307 7 1.02694 7 1.03088 7C1.03481 7 1.03881 7 1.04287 7C1.04693 7 1.05105 7 1.05524 7C1.05943 7 1.06368 7 1.06799 7C1.0723 7 1.07667 7 1.08111 7C1.08554 7 1.09004 7 1.0946 7C1.09916 7 1.10379 7 1.10847 7C1.11316 7 1.1179 7 1.12271 7C1.12752 7 1.13239 7 1.13732 7C1.14226 7 1.14725 7 1.15231 7C1.15736 7 1.16248 7 1.16766 7C1.17284 7 1.17808 7 1.18338 7C1.18868 7 1.19404 7 1.19947 7C1.20489 7 1.21037 7 1.21592 7C1.22146 7 1.22707 7 1.23274 7C1.2384 7 1.24413 7 1.24992 7C1.25571 7 1.26156 7 1.26747 7C1.27337 7 1.27934 7 1.28537 7C1.2914 7 1.29749 7 1.30364 7C1.30979 7 1.316 7 1.32227 7C1.32854 7 1.33487 7 1.34126 7C1.34765 7 1.3541 7 1.36061 7C1.36712 7 1.37368 7 1.38031 7C1.38694 7 1.39363 7 1.40037 7C1.40712 7 1.41392 7 1.42079 7C1.42765 7 1.43457 7 1.44156 7C1.44854 7 1.45558 7 1.46268 7C1.46978 7 1.47694 7 1.48415 7C1.49137 7 1.49864 7 1.50598 7C1.51331 7 1.5207 7 1.52815 7C1.5356 7 1.54311 7 1.55068 7C1.55825 7 1.56587 7 1.57355 7C1.58123 7 1.58897 7 1.59677 7C1.60457 7 1.61242 7 1.62034 7C1.62825 7 1.63622 7 1.64425 7C1.65228 7 1.66036 7 1.6685 7C1.67665 7 1.68484 7 1.6931 7C1.70136 7 1.70967 7 1.71804 7C1.72641 7 1.73484 7 1.74332 7C1.75181 7 1.76035 7 1.76894 7C1.77754 7 1.78619 7 1.7949 7C1.80361 7 1.81238 7 1.8212 7C1.83002 7 1.8389 7 1.84784 7C1.85677 7 1.86576 7 1.87481 7C1.88385 7 1.89296 7 1.90211 7C1.91127 7 1.92048 7 1.92975 7C1.93902 7 1.94835 7 1.95773 7C1.96711 7 1.97654 7 1.98603 7C1.99552 7 2.00507 7 2.01467 7C2.02427 7 2.03392 7 2.04363 7C2.05334 7 2.06311 7 2.07293 7C2.08275 7 2.09262 7 2.10255 7C2.11248 7 2.12246 7 2.1325 7C2.14254 7 2.15263 7 2.16277 7C2.17292 7 2.18312 7 2.19337 7C2.20363 7 2.21393 7 2.2243 7C2.23466 7 2.24507 7 2.25554 7C2.26601 7 2.27654 7 2.28711 7C2.29769 7 2.30832 7 2.319 7C2.32968 7 2.34042 7 2.35121 7C2.362 7 2.37284 7 2.38374 7C2.39463 7 2.40558 7 2.41658 7C2.42759 7 2.43864 7 2.44975 7C2.46085 7 2.47201 7 2.48323 7C2.49444 7 2.5057 7 2.51702 7C2.52834 7 2.53971 7 2.55113 7C2.56255 7 2.57402 7 2.58555 7C2.59707 7 2.60865 7 2.62028 7C2.63191 7 2.64359 7 2.65532 7C2.66705 7 2.67884 7 2.69067 7C2.70251 7 2.7144 7 2.72633 7C2.73827 7 2.75026 7 2.7623 7C2.77434 7 2.78644 7 2.79858 7C2.81072 7 2.82291 7 2.83516 7C2.8474 7 2.8597 7 2.87204 7C2.88439 7 2.89679 7 2.90923 7C2.92168 7 2.93418 7 2.94673 7C2.95927 7 2.97187 7 2.98452 7C2.99717 7 3.00987 7 3.02261 7C3.03536 7 3.04816 7 3.06101 7C3.07386 7 3.08676 7 3.0997 7C3.11265 7 3.12565 7 3.13869 7C3.15174 7 3.16483 7 3.17798 7C3.19113 7 3.20432 7 3.21756 7C3.23081 7 3.2441 7 3.25744 7C3.27078 7 3.28417 7 3.29761 7C3.31105 7 3.32454 7 3.33808 7C3.35161 7 3.3652 7 3.37883 7C3.39246 7 3.40615 7 3.41988 7C3.43361 7 3.44739 7 3.46121 7C3.47504 7 3.48891 7 3.50284 7C3.51676 7 3.53073 7 3.54475 7C3.55877 7 3.57283 7 3.58695 7C3.60106 7 3.61522 7 3.62943 7C3.64364 7 3.65789 7 3.6722 7C3.6865 7 3.70085 7 3.71525 7C3.72965 7 3.74409 7 3.75858 7C3.77308 7 3.78761 7 3.8022 7C3.81679 7 3.83142 7 3.8461 7C3.86078 7 3.8755 7 3.89027 7C3.90504 7 3.91986 7 3.93473 7C3.94959 7 3.9645 7 3.97946 7C3.99442 7 4.00942 7 4.02447 7C4.03952 7 4.05461 7 4.06975 7C4.08489 7 4.10008 7 4.11531 7C4.13054 7 4.14582 7 4.16114 7C4.17646 7 4.19183 7 4.20725 7C4.22266 7 4.23812 7 4.25362 7C4.26912 7 4.28467 7 4.30027 7C4.31586 7 4.3315 7 4.34718 7C4.36287 7 4.37859 7 4.39437 7C4.41014 7 4.42596 7 4.44182 7C4.45768 7 4.47359 7 4.48954 7C4.50549 7 4.52148 7 4.53752 7C4.55356 7 4.56964 7 4.58577 7C4.60189 7 4.61806 7 4.63428 7C4.65049 7 4.66675 7 4.68305 7C4.69935 7 4.7157 7 4.73208 7C4.74847 7 4.7649 7 4.78138 7C4.79785 7 4.81437 7 4.83093 7C4.8475 7 4.8641 7 4.88075 7C4.89739 7 4.91408 7 4.93082 7C4.94755 7 4.96432 7 4.98114 7C4.99796 7 5.01482 7 5.03172 7C5.04863 7 5.06557 7 5.08256 7C5.09955 7 5.11658 7 5.13365 7C5.15072 7 5.16783 7 5.18499 7C5.20215 7 5.21934 7 5.23658 7C5.25382 7 5.2711 7 5.28843 7C5.30575 7 5.32311 7 5.34052 7C5.35792 7 5.37537 7 5.39286 7C5.41035 7 5.42788 7 5.44545 7C5.46302 7 5.48063 7 5.49828 7C5.51593 7 5.53363 7 5.55136 7C5.56909 7 5.58687 7 5.60468 7C5.6225 7 5.64035 7 5.65825 7C5.67615 7 5.69408 7 5.71206 7C5.73003 7 5.74805 7 5.76611 7C5.78416 7 5.80226 7 5.8204 7C5.83853 7 5.85671 7 5.87493 7C5.89314 7 5.9114 7 5.92969 7C5.94799 7 5.96633 7 5.9847 7C6.00307 7 6.02149 7 6.03994 7C6.05839 7 6.07689 7 6.09542 7C6.11395 7 6.13252 7 6.15113 7C6.16973 7 6.18838 7 6.20707 7C6.22576 7 6.24448 7 6.26324 7C6.28201 7 6.30081 7 6.31965 7C6.33849 7 6.35737 7 6.37629 7C6.3952 7 6.41416 7 6.43315 7C6.45215 7 6.47118 7 6.49025 7C6.50932 7 6.52842 7 6.54757 7C6.56671 7 6.58589 7 6.60511 7C6.62433 7 6.64359 7 6.66289 7C6.68218 7 6.70151 7 6.72088 7C6.74025 7 6.75966 7 6.7791 7C6.79854 7 6.81802 7 6.83754 7C6.85706 7 6.87661 7 6.8962 7C6.91579 7 6.93542 7 6.95509 7C6.97475 7 6.99445 7 7.01419 7C7.03392 7 7.0537 7 7.07351 7C7.09332 7 7.11316 7 7.13304 7C7.15292 7 7.17284 7 7.19279 7C7.21275 7 7.23274 7 7.25276 7C7.27279 7 7.29285 7 7.31294 7C7.33304 7 7.35317 7 7.37334 7C7.3935 7 7.4137 7 7.43394 7C7.45418 7 7.47445 7 7.49476 7C7.51507 7 7.53541 7 7.55579 7C7.57616 7 7.59657 7 7.61702 7C7.63747 7 7.65795 7 7.67846 7C7.69898 7 7.71953 7 7.74012 7C7.7607 7 7.78132 7 7.80197 7C7.82262 7 7.84331 7 7.86403 7C7.88475 7 7.90551 7 7.9263 7C7.94709 7 7.96791 7 7.98877 7C8.00962 7 8.03051 7 8.05144 7C8.07236 7 8.09332 7 8.11431 7C8.1353 7 8.15632 7 8.17738 7C8.19843 7 8.21952 7 8.24065 7C8.26177 7 8.28293 7 8.30411 7C8.3253 7 8.34652 7 8.36778 7C8.38903 7 8.41032 7 8.43164 7C8.45296 7 8.47431 7 8.49569 7C8.51708 7 8.53849 7 8.55994 7C8.58139 7 8.60287 7 8.62438 7C8.6459 7 8.66744 7 8.68902 7C8.71059 7 8.7322 7 8.75384 7C8.77548 7 8.79715 7 8.81885 7C8.84056 7 8.86229 7 8.88406 7C8.90582 7 8.92762 7 8.94945 7C8.97127 7 8.99313 7 9.01502 7C9.03691 7 9.05883 7 9.08078 7C9.10274 7 9.12472 7 9.14673 7C9.16875 7 9.19079 7 9.21286 7C9.23494 7 9.25704 7 9.27918 7C9.30131 7 9.32348 7 9.34567 7C9.36787 7 9.39009 7 9.41235 7C9.4346 7 9.45689 7 9.47921 7C9.50152 7 9.52386 7 9.54624 7C9.56861 7 9.59102 7 9.61345 7C9.63589 7 9.65835 7 9.68084 7C9.70333 7 9.72585 7 9.74841 7C9.77096 7 9.79354 7 9.81614 7C9.83875 7 9.86139 7 9.88406 7C9.90672 7 9.92942 7 9.95214 7C9.97487 7 9.99762 7 10.0204 7C10.0432 7 10.066 7 10.0888 7C10.1117 7 10.1345 7 10.1574 7C10.1803 7 10.2032 7 10.2262 7C10.2491 7 10.2721 7 10.2951 7C10.3181 7 10.3412 7 10.3642 7C10.3873 7 10.4104 7 10.4335 7C10.4566 7 10.4797 7 10.5029 7C10.5261 7 10.5493 7 10.5725 7C10.5957 7 10.619 7 10.6423 7C10.6655 7 10.6889 7 10.7122 7C10.7355 7 10.7589 7 10.7823 7C10.8057 7 10.8291 7 10.8525 7C10.8759 7 10.8994 7 10.9229 7C10.9464 7 10.9699 7 10.9935 7C11.017 7 11.0406 7 11.0642 7C11.0878 7 11.1114 7 11.135 7C11.1587 7 11.1824 7 11.206 7C11.2297 7 11.2535 7 11.2772 7C11.301 7 11.3247 7 11.3485 7C11.3724 7 11.3962 7 11.42 7C11.4439 7 11.4678 7 11.4917 7C11.5156 7 11.5395 7 11.5634 7C11.5874 7 11.6114 7 11.6354 7C11.6594 7 11.6834 7 11.7074 7C11.7315 7 11.7556 7 11.7797 7C11.8038 7 11.8279 7 11.852 7C11.8762 7 11.9003 7 11.9245 7C11.9487 7 11.9729 7 11.9972 7C12.0214 7 12.0457 7 12.07 7C12.0943 7 12.1186 7 12.1429 7C12.1672 7 12.1916 7 12.216 7C12.2404 7 12.2648 7 12.2892 7C12.3136 7 12.3381 7 12.3626 7C12.387 7 12.4115 7 12.4361 7C12.4606 7 12.4851 7 12.5097 7C12.5342 7 12.5588 7 12.5834 7C12.6081 7 12.6327 7 12.6573 7C12.682 7 12.7067 7 12.7314 7C12.7561 7 12.7808 7 12.8055 7C12.8303 7 12.855 7 12.8798 7C12.9046 7 12.9294 7 12.9543 7C12.9791 7 13.0039 7 13.0288 7C13.0537 7 13.0786 7 13.1035 7C13.1284 7 13.1533 7 13.1783 7C13.2033 7 13.2282 7 13.2532 7C13.2782 7 13.3033 7 13.3283 7C13.3533 7 13.3784 7 13.4035 7C13.4286 7 13.4537 7 13.4788 7C13.5039 7 13.5291 7 13.5542 7C13.5794 7 13.6046 7 13.6298 7C13.655 7 13.6802 7 13.7055 7C13.7307 7 13.756 7 13.7812 7C13.8065 7 13.8318 7 13.8572 7C13.8825 7 13.9078 7 13.9332 7C13.9585 7 13.9839 7 14.0093 7C14.0347 7 14.0601 7 14.0856 7C14.111 7 14.1365 7 14.162 7C14.1874 7 14.2129 7 14.2384 7C14.264 7 14.2895 7 14.315 7C14.3406 7 14.3662 7 14.3918 7C14.4173 7 14.4429 7 14.4686 7C14.4942 7 14.5198 7 14.5455 7C14.5712 7 14.5968 7 14.6225 7C14.6482 7 14.6739 7 14.6997 7C14.7254 7 14.7512 7 14.7769 7C14.8027 7 14.8285 7 14.8543 7C14.8801 7 14.9059 7 14.9317 7C14.9576 7 14.9834 7 15.0093 7C15.0352 7 15.0611 7 15.087 7C15.1129 7 15.1388 7 15.1647 7C15.1907 7 15.2166 7 15.2426 7C15.2686 7 15.2946 7 15.3206 7C15.3466 7 15.3726 7 15.3986 7C15.4247 7 15.4507 7 15.4768 7C15.5029 7 15.5289 7 15.555 7C15.5811 7 15.6073 7 15.6334 7C15.6595 7 15.6857 7 15.7118 7C15.738 7 15.7642 7 15.7904 7C15.8166 7 15.8428 7 15.869 7C15.8952 7 15.9215 7 15.9477 7C15.974 7 16.0002 7 16.0265 7C16.0528 7 16.0791 7 16.1054 7C16.1317 7 16.1581 7 16.1844 7C16.2108 7 16.2371 7 16.2635 7C16.2899 7 16.3162 7 16.3426 7C16.369 7 16.3955 7 16.4219 7C16.4483 7 16.4748 7 16.5012 7C16.5277 7 16.5541 7 16.5806 7C16.6071 7 16.6336 7 16.6601 7C16.6866 7 16.7132 7 16.7397 7C16.7662 7 16.7928 7 16.8193 7C16.8459 7 16.8725 7 16.8991 7C16.9257 7 16.9523 7 16.9789 7C17.0055 7 17.0321 7 17.0588 7C17.0854 7 17.1121 7 17.1387 7C17.1654 7 17.1921 7 17.2188 7C17.2455 7 17.2722 7 17.2989 7C17.3256 7 17.3523 7 17.3791 7C17.4058 7 17.4326 7 17.4593 7C17.4861 7 17.5129 7 17.5397 7C17.5664 7 17.5932 7 17.6201 7C17.6469 7 17.6737 7 17.7005 7C17.7274 7 17.7542 7 17.7811 7C17.8079 7 17.8348 7 17.8617 7C17.8885 7 17.9154 7 17.9423 7C17.9692 7 17.9961 7 18.0231 7C18.05 7 18.0769 7 18.1038 7C18.1308 7 18.1577 7 18.1847 7C18.2117 7 18.2386 7 18.2656 7C18.2926 7 18.3196 7 18.3466 7C18.3736 7 18.4006 7 18.4276 7C18.4547 7 18.4817 7 18.5087 7C18.5358 7 18.5628 7 18.5899 7C18.617 7 18.644 7 18.6711 7C18.6982 7 18.7253 7 18.7524 7C18.7795 7 18.8066 7 18.8337 7C18.8608 7 18.8879 7 18.9151 7C18.9422 7 18.9694 7 18.9965 7C19.0237 7 19.0508 7 19.078 7C19.1052 7 19.1323 7 19.1595 7C19.1867 7 19.2139 7 19.2411 7C19.2683 7 19.2955 7 19.3227 7C19.3499 7 19.3772 7 19.4044 7C19.4316 7 19.4589 7 19.4861 7C19.5134 7 19.5406 7 19.5679 7C19.5952 7 19.6224 7 19.6497 7C19.677 7 19.7043 7 19.7316 7C19.7589 7 19.7862 7 19.8135 7C19.8408 7 19.8681 7 19.8954 7C19.9227 7 19.9501 7 19.9774 7C20.0047 7 20.0321 7 20.0594 7C20.0868 7 20.1141 7 20.1415 7C20.1688 7 20.1962 7 20.2236 7C20.2509 7 20.2783 7 20.3057 7C20.3331 7 20.3605 7 20.3879 7C20.4153 7 20.4427 7 20.4701 7C20.4975 7 20.5249 7 20.5523 7C20.5797 7 20.6072 7 20.6346 7C20.662 7 20.6894 7 20.7169 7C20.7443 7 20.7718 7 20.7992 7C20.8267 7 20.8541 7 20.8816 7C20.909 7 20.9365 7 20.964 7C20.9914 7 21.0189 7 21.0464 7C21.0739 7 21.1013 7 21.1288 7C21.1563 7 21.1838 7 21.2113 7C21.2388 7 21.2663 7 21.2938 7C21.3213 7 21.3488 7 21.3763 7C21.4038 7 21.4313 7 21.4589 7C21.4864 7 21.5139 7 21.5414 7C21.5689 7 21.5965 7 21.624 7C21.6515 7 21.6791 7 21.7066 7C21.7341 7 21.7617 7 21.7892 7C21.8168 7 21.8443 7 21.8718 7C21.8994 7 21.9269 7 21.9545 7C21.9821 7 22.0096 7 22.0372 7C22.0647 7 22.0923 7 22.1199 7C22.1474 7 22.175 7 22.2025 7C22.2301 7 22.2577 7 22.2853 7C22.3128 7 22.3404 7 22.368 7C22.3955 7 22.4231 7 22.4507 7C22.4783 7 22.5059 7 22.5334 7C22.561 7 22.5886 7 22.6162 7C22.6438 7 22.6714 7 22.6989 7C22.7265 7 22.7541 7 22.7817 7C22.8093 7 22.8369 7 22.8645 7C22.8921 7 22.9196 7 22.9472 7C22.9748 7 23.0024 7 23.03 7C23.0576 7 23.0852 7 23.1128 7C23.1404 7 23.168 7 23.1956 7C23.2232 7 23.2508 7 23.2783 7C23.3059 7 23.3335 7 23.3611 7C23.3887 7 23.4163 7 23.4439 7C23.4715 7 23.4991 7 23.5267 7C23.5543 7 23.5818 7 23.6094 7C23.637 7 23.6646 7 23.6922 7C23.7198 7 23.7474 7 23.775 7C23.8025 7 23.8301 7 23.8577 7C23.8853 7 23.9129 7 23.9404 7C23.968 7 23.9956 7 24.0232 7C24.0508 7 24.0783 7 24.1059 7C24.1335 7 24.161 7 24.1886 7C24.2162 7 24.2438 7 24.2713 7C24.2989 7 24.3264 7 24.354 7C24.3816 7 24.4091 7 24.4367 7C24.4642 7 24.4918 7 24.5193 7C24.5469 7 24.5744 7 24.602 7C24.6295 7 24.6571 7 24.6846 7C24.7121 7 24.7397 7 24.7672 7C24.7947 7 24.8223 7 24.8498 7C24.8773 7 24.9049 7 24.9324 7C24.9599 7 24.9874 7 25.0149 7C25.0424 7 25.0699 7 25.0975 7C25.125 7 25.1525 7 25.18 7C25.2075 7 25.2349 7 25.2624 7C25.2899 7 25.3174 7 25.3449 7C25.3724 7 25.3998 7 25.4273 7C25.4548 7 25.4823 7 25.5097 7C25.5372 7 25.5646 7 25.5921 7C25.6195 7 25.647 7 25.6744 7C25.7019 7 25.7293 7 25.7568 7C25.7842 7 25.8116 7 25.839 7C25.8665 7 25.8939 7 25.9213 7C25.9487 7 25.9761 7 26.0035 7C26.0309 7 26.0583 7 26.0857 7C26.1131 7 26.1405 7 26.1678 7C26.1952 7 26.2226 7 26.25 7C26.2773 7 26.3047 7 26.332 7C26.3594 7 26.3867 7 26.4141 7C26.4414 7 26.4687 7 26.4961 7C26.5234 7 26.5507 7 26.578 7C26.6053 7 26.6326 7 26.6599 7C26.6872 7 26.7145 7 26.7418 7C26.7691 7 26.7964 7 26.8236 7C26.8509 7 26.8782 7 26.9054 7C26.9327 7 26.9599 7 26.9872 7C27.0144 7 27.0417 7 27.0689 7C27.0961 7 27.1233 7 27.1505 7C27.1777 7 27.2049 7 27.2321 7C27.2593 7 27.2865 7 27.3137 7C27.3409 7 27.368 7 27.3952 7C27.4223 7 27.4495 7 27.4766 7C27.5038 7 27.5309 7 27.558 7C27.5852 7 27.6123 7 27.6394 7C27.6665 7 27.6936 7 27.7207 7C27.7478 7 27.7748 7 27.8019 7C27.829 7 27.856 7 27.8831 7C27.9101 7 27.9372 7 27.9642 7C27.9912 7 28.0183 7 28.0453 7C28.0723 7 28.0993 7 28.1263 7C28.1533 7 28.1802 7 28.2072 7C28.2342 7 28.2612 7 28.2881 7C28.3151 7 28.342 7 28.3689 7C28.3959 7 28.4228 7 28.4497 7C28.4766 7 28.5035 7 28.5304 7C28.5573 7 28.5841 7 28.611 7C28.6379 7 28.6647 7 28.6916 7C28.7184 7 28.7452 7 28.7721 7C28.7989 7 28.8257 7 28.8525 7C28.8793 7 28.9061 7 28.9328 7C28.9596 7 28.9864 7 29.0131 7C29.0399 7 29.0666 7 29.0933 7C29.1201 7 29.1468 7 29.1735 7C29.2002 7 29.2269 7 29.2536 7C29.2802 7 29.3069 7 29.3335 7C29.3602 7 29.3868 7 29.4135 7C29.4401 7 29.4667 7 29.4933 7C29.5199 7 29.5465 7 29.5731 7C29.5996 7 29.6262 7 29.6528 7C29.6793 7 29.7058 7 29.7324 7C29.7589 7 29.7854 7 29.8119 7C29.8384 7 29.8649 7 29.8913 7C29.9178 7 29.9443 7 29.9707 7C29.9971 7 30.0236 7 30.05 7C30.0764 7 30.1028 7 30.1292 7C30.1556 7 30.1819 7 30.2083 7C30.2346 7 30.261 7 30.2873 7C30.3136 7 30.34 7 30.3662 7C30.3925 7 30.4188 7 30.4451 7C30.4714 7 30.4976 7 30.5239 7C30.5501 7 30.5763 7 30.6025 7C30.6287 7 30.6549 7 30.6811 7C30.7073 7 30.7334 7 30.7596 7C30.7857 7 30.8119 7 30.838 7C30.8641 7 30.8902 7 30.9163 7C30.9423 7 30.9684 7 30.9945 7C31.0205 7 31.0465 7 31.0726 7C31.0986 7 31.1246 7 31.1506 7C31.1766 7 31.2025 7 31.2285 7C31.2544 7 31.2804 7 31.3063 7C31.3322 7 31.3581 7 31.384 7C31.4099 7 31.4357 7 31.4616 7C31.4874 7 31.5133 7 31.5391 7C31.5649 7 31.5907 7 31.6165 7C31.6423 7 31.668 7 31.6938 7C31.7195 7 31.7453 7 31.771 7C31.7967 7 31.8224 7 31.8481 7V5Z" fill="#055A60"/>
</svg>
