<?xml version="1.0" encoding="UTF-8"?>
<svg width="30px" height="37px" viewBox="0 0 30 37" version="1.1" xmlns="http://www.w3.org/2000/svg" xmlns:xlink="http://www.w3.org/1999/xlink">
    <title>arrow-up-red-bg</title>
    <g id="arrow-up-red-bg" stroke="none" stroke-width="1" fill="none" fill-rule="evenodd">
        <g fill-rule="nonzero" id="Group">
            <g transform="translate(15.000000, 18.500000) rotate(-90.000000) translate(-15.000000, -18.500000) translate(-3.500000, 3.500000)">
                <rect id="Rectangle" fill="#055A60" x="0" y="0" width="37" height="30" rx="15"></rect>
                <path d="M18.5377675,10 C18.6207675,10 18.7027675,10.02 18.7777675,10.057 L26.7037675,14.02 C26.8853571,14.1110851 27,14.2968467 27,14.5 C27,14.7031533 26.8853571,14.8889149 26.7037675,14.98 L18.7777675,18.943 C18.6113656,19.0261345 18.4137918,19.0172328 18.2555402,18.9194712 C18.0972885,18.8217095 18.0009006,18.6490132 18.0007675,18.463 L18.0007675,15 L9.50076752,15 C9.24177844,15.0004768 9.02529317,14.8031084 9.00189225,14.5451782 C8.97849133,14.287248 9.1559214,14.0541413 9.41076752,14.008 L9.50076752,14 L18.0007675,14 L18.0007675,10.537 C18.0007675,10.27 18.1957675,10.049 18.4507675,10.007 L18.5377675,10 Z" id="Path" fill="#FFFFFF"></path>
            </g>
        </g>
    </g>
</svg>