<svg width="1152" height="40" viewBox="0 0 1152 40" fill="none" xmlns="http://www.w3.org/2000/svg">
<path d="M576 20.4444L576 21.4444L577 21.4444L577 20.4444L576 20.4444ZM96 20.4444L96 19.4444L95 19.4444L95 20.4444L96 20.4444ZM96 40L101.773 30L90.2265 30L96 40ZM575 2.50609e-06L575 20.4444L577 20.4444L577 2.50062e-06L575 2.50609e-06ZM576 19.4444L96 19.4444L96 21.4444L576 21.4444L576 19.4444ZM95 20.4444L95 31L97 31L97 20.4444L95 20.4444Z" fill="#055A60"/>
<path d="M576 20.4444L576 21.4444L575 21.4444L575 20.4444L576 20.4444ZM1056 20.4444L1056 19.4444L1057 19.4444L1057 20.4444L1056 20.4444ZM1056 40L1050.23 30L1061.77 30L1056 40ZM577 5.12331e-06L577 20.4444L575 20.4444L575 5.12877e-06L577 5.12331e-06ZM576 19.4444L1056 19.4444L1056 21.4444L576 21.4444L576 19.4444ZM1057 20.4444L1057 31L1055 31L1055 20.4444L1057 20.4444Z" fill="#055A60"/>
</svg>
