<?xml version="1.0" encoding="UTF-8"?>
<svg width="150px" height="150px" viewBox="0 0 150 150" version="1.1" xmlns="http://www.w3.org/2000/svg" xmlns:xlink="http://www.w3.org/1999/xlink">
    <title>automatic-process</title>
    <g id="automatic-process" stroke="none" stroke-width="1" fill="none" fill-rule="evenodd">
        <g id="Group-4">
            <rect id="Rectangle" fill-opacity="0.08" fill="#3B352E" x="0" y="0" width="150" height="150" rx="75"></rect>
            <g id="Group-5" transform="translate(32.000000, 33.000000)" fill="#3B352E">
                <path d="M31.2900437,-1.42256714 C32.3913681,-3.46738751 35.2736363,-3.52418808 36.473902,-1.59296884 L36.572582,-1.42256714 L54.6412692,32.1254213 C55.4269313,33.5841539 54.8812998,35.4035954 53.4225671,36.1892576 C52.0178616,36.9458211 50.2786716,36.4678792 49.45021,35.1288581 L49.3587308,34.9705555 L33.931,6.326 L5.023,60 L32.9333331,60 C34.5310139,60 35.8369939,61.24892 35.9282404,62.8237272 L35.9333331,63 C35.9333331,64.5976809 34.6844131,65.9036609 33.1096059,65.9949073 L32.9333331,66 L8.8817842e-16,66 C-2.21195046,66 -3.64297759,63.698841 -2.7191259,61.7319696 L-2.64126915,61.5774329 L31.2900437,-1.42256714 Z" id="Path" fill-rule="nonzero"></path>
                <path d="M34,19 C35.5976809,19 36.9036609,20.24892 36.9949073,21.8237272 L37,22 L37,40 C37,41.6568542 35.6568542,43 34,43 C32.4023191,43 31.0963391,41.75108 31.0050927,40.1762728 L31,40 L31,22 C31,20.3431458 32.3431458,19 34,19 Z" id="Path-24" fill-rule="nonzero"></path>
                <circle id="Oval" cx="34" cy="50" r="3"></circle>
            </g>
            <path d="M95.2488985,66.4681845 C94.2314698,66.7112859 93.4083498,67.4699022 93.0880817,68.4757055 L92.091,71.605 L92.0016784,71.6359315 C89.9645032,72.3394957 88.0196865,73.2933529 86.2105064,74.4761037 L86.149,74.517 L83.1709134,73.3768421 C82.1105293,72.9708366 80.9117921,73.198283 80.0738197,73.9644796 C77.5543247,76.2681694 75.4297466,78.9816571 73.7867126,81.9935361 L73.6945002,82.1772251 C73.2669371,83.1069166 73.3415348,84.1967819 73.9036742,85.0631473 L75.696,87.826 L75.6472551,87.9610212 C74.9206135,90.0121559 74.4424898,92.1456257 74.223388,94.314135 L74.211,94.446 L71.4418824,96.129373 C70.4940487,96.7054423 69.9414036,97.7574782 70.0049235,98.8648217 C70.2019458,102.299513 70.9588518,105.677178 72.244953,108.859787 L72.3248816,109.040307 C72.7806107,109.984559 73.7005459,110.627405 74.7542188,110.723409 L77.934,111.013 L77.9868424,111.100719 C79.1100603,112.960956 80.4524279,114.675297 81.9843089,116.205578 L82.074,116.293 L81.6363026,119.578528 C81.4897725,120.675827 81.9594533,121.764645 82.8581653,122.411061 C85.6278357,124.403199 88.7050204,125.912532 91.9634694,126.876705 L92.1562232,126.926872 C93.1880825,127.159235 94.2728773,126.830774 95.0030821,126.052052 L97.212,123.696 L97.2823934,123.705575 C99.2057166,123.945498 101.14859,123.96949 103.075823,123.777552 L103.787,123.696 L105.996918,126.052052 C106.772761,126.879444 107.948902,127.198534 109.036531,126.876705 C112.29498,125.912532 115.372164,124.403199 118.141835,122.411061 L118.295939,122.292484 C119.093671,121.63652 119.501608,120.61128 119.363697,119.578528 L118.925,116.293 L119.015691,116.205578 C120.547572,114.675297 121.88994,112.960956 123.013158,111.100719 L123.065,111.013 L126.245781,110.723409 C127.365309,110.621405 128.333859,109.902067 128.755047,108.859787 C130.041148,105.677178 130.798054,102.299513 130.995076,98.8648217 L130.999935,98.6700679 C130.992212,97.6353562 130.450196,96.6715559 129.558118,96.129373 L126.788,94.446 L126.776612,94.314135 C126.55751,92.1456257 126.079386,90.0121559 125.352745,87.9610212 L125.303,87.826 L127.096326,85.0631473 C127.695941,84.1390242 127.740842,82.9606079 127.213287,81.9935361 C125.570253,78.9816571 123.445675,76.2681694 120.92618,73.9644796 L120.774659,73.8348803 C119.947659,73.1737165 118.827095,72.9947193 117.829087,73.3768421 L114.85,74.517 L114.789494,74.4761037 C112.980313,73.2933529 111.035497,72.3394957 108.998322,71.6359315 L108.908,71.605 L107.911918,68.4757055 C107.571633,67.4070395 106.663676,66.6174244 105.558132,66.4287097 C102.209462,65.8570968 98.7905382,65.8570968 95.4418681,66.4287097 L95.2488985,66.4681845 Z M102.239967,72.0630295 L102.771,72.108 L103.667765,74.9221511 C103.976888,75.8929539 104.75759,76.6405179 105.74088,76.9072699 C108.223107,77.5806619 110.559194,78.7264935 112.626161,80.2851044 L112.794647,80.4033324 C113.596177,80.925734 114.603911,81.0364824 115.505088,80.691435 L118.173,79.669 L118.537865,80.0623865 C119.327695,80.9359198 120.0557,81.8657882 120.716318,82.8449489 L121.051,83.356 L119.430442,85.854601 C118.885061,86.6951389 118.795311,87.7524651 119.191215,88.6729025 C120.228282,91.0839826 120.808745,93.6742866 120.901594,96.3067243 L120.915403,96.5073852 C121.010794,97.4376038 121.535972,98.2749726 122.341612,98.7646206 L124.842,100.284 L124.840181,100.301601 C124.663879,101.679598 124.375638,103.039835 123.978631,104.368261 L123.806,104.921 L120.945558,105.181475 C119.92548,105.274418 119.023324,105.881392 118.552887,106.791275 C117.350441,109.116952 115.728315,111.188703 113.772551,112.897757 L113.626209,113.034496 C112.9674,113.692561 112.648741,114.623372 112.772995,115.553855 L113.168,118.519 L112.674719,118.814797 C111.665296,119.403369 110.616231,119.917966 109.535483,120.354721 L109.055,120.542 L107.075889,118.431006 C106.37036,117.678599 105.327778,117.341397 104.315266,117.538137 C101.794383,118.027968 99.2056166,118.027968 96.6847338,117.538137 L96.4819393,117.505873 C95.5347092,117.388203 94.5826046,117.72876 93.924111,118.431006 L91.944,120.542 L91.4645172,120.354721 C90.3837689,119.917966 89.334704,119.403369 88.3252809,118.814797 L87.831,118.519 L88.2270055,115.553855 C88.3601346,114.556909 87.9848169,113.559586 87.2274493,112.897757 C85.2716854,111.188703 83.6495592,109.116952 82.447113,106.791275 L82.3473624,106.613399 C81.8558646,105.802747 81.0065149,105.268221 80.0544424,105.181475 L77.193,104.921 L77.0213692,104.368261 C76.6905296,103.261239 76.4352222,102.132126 76.2572834,100.989054 L76.157,100.284 L78.6583876,98.7646206 C79.5215742,98.2399977 80.0628001,97.3162056 80.0984057,96.3067243 C80.1912547,93.6742866 80.771718,91.0839826 81.8087852,88.6729025 L81.8814995,88.4870946 C82.1906973,87.6124518 82.0785807,86.639103 81.5695583,85.854601 L79.948,83.356 L79.959015,83.3386042 C80.7033489,82.1773092 81.5406665,81.0815087 82.4621348,80.0623865 L82.826,79.669 L85.4949122,80.691435 C86.460459,81.0611287 87.5483281,80.9075873 88.3738395,80.2851044 C90.4408059,78.7264935 92.7768926,77.5806619 95.2591203,76.9072699 L95.4529974,76.847585 C96.3444077,76.5398505 97.04372,75.8282337 97.3322351,74.9221511 L98.228,72.108 L98.7600332,72.0630295 C99.9185481,71.9789902 101.081452,71.9789902 102.239967,72.0630295 Z" id="Fill-1" fill="#3B352E" fill-rule="nonzero"></path>
            <g id="Group-7-Copy" transform="translate(100.340664, 96.500000) rotate(-360.000000) translate(-100.340664, -96.500000) translate(85.000000, 81.000000)" fill-rule="nonzero">
                <path d="M15.5,0 C20.6304556,0 25.3450976,2.51871516 28.2242346,6.65069241 C29.171451,8.01008462 28.8373164,9.87996032 27.4779242,10.8271767 C26.1688799,11.7393109 24.3864654,11.4632515 23.4104104,10.2276777 L23.30144,10.0808663 C21.5322318,7.54179716 18.6462279,6 15.5,6 C10.2579122,6 6,10.2579122 6,15.5 C6,20.7420878 10.2579122,25 15.5,25 C19.9430988,25 23.7719004,21.9146737 24.7574513,17.6428442 C25.1299189,16.0283988 26.7406301,15.0215769 28.3550755,15.3940445 C29.9695209,15.7665121 30.9763428,17.3772233 30.6038752,18.9916687 C28.9936754,25.9710132 22.7528468,31 15.5,31 C6.94420373,31 0,24.0557963 0,15.5 C0,6.94420373 6.94420373,0 15.5,0 Z" id="Path" fill="#3B352E"></path>
                <path d="M26.7222302,3.04762588 C27.8004966,1.78964835 29.6943966,1.64396374 30.9523741,2.72223019 C32.1619679,3.75902486 32.3431843,5.54991854 31.3967598,6.80448331 L31.2777698,6.95237412 L19.2777698,20.9523741 C18.0958714,22.3312556 15.9844202,22.3437168 14.782596,21.0209212 L14.6573936,20.8740851 L10.6573936,15.8740851 C9.62236493,14.5802993 9.83212905,12.6924222 11.1259149,11.6573936 C12.3699397,10.6621737 14.1632353,10.8178348 15.2194775,11.9814518 L15.3426064,12.1259149 L17.079,14.297 L26.7222302,3.04762588 Z" id="Path-25" fill="#055A60"></path>
            </g>
        </g>
    </g>
</svg>