<?xml version="1.0" encoding="UTF-8"?>
<svg width="150px" height="150px" viewBox="0 0 150 150" version="1.1" xmlns="http://www.w3.org/2000/svg" xmlns:xlink="http://www.w3.org/1999/xlink">
    <title>axis</title>
    <g id="axis" stroke="none" stroke-width="1" fill="none" fill-rule="evenodd">
        <g id="Group">
            <rect id="Rectangle-Copy-4" fill-opacity="0.08" fill="#3B352E" x="0" y="0" width="150" height="150" rx="75"></rect>
            <g id="Group-6" transform="translate(45.000000, 26.000000)">
                <g id="Group-9-Copy" transform="translate(30.500000, 49.000000) rotate(-180.000000) translate(-30.500000, -49.000000) ">
                    <path d="M51,43 C52.5976809,43 53.9036609,44.24892 53.9949073,45.8237272 L54,46 L54,85 C54,86.6568542 52.6568542,88 51,88 C49.4023191,88 48.0963391,86.75108 48.0050927,85.1762728 L48,85 L48,46 C48,44.3431458 49.3431458,43 51,43 Z" id="Path-6" fill="#3B352E" fill-rule="nonzero"></path>
                    <g id="Group-7" transform="translate(13.000000, 85.500000) rotate(-180.000000) translate(-13.000000, -85.500000) translate(0.000000, 73.000000)">
                        <path d="M12.5,-3 C17.6304556,-3 22.3450976,-0.481284838 25.2242346,3.65069241 C26.171451,5.01008462 25.8373164,6.87996032 24.4779242,7.82717667 C23.1688799,8.73931094 21.3864654,8.46325151 20.4104104,7.22767767 L20.30144,7.08086627 C18.5322318,4.54179716 15.6462279,3 12.5,3 C7.25791223,3 3,7.25791223 3,12.5 C3,17.7420878 7.25791223,22 12.5,22 C16.9430988,22 20.7719004,18.9146737 21.7574513,14.6428442 C22.1299189,13.0283988 23.7406301,12.0215769 25.3550755,12.3940445 C26.9695209,12.7665121 27.9763428,14.3772233 27.6038752,15.9916687 C25.9936754,22.9710132 19.7528468,28 12.5,28 C3.94420373,28 -3,21.0557963 -3,12.5 C-3,3.94420373 3.94420373,-3 12.5,-3 Z" id="Path" fill="#3B352E" fill-rule="nonzero"></path>
                        <polyline id="Path-25" stroke="#055A60" stroke-width="6" stroke-linecap="round" stroke-linejoin="round" points="10 11 14 16 26 2"></polyline>
                    </g>
                    <g id="Group-7-Copy" transform="translate(13.000000, 12.500000) rotate(-180.000000) translate(-13.000000, -12.500000) ">
                        <path d="M12.5,-3 C17.6304556,-3 22.3450976,-0.481284838 25.2242346,3.65069241 C26.171451,5.01008462 25.8373164,6.87996032 24.4779242,7.82717667 C23.1688799,8.73931094 21.3864654,8.46325151 20.4104104,7.22767767 L20.30144,7.08086627 C18.5322318,4.54179716 15.6462279,3 12.5,3 C7.25791223,3 3,7.25791223 3,12.5 C3,17.7420878 7.25791223,22 12.5,22 C16.9430988,22 20.7719004,18.9146737 21.7574513,14.6428442 C22.1299189,13.0283988 23.7406301,12.0215769 25.3550755,12.3940445 C26.9695209,12.7665121 27.9763428,14.3772233 27.6038752,15.9916687 C25.9936754,22.9710132 19.7528468,28 12.5,28 C3.94420373,28 -3,21.0557963 -3,12.5 C-3,3.94420373 3.94420373,-3 12.5,-3 Z" id="Path" fill="#3B352E" fill-rule="nonzero"></path>
                        <polyline id="Path-25" stroke="#055A60" stroke-width="6" stroke-linecap="round" stroke-linejoin="round" points="10 11 14 16 26 2"></polyline>
                    </g>
                    <path d="M48.5038491,79.3358994 C49.6542069,77.6103627 52.1464955,77.5564396 53.380724,79.1741303 L53.4961509,79.3358994 L59.4961509,88.3358994 C60.4152083,89.7144855 60.0426867,91.5770935 58.6641006,92.4961509 C57.3365733,93.3811691 55.5602135,93.0685091 54.609777,91.8131221 L54.5038491,91.6641006 L51,86.409 L47.4961509,91.6641006 C46.6111327,92.9916279 44.8511621,93.386234 43.490995,92.5929677 L43.3358994,92.4961509 C42.0083721,91.6111327 41.613766,89.8511621 42.4070323,88.490995 L42.5038491,88.3358994 L48.5038491,79.3358994 Z" id="Path" fill="#3B352E" fill-rule="nonzero" transform="translate(51.000000, 85.500159) rotate(-180.000000) translate(-51.000000, -85.500159) "></path>
                    <path d="M61,46.5 C62.6568542,46.5 64,47.8431458 64,49.5 C64,51.0976809 62.75108,52.4036609 61.1762728,52.4949073 L61,52.5 L41,52.5 C39.3431458,52.5 38,51.1568542 38,49.5 C38,47.9023191 39.24892,46.5963391 40.8237272,46.5050927 L41,46.5 L61,46.5 Z" id="Path-9" fill="#3B352E" fill-rule="nonzero"></path>
                </g>
                <g id="Group-9-Copy-2" transform="translate(4.000000, 51.469880)" fill="#3B352E" fill-rule="nonzero">
                    <path d="M6,-3 C7.59768088,-3 8.90366088,-1.75108004 8.99490731,-0.176272788 L9,0 L9,38.5301205 C9,40.1869747 7.65685425,41.5301205 6,41.5301205 C4.40231912,41.5301205 3.09633912,40.2812005 3.00509269,38.7063933 L3,38.5301205 L3,0 C3,-1.65685425 4.34314575,-3 6,-3 Z" id="Path-6"></path>
                    <path d="M3.50384912,27.8660199 C4.65420694,26.1404832 7.14649554,26.0865601 8.38072404,27.7042508 L8.49615088,27.8660199 L14.4961509,36.8660199 C15.4152083,38.244606 15.0426867,40.107214 13.6641006,41.0262714 C12.3365733,41.9112896 10.5602135,41.5986296 9.609777,40.3432426 L9.50384912,40.1942211 L6,34.939 L2.49615088,40.1942211 C1.61113267,41.5217484 -0.148837866,41.9163545 -1.50900503,41.1230882 L-1.66410059,41.0262714 C-2.99162791,40.1412531 -3.38623401,38.3812826 -2.59296774,37.0211155 L-2.49615088,36.8660199 L3.50384912,27.8660199 Z" id="Path" transform="translate(6.000000, 34.030280) rotate(-180.000000) translate(-6.000000, -34.030280) "></path>
                </g>
            </g>
        </g>
    </g>
</svg>