<svg xmlns="http://www.w3.org/2000/svg" width="70" height="91" viewBox="0 0 70 91">
    <g fill="none" fill-rule="evenodd" stroke="#333" stroke-linejoin="round" stroke-width="2">
        <g transform="translate(19 30)">
            <path stroke-linecap="round" d="M20.25 22l.75.899c-.119 1.906-.83 3.274-2.136 4.101-.45-1.555-1.577-2.42-2.48-2.732-.902-.31.134-.31-.769 0-.902.311-2.028 1.177-2.48 2.732-1.304-.827-2.016-2.195-2.135-4.101l.75-.899"/>
            <path d="M8.096 11.74l.049-.152c.217-.58.69-.703 1.499.31.067-.042.153-.292.26-.751.186-2.648.278-4.697.278-6.147 1.454 3.625 10.909 0 12.081 6.174-.039.361-.071.688.028.807 2.52-3.272 1.905 4.172.387 3.162-.003 1.59-.561 3.004-2.067 4.553-1.473 1.514-3.126 2.273-4.656 2.304-1.53-.03-3.182-.79-4.655-2.304-1.49-1.533-2.053-2.933-2.067-4.503-.914.422-1.467-2.228-1.137-3.453z"/>
            <path stroke-linecap="round" d="M23.51 11c.094-.06 2.73-8.548-5.27-10.621C15.164-.42 9.179-.14 9.275 2.996c-1.49-.029-1.261 2.015-1.261 3.152.306 3.052.475 4.595.507 4.63M11 24c-2.436 1.778-8.412 2.222-9.706 4A6.63 6.63 0 0 0 0 32M21 24c2.436 1.778 8.412 2.222 9.706 4A6.63 6.63 0 0 1 32 32"/>
            <circle cx="19" cy="13" r="2"/>
            <path d="M17 13c-.217-1.205-.589-2-1.011-2-.408 0-.77.742-.989 1.879"/>
            <circle cx="13" cy="13" r="2"/>
        </g>
        <g stroke-linecap="round">
            <path d="M59.975 37.189c1.512-1.964 1.143 2.503.232 1.897-.002.954-.337 1.802-1.24 2.731-.884.909-1.876 1.365-2.794 1.383-.918-.018-1.91-.474-2.793-1.383-.894-.92-1.232-1.76-1.24-2.701-.548.253-.88-1.337-.682-2.072l.029-.091c.13-.349.414-.422.9.186"/>
            <path d="M60.706 36.6c.057-.036 1.638-5.13-3.162-6.373-1.846-.478-5.437-.31-5.38 1.57-.894-.017-.756 1.21-.756 1.892.183 1.83.285 2.757.304 2.777M59.2 42c.237.337 1.037.937 2.4 1.8 2.044 1.294 3.67 1.333 4.235 2.4.377.711.565 1.511.565 2.4M53.2 42c-.237.337-1.037.937-2.4 1.8-2.044 1.294-3.67 1.333-4.235 2.4-.377.711-.565 1.511-.565 2.4"/>
        </g>
        <g stroke-linecap="round">
            <path d="M17.975 37.189c1.512-1.964 1.143 2.503.232 1.897-.002.954-.337 1.802-1.24 2.731-.884.909-1.876 1.365-2.794 1.383-.918-.018-1.91-.474-2.793-1.383-.894-.92-1.232-1.76-1.24-2.701-.548.253-.88-1.337-.682-2.072l.029-.091c.13-.349.414-.422.9.186"/>
            <path d="M18.706 36.6c.057-.036 1.638-5.13-3.162-6.373-1.846-.478-5.437-.31-5.38 1.57-.894-.017-.756 1.21-.756 1.892.183 1.83.285 2.757.304 2.777M17.2 42c.237.337 1.037.937 2.4 1.8 2.044 1.294 3.67 1.333 4.235 2.4.377.711.565 1.511.565 2.4M11.2 42c-.237.337-1.037.937-2.4 1.8-2.044 1.294-3.67 1.333-4.235 2.4-.377.711-.565 1.511-.565 2.4"/>
        </g>
    </g>
</svg>
