<svg width="49" height="48" viewBox="0 0 49 48" fill="none" xmlns="http://www.w3.org/2000/svg">
<path d="M38.5 38V46" stroke="#055A60" stroke-width="1.5" stroke-miterlimit="2.61313" stroke-linecap="round"/>
<path d="M34.5 42H42.5" stroke="#055A60" stroke-width="1.5" stroke-miterlimit="2.61313" stroke-linecap="round"/>
<path d="M38.5 33V8C38.5 5.79086 36.8211 4 34.75 4H12.25C10.1789 4 8.5 5.79086 8.5 8V38C8.5 40.2091 10.1789 42 12.25 42H28.5" stroke="#055A60" stroke-width="1.5" stroke-linecap="round" stroke-linejoin="round"/>
<rect x="13.75" y="9.25" width="19.5" height="9.5" stroke="#055A60" stroke-width="1.5" stroke-linecap="round" stroke-linejoin="round"/>
<line x1="33.75" y1="22.75" x2="29.25" y2="22.75" stroke="#055A60" stroke-width="1.5" stroke-linecap="round"/>
<line x1="33.75" y1="28.75" x2="29.25" y2="28.75" stroke="#055A60" stroke-width="1.5" stroke-linecap="round"/>
<line x1="33.75" y1="32.75" x2="29.25" y2="32.75" stroke="#055A60" stroke-width="1.5" stroke-linecap="round"/>
<line x1="33.75" y1="36.75" x2="29.25" y2="36.75" stroke="#055A60" stroke-width="1.5" stroke-linecap="round"/>
<line x1="25.75" y1="22.75" x2="21.25" y2="22.75" stroke="#055A60" stroke-width="1.5" stroke-linecap="round"/>
<line x1="17.75" y1="22.75" x2="13.25" y2="22.75" stroke="#055A60" stroke-width="1.5" stroke-linecap="round"/>
<line x1="25.75" y1="28.75" x2="21.25" y2="28.75" stroke="#055A60" stroke-width="1.5" stroke-linecap="round"/>
<line x1="17.75" y1="28.75" x2="13.25" y2="28.75" stroke="#055A60" stroke-width="1.5" stroke-linecap="round"/>
<line x1="25.75" y1="32.75" x2="21.25" y2="32.75" stroke="#055A60" stroke-width="1.5" stroke-linecap="round"/>
<line x1="25.75" y1="36.75" x2="21.25" y2="36.75" stroke="#055A60" stroke-width="1.5" stroke-linecap="round"/>
<line x1="17.75" y1="32.75" x2="13.25" y2="32.75" stroke="#055A60" stroke-width="1.5" stroke-linecap="round"/>
<line x1="17.75" y1="36.75" x2="13.25" y2="36.75" stroke="#055A60" stroke-width="1.5" stroke-linecap="round"/>
</svg>
