<svg xmlns="http://www.w3.org/2000/svg" width="20" height="25" viewBox="0 0 20 25">
    <g fill="none" fill-rule="nonzero" transform="translate(1 1)">
        <path stroke="#222" stroke-linecap="round" stroke-width="2" d="M6.563 19h-5.25C.588 19 0 18.457 0 17.787V1.213C0 .543.588 0 1.313 0h11.374C13.412 0 14 .543 14 1.213v10.51"/>
        <g stroke="#222" stroke-linecap="round" stroke-width="2">
            <path d="M10 19h8M14 23v-8"/>
        </g>
        <rect width="8" height="4" x="3" y="3" stroke="#222" stroke-width="2" rx="1.2"/>
        <rect width="2" height="2" x="3" y="9" fill="#222" rx="1"/>
        <rect width="2" height="2" x="3" y="12" fill="#222" rx="1"/>
        <rect width="2" height="2" x="6" y="9" fill="#222" rx="1"/>
        <rect width="2" height="2" x="6" y="12" fill="#222" rx="1"/>
        <rect width="2" height="2" x="9" y="9" fill="#222" rx="1"/>
        <rect width="2" height="2" x="9" y="12" fill="#222" rx="1"/>
        <rect width="2" height="2" x="3" y="15" fill="#222" rx="1"/>
        <rect width="2" height="2" x="6" y="15" fill="#222" rx="1"/>
    </g>
</svg>
