<svg xmlns="http://www.w3.org/2000/svg" width="23" height="22" viewBox="0 0 23 22">
    <g fill="none" fill-rule="nonzero">
        <path stroke="#222" stroke-linecap="round" stroke-linejoin="round" stroke-width="2" d="M9 2.514h2m4 0h2m3 0h2V21H1V2.514h4M22 8.5H5M5.5 5V1M11.5 5V1M17.5 5V1"/>
        <rect width="3" height="2" x="4" y="12" fill="#222" rx="1"/>
        <rect width="3" height="2" x="8" y="12" fill="#222" rx="1"/>
        <rect width="3" height="2" x="4" y="16" fill="#222" rx="1"/>
        <rect width="3" height="2" x="8" y="16" fill="#222" rx="1"/>
        <rect width="3" height="2" x="12" y="12" fill="#222" rx="1"/>
        <rect width="3" height="2" x="12" y="16" fill="#222" rx="1"/>
        <rect width="3" height="2" x="16" y="12" fill="#222" rx="1"/>
        <rect width="3" height="2" x="16" y="16" fill="#222" rx="1"/>
    </g>
</svg>
