<?xml version="1.0" encoding="UTF-8"?>
<svg width="50px" height="50px" viewBox="0 0 50 50" version="1.1" xmlns="http://www.w3.org/2000/svg" xmlns:xlink="http://www.w3.org/1999/xlink">
    <title>consultant-icon</title>
    <g id="consultant-icon" stroke="none" stroke-width="1" fill="none" fill-rule="evenodd">
        <g id="Icon-on-Plate/Konsultant-ds.-Planowania-Finansowego_L">
            <circle id="Oval" fill-opacity="0.08" fill="#3B352E" cx="25" cy="25" r="25"></circle>
            <g id="Group-2" transform="translate(8.000000, 8.000181)" fill-rule="nonzero">
                <g id="Group">
                    <path d="M11.9836111,22.3585493 C12.3377748,21.9347728 12.9684199,21.8783405 13.3921964,22.2325042 C13.7996738,22.5730462 13.8675209,23.1692109 13.5572869,23.5913017 L13.5182416,23.6410895 L13.0323333,24.2221528 L13.035232,24.2484632 C13.1362549,25.092975 13.3801088,25.7736333 13.7669647,26.3092631 L13.7923333,26.3434861 L13.8460618,26.2601119 C14.4388251,25.3592922 15.2724438,24.7005298 16.1875048,24.3594706 L16.2836667,24.3248194 L16.3033902,24.3060053 C16.4787283,24.1444676 16.7080518,24.0493225 16.9451645,24.0365546 L16.9999985,24.0350777 C17.2563482,24.0350777 17.5077842,24.1320416 17.6966098,24.3060053 L17.716,24.3248194 L17.8124952,24.3594706 C18.7275562,24.7005298 19.5611749,25.3592922 20.1539382,26.2601119 L20.2073333,26.3434861 L20.2330353,26.3092631 C20.6198912,25.7736333 20.8637451,25.092975 20.964768,24.2484632 L20.9673333,24.2221528 L20.4817584,23.6410895 C20.1412164,23.2336121 20.1802935,22.6348731 20.560539,22.2745687 L20.6078036,22.2325042 C21.015281,21.8919622 21.61402,21.9310393 21.9743244,22.3112847 L22.0163889,22.3585493 L22.7673152,23.2570743 C22.9314069,23.4534192 23.013988,23.7051973 22.9980611,23.9605867 C22.8603021,26.1695671 21.9939632,27.8334317 20.4000232,28.8443077 C19.8544211,29.1903283 19.1348292,28.9348757 18.9224521,28.3356215 L18.9040485,28.2784421 C18.6095736,27.2633991 17.910349,26.5410835 17.1413775,26.2439157 L17.058736,26.2137091 L16.9999985,26.1928194 L16.941264,26.2137091 C16.1677378,26.4803404 15.4519942,27.1768487 15.1290359,28.1708136 L15.0959515,28.2784421 C14.9103152,28.9183225 14.1626289,29.2011414 13.5999768,28.8443077 C12.0060368,27.8334317 11.1396979,26.1695671 11.0019389,23.9605867 C10.9874599,23.7284145 11.0543925,23.4992269 11.1899662,23.3119584 L11.2326848,23.2570743 L11.9836111,22.3585493 Z" id="Path" fill="#055A60"></path>
                    <path d="M10.1818182,5.99981944 L10.1794088,6.41588277 L10.1751248,6.71097659 L10.1686978,7.02023383 L10.1550382,7.5106552 L10.1365535,8.03289043 L10.1043982,8.77863645 L10.0851009,9.17267323 L10.0521289,9.79015615 L9.98643399,10.8896886 L9.967,11.1934861 L9.92598022,11.1823239 C9.20737479,10.9986262 8.54959984,11.3238015 8.20789003,12.2378667 L8.19155052,12.2851477 L8.14331679,12.4369146 L8.13081051,12.4795203 C7.91865811,13.2665194 7.97292633,14.4066277 8.23455483,15.3510561 C8.37983491,15.8754891 8.58227456,16.3192305 8.85868958,16.6475688 L8.90794499,16.7038977 C9.00808608,16.8141373 9.11789041,16.909743 9.23522837,16.9884891 L9.287,17.0214861 L9.28947489,17.0425149 C9.48802861,18.5996089 10.2175479,19.988387 11.583254,21.3927142 C13.1899576,23.0446988 15.079223,23.962344 16.9353057,23.9996179 L16.9754607,23.9996179 C18.8316308,23.9623441 20.7209397,23.0446888 22.3275362,21.3927295 L22.4446778,21.2706703 C23.6732929,19.9730997 24.3607812,18.6843986 24.5903545,17.2590598 L24.614,17.0968194 L24.6534537,17.0751508 C25.0099556,16.8651337 25.3092891,16.4934949 25.5211078,16.0321976 C25.8089527,15.4053309 25.9811506,14.5442738 25.9985644,13.7352681 C26.0201293,12.7334134 25.8320533,11.9267813 25.259204,11.4608561 L25.2016605,11.4157885 C24.8366037,11.1408079 24.460062,11.063685 24.0826658,11.1472781 L24.0316667,11.1594861 L24.0003955,11.0673608 C23.5346326,9.7463326 22.6532671,8.78822071 21.4093931,8.15448042 C20.6997331,7.79291636 19.9413479,7.55176298 18.9897852,7.36946002 L18.6827019,7.3137751 C18.4734741,7.27786026 18.2550105,7.24426654 18.0259632,7.21241954 L17.6742861,7.16588728 C17.6142941,7.15832631 17.5535985,7.15085656 17.4921783,7.14346905 L17.1147925,7.10005915 L15.9405272,6.97743709 L15.6670657,6.94720725 L15.4062966,6.91660973 L15.1579234,6.88553324 L14.9216495,6.85386649 L14.6971784,6.82149819 L14.4842136,6.78831704 L14.2824585,6.75421175 L14.0916166,6.71907102 L13.9113914,6.68278357 C13.8822221,6.67663392 13.8534828,6.67043185 13.8251674,6.66417504 L13.6603111,6.62595883 L13.5053303,6.58631765 C13.4803066,6.57958586 13.455682,6.57279006 13.4314504,6.56592793 L13.2907266,6.52394064 C12.632874,6.31697569 12.2950924,6.05032808 12.1267129,5.66744937 L12.1098925,5.62742429 C11.70009,4.60612451 10.1818182,4.89936896 10.1818182,5.99981944 Z M12.1306667,8.21681944 L12.1578455,8.22938941 C12.3397757,8.30914867 12.5321509,8.38100856 12.7346391,8.44551576 L12.889345,8.49325033 C12.9150991,8.50093373 12.940858,8.50848513 12.9666514,8.51591076 L13.1220642,8.55900541 C13.1481148,8.56595299 13.1742595,8.57278732 13.200528,8.57951464 L13.359864,8.61864444 L13.5236021,8.65550605 C13.5513381,8.66147731 13.579317,8.66736655 13.6075687,8.67318005 L13.7805903,8.70720193 L13.9615878,8.73970571 L14.1519904,8.77099141 L14.3532277,8.80135907 L14.6785255,8.84584555 L15.0362418,8.88995412 L15.5719641,8.94992787 L16.5784718,9.05400828 L16.8986813,9.08834674 L17.0503551,9.10542432 L17.3504526,9.14156013 C17.4978683,9.16013542 17.6413534,9.17949177 17.7809952,9.19971901 L18.0551797,9.24136133 C18.1448835,9.25564692 18.2329049,9.2703462 18.3192696,9.28548579 L18.5734193,9.33225213 C18.6149579,9.34027554 18.6560887,9.3484157 18.696815,9.35667591 L18.9363444,9.40770455 C20.9315223,9.8541468 21.8913207,10.6301795 22.242917,12.1772343 L22.2526667,12.2228194 L22.2461354,12.2900923 C22.2318696,12.4415048 22.225821,12.5471375 22.225365,12.664284 C22.2239024,13.0400505 22.280941,13.3320711 22.5250648,13.6232744 L22.5687448,13.6721313 C22.9575441,14.0799423 23.6059714,14.0819013 23.999,13.6874861 L23.9952416,13.8030918 C23.9728033,14.2852838 23.8729739,14.7859769 23.7358496,15.1228638 L23.7273333,15.1421528 L23.6840625,15.1412334 C23.1633829,15.1395325 22.6789627,15.5525986 22.6780264,16.1413082 C22.6758124,17.5333539 22.1672423,18.6889178 20.8937753,19.9983374 L20.7789685,20.1142946 C19.5886591,21.2950574 18.2774498,21.9341054 17.0534764,21.9958492 L16.9553333,21.9991528 L16.9754617,22.000021 C15.6788273,21.973982 14.2756659,21.292445 13.0170131,19.9983201 C11.7558538,18.7014962 11.2455105,17.5555228 11.2333066,16.1836447 L11.2311617,16.1253261 C11.1987673,15.6263452 10.8107696,15.2565164 10.3566473,15.1991531 L10.2936667,15.1931528 L10.2806622,15.1630005 C10.2410163,15.0704217 10.1995933,14.9529486 10.1619653,14.8171189 L10.1344418,14.7118242 C10.0556413,14.3919832 10.0108257,14.0390312 10.0015095,13.7204967 L10.0003333,13.6638194 L10.0408627,13.6961415 C10.3668504,13.9428137 10.8214509,13.9706089 11.1806845,13.7421498 C11.4848374,13.54872 11.61135,13.3612249 11.7379613,12.9290362 L11.7761254,12.7917882 L11.8153619,12.6383548 L11.8785601,12.3745675 C11.8907482,12.3225012 11.8987405,12.269541 11.9024599,12.2161967 L11.9403382,11.6620773 L11.9754617,11.1257156 L12.0078294,10.6070978 L12.0374406,10.1062104 L12.076687,9.38809389 L12.1097261,8.70979392 L12.1306667,8.21681944 Z" id="Path" fill="#3B352E"></path>
                    <path d="M13.3769006,0.230982863 C15.2964448,-0.140988029 17.7086033,-0.0512493937 19.4913065,0.410626724 C23.4074424,1.42524857 25.4380802,3.94678585 25.9012516,7.30770117 C26.0607807,8.46529407 26.020299,9.64392942 25.8386342,10.7664389 L25.8193695,10.883839 L25.7807698,11.1081346 L25.7416449,11.3186074 C25.5834043,12.1331466 25.4001302,12.6212185 25.0426842,12.8461683 C24.5752587,13.1403312 23.9578693,12.9999749 23.6637064,12.5324484 C23.4784928,12.2381434 23.4655771,11.8843877 23.5980888,11.5892926 L23.6096667,11.5651528 L23.6446869,11.4529077 L23.6735951,11.350061 C23.7422194,11.0966027 23.8094097,10.7862255 23.8643223,10.4469199 C24.0162547,9.50812746 24.0500384,8.5245069 23.9199772,7.58074274 C23.5625931,4.98745287 22.0809289,3.14760165 18.9896938,2.34670128 C18.5408024,2.23039914 18.078425,2.14294114 17.6136267,2.08244859 L17.381077,2.05444073 C17.3423022,2.05014438 17.3035234,2.04603311 17.2647469,2.04210584 L17.0321684,2.0207415 C16.9546859,2.01435025 16.8772643,2.0086863 16.7999547,2.00374094 L16.5684134,1.99105197 C16.414345,1.98401826 16.2609296,1.97982415 16.1085772,1.97840006 L15.880897,1.97833275 L15.6551186,1.98236828 L15.4315493,1.99045448 C15.3944889,1.99213683 15.3575334,1.99398579 15.3206891,1.99600027 L15.1010099,2.01006461 L14.8843082,2.02804914 L14.6708915,2.04990169 C14.6356128,2.05386322 14.6004839,2.05798374 14.565511,2.06226216 L14.3575979,2.08981888 L14.1537382,2.12111314 C14.0864947,2.13216168 14.019978,2.14382446 13.9542392,2.15609276 L13.7594083,2.19470555 C13.5990796,2.22838221 13.4439337,2.26578906 13.294771,2.30679021 L13.1186989,2.35770815 C12.0224133,2.69100493 11.2902102,3.22876836 11.2734614,3.91134124 L11.2736319,3.96552834 C11.2911543,4.53730463 10.8263399,5.00723188 10.2544061,4.99596543 L10.194975,4.99341396 C10.1835982,4.9933969 10.1786057,4.99530047 10.173849,5.00238621 L10.1541387,5.04245149 C10.0763595,5.19685898 10.0244444,5.47833758 10.0069615,5.87661743 L10.0021325,6.02454875 L9.99995277,6.18866589 L10.0016201,6.44450973 L10.0123333,7.09581944 L10.2811815,9.71891955 L10.3986317,10.8020126 L10.4549778,11.2820845 L10.4749835,11.436987 L10.4867256,11.5195308 C10.5785092,11.8649355 10.4816487,12.2483973 10.2018597,12.5089935 C9.79771993,12.8854102 9.16495392,12.8629362 8.78853724,12.4587965 C8.6339836,12.29286 8.59865778,12.2307225 8.55896887,12.0682413 L8.52857536,11.9320109 L8.51459431,11.8526996 L8.4866634,11.6573908 L8.45291172,11.3863026 L8.41162801,11.0296748 L8.20033328,9.04659455 L8.0176345,7.24770333 L8.01388314,7.19781426 L8.01263164,7.14779999 L8.00163172,6.46059856 L7.99995277,6.1712121 L8.00267395,5.97757085 L8.0043917,5.91230714 C8.02528117,5.19586588 8.12217126,4.63063307 8.36795522,4.14270234 C8.57950019,3.72274293 8.89149666,3.40277283 9.28385494,3.20887458 L9.35333333,3.17615278 L9.35510419,3.16914318 C9.70712232,1.6480929 11.1640926,0.686137277 13.2532815,0.25569043 L13.3769006,0.230982863 Z" id="Path" fill="#3B352E"></path>
                    <path d="M11.410495,23.1920547 C11.8566111,22.8664801 12.4821901,22.9641983 12.8077647,23.4103144 C13.1333393,23.8564305 13.0356212,24.4820095 12.589505,24.8075841 C12.4944311,24.8769689 12.3971945,24.9439811 12.2970231,25.0090287 L12.1444683,25.1051775 C12.1186434,25.1209737 12.092611,25.1366599 12.0663589,25.1522424 L11.9061144,25.2445443 C11.8517567,25.2749309 11.7964239,25.3049538 11.7400195,25.334664 L11.5674947,25.4229075 L11.387961,25.5095807 C11.2963454,25.5525757 11.2018841,25.5950966 11.1042514,25.6373155 L10.9046609,25.7214014 C10.8366569,25.7493298 10.7671468,25.7771749 10.6960341,25.8049878 L10.4777915,25.8883805 L10.2493541,25.9718857 L10.0101424,26.055809 L9.75957737,26.1404566 L9.49707963,26.2261344 L9.07969211,26.3572517 L8.78482841,26.4468433 L8.47600462,26.5385357 L7.98532666,26.6806828 L6.8471934,27.0030016 L6.433025,27.1229401 L6.04655768,27.2382156 L5.80393198,27.3126489 L5.46196675,27.4209337 L5.24831479,27.4910319 L5.0458635,27.5595784 L4.85439069,27.6266771 L4.67367418,27.6924323 L4.50349179,27.7569482 C4.47599355,27.7676033 4.44892499,27.7782111 4.42228145,27.7887738 L4.26748363,27.8516258 L4.12266446,27.9134986 C4.09934714,27.923735 4.07643634,27.9339348 4.05392744,27.9441004 L3.92365965,28.0046999 L3.80281504,28.0645806 C3.7834472,28.0745066 3.76446273,28.084407 3.74585701,28.094284 L3.63873059,28.1532818 C3.62162134,28.1630737 3.60488157,28.1728465 3.58850667,28.1826023 L3.49459852,28.2409515 C3.31539074,28.357313 3.18738965,28.4718612 3.10259659,28.5883446 C2.36467508,29.6020549 2,30.7292324 2,31.9998194 C2,32.5521042 1.55228475,32.9998194 1,32.9998194 C0.44771525,32.9998194 0,32.5521042 0,31.9998194 C0,30.3074435 0.498070023,28.7679543 1.48563871,27.4112943 C1.78376894,27.0017417 2.15954619,26.6753998 2.69416625,26.3770919 L2.84397098,26.2963888 C2.86961514,26.2830403 2.89560275,26.2697394 2.92194141,26.2564808 L3.08424719,26.1773965 L3.25534452,26.0990805 C3.2846137,26.0860781 3.31426445,26.0730973 3.3443044,26.0601329 L3.52927535,25.9825029 C3.59252977,25.9566645 3.65740196,25.9308505 3.72395292,25.9050195 L3.92870312,25.8274337 L4.14389197,25.7494969 L4.3698855,25.6709604 L4.60704973,25.5915754 L4.85575067,25.5110933 L5.25123411,25.3877687 L5.5303782,25.3034553 L6.12748578,25.1286766 L7.58804468,24.7138996 L8.03978843,24.5817121 L8.45915773,24.4549684 L8.84781338,24.3328713 L9.09067415,24.2536609 L9.32111463,24.175925 C9.3585137,24.1630788 9.39541575,24.1502842 9.43183104,24.1375362 L9.64456376,24.0615693 L9.8461064,23.9864862 C9.87879168,23.9740329 9.9110312,23.9616066 9.94283523,23.9492024 L10.1285154,23.8750024 L10.3042358,23.8010957 C10.361204,23.7764828 10.4165942,23.7518794 10.4704884,23.7272461 L10.6277654,23.6532175 L10.7765587,23.5787734 C10.8247973,23.5538633 10.8717039,23.5288445 10.9173606,23.5036778 L11.0506631,23.4276944 C11.1155215,23.3894413 11.1777521,23.3507668 11.2376318,23.3115378 L11.3543387,23.2323012 C11.3732947,23.2189588 11.3920101,23.205545 11.410495,23.1920547 Z" id="Path-2" fill="#055A60"></path>
                    <path d="M32.410495,23.1920547 C32.8566111,22.8664801 33.4821901,22.9641983 33.8077647,23.4103144 C34.1333393,23.8564305 34.0356212,24.4820095 33.589505,24.8075841 C33.4944311,24.8769689 33.3971945,24.9439811 33.2970231,25.0090287 L33.1444683,25.1051775 C33.1186434,25.1209737 33.092611,25.1366599 33.0663589,25.1522424 L32.9061144,25.2445443 C32.8517567,25.2749309 32.7964239,25.3049538 32.7400195,25.334664 L32.5674947,25.4229075 L32.387961,25.5095807 C32.2963454,25.5525757 32.2018841,25.5950966 32.1042514,25.6373155 L31.9046609,25.7214014 C31.8366569,25.7493298 31.7671468,25.7771749 31.6960341,25.8049878 L31.4777915,25.8883805 L31.2493541,25.9718857 L31.0101424,26.055809 L30.7595774,26.1404566 L30.4970796,26.2261344 L30.0796921,26.3572517 L29.7848284,26.4468433 L29.4760046,26.5385357 L28.9853267,26.6806828 L27.8471934,27.0030016 L27.433025,27.1229401 L27.0465577,27.2382156 L26.803932,27.3126489 L26.4619668,27.4209337 L26.2483148,27.4910319 L26.0458635,27.5595784 L25.8543907,27.6266771 L25.6736742,27.6924323 L25.5034918,27.7569482 C25.4759936,27.7676033 25.448925,27.7782111 25.4222815,27.7887738 L25.2674836,27.8516258 L25.1226645,27.9134986 C25.0993471,27.923735 25.0764363,27.9339348 25.0539274,27.9441004 L24.9236596,28.0046999 L24.802815,28.0645806 C24.7834472,28.0745066 24.7644627,28.084407 24.745857,28.094284 L24.6387306,28.1532818 C24.6216213,28.1630737 24.6048816,28.1728465 24.5885067,28.1826023 L24.4945985,28.2409515 C24.3153907,28.357313 24.1873896,28.4718612 24.1025966,28.5883446 C23.3646751,29.6020549 23,30.7292324 23,31.9998194 C23,32.5521042 22.5522847,32.9998194 22,32.9998194 C21.4477153,32.9998194 21,32.5521042 21,31.9998194 C21,30.3074435 21.49807,28.7679543 22.4856387,27.4112943 C22.7837689,27.0017417 23.1595462,26.6753998 23.6941663,26.3770919 L23.843971,26.2963888 C23.8696151,26.2830403 23.8956027,26.2697394 23.9219414,26.2564808 L24.0842472,26.1773965 L24.2553445,26.0990805 C24.2846137,26.0860781 24.3142645,26.0730973 24.3443044,26.0601329 L24.5292754,25.9825029 C24.5925298,25.9566645 24.657402,25.9308505 24.7239529,25.9050195 L24.9287031,25.8274337 L25.143892,25.7494969 L25.3698855,25.6709604 L25.6070497,25.5915754 L25.8557507,25.5110933 L26.2512341,25.3877687 L26.5303782,25.3034553 L27.1274858,25.1286766 L28.5880447,24.7138996 L29.0397884,24.5817121 L29.4591577,24.4549684 L29.8478134,24.3328713 L30.0906742,24.2536609 L30.3211146,24.175925 C30.3585137,24.1630788 30.3954157,24.1502842 30.431831,24.1375362 L30.6445638,24.0615693 L30.8461064,23.9864862 C30.8787917,23.9740329 30.9110312,23.9616066 30.9428352,23.9492024 L31.1285154,23.8750024 L31.3042358,23.8010957 C31.361204,23.7764828 31.4165942,23.7518794 31.4704884,23.7272461 L31.6277654,23.6532175 L31.7765587,23.5787734 C31.8247973,23.5538633 31.8717039,23.5288445 31.9173606,23.5036778 L32.0506631,23.4276944 C32.1155215,23.3894413 32.1777521,23.3507668 32.2376318,23.3115378 L32.3543387,23.2323012 C32.3732947,23.2189588 32.3920101,23.205545 32.410495,23.1920547 Z" id="Path-2-Copy" fill="#055A60" transform="translate(27.500035, 27.999785) scale(-1, 1) translate(-27.500035, -27.999785) "></path>
                    <path d="M20,10.9998194 C18.3431458,10.9998194 17,12.3429652 17,13.9998194 C17,15.6566737 18.3431458,16.9998194 20,16.9998194 C21.6568542,16.9998194 23,15.6566737 23,13.9998194 C23,12.3429652 21.6568542,10.9998194 20,10.9998194 Z M20,12.9998194 C20.5522847,12.9998194 21,13.4475347 21,13.9998194 C21,14.5521042 20.5522847,14.9998194 20,14.9998194 C19.4477153,14.9998194 19,14.5521042 19,13.9998194 C19,13.4475347 19.4477153,12.9998194 20,12.9998194 Z" id="Oval-Copy-2" fill="#3B352E"></path>
                    <path d="M16.9886925,10.9998194 C18.0345746,10.9998194 18.5759518,11.9138134 18.8993344,13.3947656 L18.9430716,13.6050548 L18.9841522,13.8224935 L17.0158478,14.1771454 L16.9886667,14.0338194 L16.9818219,14.0684789 L15.0181781,13.6888702 L15.0392907,13.5821335 L15.0834449,13.3739626 C15.4094209,11.907782 15.9450881,10.9998194 16.9886925,10.9998194 Z" id="Path-Copy-2" fill="#3B352E"></path>
                    <path d="M14,10.9998194 C12.3431458,10.9998194 11,12.3429652 11,13.9998194 C11,15.6566737 12.3431458,16.9998194 14,16.9998194 C15.6568542,16.9998194 17,15.6566737 17,13.9998194 C17,12.3429652 15.6568542,10.9998194 14,10.9998194 Z M14,12.9998194 C14.5522847,12.9998194 15,13.4475347 15,13.9998194 C15,14.5521042 14.5522847,14.9998194 14,14.9998194 C13.4477153,14.9998194 13,14.5521042 13,13.9998194 C13,13.4475347 13.4477153,12.9998194 14,12.9998194 Z" id="Oval-Copy-3" fill="#3B352E"></path>
                </g>
            </g>
        </g>
    </g>
</svg>