<?xml version="1.0" encoding="UTF-8"?>
<svg width="50px" height="50px" viewBox="0 0 50 50" version="1.1" xmlns="http://www.w3.org/2000/svg" xmlns:xlink="http://www.w3.org/1999/xlink">
    <title>director-icon</title>
    <defs>
        <circle id="path-1" cx="25" cy="25" r="25"></circle>
    </defs>
    <g id="director-icon" stroke="none" stroke-width="1" fill="none" fill-rule="evenodd">
        <g id="Group">
            <mask id="mask-2" fill="white">
                <use xlink:href="#path-1"></use>
            </mask>
            <use id="Oval-Copy" fill-opacity="0.08" fill="#3B352E" xlink:href="#path-1"></use>
            <path d="M12.7721815,11.6052268 C13.1058585,11.3382852 13.5672238,11.3140178 13.9241169,11.5324246 L14.0278185,11.6052268 L24.0778185,19.6452268 C24.5112368,19.9919614 24.5815077,20.6244003 24.2347732,21.0578185 C23.9147104,21.4578969 23.3512074,21.548548 22.9255134,21.2874109 L22.8221815,21.2147732 L13.4,13.676 L3.97781852,21.2147732 C3.57774014,21.5348359 3.00808209,21.4995802 2.65009357,21.1513672 L2.56522685,21.0578185 C2.24516414,20.6577401 2.2804198,20.0880821 2.6286328,19.7300936 L2.72218148,19.6452268 L12.7721815,11.6052268 Z" id="Path-18" fill="#3B352E" fill-rule="nonzero" mask="url(#mask-2)"></path>
            <g id="Blok" mask="url(#mask-2)">
                <g transform="translate(5.000000, 19.000000)">
                    <path d="M0.941176471,13 L0.941176471,-1.59872116e-14 M16,8.8817842e-16 L16,13" id="Shape" stroke="#3B352E" stroke-width="2.01" fill="none" stroke-linecap="round" stroke-linejoin="round"></path>
                    <rect id="Rectangle-Copy-14" stroke="none" fill="#3B352E" fill-rule="evenodd" x="3" y="3" width="2" height="4" rx="1"></rect>
                    <rect id="Rectangle-Copy-16" stroke="none" fill="#3B352E" fill-rule="evenodd" x="12" y="3" width="2" height="4" rx="1"></rect>
                    <rect id="Rectangle-Copy-17" stroke="none" fill="#3B352E" fill-rule="evenodd" x="6" y="3" width="2" height="4" rx="1"></rect>
                    <rect id="Rectangle-Copy-18" stroke="none" fill="#3B352E" fill-rule="evenodd" x="9" y="3" width="2" height="4" rx="1"></rect>
                    <rect id="Rectangle-Copy-15" stroke="none" fill="#3B352E" fill-rule="evenodd" x="3" y="8" width="2" height="4" rx="1"></rect>
                    <rect id="Rectangle-Copy-21" stroke="none" fill="#3B352E" fill-rule="evenodd" x="12" y="8" width="2" height="4" rx="1"></rect>
                    <rect id="Rectangle-Copy-20" stroke="none" fill="#3B352E" fill-rule="evenodd" x="6" y="8" width="2" height="4" rx="1"></rect>
                    <rect id="Rectangle-Copy-19" stroke="none" fill="#3B352E" fill-rule="evenodd" x="9" y="8" width="2" height="4" rx="1"></rect>
                </g>
            </g>
            <g id="Group-2-Copy" mask="url(#mask-2)">
                <g transform="translate(17.666667, 8.949466)" id="Group">
                    <g id="Group-4" transform="translate(0.000000, 22.713101)" fill="#055A60" fill-rule="nonzero">
                        <path d="M16.2256024,0.37140069 C16.5990509,-0.085684632 17.2760163,-0.116156987 17.6899337,0.279983626 L17.7743976,0.37140069 L19.1077309,2.00334513 C19.374422,2.32976387 19.4053311,2.78391971 19.1969185,3.14034959 L19.1272115,3.24412131 L18.544,4.00509998 L19.1859867,5.05106746 C19.2758711,5.1977537 19.3260115,5.36449396 19.3325907,5.5349807 L19.3292978,5.66329341 L18.3292978,16.7605156 C18.2797308,17.3105716 17.7936403,17.7162981 17.2435843,17.6667311 C17.1650049,17.6596501 17.089371,17.6436604 17.0175892,17.6198483 L17,17.6121 L16.9824108,17.6198483 C16.9465199,17.6317544 16.909666,17.6417048 16.8719623,17.6495639 L16.7564157,17.6667311 C16.2456494,17.7127576 15.7900371,17.3662096 15.6878695,16.8760623 L15.6707022,16.7605156 L14.6707022,5.66329341 C14.6552623,5.49195265 14.6843378,5.32028149 14.7541116,5.16458746 L14.8140133,5.05106746 L15.455,4.00509998 L14.8727885,3.24412131 C14.6164761,2.90949126 14.5998395,2.45458893 14.8193388,2.1048774 L14.8922691,2.00334513 L16.2256024,0.37140069 Z M17,5.31109998 L16.692,5.81309998 L17,9.22809998 L17.307,5.81309998 L17,5.31109998 Z" id="Path"></path>
                        <path d="M11.410495,0.196335289 C11.8566111,-0.129239356 12.4821901,-0.0315211814 12.8077647,0.414594942 C13.1333393,0.860711065 13.0356212,1.48629004 12.589505,1.81186468 C12.0054792,2.23808555 11.33985,2.57477775 10.4135893,2.91649484 L9.92791084,3.08820988 C9.84306827,3.11704476 9.75620856,3.14602397 9.66722809,3.17520223 L9.10706739,3.35309816 L8.49103562,3.53839779 L6.70601308,4.04780146 L5.92376143,4.27994584 L5.46196675,4.42521424 L5.0458635,4.56385891 L4.67367418,4.69671289 L4.34362132,4.82460922 C4.29202513,4.84555842 4.24211057,4.86633577 4.1938406,4.8869586 L3.92365965,5.00898044 C3.88181992,5.02905469 3.84155073,5.04900914 3.80281504,5.06886116 L3.58850667,5.18688284 C3.35925799,5.32346464 3.20152183,5.45672779 3.10259659,5.59262509 C2.36467508,6.60633545 2,7.73351296 2,9.00409998 C2,9.55638473 1.55228475,10.0041 1,10.0041 C0.44771525,10.0041 0,9.55638473 0,9.00409998 C0,7.31172405 0.498070023,5.77223489 1.48563871,4.41557487 C1.85830149,3.90363408 2.35228775,3.52171012 3.12618301,3.16203578 L3.47545204,3.00893766 C3.59789572,2.95814956 3.72651416,2.90750135 3.86176974,2.85667884 L4.28791018,2.70337418 C4.36240627,2.67763152 4.43867723,2.65176673 4.51678084,2.62574055 L5.00785684,2.46733249 C5.09352228,2.44050362 5.18113597,2.4134348 5.2707557,2.38608677 L6.13305687,2.13135514 L7.59584803,1.71592809 L8.20428263,1.53680754 L8.75343805,1.36728406 L9.24755369,1.20532244 C9.32555517,1.17884593 9.40143997,1.15259969 9.47529641,1.12654133 L9.89480128,0.972106468 L10.2698649,0.820145433 C10.7422064,0.618275399 11.107343,0.417574996 11.410495,0.196335289 Z" id="Path-2"></path>
                        <path d="M21.7535892,0.196335289 C22.520955,-0.363686713 23.5634827,0.361350385 23.3055206,1.27564273 L23.2569233,1.461802 L23.1985848,1.71479576 L23.133564,2.03049881 L23.0649195,2.40478598 C22.7567644,4.18973969 22.703466,6.06323132 23.0605462,7.78657655 C23.1260071,8.1025049 23.2048728,8.40918038 23.2975742,8.70582499 C23.9343842,10.743617 25.1944365,12.9052572 27.0855628,15.1834448 L27.364,15.5141 L27.6827555,15.1514637 C29.3487235,13.2110971 30.5362141,11.2018534 31.2517895,9.1226078 L31.3886143,8.70582499 C32.2022145,6.1023044 32.2022145,3.65439716 31.3980989,1.33118378 C31.2174555,0.809277264 31.494104,0.239748036 32.0160105,0.0591046453 C32.537917,-0.121538746 33.1074462,0.155109677 33.2880896,0.677016191 C34.2357227,3.41487382 34.2357227,6.30029991 33.2975742,9.30237498 C32.3725568,12.2624307 30.6224145,15.0626584 28.0604835,17.7007726 C27.658385,18.1148281 26.9902275,18.1034681 26.6024368,17.6759829 C23.9693404,14.7733602 22.227254,11.9860219 21.3886143,9.30237498 C21.2759175,8.94174528 21.1806954,8.57146639 21.1021441,8.19236102 C20.7506543,6.49599667 20.7395892,4.72316655 20.9548799,2.99925125 L20.977,2.83309998 L20.7566836,2.91649484 L20.2710051,3.08820988 C20.1861625,3.11704476 20.0993028,3.14602397 20.0103223,3.17520223 L19.4501616,3.35309816 L18.8341299,3.53839779 L17.0491073,4.04780146 L16.2668557,4.27994584 L15.805061,4.42521424 L15.3889578,4.56385891 L15.0167684,4.69671289 L14.6867156,4.82460922 C14.6351194,4.84555842 14.5852048,4.86633577 14.5369349,4.8869586 L14.2667539,5.00898044 C14.2249142,5.02905469 14.184645,5.04900914 14.1459093,5.06886116 L13.9316009,5.18688284 C13.7023523,5.32346464 13.5446161,5.45672779 13.4456908,5.59262509 C12.7077693,6.60633545 12.3430943,7.73351296 12.3430943,9.00409998 C12.3430943,9.55638473 11.895379,10.0041 11.3430943,10.0041 C10.7908095,10.0041 10.3430943,9.55638473 10.3430943,9.00409998 C10.3430943,7.31172405 10.8411643,5.77223489 11.828733,4.41557487 C12.2013958,3.90363408 12.695382,3.52171012 13.4692773,3.16203578 L13.8185463,3.00893766 C13.94099,2.95814956 14.0696084,2.90750135 14.204864,2.85667884 L14.6310044,2.70337418 C14.7055005,2.67763152 14.7817715,2.65176673 14.8598751,2.62574055 L15.3509511,2.46733249 C15.4366165,2.44050362 15.5242302,2.4134348 15.61385,2.38608677 L16.4761511,2.13135514 L17.9389423,1.71592809 L18.5473769,1.53680754 L19.0965323,1.36728406 L19.590648,1.20532244 C19.6686494,1.17884593 19.7445342,1.15259969 19.8183907,1.12654133 L20.2378955,0.972106468 L20.6129592,0.820145433 C21.0853007,0.618275399 21.4504372,0.417574996 21.7535892,0.196335289 Z" id="Path-2-Copy" transform="translate(22.171549, 9.002051) scale(-1, 1) translate(-22.171549, -9.002051) "></path>
                    </g>
                    <g id="Group-3" transform="translate(8.333233, 0.000000)" fill="#3B352E" fill-rule="nonzero">
                        <path d="M2.1819189,6.05053409 L2.18084811,6.3243648 L2.17227992,6.91455003 L2.15513887,7.56136985 L2.12942007,8.26474766 L2.09511861,9.02460684 L2.05222962,9.8408708 L1.96610072,11.2445341 C1.22948913,11.0386564 0.555395724,11.3592818 0.207990748,12.2885813 L0.143417508,12.4876293 C-0.0812411714,13.3172341 -0.0269729484,14.4573423 0.234655551,15.4017708 L0.280657647,15.559242 C0.487896625,16.2326088 0.79792172,16.7854192 1.21583489,17.0833225 L1.29510072,17.1345341 L1.33014767,17.366301 C1.57615646,18.813763 2.29798425,20.1217091 3.58335474,21.4434289 C5.19005832,23.0954135 7.07932373,24.0130586 8.93540644,24.0503325 C10.8317315,24.0130587 12.7210404,23.0954034 14.327637,21.4434442 L14.5643436,21.1932786 C15.7144153,19.9428964 16.3642174,18.6963056 16.5882827,17.3231749 L16.6131007,17.1475341 L16.6822155,17.1085578 C17.0261061,16.895778 17.3150909,16.5317937 17.5212085,16.0829123 C17.8090534,15.4560456 17.9812513,14.5949885 17.9986652,13.7859827 C18.0202301,12.7841281 17.832154,11.977496 17.2593048,11.5115708 L17.1415124,11.4229816 C16.8312797,11.2083938 16.513227,11.134277 16.1938132,11.1780645 L16.0381007,11.2085341 L16.0069096,11.1058616 C15.188539,8.64817331 13.1521814,7.65816843 9.6362272,7.21205994 L8.79361263,7.1162602 L7.66716643,6.9979219 L7.15802414,6.93624789 C7.0772661,6.92579687 6.99852461,6.91524747 6.92175025,6.90458114 L6.48431433,6.83903169 C6.3461073,6.81661524 6.21537343,6.7935827 6.09171734,6.76978567 L5.74158702,6.69595275 C4.8074718,6.47942047 4.3561603,6.19693298 4.14484265,5.75735986 L4.10999317,5.67813894 C3.70019074,4.65683916 2.1819189,4.95008361 2.1819189,6.05053409 Z M4.12910072,8.31153409 L4.29187715,8.37468394 C4.85439098,8.58031267 5.54845757,8.72961891 6.41453014,8.85511598 L7.01783815,8.93561022 L7.67477448,9.01119067 L9.07484663,9.15883082 L9.3757448,9.194936 C12.4306037,9.57927034 13.8063182,10.3209117 14.2418229,12.2229552 L14.2521007,12.2745341 L14.2442538,12.3621321 C14.231407,12.5023058 14.2259,12.6034305 14.2254658,12.7149986 C14.2240031,13.0907652 14.2810417,13.3827857 14.5251656,13.6739891 L14.611696,13.7651955 C14.9746639,14.1031006 15.5296024,14.1181668 15.9099049,13.8179949 L15.9991007,13.7375341 L15.9897719,13.951368 C15.9614958,14.37009 15.8772832,14.793478 15.7631198,15.1033825 L15.7261007,15.1925341 L15.6339031,15.1930702 C15.1327338,15.2170793 14.6790332,15.6223039 14.6781271,16.1920229 C14.6759132,17.5840686 14.167343,18.7396324 12.893876,20.049052 C11.6353063,21.3431578 10.2321251,22.0246962 8.93540743,22.0507357 C7.67892805,22.0246966 6.27576664,21.3431596 5.01711381,20.0490348 C3.75595448,18.7522108 3.2456112,17.6062375 3.23340731,16.2343594 L3.22555515,16.1157348 C3.16762156,15.6511813 2.79831897,15.3103526 2.36713167,15.2512353 L2.29410072,15.2445341 L2.28076287,15.2137152 C2.24111697,15.1211364 2.19969398,15.0036633 2.162066,14.8678335 L2.10953646,14.6547915 C2.04622123,14.364689 2.00989129,14.0543531 2.00161026,13.7712113 L2.00110072,13.7125341 L2.0409634,13.7468562 C2.3669511,13.9935283 2.82155158,14.0213236 3.18078517,13.7928645 C3.5034045,13.5876907 3.62615813,13.3891942 3.76116428,12.8982687 L3.83729406,12.5996922 C3.85060986,12.5444966 3.86434565,12.4864349 3.87866081,12.4252822 L3.90256064,12.2669113 L3.9755624,11.1764302 L4.03754136,10.1569251 L4.08849057,9.20828676 L4.12910072,8.31153409 Z" id="Path"></path>
                        <path d="M2.51044188,11.6865691 C2.55482698,11.9993471 2.45066175,12.3280671 2.20196038,12.5597082 C1.79782064,12.9361248 1.16505464,12.9136509 0.788637958,12.5095111 L0.572766734,12.1390913 L0.537815003,12.0613885 L0.534955818,12.032974 C0.535209998,12.0285693 0.535703116,12.0240846 0.536245545,12.0191514 L0.514695024,11.9034143 L0.464983724,11.5360007 L0.333766683,10.3693048 L0.017735212,7.29841798 L0.0127323589,7.19851464 L0,6.32354015 L0.00449241941,5.96302179 C0.0446585503,4.58545292 0.412303458,3.56719676 1.34759802,3.19791113 L1.36710072,3.19053409 L1.37456183,3.16194907 C2.13957613,0.25174344 7.08164907,-0.598011319 11.2473017,0.400476622 L11.4914072,0.461341375 C15.4075431,1.47596322 17.438181,3.9975005 17.9013523,7.35841582 C18.2033079,9.54949897 17.7317431,12.4633041 17.042785,12.896883 C16.5753594,13.1910458 15.95797,13.0506895 15.6638072,12.583163 C15.4957141,12.3160627 15.4695378,12 15.5651917,11.7232508 L15.6021007,11.6315341 C15.5971441,11.6281013 15.5953892,11.6243128 15.5993443,11.6161231 L15.6181007,11.5885341 L15.6736958,11.4007756 C15.7423202,11.1473173 15.8095104,10.8369401 15.864423,10.4976346 C16.0163554,9.55884211 16.0501391,8.57522155 15.9200779,7.63145739 C15.5626938,5.03816752 14.0810296,3.1983163 10.9897945,2.39741593 C7.58651487,1.5156687 3.40806251,2.29186757 3.27645805,3.90731233 L3.27373266,4.01624299 C3.291255,4.58801928 2.82644061,5.05794653 2.25450685,5.04668008 L2.18896659,5.04437494 C2.18352518,5.04490394 2.1799394,5.04635919 2.17688124,5.04944519 L2.15423943,5.09316614 C2.07047716,5.25945113 2.01671119,5.57310853 2.00364282,6.02131153 L2.00008207,6.32797238 L2.01210072,7.14753409 L2.32000794,10.1340584 L2.46808856,11.4351016 L2.48810072,11.5815341 L2.51044188,11.6865691 Z" id="Path"></path>
                        <path d="M12.0001007,11.0505341 C10.3432465,11.0505341 9.00010072,12.3936798 9.00010072,14.0505341 C9.00010072,15.7073883 10.3432465,17.0505341 12.0001007,17.0505341 C13.656955,17.0505341 15.0001007,15.7073883 15.0001007,14.0505341 C15.0001007,12.3936798 13.656955,11.0505341 12.0001007,11.0505341 Z M12.0001007,13.0505341 C12.5523855,13.0505341 13.0001007,13.4982493 13.0001007,14.0505341 C13.0001007,14.6028188 12.5523855,15.0505341 12.0001007,15.0505341 C11.447816,15.0505341 11.0001007,14.6028188 11.0001007,14.0505341 C11.0001007,13.4982493 11.447816,13.0505341 12.0001007,13.0505341 Z" id="Oval-Copy-2"></path>
                    </g>
                    <path d="M16.9886925,10.7172008 C18.0821628,10.7172008 18.6241732,11.7162613 18.9421496,13.3177878 L18.9841522,13.5398748 L17.0158478,13.8945267 L16.988,13.7515341 L16.9818219,13.7858602 L15.0181781,13.4062515 C15.337149,11.7562752 15.8722785,10.7172008 16.9886925,10.7172008 Z" id="Path-Copy-2" fill="#3B352E" fill-rule="nonzero"></path>
                    <path d="M14,10.7172008 C12.3431458,10.7172008 11,12.0603465 11,13.7172008 C11,15.374055 12.3431458,16.7172008 14,16.7172008 C15.6568542,16.7172008 17,15.374055 17,13.7172008 C17,12.0603465 15.6568542,10.7172008 14,10.7172008 Z M14,12.7172008 C14.5522847,12.7172008 15,13.164916 15,13.7172008 C15,14.2694855 14.5522847,14.7172008 14,14.7172008 C13.4477153,14.7172008 13,14.2694855 13,13.7172008 C13,13.164916 13.4477153,12.7172008 14,12.7172008 Z" id="Oval-Copy-3" fill="#3B352E" fill-rule="nonzero"></path>
                </g>
            </g>
        </g>
    </g>
</svg>