<svg xmlns="http://www.w3.org/2000/svg" width="45" height="45" viewBox="0 0 45 45">
    <g fill="none" fill-rule="nonzero">
        <circle cx="22.5" cy="22.5" r="22.5" fill="#EDEFF0"/>
        <g fill="#222">
            <path d="M28.758 11.612a1 1 0 0 1 0-2h5.914a1 1 0 0 1 1 1v5.915a1 1 0 0 1-2 0v-4.915h-4.914zM11.715 16.527a1 1 0 1 1-2 0v-5.915a1 1 0 0 1 1-1h5.914a1 1 0 1 1 0 2h-4.914v4.915zM11.703 32.775h4.915a1 1 0 1 1 0 2h-5.915a1 1 0 0 1-1-1v-5.914a1 1 0 0 1 2 0v4.914zM33.66 27.861a1 1 0 0 1 2 0v5.914a1 1 0 0 1-1 1h-5.914a1 1 0 0 1 0-2h4.915v-4.914z"/>
        </g>
    </g>
</svg>
