<svg xmlns="http://www.w3.org/2000/svg" width="45" height="45" viewBox="0 0 45 45">
    <g fill="none" fill-rule="nonzero">
        <circle cx="22.5" cy="22.5" r="22.5" fill="#EDEFF0"/>
        <g fill="#222">
            <path d="M33.63 16.57a1 1 0 0 1 0 2h-5.915a1 1 0 0 1-1-1v-5.915a1 1 0 0 1 2 0v4.915h4.914zM16.672 11.655a1 1 0 1 1 2 0v5.915a1 1 0 0 1-1 1h-5.914a1 1 0 1 1 0-2h4.914v-4.915zM16.66 27.818h-4.914a1 1 0 1 1 0-2h5.915a1 1 0 0 1 1 1v5.915a1 1 0 0 1-2 0v-4.915zM28.703 32.733a1 1 0 0 1-2 0v-5.915a1 1 0 0 1 1-1h5.915a1 1 0 0 1 0 2h-4.915v4.915z"/>
        </g>
    </g>
</svg>
