<svg xmlns="http://www.w3.org/2000/svg" width="150" height="150" viewBox="0 0 150 150">
    <g fill="none" fill-rule="evenodd">
        <rect width="150" height="150" fill="#EDEFF0" rx="75"/>
        <g fill="#C00" fill-rule="nonzero">
            <path d="M75 62a9 9 0 1 0 0 18 9 9 0 0 0 0-18zm0 5.684a3.316 3.316 0 1 1 0 6.632 3.316 3.316 0 0 1 0-6.632z"/>
            <path d="M75 78c6.617 0 12 5.301 12 11.864a3 3 0 0 1-1.747 2.726l-9 4.136a3 3 0 0 1-2.506 0l-9-4.136A3 3 0 0 1 63 89.864C63 83.3 68.383 78 75 78zm5.053 5.68c-1.264-1.035-3.79-1.035-5.053 1.036-1.263-2.071-3.79-2.071-5.053-1.036-1.263 1.036-1.263 3.107 0 5.178C70.832 90.41 73.105 91.964 75 93c1.895-1.036 4.168-2.589 5.053-4.142 1.263-2.071 1.263-4.142 0-5.178z"/>
            <path d="M75 53c12.15 0 22 9.85 22 22s-9.85 22-22 22-22-9.85-22-22 9.85-22 22-22zm0 6c-8.837 0-16 7.163-16 16 0 7.624 5.332 14.002 12.47 15.61 1.043.912 2.359 1.75 3.53 2.39 1.171-.64 2.487-1.478 3.53-2.391C85.668 89.002 91 82.624 91 75c0-8.837-7.163-16-16-16z"/>
        </g>
        <g stroke="#333" stroke-linecap="round" stroke-linejoin="round" stroke-width="6">
            <path d="M75 25v21M81 37l-6 9-6-9"/>
            <g>
                <path d="M75 125v-21M69 113l6-9 6 9"/>
            </g>
        </g>
        <g stroke="#333" stroke-linecap="round" stroke-linejoin="round" stroke-width="6">
            <path d="M125 75h-21M113 81l-9-6 9-6"/>
            <g>
                <path d="M25 75h21M37 69l9 6-9 6"/>
            </g>
        </g>
    </g>
</svg>
