<svg width="50" height="30" viewBox="0 0 50 30" fill="none" xmlns="http://www.w3.org/2000/svg">
<path d="M30.1465 7.50681L22.7855 9.92981C21.4973 10.3592 20.1171 9.6231 19.6877 8.33492C19.3197 7.2001 19.8411 5.94259 20.9146 5.39051L28.0609 1.86336C29.2877 1.24994 30.7293 1.15793 32.0174 1.64866L42.5682 5.45186V19.9285L30.1465 22.2902" stroke="#2F2F2F" stroke-width="1.5" stroke-linecap="round" stroke-linejoin="round"/>
<path d="M7.42188 19.9287H12.5746L19.997 28.2405C21.0091 29.4367 22.8187 29.5594 23.9842 28.5472C24.5976 27.9952 24.9656 27.2284 24.9656 26.4003V25.0814L25.3337 25.2348C27.1433 25.9402 29.1676 25.0814 29.873 23.2718C30.0263 22.8731 30.1184 22.4131 30.1184 21.9837H31.1612C32.8787 21.9837 34.2589 20.6035 34.2589 18.8859C34.2589 18.2111 34.0442 17.5671 33.6455 17.015L27.0206 8.5498" stroke="#2F2F2F" stroke-width="1.5" stroke-linecap="round" stroke-linejoin="round"/>
<path d="M21.99 4.8694L21.2232 4.25599C19.9964 3.33586 18.3708 3.12116 16.9293 3.70391L7.39062 7.53777" stroke="#2F2F2F" stroke-width="1.5" stroke-linecap="round" stroke-linejoin="round"/>
<path d="M1.22656 3.39648H5.36714C6.50196 3.39648 7.42209 4.31661 7.42209 5.45144V19.9281C7.42209 21.0629 6.50196 21.9831 5.36714 21.9831H1.22656" stroke="#2F2F2F" stroke-width="1.5" stroke-linecap="round" stroke-linejoin="round"/>
<path d="M48.7658 21.9831H44.6253C43.4904 21.9831 42.5703 21.0629 42.5703 19.9281V5.45144C42.5703 4.31661 43.4904 3.39648 44.6253 3.39648H48.7658" stroke="#2F2F2F" stroke-width="1.5" stroke-linecap="round" stroke-linejoin="round"/>
<path d="M25.0003 25.0813L22.9453 23.0264" stroke="#2F2F2F" stroke-width="1.5" stroke-linecap="round" stroke-linejoin="round"/>
<path d="M27.0547 18.8857L30.1524 21.9835" stroke="#2F2F2F" stroke-width="1.5" stroke-linecap="round" stroke-linejoin="round"/>
</svg>
