<svg width="106" height="46" viewBox="0 0 106 46" fill="none" xmlns="http://www.w3.org/2000/svg">
<path d="M105.3 8.29883V30.4988H100.5V27.7988C99.7 29.0988 97.6 31.0988 93.6 31.0988C89.5 31.0988 86.2 28.3988 86.2 23.3988V8.29883H91.1V22.2988C91.1 25.2988 92.7 26.8988 95.1 26.8988C98.4 26.8988 100.5 24.0988 100.5 21.2988V8.29883H105.3Z" fill="#3B352E"/>
<path d="M81.5999 8C78.1999 8 75.9999 9.8 75.1999 11.7V8.3H70.3999V30.5H75.2999V20C75.2999 15.5 77.7999 13.1 80.8999 12.7C81.7999 12.6 82.5999 12.6 83.4999 12.8V8.2C83.0999 8.2 82.3999 8 81.5999 8Z" fill="#3B352E"/>
<path d="M68 9.99961C68 15.6996 64.4 19.3996 58.4 19.3996H50.8V30.3996H45.6V0.599609H58.3C64.4 0.599609 68 4.29961 68 9.99961ZM62.7 9.99961C62.7 7.09961 60.9 5.19961 57.8 5.19961H50.7V14.8996H57.8C61 14.8996 62.7 12.8996 62.7 9.99961Z" fill="#3B352E"/>
<path d="M30.6 0.599609H0.699951V30.4996H30.6V0.599609Z" fill="#EB5C37"/>
<path d="M49.9 41.7004C49.9 43.1004 49.1 44.0004 48 44.0004C47.3 44.0004 46.9 43.7004 46.6 43.3004V45.4004H45.6V39.5004H46.6V40.1004C46.9 39.7004 47.3 39.4004 48 39.4004C49.1 39.4004 49.9 40.3004 49.9 41.7004ZM48.9 41.7004C48.9 40.7004 48.4 40.2004 47.7 40.2004C47 40.2004 46.5 40.8004 46.5 41.7004C46.5 42.6004 47 43.2004 47.7 43.2004C48.4 43.2004 48.9 42.7004 48.9 41.7004Z" fill="#EB5C37"/>
<path d="M54.1999 41.2004V44.0004H53.1999V43.5004C52.9999 43.8004 52.5999 44.1004 51.8999 44.1004C50.9999 44.1004 50.3999 43.6004 50.3999 42.7004C50.3999 41.7004 51.1999 41.3004 52.4999 41.3004H53.1999V41.2004C53.1999 40.5004 52.7999 40.2004 52.2999 40.2004C51.7999 40.2004 51.4999 40.4004 51.1999 40.8004L50.5999 40.2004C50.9999 39.7004 51.5999 39.4004 52.3999 39.4004C53.3999 39.4004 54.1999 40.0004 54.1999 41.2004ZM53.1999 42.0004H52.6999C51.8999 42.0004 51.3999 42.1004 51.3999 42.7004C51.3999 43.1004 51.6999 43.3004 52.1999 43.3004C52.8999 43.3004 53.2999 42.7004 53.2999 42.3004V42.0004H53.1999Z" fill="#EB5C37"/>
<path d="M61 43.9004C60.7 44.0004 60.4 44.1004 60.1 44.1004C59.3 44.1004 58.8 43.8004 58.8 42.9004V40.4004H58.1V39.6004H58.8V38.4004H59.8V39.6004H60.9V40.4004H59.8V42.6004C59.8 43.1004 59.9 43.2004 60.3 43.2004C60.4 43.2004 60.6 43.2004 60.8 43.1004L61 43.9004Z" fill="#EB5C37"/>
<path d="M63.2 41.7004C63.2 40.3004 64.0999 39.4004 65.3999 39.4004C66.6999 39.4004 67.6 40.3004 67.6 41.7004C67.6 43.1004 66.6999 44.0004 65.3999 44.0004C64.1999 44.1004 63.2 43.2004 63.2 41.7004ZM66.6 41.7004C66.6 40.8004 66.0999 40.2004 65.3999 40.2004C64.6999 40.2004 64.2 40.8004 64.2 41.7004C64.2 42.6004 64.6999 43.2004 65.3999 43.2004C66.1999 43.2004 66.6 42.6004 66.6 41.7004Z" fill="#EB5C37"/>
<path d="M69.6 39.4992H70.7V40.2992H69.6V43.8992H68.6V40.2992H68V39.4992H68.6V39.0992C68.6 38.1992 69.2 37.6992 70 37.6992C70.2 37.6992 70.5 37.6992 70.7 37.7992L70.6 38.5992C70.4 38.5992 70.3 38.4992 70.2 38.4992C69.8 38.4992 69.6 38.6992 69.6 39.1992V39.4992Z" fill="#EB5C37"/>
<path d="M79.5 44.0004H78.5V39.6004L76.8999 44.0004H75.7999L74.2 39.6004V44.0004H73.2V37.9004H74.6L76.3999 42.7004L78.2 37.9004H79.6V44.0004H79.5Z" fill="#EB5C37"/>
<path d="M84.7 43.9988L84.3 43.5988C83.8 43.8988 83.3 44.0988 82.6 44.0988C81.4 44.0988 80.5 43.4988 80.5 42.3988C80.5 41.5988 81 41.0988 81.6 40.6988C81.3 40.2988 81 39.8988 81 39.2988C81 38.3988 81.7 37.7988 82.7 37.7988C83.7 37.7988 84.4 38.3988 84.4 39.2988C84.4 39.9988 83.9 40.4988 83.1 40.9988L84.3 42.3988C84.5 42.1988 84.6 41.8988 84.7 41.4988L85.6 41.6988C85.5 42.1988 85.3 42.6988 85 43.0988L85.9 44.0988H84.7V43.9988ZM83.7 42.8988L82.3 41.2988C81.8 41.5988 81.6 41.8988 81.6 42.2988C81.6 42.8988 82.1 43.1988 82.8 43.1988C83 43.1988 83.4 43.0988 83.7 42.8988ZM82 39.2988C82 39.6988 82.2 39.9988 82.5 40.1988C83.1 39.8988 83.4 39.5988 83.4 39.1988C83.4 38.8988 83.2 38.5988 82.7 38.5988C82.2 38.5988 82 38.8988 82 39.2988Z" fill="#EB5C37"/>
<path d="M91.5999 40.5992V43.8992H90.6999V43.2992C90.3999 43.7992 89.7999 44.0992 89.0999 44.0992C87.3999 44.0992 86.2999 42.7992 86.2999 40.8992C86.2999 38.9992 87.4999 37.6992 89.1999 37.6992C90.0999 37.6992 90.9999 38.0992 91.5999 38.8992L90.6999 39.4992C90.2999 38.8992 89.7999 38.6992 89.1999 38.6992C88.0999 38.6992 87.2999 39.4992 87.2999 40.8992C87.2999 42.2992 88.0999 43.0992 89.1999 43.0992C90.0999 43.0992 90.6999 42.5992 90.6999 41.5992V41.4992H89.0999V40.5992H91.5999Z" fill="#EB5C37"/>
<path d="M98.6999 41.7004C98.6999 43.1004 97.8999 44.0004 96.7999 44.0004C96.0999 44.0004 95.6999 43.7004 95.3999 43.3004V45.4004H94.3999V39.5004H95.3999V40.1004C95.6999 39.7004 96.0999 39.4004 96.7999 39.4004C97.8999 39.4004 98.6999 40.3004 98.6999 41.7004ZM97.6999 41.7004C97.6999 40.7004 97.1999 40.2004 96.4999 40.2004C95.7999 40.2004 95.2999 40.8004 95.2999 41.7004C95.2999 42.6004 95.7999 43.2004 96.4999 43.2004C97.1999 43.2004 97.6999 42.7004 97.6999 41.7004Z" fill="#EB5C37"/>
<path d="M99.5 37.7988H100.5V43.8988H99.5V37.7988Z" fill="#EB5C37"/>
<path d="M101.2 41.7004C101.2 40.3004 102.1 39.4004 103.4 39.4004C104.1 39.4004 104.8 39.6004 105.3 40.5004L104.5 40.9004C104.2 40.4004 103.9 40.3004 103.5 40.3004C102.7 40.3004 102.3 40.9004 102.3 41.8004C102.3 42.7004 102.8 43.3004 103.5 43.3004C103.9 43.3004 104.3 43.1004 104.5 42.6004L105.3 43.0004C104.8 43.9004 104.1 44.2004 103.4 44.2004C102.1 44.1004 101.2 43.1004 101.2 41.7004Z" fill="#EB5C37"/>
<path d="M57.4 39.5C56.7 39.5 56.3 39.9 56.1 40.2V39.5H55.1V44H56.1V41.9C56.1 41 56.6 40.5 57.2 40.4C57.4 40.4 57.5 40.4 57.7 40.4V39.5C57.7 39.5 57.6 39.5 57.4 39.5Z" fill="#EB5C37"/>
</svg>
