<?xml version="1.0" encoding="UTF-8"?>
<svg width="50px" height="50px" viewBox="0 0 50 50" version="1.1" xmlns="http://www.w3.org/2000/svg" xmlns:xlink="http://www.w3.org/1999/xlink">
    <title>manager-icon</title>
    <defs>
        <circle id="path-1" cx="25" cy="25" r="25"></circle>
    </defs>
    <g id="manager-icon" stroke="none" stroke-width="1" fill="none" fill-rule="evenodd">
        <g id="Group">
            <mask id="mask-2" fill="white">
                <use xlink:href="#path-1"></use>
            </mask>
            <use id="Oval" fill-opacity="0.08" fill="#3B352E" xlink:href="#path-1"></use>
            <g id="Group-2" mask="url(#mask-2)">
                <g transform="translate(7.995000, 9.000000)" id="Group">
                    <path d="M9.92264463,5.025 L9.92160077,5.30035377 L9.91324816,5.89378509 L9.88504836,6.89060155 L9.83802962,8.01519745 L9.77217636,9.2673209 L9.713,10.235 L9.62492159,10.2139469 C8.9412875,10.0737971 8.32044449,10.4125782 7.99742624,11.303646 L7.93482978,11.5026934 C7.71754828,12.3301888 7.77018688,13.4706192 8.02398664,14.4154176 L8.06920984,14.5750274 C8.27300029,15.257589 8.57870913,15.8185398 8.99477113,16.1189987 L9.058,16.16 L9.09234988,16.3934149 C9.33163048,17.8436999 10.0339655,19.1556631 11.2863451,20.4837025 C12.8573534,22.1494635 14.7091233,23.0770037 16.533438,23.1147846 C18.3994541,23.0770039 20.251267,22.1494532 21.8221703,20.4837181 L22.0527884,20.2323855 C23.1732223,18.976304 23.8054546,17.7260288 24.0233942,16.350241 L24.048,16.171 L24.1436062,16.1119198 C24.4683295,15.8920611 24.7401983,15.5330959 24.934394,15.0969617 C25.2136871,14.4697115 25.3808026,13.6079545 25.3976987,12.7984708 C25.4186366,11.7953493 25.237058,10.9922477 24.6776201,10.5230113 L24.5640719,10.4346159 C24.222416,10.1889541 23.8719943,10.1178315 23.5218394,10.1894161 L23.484,10.198 L23.4659889,10.1350004 C22.6356401,7.50740117 20.5004835,6.55515124 16.6425902,6.12280158 L15.3068829,5.97770196 L14.8127754,5.91607969 L14.3659466,5.85218203 L13.9640427,5.78510234 C13.9006716,5.77360685 13.8390744,5.761941 13.7792019,5.7500859 L13.4402718,5.67653319 C12.5363882,5.46084308 12.1026134,5.1795422 11.8980186,4.73983183 L11.8642436,4.66057261 C11.4610569,3.62435985 9.92264463,3.91311132 9.92264463,5.025 Z M23.386,12.798 L23.3789612,12.9673308 C23.351233,13.3908185 23.2686477,13.8189543 23.1565713,14.1326212 L23.124,14.213 L23.0712952,14.2127951 C22.5642226,14.232113 22.1016577,14.6400131 22.1007675,15.2172446 C22.0985995,16.6230104 21.6012812,17.7883205 20.3598715,19.104667 C19.13854,20.3997273 17.7816716,21.0793663 16.533439,21.1052154 C15.326904,21.0793667 13.9700543,20.399729 12.7486421,19.1046494 C11.5192449,17.8009808 11.0202289,16.645426 11.0082781,15.2600153 L11.0010784,15.1461604 C10.9435648,14.6626636 10.5510671,14.3119777 10.091,14.267 L10.0817517,14.2442696 C10.0428114,14.1504727 10.0020996,14.031445 9.96516751,13.8939612 L9.91362045,13.6783667 C9.87220154,13.4826452 9.84255848,13.2778071 9.82501666,13.0780053 L9.807,12.764 L9.86838852,12.8088964 C10.1925854,13.0127219 10.6172884,13.0196968 10.9547217,12.7983958 C11.2728813,12.5897352 11.3917306,12.3944257 11.5231728,11.9012802 L11.597391,11.6008838 C11.6103934,11.5452714 11.6238183,11.4867299 11.6378249,11.4250256 L11.6604683,11.2703506 L11.7242209,10.2929006 L11.7794633,9.37176007 L11.8261445,8.50673747 L11.88,7.314 L11.9887793,7.3571113 C12.6484848,7.60563241 13.4920944,7.77292292 14.5862389,7.91470819 L15.2733229,7.99716452 L16.4225961,8.12072236 L16.7242851,8.15604265 C19.8856192,8.54280965 21.2423118,9.25968251 21.6753911,11.2236439 L21.686,11.277 L21.6778622,11.370429 C21.6653911,11.5106957 21.6600479,11.6117334 21.6596282,11.7229054 C21.6582187,12.0963441 21.712703,12.384004 21.9491502,12.6748643 C22.307,13.1150698 22.9409849,13.1616947 23.3586369,12.8248768 L23.386,12.798 Z" id="Path" fill="#3B352E" fill-rule="nonzero"></path>
                    <path d="M9.14055145,2.10696709 C9.91888099,-0.859206777 14.9285991,-1.68886734 19.0406164,-0.590202169 C22.8715939,0.433373661 24.8522711,2.96973183 25.3031252,6.34350475 C25.5969493,8.54221073 25.1390929,11.4597211 24.4637333,11.898024 C23.998144,12.2001876 23.3757573,12.067705 23.0735936,11.6021157 C22.9009286,11.3360647 22.870189,11.0188145 22.9624285,10.7393719 L22.999,10.644 C22.994008,10.6411783 22.9921564,10.6377171 22.9959613,10.6296551 L23.014,10.602 L23.0462797,10.4972549 L23.0700695,10.4094311 C23.1371696,10.1538578 23.2028384,9.84102929 23.2565014,9.49908267 C23.4049886,8.55290613 23.438011,7.56140433 23.310836,6.6097443 C22.9620215,3.99954099 21.5198007,2.15270374 18.5217767,1.35167973 C15.2196454,0.469403135 11.1809323,1.24221513 11.0503804,2.86922286 L11.0475897,2.98146946 C11.0635246,3.51769502 10.6574479,3.96442617 10.1360116,4.01211574 L10.0226213,4.01611435 C9.97361479,4.0151188 9.92897392,4.05247007 9.89297829,4.17459084 L9.86434191,4.30110842 C9.85995532,4.32601558 9.85577011,4.35292341 9.85179877,4.38196727 L9.83063692,4.58294537 L9.8152067,4.84168443 L9.80755927,5.09427464 L9.80933324,5.56231842 L9.81657671,6.04497962 C9.81615549,6.06366506 9.81529526,6.07489096 9.81394387,6.08133109 L10.1606975,9.53597876 L10.2676561,10.4791479 L10.277,10.553 L10.2829758,10.564348 C10.2901578,10.5814147 10.2900356,10.587828 10.2872655,10.5924979 L10.305472,10.7044825 C10.3402828,10.9800975 10.2606165,11.2662259 10.0703417,11.486824 L9.98203473,11.5771323 C9.5701237,11.9491613 8.93461476,11.9168305 8.56258578,11.5049195 L8.37683565,11.1793856 L8.32561135,11.07715 L8.31688467,11.0435923 L8.31821468,11.0171937 L8.28696063,10.8311341 L8.20097803,10.1098815 L7.9026631,7.16426806 L7.80867375,6.17872045 L7.79626669,5.29943843 L7.7978766,5.05706652 C7.7985716,5.01779441 7.79948648,4.97841769 7.80063102,4.93793701 C7.83766965,3.62793423 8.15884642,2.64281869 8.97494941,2.22531938 L9.129,2.155 L9.14055145,2.10696709 Z" id="Path" fill="#3B352E" fill-rule="nonzero"></path>
                    <path d="M11.1206625,22.3120049 C11.5641445,21.9782385 12.1942288,22.0671805 12.5279951,22.5106625 C12.8617615,22.9541445 12.7728195,23.5842288 12.3293375,23.9179951 C11.7574257,24.3484184 11.1063636,24.6881393 10.2011914,25.0326181 L9.72661941,25.2056959 C9.56083014,25.2638153 9.38717226,25.3225088 9.20483576,25.3822183 L8.63098044,25.5648371 L8.00019343,25.7562038 L6.57151294,26.1747567 L6.03355681,26.3379711 L5.54658912,26.4926186 L5.10864207,26.6396411 L4.7177479,26.7799803 L4.37193883,26.9145781 L4.06924706,27.0443765 C3.55263384,27.2785163 3.24348284,27.4932073 3.08722917,27.7145666 C2.36681579,28.7351522 2.01,29.8725026 2.01,31.155 C2.01,31.7100462 1.56004617,32.16 1.005,32.16 C0.449953826,32.16 0,31.7100462 0,31.155 C0,29.4597197 0.483968528,27.91707 1.44512377,26.5554334 C1.8775669,25.9428056 2.47721562,25.5144314 3.50076936,25.0897396 L3.90497392,24.9303001 L4.35192778,24.7690898 L4.84463912,24.6039925 L5.38611616,24.4328923 L5.97936707,24.253673 L7.41597099,23.8328917 L8.00745767,23.6533278 L8.54123864,23.4834239 L9.02142969,23.3211484 L9.45214658,23.1644699 C10.1989581,22.8811152 10.7170877,22.6157369 11.1206625,22.3120049 Z" id="Path-2" fill="#055A60" fill-rule="nonzero"></path>
                    <path d="M31.5861171,22.3120049 C32.029599,21.9782385 32.6596833,22.0671805 32.9934497,22.5106625 C33.3272161,22.9541445 33.238274,23.5842288 32.794792,23.9179951 C32.2228802,24.3484184 31.5718181,24.6881393 30.6666459,25.0326181 L30.192074,25.2056959 C30.0262847,25.2638153 29.8526268,25.3225088 29.6702903,25.3822183 L29.096435,25.5648371 L28.465648,25.7562038 L27.0369675,26.1747567 L26.4990114,26.3379711 L26.0120437,26.4926186 L25.5740966,26.6396411 L25.1832024,26.7799803 C25.0605279,26.8257508 24.9453675,26.8705644 24.8373934,26.9145781 L24.5347016,27.0443765 C24.0180884,27.2785163 23.7089374,27.4932073 23.5526837,27.7145666 C22.8322703,28.7351522 22.4754545,29.8725026 22.4754545,31.155 C22.4754545,31.7100462 22.0255007,32.16 21.4704545,32.16 C20.9154084,32.16 20.4654545,31.7100462 20.4654545,31.155 C20.4654545,29.4597197 20.9494231,27.91707 21.9105783,26.5554334 C22.3430214,25.9428056 22.9426702,25.5144314 23.9662239,25.0897396 L24.3704285,24.9303001 L24.8173823,24.7690898 L25.3100937,24.6039925 L25.8515707,24.4328923 L26.4448216,24.253673 L27.8814255,23.8328917 L28.4729122,23.6533278 L29.0066932,23.4834239 L29.4868842,23.3211484 C30.4722149,22.9763485 31.1091651,22.6709609 31.5861171,22.3120049 Z" id="Path-2-Copy" fill="#055A60" fill-rule="nonzero" transform="translate(26.830483, 27.134971) scale(-1, 1) translate(-26.830483, -27.134971) "></path>
                    <path d="M19.5213636,10.05 C17.8828259,10.05 16.5672727,11.4066643 16.5672727,13.065 C16.5672727,14.7233357 17.8828259,16.08 19.5213636,16.08 C21.1599013,16.08 22.4754545,14.7233357 22.4754545,13.065 C22.4754545,11.4066643 21.1599013,10.05 19.5213636,10.05 Z M19.5213636,12.06 C20.0357323,12.06 20.4654545,12.5031511 20.4654545,13.065 C20.4654545,13.6268489 20.0357323,14.07 19.5213636,14.07 C19.006995,14.07 18.5772727,13.6268489 18.5772727,13.065 C18.5772727,12.5031511 19.006995,12.06 19.5213636,12.06 Z" id="Oval-Copy-2" fill="#3B352E" fill-rule="nonzero"></path>
                    <path d="M16.5867076,10.05 C17.6370655,10.05 18.1647994,10.9672153 18.4810381,12.468387 L18.5622751,12.8920254 L16.5822703,13.2379746 L16.56,13.119 L14.6353882,12.7580772 C14.9346462,11.1616971 15.4224562,10.1415501 16.4440573,10.0558594 L16.5867076,10.05 Z" id="Path-Copy-2" fill="#3B352E" fill-rule="nonzero"></path>
                    <path d="M13.6740909,10.05 C12.0355532,10.05 10.72,11.4066643 10.72,13.065 C10.72,14.7233357 12.0355532,16.08 13.6740909,16.08 C15.3126286,16.08 16.6281818,14.7233357 16.6281818,13.065 C16.6281818,11.4066643 15.3126286,10.05 13.6740909,10.05 Z M13.6740909,12.06 C14.1884596,12.06 14.6181818,12.5031511 14.6181818,13.065 C14.6181818,13.6268489 14.1884596,14.07 13.6740909,14.07 C13.1597222,14.07 12.73,13.6268489 12.73,13.065 C12.73,12.5031511 13.1597222,12.06 13.6740909,12.06 Z" id="Oval-Copy-3" fill="#3B352E" fill-rule="nonzero"></path>
                    <g id="Group-5" transform="translate(13.024394, 25.125000)" fill="#055A60" fill-rule="nonzero">
                        <path d="M6.83912744,-0.956788704 L2.67023855,0.383211296 C1.74029085,0.682123056 1.74029085,1.99787694 2.67023855,2.2967887 L6.83912744,3.6367887 C7.48786902,3.84531278 8.15166667,3.36143079 8.15166667,2.68 L8.15166667,2.22044605e-16 C8.15166667,-0.681430794 7.48786902,-1.16531278 6.83912744,-0.956788704 Z" id="Path-3"></path>
                        <path d="M3.86134966,-0.956788704 L-0.307539226,0.383211296 C-1.23748692,0.682123056 -1.23748692,1.99787694 -0.307539226,2.2967887 L3.86134966,3.6367887 C4.51009124,3.84531278 5.17388889,3.36143079 5.17388889,2.68 L5.17388889,-2.22044605e-16 C5.17388889,-0.681430794 4.51009124,-1.16531278 3.86134966,-0.956788704 Z" id="Path-3-Copy" transform="translate(2.084444, 1.340000) scale(-1, 1) translate(-2.084444, -1.340000) "></path>
                        <path d="M3.57333333,-0.67 C2.49682154,-0.67 1.675,0.254549235 1.675,1.34 C1.675,2.42545077 2.49682154,3.35 3.57333333,3.35 C4.64984512,3.35 5.47166667,2.42545077 5.47166667,1.34 C5.47166667,0.254549235 4.64984512,-0.67 3.57333333,-0.67 Z" id="Oval"></path>
                    </g>
                </g>
            </g>
            <g id="Group-16" mask="url(#mask-2)" fill="#3B352E" fill-rule="nonzero">
                <g transform="translate(41.111833, 24.500000) scale(-1, 1) translate(-41.111833, -24.500000) translate(34.611833, 18.000000)">
                    <path d="M2.712,0.432 L2.65319128,0.469782013 C2.21705526,0.775936221 2.03186369,1.33595222 2.01148838,1.99029799 L2.01012192,2.2483649 L2.01478703,2.51508295 L2.02051535,2.62223288 L2.167,3.96 L2.13262599,4.01756882 C2.04152599,4.18399809 1.99713972,4.37672416 2.01210589,4.57546703 C2.0640842,5.26571154 2.14242605,5.78149069 2.26186582,6.15353412 L2.30359795,6.27346123 C2.37754376,6.47006736 2.47345159,6.64941566 2.59133305,6.79806775 L2.614,6.824 C2.75844182,7.52805323 3.13139891,8.1566098 3.75426125,8.76425849 C4.55488309,9.54525142 5.51254595,9.98656155 6.47073425,10.0048176 C7.46725012,9.98656171 8.42493838,9.54524517 9.22549739,8.76427348 L9.39419424,8.59269587 C9.82654382,8.13348905 10.1191813,7.6601482 10.280683,7.15343082 L10.32,7.013 L10.3578095,6.98797683 C10.5737909,6.82365981 10.7475171,6.58318284 10.851963,6.28337654 C11.0010106,5.85554331 11.0420341,5.26877394 11.0086201,4.45858672 L10.9975389,4.34504722 C10.9860155,4.27066255 10.966378,4.19904601 10.9395735,4.13110645 L10.902,4.049 L10.8658401,4.26833986 C11.0098589,3.50410139 11.0261579,2.73809655 10.8221435,1.97587756 C10.4539786,0.600374912 9.42698868,-0.408818897 7.72516135,-0.821687481 C5.75358332,-1.29999842 3.41553209,-1.01133214 2.75008067,0.347313704 L2.712,0.432 Z M4.22916388,4.21811333 L4.226,4.207 C4.23765526,4.21824393 4.24139581,4.22097967 4.23841624,4.21279715 L4.219,4.174 L4.09586718,3.11642213 L4.024,2.453 L4.019,2.124 L4.07739154,2.09404659 C4.38468304,1.91434026 4.58791393,1.57618521 4.57536993,1.19290166 C4.57513867,1.18583561 4.58727138,1.17717228 4.61041225,1.16747647 L4.7115035,1.13585637 L4.87050884,1.10143014 L5.07929339,1.06758653 C5.1562809,1.05677897 5.24020914,1.0466333 5.3297223,1.03771432 L5.61366072,1.01520227 C6.11029664,0.985698303 6.71266025,1.00098152 7.25127533,1.13165121 C8.23614441,1.3705835 8.70187383,1.82824256 8.88049159,2.49557715 C8.99398083,2.9195848 8.9837154,3.40202971 8.8906068,3.89611203 L8.79670935,4.33856657 L8.784876,4.44290586 L8.79669607,4.69361528 C8.80715089,4.85372637 8.82588964,4.94060362 8.95686117,5.04543756 L9.007,5.082 L9.002,5.247 L8.98612347,5.25463611 C8.66210667,5.41319568 8.42261468,5.74199402 8.42192041,6.15615527 C8.42124087,6.56152524 8.26930031,6.88906668 7.82192422,7.32549541 C7.37072629,7.76565384 6.88996569,7.98719526 6.4707352,7.99518234 C6.08982785,7.98719555 5.60906949,7.76565252 5.15783249,7.32547853 C4.76387868,6.94114719 4.59934373,6.64117146 4.56501978,6.29937415 L4.55026935,6.05115231 C4.51687684,5.78182944 4.37923859,5.55346065 4.18532417,5.39707236 L4.13,5.357 L4.08888329,5.11607157 L4.07,4.978 C4.22245068,4.75442993 4.27908576,4.48001132 4.22916388,4.21811333 Z" id="Path"></path>
                    <path d="M12.2172627,8.36964513 C12.5653981,7.93735123 13.198061,7.86912728 13.6303549,8.21726267 C14.0626488,8.56539805 14.1308727,9.19806098 13.7827373,9.63035487 C13.6217598,9.83024726 13.3563901,10.0444546 12.9569217,10.3027001 L12.6317128,10.5051058 L12.2534318,10.7268124 L11.8192938,10.9706064 C11.5239379,11.1337663 11.2309475,11.2735367 10.9180519,11.4041796 L10.5368058,11.5553339 L9.68561113,11.864437 L9.48481779,11.9448317 L9.30893191,12.0278772 L9.25965882,12.0586138 C9.25523835,12.062114 9.25256562,12.0648067 9.25141845,12.0666978 C9.11443652,12.2925104 9.03463388,12.5414614 9.01183806,12.8253673 L9.005,13 C9.005,13.5550462 8.55504617,14.005 8,14.005 C7.44495383,14.005 6.995,13.5550462 6.995,13 C6.995,12.2805917 7.17439778,11.615189 7.53289527,11.0242113 C7.80919322,10.5687383 8.18174211,10.3086605 8.76892005,10.0656918 L9.02752041,9.96482137 L9.80223031,9.68405667 L9.87742981,9.6557912 C10.2348601,9.51859818 10.5422753,9.37975308 10.8473729,9.21121174 L11.3264984,8.94006553 L11.7127548,8.71009266 L11.9140233,8.58429575 L12.0670541,8.48376449 L12.1690622,8.41128543 C12.181657,8.40169808 12.1920097,8.39339568 12.2000625,8.38643627 L12.2172627,8.36964513 Z" id="Path-2-Copy" transform="translate(10.500017, 10.999983) scale(-1, 1) translate(-10.500017, -10.999983) "></path>
                    <path d="M4.20006248,8.38643627 L4.21726267,8.36964513 C4.56539805,7.93735123 5.19806098,7.86912728 5.63035487,8.21726267 C6.06264877,8.56539805 6.13087272,9.19806098 5.78273733,9.63035487 C5.62175978,9.83024726 5.35639011,10.0444546 4.95692173,10.3027001 L4.63171277,10.5051058 L4.25343179,10.7268124 L3.8192938,10.9706064 C3.52393789,11.1337663 3.23094754,11.2735367 2.91805188,11.4041796 L2.53680577,11.5553339 L1.68561113,11.864437 L1.48481779,11.9448317 L1.30893191,12.0278772 L1.25965882,12.0586138 C1.25523835,12.062114 1.25256562,12.0648067 1.25141845,12.0666978 C1.11443652,12.2925104 1.03463388,12.5414614 1.01183806,12.8253673 L1.005,13 C1.005,13.5550462 0.555046174,14.005 2.22044605e-16,14.005 C-0.555046174,14.005 -1.005,13.5550462 -1.005,13 C-1.005,12.2805917 -0.825602221,11.615189 -0.467104728,11.0242113 C-0.190806783,10.5687383 0.181742113,10.3086605 0.768920049,10.0656918 L1.02752041,9.96482137 L1.80223031,9.68405667 L1.87742981,9.6557912 C2.2348601,9.51859818 2.54227528,9.37975308 2.84737286,9.21121174 L3.32649844,8.94006553 L3.71275477,8.71009266 L3.9140233,8.58429575 L4.06705413,8.48376449 L4.16906225,8.41128543 C4.18165698,8.40169808 4.19200974,8.39339568 4.20006248,8.38643627 Z" id="Path-2-Copy-2"></path>
                </g>
            </g>
            <g id="Group-16-Copy" mask="url(#mask-2)" fill="#3B352E" fill-rule="nonzero">
                <g transform="translate(9.111833, 24.500000) scale(-1, 1) translate(-9.111833, -24.500000) translate(2.611833, 18.000000)">
                    <path d="M2.712,0.432 L2.65319128,0.469782013 C2.21705526,0.775936221 2.03186369,1.33595222 2.01148838,1.99029799 L2.01012192,2.2483649 L2.01478703,2.51508295 L2.02051535,2.62223288 L2.167,3.96 L2.13262599,4.01756882 C2.04152599,4.18399809 1.99713972,4.37672416 2.01210589,4.57546703 C2.0640842,5.26571154 2.14242605,5.78149069 2.26186582,6.15353412 L2.30359795,6.27346123 C2.37754376,6.47006736 2.47345159,6.64941566 2.59133305,6.79806775 L2.614,6.824 C2.75844182,7.52805323 3.13139891,8.1566098 3.75426125,8.76425849 C4.55488309,9.54525142 5.51254595,9.98656155 6.47073425,10.0048176 C7.46725012,9.98656171 8.42493838,9.54524517 9.22549739,8.76427348 L9.39419424,8.59269587 C9.82654382,8.13348905 10.1191813,7.6601482 10.280683,7.15343082 L10.32,7.013 L10.3578095,6.98797683 C10.5737909,6.82365981 10.7475171,6.58318284 10.851963,6.28337654 C11.0010106,5.85554331 11.0420341,5.26877394 11.0086201,4.45858672 L10.9975389,4.34504722 C10.9860155,4.27066255 10.966378,4.19904601 10.9395735,4.13110645 L10.902,4.049 L10.8658401,4.26833986 C11.0098589,3.50410139 11.0261579,2.73809655 10.8221435,1.97587756 C10.4539786,0.600374912 9.42698868,-0.408818897 7.72516135,-0.821687481 C5.75358332,-1.29999842 3.41553209,-1.01133214 2.75008067,0.347313704 L2.712,0.432 Z M4.22916388,4.21811333 L4.226,4.207 C4.23765526,4.21824393 4.24139581,4.22097967 4.23841624,4.21279715 L4.219,4.174 L4.09586718,3.11642213 L4.024,2.453 L4.019,2.124 L4.07739154,2.09404659 C4.38468304,1.91434026 4.58791393,1.57618521 4.57536993,1.19290166 C4.57513867,1.18583561 4.58727138,1.17717228 4.61041225,1.16747647 L4.7115035,1.13585637 L4.87050884,1.10143014 L5.07929339,1.06758653 C5.1562809,1.05677897 5.24020914,1.0466333 5.3297223,1.03771432 L5.61366072,1.01520227 C6.11029664,0.985698303 6.71266025,1.00098152 7.25127533,1.13165121 C8.23614441,1.3705835 8.70187383,1.82824256 8.88049159,2.49557715 C8.99398083,2.9195848 8.9837154,3.40202971 8.8906068,3.89611203 L8.79670935,4.33856657 L8.784876,4.44290586 L8.79669607,4.69361528 C8.80715089,4.85372637 8.82588964,4.94060362 8.95686117,5.04543756 L9.007,5.082 L9.002,5.247 L8.98612347,5.25463611 C8.66210667,5.41319568 8.42261468,5.74199402 8.42192041,6.15615527 C8.42124087,6.56152524 8.26930031,6.88906668 7.82192422,7.32549541 C7.37072629,7.76565384 6.88996569,7.98719526 6.4707352,7.99518234 C6.08982785,7.98719555 5.60906949,7.76565252 5.15783249,7.32547853 C4.76387868,6.94114719 4.59934373,6.64117146 4.56501978,6.29937415 L4.55026935,6.05115231 C4.51687684,5.78182944 4.37923859,5.55346065 4.18532417,5.39707236 L4.13,5.357 L4.08888329,5.11607157 L4.07,4.978 C4.22245068,4.75442993 4.27908576,4.48001132 4.22916388,4.21811333 Z" id="Path"></path>
                    <path d="M12.2172627,8.36964513 C12.5653981,7.93735123 13.198061,7.86912728 13.6303549,8.21726267 C14.0626488,8.56539805 14.1308727,9.19806098 13.7827373,9.63035487 C13.6217598,9.83024726 13.3563901,10.0444546 12.9569217,10.3027001 L12.6317128,10.5051058 L12.2534318,10.7268124 L11.8192938,10.9706064 C11.5239379,11.1337663 11.2309475,11.2735367 10.9180519,11.4041796 L10.5368058,11.5553339 L9.68561113,11.864437 L9.48481779,11.9448317 L9.30893191,12.0278772 L9.25965882,12.0586138 C9.25523835,12.062114 9.25256562,12.0648067 9.25141845,12.0666978 C9.11443652,12.2925104 9.03463388,12.5414614 9.01183806,12.8253673 L9.005,13 C9.005,13.5550462 8.55504617,14.005 8,14.005 C7.44495383,14.005 6.995,13.5550462 6.995,13 C6.995,12.2805917 7.17439778,11.615189 7.53289527,11.0242113 C7.80919322,10.5687383 8.18174211,10.3086605 8.76892005,10.0656918 L9.02752041,9.96482137 L9.80223031,9.68405667 L9.87742981,9.6557912 C10.2348601,9.51859818 10.5422753,9.37975308 10.8473729,9.21121174 L11.3264984,8.94006553 L11.7127548,8.71009266 L11.9140233,8.58429575 L12.0670541,8.48376449 L12.1690622,8.41128543 C12.181657,8.40169808 12.1920097,8.39339568 12.2000625,8.38643627 L12.2172627,8.36964513 Z" id="Path-2-Copy" transform="translate(10.500017, 10.999983) scale(-1, 1) translate(-10.500017, -10.999983) "></path>
                    <path d="M4.20006248,8.38643627 L4.21726267,8.36964513 C4.56539805,7.93735123 5.19806098,7.86912728 5.63035487,8.21726267 C6.06264877,8.56539805 6.13087272,9.19806098 5.78273733,9.63035487 C5.62175978,9.83024726 5.35639011,10.0444546 4.95692173,10.3027001 L4.63171277,10.5051058 L4.25343179,10.7268124 L3.8192938,10.9706064 C3.52393789,11.1337663 3.23094754,11.2735367 2.91805188,11.4041796 L2.53680577,11.5553339 L1.68561113,11.864437 L1.48481779,11.9448317 L1.30893191,12.0278772 L1.25965882,12.0586138 C1.25523835,12.062114 1.25256562,12.0648067 1.25141845,12.0666978 C1.11443652,12.2925104 1.03463388,12.5414614 1.01183806,12.8253673 L1.005,13 C1.005,13.5550462 0.555046174,14.005 2.22044605e-16,14.005 C-0.555046174,14.005 -1.005,13.5550462 -1.005,13 C-1.005,12.2805917 -0.825602221,11.615189 -0.467104728,11.0242113 C-0.190806783,10.5687383 0.181742113,10.3086605 0.768920049,10.0656918 L1.02752041,9.96482137 L1.80223031,9.68405667 L1.87742981,9.6557912 C2.2348601,9.51859818 2.54227528,9.37975308 2.84737286,9.21121174 L3.32649844,8.94006553 L3.71275477,8.71009266 L3.9140233,8.58429575 L4.06705413,8.48376449 L4.16906225,8.41128543 C4.18165698,8.40169808 4.19200974,8.39339568 4.20006248,8.38643627 Z" id="Path-2-Copy-2"></path>
                </g>
            </g>
        </g>
    </g>
</svg>