<?xml version="1.0" encoding="UTF-8"?>
<svg width="150px" height="150px" viewBox="0 0 150 150" version="1.1" xmlns="http://www.w3.org/2000/svg" xmlns:xlink="http://www.w3.org/1999/xlink">
    <title>not-equal</title>
    <g id="not-equal" stroke="none" stroke-width="1" fill="none" fill-rule="evenodd">
        <g id="Group">
            <rect id="Rectangle-Copy-2" fill-opacity="0.08" fill="#3B352E" x="0" y="0" width="150" height="150" rx="75"></rect>
            <path d="M99,81.5 C100.656854,81.5 102,82.8431458 102,84.5 C102,86.0976809 100.75108,87.4036609 99.1762728,87.4949073 L99,87.5 L51,87.5 C49.3431458,87.5 48,86.1568542 48,84.5 C48,82.9023191 49.24892,81.5963391 50.8237272,81.5050927 L51,81.5 L99,81.5 Z" id="Path-3" fill="#3B352E" fill-rule="nonzero"></path>
            <path d="M99,62.5 C100.656854,62.5 102,63.8431458 102,65.5 C102,67.0976809 100.75108,68.4036609 99.1762728,68.4949073 L99,68.5 L51,68.5 C49.3431458,68.5 48,67.1568542 48,65.5 C48,63.9023191 49.24892,62.5963391 50.8237272,62.5050927 L51,62.5 L99,62.5 Z" id="Path-3-Copy" fill="#3B352E" fill-rule="nonzero"></path>
            <path d="M92.7361834,50.0314639 C93.8233759,48.7811925 95.7182648,48.6489909 96.9685361,49.7361834 C98.1707202,50.7815608 98.3391858,52.5736989 97.3838561,53.821496 L97.2638166,53.9685361 L57.2638166,99.9685361 C56.1766241,101.218808 54.2817352,101.351009 53.0314639,100.263817 C51.8292798,99.2184392 51.6608142,97.4263011 52.6161439,96.178504 L52.7361834,96.0314639 L92.7361834,50.0314639 Z" id="Path-8" fill="#055A60" fill-rule="nonzero"></path>
        </g>
    </g>
</svg>