<?xml version="1.0" encoding="UTF-8"?>
<svg width="150px" height="150px" viewBox="0 0 150 150" version="1.1" xmlns="http://www.w3.org/2000/svg" xmlns:xlink="http://www.w3.org/1999/xlink">
    <title>piggy-bank</title>
    <g id="piggy-bank" stroke="none" stroke-width="1" fill="none" fill-rule="evenodd">
        <g id="Group">
            <rect id="Rectangle-Copy-6" fill-opacity="0.08" fill="#3B352E" x="0" y="0" width="150" height="150" rx="75"></rect>
            <g transform="translate(24.000000, 31.000000)" fill-rule="nonzero">
                <path d="M77.0353633,21.5716799 C78.0213481,20.2401394 79.9000735,19.9600111 81.231614,20.9459958 C87.1499651,25.3284414 90.8345637,31.5107497 91.8625904,38.5706734 L91.936,39.114 L93.765108,39.5972168 C95.1966585,39.9747998 96.1298704,41.3354993 95.9856679,42.791612 L95.963155,42.9667466 L93.8598086,56.2632557 C93.6991069,57.279147 93.0304558,58.1371612 92.0956123,58.5445427 L91.9172687,58.6155744 L81.037,62.552 L80.7932957,62.7348941 C79.9443414,63.3562883 79.0566723,63.9494248 78.1333186,64.5125488 L77.471,64.907 L80.5078339,75.1472648 C81.0606225,77.011807 79.7225868,78.8830413 77.8123042,78.9947373 L77.6315789,79 L70.0150848,79 C69.3453451,79 68.6971186,78.7759754 68.1720063,78.3670849 L68.0016681,78.2239949 L59.839,70.834 L59.4548604,70.8890802 C57.2970975,71.1780853 55.0981313,71.3426254 52.8738134,71.3792447 L51.9190283,71.3870968 C49.6399059,71.3870968 47.4404954,71.2531151 45.3277809,70.9876686 L44.693,70.902 L38.5996367,77.9606045 C38.0736017,78.569836 37.3269111,78.9399712 36.52931,78.9933101 L36.3289474,79 L25.7631579,79 C23.9834541,79 22.6091578,77.4645464 22.7762894,75.7182078 L22.7981827,75.54292 L24.907,61.862 L24.7709207,61.7281411 C19.823399,56.7880956 17.119084,50.3036286 17.0038433,43.1700707 L17,42.6935484 C17,35.9616529 20.2116875,29.6481386 25.9090275,24.6239688 C27.1517128,23.5281132 29.0474746,23.6471422 30.1433302,24.8898275 C31.2391857,26.1325127 31.1201568,28.0282746 29.8774715,29.1241301 C25.4042605,33.0688081 23,37.7950877 23,42.6935484 C23,48.9323706 25.46743,54.4592526 30.0859527,58.4855713 C30.8095744,59.1164075 31.1844792,60.0521969 31.103838,61.0006606 L31.0795462,61.2039903 L29.261,73 L34.955,73 L41.2420953,65.7193784 C41.8903838,64.968558 42.8645305,64.5899587 43.8421701,64.6981011 L44.0376491,64.7262534 C46.498772,65.1635839 49.1309652,65.3870968 51.9190283,65.3870968 C54.7726614,65.3870968 57.5791415,65.1528899 60.2957564,64.6945696 C61.1367947,64.552678 61.995155,64.775818 62.6586836,65.301994 L62.8082505,65.4287704 L71.171,73 L73.613,73 L71.0294772,64.2855455 C70.6345337,62.9534107 71.206735,61.5332768 72.3939212,60.8415231 L72.5522302,60.7554921 C74.4573554,59.7923677 76.207767,58.7003946 77.7738002,57.5006484 C77.9566942,57.3605323 78.1549152,57.242108 78.3644627,57.1475631 L78.5776376,57.0610591 L88.21,53.576 L89.612,44.707 L88.3647193,44.3780168 C87.1577453,44.0596677 86.2806551,43.0301923 86.1474056,41.8018836 L86.1330487,41.61621 C85.8357328,35.2056517 82.8864886,29.6372873 77.6610474,25.7679305 C76.3295069,24.7819458 76.0493786,22.9032204 77.0353633,21.5716799 Z" id="Path" fill="#3B352E"></path>
                <circle id="Oval" fill="#3B352E" cx="76.5" cy="40.5" r="3.5"></circle>
                <path d="M7,31 C11.3015334,31 14.7842446,35.2813194 15.4478605,40.0502191 L15.475,40.267 L18.4711925,40.0903002 L19.8091895,40.0060743 C21.462689,39.9006925 22.888544,41.1556899 22.9939257,42.8091895 C23.0993075,44.462689 21.8443101,45.888544 20.1908105,45.9939257 L16.7130365,46.2073282 L14.493,46.326 L14.4851916,46.343186 C12.7246343,49.7434098 8.86701105,51.9045607 3.36896186,51.9969169 L3,52 C1.34314575,52 0,50.6568542 0,49 C0,47.3431458 1.34314575,46 3,46 C4.0029643,46 4.87598801,45.9250761 5.62900517,45.7816224 L5.996,45.703 C5.3457259,45.4509378 4.76259945,45.1122139 4.12142357,44.652881 L3.95985146,44.5355171 C3.61821129,44.2840614 3.28393837,44.0033883 2.89151325,43.6340768 C-1.71562165,39.0821867 0.448441674,31 7,31 Z M7,37 C6.34359606,37 6.0026487,38.2733455 7.05182339,39.3113884 C7.22060667,39.4696227 7.37403825,39.598452 7.51648601,39.7032971 C7.91880292,39.9994124 8.2918861,40.1684674 9.10282957,40.2629065 L9.388,40.29 L9.35596192,40.1534328 C9.18315978,39.500904 8.90826275,38.8718619 8.55679569,38.3312638 L8.40155341,38.1051833 C7.85033477,37.3452311 7.30322567,37 7,37 Z" id="Path-19" fill="#3B352E"></path>
                <path d="M46.5,0 C55.0507744,0 62,6.84939432 62,15.3204274 C62,19.9563869 59.9005942,24.2562247 56.355902,27.1452567 C55.0715862,28.1920131 53.1818788,27.9994332 52.1351224,26.7151174 C51.1286258,25.4801984 51.2679654,23.6855608 52.4219248,22.618776 L52.5652617,22.4943379 C54.7298029,20.730171 56,18.128653 56,15.3204274 C56,10.1826922 51.7563443,6 46.5,6 C41.2436557,6 37,10.1826922 37,15.3204274 C37,18.6814671 38.8272835,21.7326656 41.7458056,23.392075 C43.1861229,24.2110086 43.6898538,26.0424933 42.8709202,27.4828105 C42.0519865,28.9231277 40.2205018,29.4268587 38.7801846,28.607925 C34.0106084,25.8960458 31,20.8689312 31,15.3204274 C31,6.84939432 37.9492256,0 46.5,0 Z" id="Path" fill="#055A60"></path>
                <path d="M35.9149498,26.482681 C43.7321029,21.7710976 51.7760202,21.4107999 59.655816,25.4495942 C61.1302754,26.2053293 61.7129165,28.0132592 60.9571815,29.4877186 C60.2014464,30.9621779 58.3935165,31.5448191 56.9190571,30.789084 C50.9089323,27.7085907 45.0702785,27.9701118 39.0122097,31.6214533 C37.5931769,32.476738 35.7494783,32.0197299 34.8941936,30.6006971 C34.0389089,29.1816643 34.495917,27.3379657 35.9149498,26.482681 Z" id="Path-20" fill="#3B352E" transform="translate(47.875601, 27.358231) rotate(-6.000000) translate(-47.875601, -27.358231) "></path>
                <path d="M65.4234386,21.4633376 C70.0508199,13.704488 75.7131574,10.4377548 82.0044271,12.673142 C83.5851118,13.2347842 84.3981118,14.9834322 83.8087537,16.5539936 L79.11809,29.0539936 C78.5359854,30.6052254 76.8065746,31.3908583 75.2553427,30.8087537 C73.7041108,30.2266492 72.9184779,28.4972383 73.5005825,26.9460064 L76.759,18.26 L76.6726983,18.2889745 C74.7625069,18.9532572 72.8290824,20.8456265 70.7756578,24.2067947 L70.5765614,24.5366624 C69.7278862,25.9596579 67.8863332,26.4252366 66.4633376,25.5765614 C65.0403421,24.7278862 64.5747634,22.8863332 65.4234386,21.4633376 Z" id="Path-21" fill="#3B352E"></path>
            </g>
        </g>
    </g>
</svg>