<svg width="50" height="50" viewBox="0 0 50 50" fill="none" xmlns="http://www.w3.org/2000/svg">
<path d="M36.3497 9.65323C36.3605 9.12145 36.1529 8.60726 35.7725 8.22358C35.3922 7.8399 34.8701 7.61808 34.321 7.60686H30.2645V3.51412C30.2753 2.98234 30.0677 2.46815 29.6874 2.08447C29.307 1.70079 28.7849 1.479 28.2358 1.46777H26.208C25.936 1.47313 25.6678 1.53032 25.4187 1.63606C25.1696 1.7418 24.9444 1.89401 24.756 2.08404C24.5676 2.27406 24.4197 2.49818 24.3208 2.74355C24.2219 2.98892 24.1738 3.25075 24.1793 3.51412V7.60686H20.1228C19.5737 7.61808 19.0517 7.8399 18.6713 8.22358C18.2909 8.60726 18.0834 9.12145 18.0942 9.65323V11.6996C18.0834 12.2314 18.2909 12.7456 18.6713 13.1292C19.0517 13.5129 19.5737 13.7347 20.1228 13.746H24.1793V17.8387C24.1738 18.1021 24.2219 18.3639 24.3208 18.6093C24.4197 18.8546 24.5676 19.0788 24.756 19.2688C24.9444 19.4588 25.1696 19.611 25.4187 19.7168C25.6678 19.8225 25.936 19.8797 26.208 19.885H28.2358C28.7849 19.8738 29.307 19.652 29.6874 19.2684C30.0677 18.8847 30.2753 18.3705 30.2645 17.8387V13.746H34.321C34.8701 13.7347 35.3922 13.5129 35.7725 13.1292C36.1529 12.7456 36.3605 12.2314 36.3497 11.6996V9.65323Z" stroke="#2F2F2F" stroke-width="1.5" stroke-linecap="round" stroke-linejoin="round"/>
<path d="M10.9927 38.3004C13.7933 38.3004 16.0636 36.0101 16.0636 33.1849C16.0636 30.3596 13.7933 28.0693 10.9927 28.0693C8.19217 28.0693 5.92188 30.3596 5.92188 33.1849C5.92188 36.0101 8.19217 38.3004 10.9927 38.3004Z" stroke="#2F2F2F" stroke-width="1.5" stroke-linecap="round" stroke-linejoin="round"/>
<path d="M1.48438 27.8115V48.5309" stroke="#2F2F2F" stroke-width="1.25" stroke-linecap="round" stroke-linejoin="round"/>
<path d="M48.5156 33.1846V48.5312" stroke="#2F2F2F" stroke-width="1.5" stroke-linecap="round" stroke-linejoin="round"/>
<path d="M48.5113 38.2998H1.85938V44.4381H48.5113V38.2998Z" stroke="#2F2F2F" stroke-width="1.5" stroke-linecap="round" stroke-linejoin="round"/>
<path d="M20.1189 38.3004H44.4596V32.1621C44.4816 31.0985 44.0667 30.07 43.3061 29.3026C42.5454 28.5352 41.5013 28.0916 40.4031 28.0693H21.1317C20.8572 28.0748 20.5962 28.1857 20.406 28.3775C20.2158 28.5692 20.112 28.8263 20.1174 29.0922L20.1189 38.3004Z" stroke="#2F2F2F" stroke-width="1.5" stroke-linecap="round" stroke-linejoin="round"/>
</svg>
