<svg width="50" height="49" viewBox="0 0 50 49" fill="none" xmlns="http://www.w3.org/2000/svg">
<path d="M48.6281 44.3473L46.5737 40.4821V31.3585C46.6603 27.8048 42.2984 24.6371 38.3562 21.3658M38.3559 32.2533V9.37492C38.3523 9.10878 38.2963 8.84595 38.1911 8.60145C38.0859 8.35696 37.9336 8.13558 37.7428 7.94998C37.552 7.76438 37.3265 7.61818 37.0792 7.51975C36.8319 7.42132 36.5676 7.37258 36.3015 7.37632H15.7552L38.3559 32.2533ZM11.6465 16.4742V39.3537C11.647 39.618 11.7007 39.8795 11.8045 40.1225C11.9083 40.3656 12.0601 40.5852 12.2507 40.7683C12.6412 41.1446 13.1629 41.3541 13.7053 41.3523H33.2196L11.6465 16.4742ZM8.52604 13.3725L13.7676 18.5818C14.2064 19.0157 14.7847 19.2803 15.3999 19.3286C16.0152 19.3769 16.6276 19.2058 17.1287 18.8456C17.42 18.6389 17.6625 18.3709 17.8392 18.0605C18.0159 17.7501 18.1225 17.4048 18.1514 17.0488C18.1804 16.6928 18.1311 16.3348 18.007 15.9999C17.8828 15.665 17.6869 15.3614 17.4328 15.1103L11.6469 9.37455V6.37701C11.6469 4.45654 9.59248 1.38086 9.59248 1.38086L8.52604 13.3725ZM1.375 4.3784L3.42937 8.24356V17.3686C3.34316 20.9223 7.70503 24.0897 11.6469 27.3613L1.375 4.3784ZM41.4767 35.3554L36.2355 30.1461C35.7967 29.7121 35.2184 29.4474 34.6031 29.3991C33.9878 29.3507 33.3752 29.5218 32.874 29.8819C32.5827 30.0886 32.3402 30.3566 32.1635 30.667C31.9868 30.9774 31.8802 31.3228 31.8513 31.6788C31.8223 32.0348 31.8717 32.3928 31.9959 32.7277C32.1201 33.0626 32.3162 33.3662 32.5703 33.6172L38.3562 39.353V42.3487C38.3562 44.2692 40.4106 47.3448 40.4106 47.3448L41.4767 35.3554Z" stroke="#2F2F2F" stroke-width="1.5" stroke-linecap="round" stroke-linejoin="round"/>
</svg>
