<svg xmlns="http://www.w3.org/2000/svg" width="905" height="103" viewBox="0 0 905 103">
    <g fill="#C00" fill-rule="evenodd">
        <path d="M786.436 62.87H758.71l13.549-37.387 14.178 37.388zm-4.168-61.675h-19.804l-39.61 99.269h21.887l7.094-18.901h41.48l7.085 18.9h22.112L782.268 1.196zM368.013 61.206c-.637 3.534-2.092 6.655-3.764 9.765-1.666 2.707-4.168 5.188-7.3 7.272-1.661 1.031-4.373 2.073-7.495 2.697a54.326 54.326 0 0 1-10.633 1.036h-18.359V19.671h18.36c3.956 0 7.499.21 10.632 1.037 3.337.629 5.834 1.466 7.495 2.707 3.132 1.864 5.634 4.152 7.3 7.256 1.672 2.922 3.127 6.038 3.764 9.56 1.035 3.331 1.25 6.86 1.25 10.592 0 3.53-.425 7.064-1.25 10.383zM353.41 2.436c-4.372-1.042-10.212-1.24-16.887-1.24h-36.276v99.268h36.276c6.675 0 12.515-.409 16.887-1.241 4.589-.838 8.336-2.09 11.674-3.744 7.715-3.534 13.764-9.136 18.143-16.613 4.367-7.691 6.465-17.037 6.664-28.043-.2-11.215-2.297-20.56-6.664-28.037-4.379-7.691-10.428-13.288-18.143-17.02-3.338-1.467-7.085-2.503-11.674-3.33zM477.886 19.671l3.947-18.476h-80.262v99.269h84.021l-6.05-18.488h-57.536V58.725h48.16V40.022h-48.16V19.671M691.157 100.464h20.23V1.195h-20.23zM908.394 100.464l-5.83-18.488h-48.161V1.196h-20.225v99.268M588.783 100.464V1.195h-20.219V64.95L518.53 1.195h-22.106v99.269h20.23V30.467l53.583 69.997M67.786 34.415c0 2.917-.626 5.403-1.661 7.697-1.262 2.068-3.138 3.937-5.845 4.979-1.046.414-2.086.628-3.127 1.037-1.246.203-2.922.622-5.003.622-2.082.21-4.8.414-8.347.414H21.082V19.67H52.15c2.08.414 3.757.414 5.003.833 1.04.204 2.081.629 3.127 1.042 2.707 1.24 4.583 2.9 5.845 5.194a18.917 18.917 0 0 1 1.66 7.675zm15.431-18.477C80.084 10.75 75.286 6.797 69.031 4.3c-1.871-.821-3.963-1.45-6.465-1.864-2.286-.623-5.208-.827-8.54-1.041-3.122-.199-7.295-.199-12.51-.199H.658v99.269h20.425V67.442h20.435c5.214 0 9.387 0 12.509-.2 3.332-.225 6.254-.638 8.54-1.256 2.502-.413 4.594-1.036 6.465-1.665 6.255-2.701 11.053-6.434 14.186-11.419 3.338-5.183 5.004-11.43 5.004-18.696 0-7.268-1.666-13.294-5.004-18.268zM164.526 33.169c0 2.487-.626 4.78-1.671 6.853-1.252 2.09-3.129 3.953-5.42 4.99-1.04.613-2.507 1.037-4.173 1.24-1.87.414-4.163.414-7.295.414h-26.894V19.671h26.894c3.132 0 5.424 0 7.295.414 1.666.21 3.132.623 4.173 1.252 2.291 1.036 4.168 2.9 5.42 4.983 1.045 1.865 1.67 4.147 1.67 6.849zm-5.004-30.943c-3.343-.832-7.72-1.03-13.135-1.03h-47.75v99.268h20.436v-35.1h12.088c2.717 0 5.004 0 6.675.413 2.087.209 3.957.628 5.419 1.24 4.373 1.88 8.34 5.41 11.673 10.807 3.753 5.184 7.096 12.875 10.428 22.64h23.557c-1.871-6.021-4.168-11.42-6.46-16.817-2.502-5.2-5.214-9.97-8.136-14.127-2.701-4.157-5.834-7.272-9.376-9.968v-.42c6.254-1.659 10.843-4.564 14.584-9.135 3.559-4.372 5.22-10.598 5.425-18.074 0-5.602-1.251-10.79-4.163-15.775-2.922-4.78-7.096-8.518-12.725-11.215-2.285-1.251-5.207-2.084-8.54-2.707zM649.25 19.671h29.401l6.046-18.476h-87.98v18.476h32.315v80.793h20.219M284.192 61.206V1.196h-20.425v60.01c0 3.115 0 5.607-.42 7.487-.42 1.864-.841 3.31-1.467 4.77-1.876 4.361-4.788 7.267-8.75 9.136-3.959 2.079-8.137 3.115-13.14 3.115-4.789 0-9.173-1.036-13.13-3.115-3.753-1.869-6.67-4.775-8.756-9.136-.415-1.46-1.04-2.906-1.246-4.77-.42-1.88-.42-4.372-.42-7.487V1.196h-20.435v60.01c0 4.57.21 8.314.625 10.796.42 2.916 1.047 5.194 1.666 6.864 2.087 5.608 5.01 9.969 9.177 13.492 4.168 3.744 8.967 6.226 14.38 8.106 5.629 1.863 11.679 2.696 18.139 2.696 6.674 0 12.719-.833 18.143-2.696 5.634-1.88 10.638-4.362 14.59-8.106 3.963-3.523 7.095-7.884 8.966-13.492.831-1.67 1.252-3.948 1.877-6.864.205-2.482.415-6.225.626-10.796"/>
    </g>
</svg>
