<svg xmlns="http://www.w3.org/2000/svg" width="728" height="578" viewBox="0 0 728 578">
    <g fill="#9B9B9B" fill-rule="evenodd" opacity=".2">
        <path d="M230.837 170.29c-3.65-.162-7.302-.292-10.95-.492-12.817-.708-24.145-5.858-35.17-11.875-4.022-2.192-8.06-4.37-11.945-6.786-23.925-14.88-48.375-14.065-73.337-2.843-14.22 6.398-28.355 13.112-42.975 18.456-7.838 2.865-16.608 4.229-24.98 4.332-12.863.155-22.485-6.829-28.963-17.736-4.505-7.584-3.015-12.313 4.888-16.076 6.802-3.243 10.417-7.544 9.2-15.706-.3-1.994 3.312-4.895 5.66-6.669.442-.332 4.387 2.345 5.08 4.234 6.18 16.917 14.442 22.77 32.32 22.214 17.35-.54 33.257-6.773 49.455-12.16 15.137-5.035 30.415-10.084 46.02-13.147 19.04-3.735 36.69 1.517 52.317 13.2 14.505 10.844 28.875 21.886 43.68 32.302 9.748 6.856 10.4 7.837 2.235 16.88-2.827 3.128-6.607 5.525-10.26 7.752-10.252 6.255-20.787 12.058-30.987 18.398-11.47 7.131-24.13 9.456-37.123 8.34-20.29-1.747-40.552-4.159-60.7-7.139-18.657-2.755-32.28 4.236-43.132 18.904-2.455 3.315-6.22 5.958-9.91 7.912-1.54.815-4.455-.971-6.745-1.572 1.02-1.884 1.562-4.606 3.14-5.504 8.327-4.73 8.527-11.328 5.455-19.22-2.508-6.443-.083-11.827 4.41-16.489 11.377-11.802 25.932-17.285 41.66-17.017 24.707.415 49.377 2.845 74.077 4.151 11.418.603 22.888 1.041 34.298.59 4.757-.187 9.415-2.882 14.12-4.438-.28-.931-.56-1.864-.838-2.795M408.35 137.548c-43.61-.716-86.81 4.19-129.875 10.711-12.595 1.907-23.438-2.079-32.055-11.597-3.968-4.384-4.63-9.373-1.4-14.358 3.765-5.807 5.057-11.652 2.612-18.38-.69-1.897-.352-4.687.595-6.506.798-1.529 3.305-3.25 4.788-3.033 1.512.218 3.24 2.48 3.932 4.221 6.24 15.691 18.185 25.157 34.138 28.06 9.127 1.661 19.352 1.143 28.372-1.166 33.063-8.47 65.995-17.458 100.023-21.084 43.85-4.676 87.347-2.762 129.96 9.501 6.247 1.797 12.422 4.962 17.687 8.795 7.733 5.633 8.59 13.757 2.618 21.294-8.153 10.281-12.408 21.503-11.21 34.737.14 1.544-1.508 3.248-2.325 4.882-.993-1.559-2.765-3.075-2.85-4.682-.895-16.682-3.138-20.3-19.298-25.241-29.365-8.98-59.545-13.902-90.127-16.022-11.808-.818-23.72-.132-35.585-.132M224.673 397.478l-3.998 42.48c12.905-4.477 21.773-16.307 20.46-26.556-1.17-9.125-6.805-14.918-16.462-15.924m-27.09 148.104c-4.793-23.731-3.49-48.087-5.95-72.06-9.245 1.173-20.128 14.132-19.823 24.881.18 6.303 1.868 12.719 3.818 18.779 3.082 9.58 1.702 18.16-4.993 23.308-1.285.988-3.26 1.07-4.915 1.571-.237-1.524-1.002-3.195-.627-4.551 2.32-8.45-.968-14.218-7.57-19.435-13.425-10.611-14.653-25.054-3.805-38.278 8.582-10.459 20.26-16.552 32.135-22.167 4.23-2.004 5.332-4.37 5.452-8.987.415-16.03 1.55-32.04 2.445-48.06.198-3.51.535-7.015.81-10.559-5.99-1.418-12.15-1.711-17.08-4.326-6.81-3.61-13.747-8.062-18.695-13.814-6.24-7.252-2.235-14.876 7.48-15.176 9.863-.308 19.763.54 30.928.928 1.577-5.362 3.187-12.438 5.76-19.139 2.805-7.323 6.372-14.365 9.912-21.378.703-1.391 2.778-2.084 4.218-3.103.895 1.524 2.355 2.96 2.6 4.584 2.382 15.839 4.84 31.68 6.61 47.594.475 4.239 1.67 6.628 5.305 8.75a164.36 164.36 0 0 1 17.092 11.487c14.623 11.2 16.96 25.81 6.768 41.183-8.17 12.334-19.648 20.901-32.605 27.494-4.275 2.175-5.603 5.045-6.395 9.566-4.348 24.804-9.128 49.528-13.85 74.262-.445 2.322-1.558 4.516-2.363 6.77-.887-.04-1.772-.082-2.662-.124M642.002 405.723c-6.815-1.627-8.632-6.203-8.945-10.574-1.11-15.516-3.43-31.265-1.917-46.593 5.415-54.838 20.532-106.617 52.732-152.342 4.728-6.71 10.678-10.93 18.893-11.783 9.492-.988 16.627 2.82 19.395 11.906 2.585 8.464 3.902 17.325 5.512 26.06.31 1.689-.305 3.753-1.075 5.364-.532 1.111-2.065 1.744-3.15 2.59-.752-1.083-1.927-2.077-2.187-3.27-1.963-9.026-5.313-11.325-13.068-6.058-7.917 5.377-16.585 11.67-21.107 19.71C661.1 286.945 639.21 334.72 640.4 389.579c.06 2.687.455 5.37.722 8.054.24 2.417.523 4.832.88 8.09M316.223 417.31c2.475 1.278 4.965 2.53 7.425 3.838 28.145 15 56.39 29.996 88.18 35.653 13.228 2.355 26.863 2.936 40.34 3.233 15.463.346 28.28-6.896 36.908-19.114 29.282-41.49 56.822-84.067 67.68-134.801 2.645-12.376 3.365-25.167 4.985-37.763.265-2.052.612-4.091.922-6.133a524.21 524.21 0 0 1 1.965-.035c.338 1.639.928 3.27.975 4.917 1.17 41.936-7.202 81.703-28.11 118.305-14.467 25.33-29.81 50.156-44.52 75.345-8.96 15.348-23.557 19.987-39.435 18.959-25.207-1.632-49.977-6.258-72.167-19.757-20.433-12.431-41.01-24.622-61.47-37.005-1.76-1.066-3.13-2.777-4.68-4.19l1.002-1.452zM281.572 10.047c.85-1.426 1.5-3.715 2.988-4.631 1.152-.706 3.552-.083 5.05.655 2.017.994 3.637 2.76 5.54 4.029 4.885 3.263 10.035 4.651 15.952 2.825 16.623-5.14 31.148-2.718 42.48 11.812 3.308 4.24 7.268 8.05 11.323 11.608 8.812 7.732 17.367 8.557 27.58 3.135 10.922-5.795 19.017-2.76 23.875 8.673 4.965 11.685 10.29 23.222 15.172 34.945.808 1.934.145 4.484.163 6.75-2.33-.294-4.748-.302-6.955-.985-1.5-.465-2.653-1.964-4.048-2.858-8.177-5.247-15.97-11.32-24.677-15.47-13.03-6.21-25.83-12.431-36.408-22.557-10.765-10.302-25.165-11.052-38.64-14.253-8.067-1.916-16.26-3.713-23.937-6.728-7.315-2.87-12.883-8.297-15.458-16.95"/>
        <path d="M557.827 216.925c-2.887.666-5.762 1.414-8.67 1.977-8.177 1.582-15.757 4.379-20.54 11.685-3.572 5.46-2.487 6.819 3.603 8.703 4.425 1.374 8.535 3.946 12.562 6.355 1.253.748 2.225 2.618 2.568 4.144 1.557 6.938-4.49 8.08-8.55 10.439-3.918 2.274-8.28 4.9-12.52.908-.908-.853-.353-3.535-.068-5.312.263-1.671 1.723-3.41 1.39-4.827-.232-.99-2.937-2.38-3.915-1.996-1.607.628-3.585 2.38-3.892 3.953-2.5 12.834-5.04 25.685-6.795 38.634-1.758 12.986-2.825 26.075-3.808 39.148-.717 9.536-7.07 14.568-14.02 19.45-6.555 4.604-12.645 8.07-20.63 1.909-4.66-3.596-10.262-2.73-15.635.93-8.327 5.673-23.58 1.397-27.162-8.219 3.9.328 7.272.273 10.487.96 5.03 1.074 9.5 1.272 14.32-1.646 2.885-1.746 7.1-1.711 10.72-1.728 7.868-.04 15.78 1.015 23.593.472 8.037-.56 12.087-5.647 12.347-13.774.093-2.893-.342-5.813-.672-8.703-1.838-16.149-3.96-32.267-5.49-48.444-1.068-11.312.172-22.434 4.732-33.081 3.278-7.66 8.61-13.44 15.838-17.035 11.135-5.535 23.162-7.964 35.605-8.06 1.502-.012 3.005.636 4.51.98.03.725.06 1.453.092 2.178M552.026 577.15c-5.727-4.451-7.572-10.198-7.495-16.144.23-17.487 3.798-33.649 20.318-43.68 2.127-1.291 3.997-3.003 6.082-4.374 12.098-7.954 17.605-18.426 15.27-33.441-1.517-9.784-1.595-20.037-.525-29.888.755-6.959 3.698-14.07 7.278-20.168 1.767-3.013 7.067-4.201 11-5.535 1.08-.368 4.192 1.577 4.32 2.695.8 6.999 5.592 9.045 11.365 10.444 1.232.298 2.21 1.67 4.015 3.118-1.805 1.414-3.035 2.77-4.558 3.503-11.712 5.622-17.67 15.513-20.22 27.684-2.645 12.623-3.892 25.612-7.505 37.928-2.572 8.765-6.802 17.68-12.495 24.751-10.647 13.226-24.217 24.306-26.85 43.107M494.556 63.222c-.413 1.946-.785 5.507-1.958 8.777-1.475 4.121-5.332 4.62-8.207 1.347-.813-.924-1.595-2.007-1.975-3.158-4.385-13.234-14.7-20.318-26.08-27.109-11.17-6.668-21.59-14.727-31.703-22.962-4.005-3.26-6.585-8.477-9.192-13.149-.858-1.536-.513-5.28.61-6.025 1.685-1.121 4.815-1.216 6.81-.425 2.142.848 3.8 3.115 5.455 4.954 9.17 10.184 19.597 18.013 34 18.586.205.01.407.085.61.122 27.625 4.982 29.175 13.012 31.63 39.042M254.27 346.475c-1.995-2.292-3.68-3.546-4.45-5.22-12.53-27.178-22.96-54.942-22.537-85.534.06-4.363.357-8.742.945-13.061.18-1.334 1.692-2.487 2.595-3.723 1.082 1.04 2.36 1.951 3.19 3.167.79 1.151.97 3.706 1.657 3.794 8.328 1.073 10.28 8.83 14.633 13.91 1.735 2.026 3.28 5.494 2.832 7.924-4.465 24.288-4.642 48.377 2.003 72.33.272.98.327 2.049.312 3.077-.01.568-.377 1.131-1.18 3.336M446.643 201.916c-2.382.145-4.762.425-7.142.413-25.08-.145-49.133 4.977-72.155 14.685-7.018 2.96-13.385 7.444-20.198 10.945-1.755.905-4.065.733-6.117 1.053.09-2.017-.543-4.501.402-5.968 2.94-4.569 3.253-8.612.113-13.266-3.195-4.744.145-7.049 4.227-7.892 11.575-2.385 23.185-5.995 34.848-6.255 19.852-.443 39.76 1.248 59.637 2.201 2.268.108 4.483 1.237 6.725 1.892-.115.73-.227 1.461-.34 2.192M444.773 237.522c-9.017-.65-18.04-1.304-27.06-1.952-.387.58-.777 1.161-1.165 1.744 1.438 2.53 2.603 5.272 4.373 7.544 2.562 3.283 2.2 6.068-1.38 7.594a179.697 179.697 0 0 1-19.6 7.056c-1.343.396-3.405-1.646-5.135-2.564.992-1.457 1.96-2.935 2.985-4.37 1.33-1.86 2.707-3.687 4.065-5.526-2.848-1.407-5.853-4.21-8.495-3.904-4.35.503-8.533 2.875-12.658 4.737-3.417 1.544-6.657 3.488-10.105 5.322-.792-6.083-1.435-10.86-2.037-15.639-.728-5.785 3.765-6.773 7.542-7.018 14.92-.969 29.868-1.804 44.808-1.914 5.917-.043 11.917 1.669 17.742 3.117 2.515.626 4.693 2.613 7.023 3.981-.3.596-.6 1.194-.903 1.792M214.165 265.81c0 3.11.425 5.031-.065 6.683-6.717 22.692-19.122 41.503-38.492 55.357-1.71 1.224-4.363 1.131-6.578 1.652-.042-2.71-1.167-6.163.08-7.985 3.143-4.591 4.903-8.837 3.348-14.537-.413-1.511 1.757-4.964 3.475-5.63 15.88-6.145 25.92-18.356 34.545-32.198.59-.946 1.697-1.569 3.687-3.343M650.252 501.74c-16.785 10.255-24.065 25.883-30.913 41.867-.622 1.454-2.41 2.405-3.655 3.59-.837-1.46-2.212-2.854-2.407-4.398-.573-4.489-2.555-7.424-7.188-8.11-3.647-.54-5.35-2.547-4.02-6.065 4.458-11.823 28.708-31.355 48.183-26.883M541.733 89.308c-5.192.165-7.962-3.293-8.395-7.537-1.105-10.82-5.78-19.715-12.447-27.992-1.288-1.594-1.605-4.781-1.043-6.88 1.123-4.207 6.16-5.037 7.87-1.15 4.243 9.652 13.095 13.458 21.148 18.41 7.82 4.811 10.67 9.332 9.092 14.592-1.71 5.71-9.027 10.471-16.225 10.557M413.386 388.379c4.928-1.204 10.213-1.654 14.7-3.791 6.908-3.283 13.498-7.39 19.79-11.775 5.145-3.586 9.623-2.968 14.365.195 1.56 1.04 3.098 2.11 4.67 3.125 4.848 3.13 9.038 3.145 13.138-1.684 4.275-5.037 8.347-4.054 10.415 2.18 1.217 3.673 2.077 7.47 3.407 12.35-9.442-3.558-17.952-7.852-25.522 1.787-2.14-1.574-4.163-2.933-6.04-4.467-7.408-6.045-10.313-6.215-18.408-1.456-6.95 4.086-13.66 9.195-22.395 8.127-2.922-.36-5.71-1.807-8.562-2.757l.442-1.834M433.784 399.086c17.335 5.165 34.493 11.432 50.993-1.319 2.24 9.854-6.555 21.557-16.975 23.516-11.468 2.157-30.478-9.889-34.018-22.197M654.717 460.829c-.638 1.076-1.003 2.362-1.855 3.028-7.973 6.212-14.315 13.676-18.735 22.85-.725 1.498-3.13 2.186-4.76 3.25-.768-1.527-1.52-3.06-2.315-4.572-.983-1.859-2.228-3.618-2.94-5.575-.658-1.804-1.74-4.766-.955-5.577 8.127-8.337 17.552-14.37 29.73-14.533.502-.007 1.012.606 1.83 1.129"/>
    </g>
</svg>
