<svg xmlns="http://www.w3.org/2000/svg" width="71" height="91" viewBox="0 0 71 91">
    <g fill="#333" fill-rule="evenodd">
        <path d="M23.339 35.68c-.337-.014-.673-.026-1.01-.045-1.18-.065-2.225-.54-3.24-1.093-.372-.202-.744-.403-1.102-.625-2.205-1.37-4.458-1.295-6.759-.262-1.31.59-2.613 1.207-3.96 1.7-.722.263-1.53.389-2.302.398-1.186.015-2.072-.628-2.67-1.633-.415-.698-.277-1.134.451-1.48.627-.299.96-.695.848-1.446-.028-.184.305-.45.521-.614.041-.03.405.216.469.39.57 1.557 1.33 2.096 2.978 2.045 1.6-.05 3.065-.624 4.558-1.12 1.395-.463 2.803-.928 4.241-1.21 1.755-.344 3.382.14 4.822 1.215 1.337.999 2.66 2.015 4.025 2.975.899.63.959.721.206 1.554-.26.288-.609.509-.945.714-.945.576-1.916 1.11-2.856 1.694-1.057.656-2.224.87-3.421.768a92.509 92.509 0 0 1-5.594-.658c-1.72-.253-2.975.39-3.975 1.741-.227.305-.574.549-.914.729-.142.075-.41-.09-.621-.145.094-.174.144-.424.289-.507.767-.435.786-1.043.503-1.77-.231-.593-.008-1.089.406-1.518 1.049-1.087 2.39-1.592 3.84-1.567 2.277.038 4.55.262 6.827.382 1.052.056 2.109.096 3.16.055.439-.018.868-.266 1.302-.41l-.077-.256M39.698 32.666c-4.02-.066-8 .385-11.97.986-1.16.175-2.16-.192-2.953-1.068-.366-.404-.427-.863-.13-1.322.348-.535.467-1.073.241-1.693-.063-.174-.032-.431.055-.599.074-.14.305-.299.441-.279.14.02.299.228.363.389.575 1.445 1.676 2.316 3.146 2.584a6.31 6.31 0 0 0 2.615-.108c3.047-.78 6.082-1.607 9.218-1.941 4.041-.43 8.05-.255 11.977.875a5.342 5.342 0 0 1 1.63.81c.713.518.792 1.266.241 1.96-.751.947-1.143 1.98-1.033 3.199.013.142-.139.299-.214.45-.092-.144-.255-.284-.263-.432-.082-1.536-.289-1.869-1.778-2.324-2.707-.827-5.488-1.28-8.306-1.475-1.089-.076-2.187-.012-3.28-.012M22.77 56.6l-.368 3.911c1.19-.412 2.007-1.501 1.886-2.445-.108-.84-.628-1.373-1.518-1.466m-2.496 13.637c-.442-2.185-.322-4.427-.549-6.635-.852.108-1.855 1.301-1.826 2.291.016.58.172 1.171.351 1.73.284.882.157 1.672-.46 2.145-.118.091-.3.1-.453.145-.022-.14-.092-.294-.057-.419.213-.778-.09-1.309-.698-1.79-1.237-.977-1.35-2.306-.35-3.524.79-.963 1.866-1.524 2.96-2.041.39-.185.492-.403.503-.828.038-1.476.143-2.95.226-4.425.018-.323.049-.646.074-.972-.552-.131-1.12-.158-1.574-.399-.627-.332-1.267-.742-1.723-1.272-.575-.667-.206-1.37.69-1.397.908-.028 1.82.05 2.85.085.145-.493.294-1.145.53-1.762.26-.674.588-1.323.914-1.969.065-.128.256-.191.389-.285.082.14.217.272.24.422.22 1.458.446 2.917.609 4.382.043.39.154.61.489.806.545.318 1.073.674 1.575 1.058 1.347 1.031 1.563 2.376.624 3.792-.753 1.136-1.811 1.924-3.005 2.532-.394.2-.517.464-.59.88-.4 2.284-.84 4.56-1.276 6.838-.041.214-.144.416-.218.624l-.245-.012M61.231 57.36c-.628-.15-.795-.572-.824-.975-.102-1.428-.316-2.878-.177-4.29.5-5.05 1.893-9.817 4.86-14.027.436-.618.984-1.007 1.741-1.085.875-.091 1.533.26 1.788 1.096.238.78.36 1.595.508 2.4.028.155-.028.345-.1.493-.048.103-.19.161-.29.239-.069-.1-.177-.191-.201-.301-.181-.831-.49-1.043-1.205-.558-.73.495-1.528 1.075-1.945 1.815-2.395 4.255-4.412 8.654-4.302 13.706.005.247.042.494.066.741.022.223.048.445.081.745M31.208 58.426c.228.118.457.233.684.354 2.594 1.38 5.197 2.762 8.127 3.282 1.219.217 2.475.27 3.717.298 1.425.032 2.607-.635 3.402-1.76 2.698-3.82 5.236-7.74 6.237-12.412.244-1.14.31-2.318.46-3.478.024-.189.056-.376.085-.564l.18-.004c.032.151.086.302.09.453.108 3.862-.663 7.523-2.59 10.894-1.333 2.332-2.747 4.618-4.103 6.938-.826 1.413-2.171 1.84-3.634 1.745-2.324-.15-4.606-.576-6.651-1.819-1.883-1.145-3.78-2.267-5.665-3.407-.163-.099-.289-.256-.432-.386l.093-.134zM28.014 20.925c.079-.131.138-.342.276-.426.106-.065.327-.008.465.06.186.092.335.254.51.371.45.3.925.428 1.47.26 1.533-.473 2.871-.25 3.916 1.088.304.39.67.741 1.043 1.069.812.712 1.6.788 2.542.288 1.007-.533 1.753-.254 2.2.799.458 1.076.949 2.138 1.399 3.218.074.178.013.413.015.621-.215-.027-.438-.027-.641-.09-.139-.043-.245-.181-.373-.263-.754-.484-1.472-1.043-2.275-1.425-1.2-.572-2.38-1.145-3.355-2.077-.992-.949-2.32-1.018-3.561-1.312-.744-.177-1.499-.342-2.206-.62-.674-.264-1.187-.764-1.425-1.56"/>
        <path d="M53.474 39.975c-.266.06-.531.13-.8.182-.753.145-1.451.403-1.892 1.076-.33.502-.23.627.332.801.408.126.786.363 1.158.585.115.07.205.241.236.382.144.639-.414.744-.788.961-.36.21-.763.451-1.154.084-.083-.079-.032-.326-.006-.49.024-.153.159-.314.128-.444-.021-.091-.27-.22-.36-.184-.149.058-.33.22-.36.364-.23 1.182-.464 2.365-.625 3.558-.162 1.195-.26 2.4-.351 3.604-.066.878-.652 1.342-1.292 1.791-.605.424-1.166.743-1.902.176-.43-.331-.945-.251-1.44.086-.768.522-2.174.128-2.504-.757.36.03.67.025.967.088.463.1.875.117 1.32-.151.265-.161.654-.158.987-.16.725-.003 1.455.094 2.175.044.74-.051 1.114-.52 1.138-1.268.008-.267-.032-.535-.062-.802-.17-1.487-.365-2.97-.506-4.46-.099-1.042.015-2.066.436-3.046.302-.706.793-1.238 1.46-1.569 1.026-.51 2.134-.733 3.28-.742.14-.001.278.058.416.09l.009.2M52.94 73.144c-.529-.41-.699-.939-.691-1.486.02-1.61.35-3.099 1.872-4.022.196-.12.368-.277.56-.403 1.115-.733 1.623-1.697 1.408-3.08-.14-.9-.147-1.844-.049-2.752.07-.64.341-1.295.671-1.857.163-.277.651-.386 1.014-.51.1-.033.386.146.398.249.074.644.515.833 1.047.962.114.027.204.153.37.287-.166.13-.28.255-.42.322-1.079.518-1.628 1.429-1.863 2.55-.244 1.162-.359 2.358-.692 3.492-.237.807-.627 1.628-1.151 2.279-.982 1.218-2.232 2.238-2.475 3.97M47.643 25.822c-.038.179-.073.507-.18.808-.137.38-.492.425-.757.124a.882.882 0 0 1-.182-.291c-.404-1.219-1.355-1.87-2.404-2.496-1.029-.614-1.99-1.356-2.921-2.114-.37-.3-.607-.781-.847-1.211-.08-.142-.048-.486.056-.555.155-.103.443-.112.627-.04.198.079.35.288.503.457.845.938 1.806 1.659 3.134 1.711.018.001.037.008.056.012 2.546.458 2.688 1.198 2.915 3.595M25.498 51.904c-.184-.211-.34-.327-.41-.481-1.155-2.503-2.116-5.06-2.077-7.876.005-.402.033-.805.087-1.203.017-.123.156-.229.24-.343.099.096.217.18.293.292.073.106.09.341.153.35.767.098.947.813 1.348 1.28.16.187.303.506.261.73-.411 2.236-.427 4.454.185 6.66.025.09.03.189.029.283-.001.053-.035.105-.109.308M43.227 38.593c-.22.013-.439.039-.658.038-2.311-.014-4.528.458-6.65 1.352-.647.272-1.233.685-1.861 1.008-.162.083-.375.067-.564.097.008-.186-.05-.415.037-.55.27-.42.3-.793.01-1.222-.294-.436.014-.649.39-.726 1.067-.22 2.137-.552 3.212-.576 1.83-.041 3.664.115 5.496.203.209.01.413.113.62.174l-.032.202M43.055 41.871l-2.494-.18-.107.161c.132.233.24.485.403.695.236.302.202.558-.128.699a16.57 16.57 0 0 1-1.806.65c-.124.036-.314-.152-.473-.236.091-.135.18-.27.275-.403.122-.171.25-.34.375-.509-.263-.13-.54-.387-.783-.36-.401.047-.787.266-1.167.437-.315.142-.613.321-.931.49-.073-.56-.132-1-.188-1.44-.067-.533.347-.624.695-.646 1.375-.09 2.753-.166 4.13-.176.545-.004 1.098.153 1.635.287.232.057.432.24.647.366l-.083.165M21.802 44.476c0 .286.04.463-.006.615-.62 2.09-1.762 3.822-3.547 5.098-.158.112-.403.104-.607.152-.004-.25-.107-.568.008-.735.29-.423.452-.814.308-1.34-.038-.138.162-.456.32-.518 1.464-.565 2.39-1.69 3.184-2.964.055-.087.157-.145.34-.308M61.992 66.2c-1.547.945-2.218 2.384-2.85 3.856-.057.133-.221.221-.336.33-.077-.134-.204-.263-.222-.405-.053-.413-.235-.683-.662-.747-.336-.05-.493-.234-.37-.558.41-1.089 2.645-2.887 4.44-2.476M51.99 28.224c-.478.015-.733-.304-.773-.694-.102-.997-.533-1.816-1.147-2.578-.119-.147-.148-.44-.096-.633.103-.388.567-.464.725-.106.391.888 1.207 1.239 1.949 1.695.72.443.983.86.838 1.344-.158.525-.832.964-1.495.972M40.162 55.762c.454-.11.941-.152 1.355-.349.637-.302 1.244-.68 1.824-1.084.474-.33.887-.273 1.324.018.143.096.285.194.43.288.447.288.833.29 1.21-.156.395-.463.77-.373.96.201.113.338.192.688.315 1.137-.87-.327-1.655-.723-2.352.165-.198-.145-.384-.27-.557-.411-.683-.557-.95-.573-1.697-.134-.64.376-1.258.846-2.063.748-.27-.033-.527-.166-.79-.254l.041-.169M42.042 56.748c1.598.476 3.179 1.053 4.7-.121.206.907-.605 1.985-1.565 2.165-1.057.199-2.809-.91-3.135-2.044M62.403 62.433c-.059.1-.092.218-.17.28-.736.571-1.32 1.258-1.727 2.103-.067.138-.289.201-.44.3-.07-.141-.14-.282-.212-.422-.091-.17-.206-.333-.271-.513-.061-.166-.16-.439-.088-.513.749-.768 1.617-1.324 2.74-1.339.046 0 .093.056.168.104"/>
    </g>
</svg>
