<svg width="50" height="50" viewBox="0 0 50 50" fill="none" xmlns="http://www.w3.org/2000/svg">
<path d="M11.7258 24.3103C17.3301 24.3103 21.8734 23.4016 21.8734 22.2807C21.8734 21.1597 17.3301 20.251 11.7258 20.251C6.12138 20.251 1.57812 21.1597 1.57812 22.2807C1.57812 23.4016 6.12138 24.3103 11.7258 24.3103Z" stroke="#2F2F2F" stroke-width="1.5" stroke-linecap="round" stroke-linejoin="round"/>
<path d="M21.9445 21.9453V28.0552C21.9445 29.1817 17.386 30.0919 11.7613 30.0919C6.1366 30.0919 1.57812 29.1817 1.57812 28.0552V21.9453" stroke="#2F2F2F" stroke-width="1.5" stroke-linecap="round" stroke-linejoin="round"/>
<path d="M21.9445 28.0547V34.1646C21.9445 35.2911 17.386 36.2012 11.7613 36.2012C6.1366 36.2012 1.57812 35.2911 1.57812 34.1646V28.0547" stroke="#2F2F2F" stroke-width="1.5" stroke-linecap="round" stroke-linejoin="round"/>
<path d="M21.9445 34.1641V40.274C21.9445 41.4004 17.386 42.3106 11.7613 42.3106C6.1366 42.3106 1.57812 41.4004 1.57812 40.274V34.1641" stroke="#2F2F2F" stroke-width="1.5" stroke-linecap="round" stroke-linejoin="round"/>
<path d="M21.9445 40.2744V46.3843C21.9445 47.5108 17.386 48.421 11.7613 48.421C6.1366 48.421 1.57812 47.5108 1.57812 46.3843V40.2744" stroke="#2F2F2F" stroke-width="1.5" stroke-linecap="round" stroke-linejoin="round"/>
<path d="M1.57813 15.8348V3.61574C1.57802 3.34825 1.63063 3.08337 1.73294 2.83623C1.83526 2.58909 1.98526 2.36453 2.1744 2.17539C2.36354 1.98625 2.58812 1.83623 2.83527 1.73392C3.08241 1.6316 3.34727 1.579 3.61475 1.5791H46.3825C46.65 1.579 46.9149 1.6316 47.1621 1.73392C47.4092 1.83623 47.6338 1.98625 47.8229 2.17539C48.0121 2.36453 48.162 2.58909 48.2644 2.83623C48.3667 3.08337 48.4193 3.34825 48.4192 3.61574V28.0546C48.4193 28.3221 48.3667 28.587 48.2644 28.8341C48.162 29.0812 48.0121 29.3058 47.8229 29.4949C47.6338 29.6841 47.4092 29.8341 47.1621 29.9364C46.9149 30.0387 46.65 30.0913 46.3825 30.0912H27.0353" stroke="#2F2F2F" stroke-width="1.5" stroke-linecap="round" stroke-linejoin="round"/>
<path d="M18.8906 15.8355C18.8908 14.7154 19.1989 13.6169 19.7812 12.6601C20.3635 11.7032 21.1977 10.9249 22.1925 10.4101C23.1872 9.8953 24.3044 9.66387 25.4218 9.74111C26.5393 9.81835 27.614 10.2013 28.5285 10.848C29.443 11.4948 30.1621 12.3805 30.6073 13.4084C31.0524 14.4362 31.2064 15.5667 31.0525 16.6761C30.8985 17.7856 30.4426 18.8314 29.7344 19.6993C29.0263 20.5671 28.0932 21.2236 27.0372 21.597" stroke="#2F2F2F" stroke-width="1.5" stroke-linecap="round" stroke-linejoin="round"/>
<path d="M10.7435 10.2354C10.8442 10.2354 10.9427 10.2652 11.0264 10.3212C11.1101 10.3771 11.1754 10.4566 11.2139 10.5497C11.2525 10.6427 11.2625 10.7451 11.2429 10.8438C11.2233 10.9426 11.1748 11.0333 11.1036 11.1045C11.0323 11.1757 10.9416 11.2242 10.8429 11.2439C10.7441 11.2635 10.6417 11.2534 10.5487 11.2149C10.4556 11.1764 10.3761 11.1111 10.3202 11.0274C10.2642 10.9436 10.2344 10.8452 10.2344 10.7445C10.2344 10.6095 10.288 10.48 10.3835 10.3845C10.479 10.289 10.6085 10.2354 10.7435 10.2354" stroke="#2F2F2F" stroke-width="1.5" stroke-linecap="round" stroke-linejoin="round"/>
<path d="M39.2592 20.418C39.3599 20.418 39.4583 20.4478 39.542 20.5038C39.6258 20.5597 39.691 20.6392 39.7295 20.7323C39.7681 20.8253 39.7782 20.9277 39.7585 21.0265C39.7389 21.1252 39.6904 21.2159 39.6192 21.2872C39.548 21.3584 39.4573 21.4069 39.3585 21.4265C39.2597 21.4462 39.1573 21.4361 39.0643 21.3975C38.9713 21.359 38.8917 21.2937 38.8358 21.21C38.7799 21.1263 38.75 21.0278 38.75 20.9271C38.75 20.7921 38.8036 20.6626 38.8991 20.5671C38.9946 20.4716 39.1241 20.418 39.2592 20.418Z" stroke="#2F2F2F" stroke-width="1.5" stroke-linecap="round" stroke-linejoin="round"/>
<path d="M5.65625 15.8355V6.67066C5.65625 6.40058 5.76355 6.14157 5.95452 5.9506C6.14549 5.75963 6.40449 5.65234 6.67456 5.65234H43.3325C43.6025 5.65234 43.8615 5.75963 44.0525 5.9506C44.2435 6.14157 44.3508 6.40058 44.3508 6.67066V24.9996C44.3508 25.2697 44.2435 25.5287 44.0525 25.7197C43.8615 25.9106 43.6025 26.0179 43.3325 26.0179H27.0401" stroke="#2F2F2F" stroke-width="1.5" stroke-linecap="round" stroke-linejoin="round"/>
</svg>
