<svg width="28" height="28" viewBox="0 0 28 28" fill="none" xmlns="http://www.w3.org/2000/svg">
<rect width="28" height="28" fill="white"/>
<path d="M8.33594 10H9.66927H20.3359" stroke="#181818" stroke-width="1.5" stroke-miterlimit="2.61313" stroke-linecap="round"/>
<path d="M11.6641 9.99967V8.66634C11.6641 8.31272 11.8045 7.97358 12.0546 7.72353C12.3046 7.47348 12.6438 7.33301 12.9974 7.33301H15.6641C16.0177 7.33301 16.3568 7.47348 16.6069 7.72353C16.8569 7.97358 16.9974 8.31272 16.9974 8.66634V9.99967M18.9974 9.99967V19.333C18.9974 19.6866 18.8569 20.0258 18.6069 20.2758C18.3568 20.5259 18.0177 20.6663 17.6641 20.6663H10.9974C10.6438 20.6663 10.3046 20.5259 10.0546 20.2758C9.80454 20.0258 9.66406 19.6866 9.66406 19.333V9.99967H18.9974Z" stroke="#181818" stroke-width="1.5" stroke-miterlimit="2.61313" stroke-linecap="round"/>
</svg>
