<svg xmlns="http://www.w3.org/2000/svg" width="35" height="35" viewBox="0 0 35 35">
    <g fill="none" fill-rule="nonzero">
        <circle cx="17.5" cy="17.5" r="17.5" fill="#000" opacity=".2"/>
        <path stroke="#222" stroke-linecap="round" stroke-width="2" d="M24 12v12.75c0 1.243-1.027 2.25-2.294 2.25h-8.412C12.027 27 11 25.993 11 24.75V12"/>
        <path fill="#222" d="M16 23c0 .621-.448 1-1 1s-1-.379-1-1v-9c0-.621.448-1 1-1s1 .379 1 1v9zM21 23c0 .621-.448 1-1 1s-1-.379-1-1v-9c0-.621.448-1 1-1s1 .379 1 1v9z"/>
        <path stroke="#222" stroke-linecap="round" stroke-width="2" d="M10 9h15M16 8h3"/>
    </g>
</svg>
