<svg width="24" height="24" viewBox="0 0 24 24" fill="none" xmlns="http://www.w3.org/2000/svg">
<rect width="24" height="24" rx="2" fill="#FBEFEC"/>
<path d="M6.33301 8H7.66634H18.333" stroke="#D13C15" stroke-width="1.5" stroke-miterlimit="2.61313" stroke-linecap="round"/>
<path d="M9.66699 7.99967V6.66634C9.66699 6.31272 9.80747 5.97358 10.0575 5.72353C10.3076 5.47348 10.6467 5.33301 11.0003 5.33301H13.667C14.0206 5.33301 14.3598 5.47348 14.6098 5.72353C14.8598 5.97358 15.0003 6.31272 15.0003 6.66634V7.99967M17.0003 7.99967V17.333C17.0003 17.6866 16.8598 18.0258 16.6098 18.2758C16.3598 18.5259 16.0206 18.6663 15.667 18.6663H9.00033C8.6467 18.6663 8.30756 18.5259 8.05752 18.2758C7.80747 18.0258 7.66699 17.6866 7.66699 17.333V7.99967H17.0003Z" stroke="#D13C15" stroke-width="1.5" stroke-miterlimit="2.61313" stroke-linecap="round"/>
</svg>
