<svg xmlns="http://www.w3.org/2000/svg" width="150" height="150" viewBox="0 0 150 150">
    <g fill="none" fill-rule="evenodd">
        <rect width="150" height="150" fill="#EDEFF0" rx="75"/>
        <g stroke-linecap="round" stroke-linejoin="round" stroke-width="6">
            <path stroke="#333" d="M130.5 43L99.023 68.218l-15.076-3.394s-9.989 9.642-16.417 11.37c-2.745.737-2.775 4.492.334 5.6 3.147 1.12 7.265.035 9.674-3.055 1.606-2.06 3.295-3.475 5.068-4.243 0 0 6.492 6.086 13.57 4.243 0 0 6.222 4.922 13.838 8.666-.448 2.723-2.24 4.879-4.032 4.765.152 2.274-2.618 5.83-5.114 5.672 0 2.963-3.238 4.425-5.617 4.346-.935 2.528-4.329 3.95-6.201 2.686.978-2.744 1.053-5.491-.897-6.4-1.95-.909-4.213.75-5.11 5.413-.897 4.662 6.943 5.491 8.035 1.817"/>
            <path stroke="#333" d="M78.941 94.572c.305-.569 1.88-2.317 4.007-1.215 2.127 1.103 1.549 3.367 1.244 3.936l-3.831 7.615c-.61 1.138-2.374 1.403-3.694.718l-.471-.244c-1.32-.684-2.095-2.264-1.484-3.401l4.23-7.41zM71.221 93.33c.256-.515 1.637-2.065 3.687-.914 2.05 1.15 1.63 3.24 1.374 3.755l-3.183 6.92c-.51 1.032-2.148 1.182-3.42.467l-.454-.254c-1.272-.714-2.08-2.237-1.57-3.269l3.566-6.705zM64.637 90.828c.351-.432 2.004-1.593 3.771-.057s.941 3.417.59 3.848l-4.477 5.84c-.703.862-2.327.645-3.423-.308l-.392-.34c-1.096-.953-1.58-2.569-.877-3.431l4.808-5.552zM61.5 95c-4.17-2.153-9.334-7.247-8.983-13M55.5 61l9.337 4 19.663-.355M93.5 86s9.006 5.857 13 6M90.5 91s5.409 4.403 11 7M107.5 85s4.232-2.245 3.776-8.53L134.5 64"/>
            <path stroke="#C00" d="M55 60l7 4-10 20-4.5-1.615"/>
            <path stroke="#C00" d="M16.5 74.664L42.692 87 56.5 58.202 20.437 42"/>
        </g>
    </g>
</svg>
