<svg xmlns="http://www.w3.org/2000/svg" width="204" height="92" viewBox="0 0 204 92">
    <g fill="none" fill-rule="nonzero">
        <ellipse cx="68.5" cy="23" fill="#E4E4E4" rx="68.5" ry="23" transform="translate(34 39)"/>
        <path fill="#222" stroke="#222" d="M154 20.356c-7.259 0-11-2.217-11-3.165 0-.945 3.741-3.162 11-3.162 7.258 0 10.999 2.217 10.999 3.162 0 .948-3.741 3.165-10.999 3.165zm10.999 0v1.055c0 .947-3.741 3.164-10.999 3.164-.811 0-1.717-.036-2.439-.087-1.765-.954-4.324-1.574-7.136-1.865-.789-.361-1.425-.93-1.425-1.212v-1.287c2.425 1.542 6.722 2.34 11 2.34 4.277 0 8.573-.798 10.999-2.34v.232zm0 5.274c0 .946-3.741 3.164-10.999 3.164v-1.18c0-.367-.091-.711-.233-1.04.014.037.04.069.053.105.06 0 .119.005.18.005 4.275 0 8.573-.8 10.999-2.338v1.284zm0 4.218c0 .946-3.741 3.163-10.999 3.163v-2.108c4.275 0 8.573-.798 10.999-2.338v1.283zm0 4.219c0 .946-3.741 3.163-10.999 3.163v-2.108c4.275 0 8.573-.8 10.999-2.338v1.283zm0 4.219c0 .945-3.741 3.163-10.999 3.163v-2.11c4.275 0 8.573-.797 10.999-2.337v1.284zm0 4.217c0 .948-3.741 3.165-10.999 3.165v-2.11c4.275 0 8.573-.798 10.999-2.34v1.285zm0 4.218c0 .947-3.741 3.165-10.999 3.165V47.776c4.275 0 8.573-.798 10.999-2.337v1.282zm0 4.22c0 .946-3.741 3.163-10.999 3.163v-2.108c4.275 0 8.573-.8 10.999-2.34v1.285zm0 3.163c0 1.253-4.27 4.218-10.999 4.218v-2.109c4.275 0 8.573-.798 10.999-2.337v.228zM140.65 30.779c-7.454 0-11.296-2.218-11.296-3.164 0-.947 3.842-3.164 11.296-3.164 7.454 0 11.296 2.217 11.296 3.164 0 .946-3.842 3.164-11.296 3.164zm11.296 0v1.055c0 .947-3.842 3.163-11.296 3.163-7.454 0-11.296-2.216-11.296-3.163v-1.288c2.491 1.54 6.903 2.342 11.296 2.342s8.804-.801 11.296-2.342v.233zm0 5.273c0 .947-3.842 3.164-11.296 3.164-7.454 0-11.296-2.217-11.296-3.164v-1.283c2.491 1.539 6.905 2.337 11.296 2.337 4.391 0 8.804-.798 11.296-2.337v1.283zm0 4.219c0 .945-3.842 3.163-11.296 3.163-7.454 0-11.296-2.218-11.296-3.163v-1.284c2.491 1.54 6.905 2.339 11.296 2.339 4.391 0 8.804-.8 11.296-2.34v1.285zm0 4.218c0 .947-3.842 3.163-11.296 3.163-7.454 0-11.296-2.216-11.296-3.163v-1.282c2.491 1.539 6.905 2.336 11.296 2.336 4.391 0 8.804-.797 11.296-2.336v1.282zm0 4.22c0 .945-3.842 3.163-11.296 3.163-7.454 0-11.296-2.218-11.296-3.163v-1.285c2.491 1.539 6.905 2.338 11.296 2.338 4.391 0 8.804-.798 11.296-2.338v1.285zm0 4.217c0 .948-3.842 3.163-11.296 3.163-7.454 0-11.296-2.215-11.296-3.163v-1.284c2.491 1.54 6.905 2.339 11.296 2.339 4.391 0 8.804-.8 11.296-2.34v1.285zm0 4.218c0 .947-3.842 3.165-11.296 3.165-7.454 0-11.296-2.218-11.296-3.165v-1.282c2.491 1.539 6.905 2.337 11.296 2.337 4.391 0 8.804-.798 11.296-2.337v1.282zm0 4.22c0 .945-3.842 3.163-11.296 3.163-7.454 0-11.296-2.218-11.296-3.163V60.08c2.491 1.54 6.905 2.339 11.296 2.339 4.391 0 8.804-.8 11.296-2.34v1.285zm0 3.163c0 1.252-4.385 4.219-11.296 4.219-6.912 0-11.296-2.782-11.296-3.955v-.494c2.491 1.54 6.905 2.339 11.296 2.339 4.391 0 8.804-.798 11.296-2.34v.23zM128 24.575c-.705 0-1.355-.032-1.992-.072-1.993-1.09-5.031-1.751-8.295-1.983.109.009.223.005.331.014-.691-.426-1.044-.833-1.044-1.123v-1.287c2.425 1.542 6.722 2.34 11 2.34 4.277 0 8.573-.798 11-2.34v1.287c0 .286-.348.687-1.022 1.108-3.279.233-6.328.898-8.322 1.996-.538.028-1.071.06-1.656.06zm-12.974 6.204c-7.458 0-11.302-2.218-11.302-3.164 0-.947 3.844-3.164 11.302-3.164 7.459 0 11.304 2.217 11.304 3.164 0 .946-3.845 3.164-11.304 3.164zm11.304 0v1.055c0 .947-3.845 3.163-11.304 3.163-7.458 0-11.302-2.216-11.302-3.163v-1.288c2.491 1.54 6.907 2.342 11.302 2.342 4.397 0 8.811-.801 11.304-2.342v.233zm0 5.273c0 .947-3.846 3.164-11.304 3.164v-.398c0-.638-.247-1.212-.684-1.727.228.004.456.015.684.015 4.395 0 8.811-.798 11.304-2.337v1.283zm0 4.219c0 .945-3.846 3.163-11.304 3.163V41.326c4.395 0 8.811-.8 11.304-2.34v1.285zm0 4.218c0 .947-3.846 3.163-11.304 3.163v-2.109c4.395 0 8.811-.797 11.304-2.336v1.282zm0 4.22c0 .945-3.846 3.163-11.304 3.163v-2.11c4.395 0 8.811-.798 11.304-2.338v1.285zm0 4.217c0 .948-3.846 3.163-11.304 3.163V53.98c4.395 0 8.811-.8 11.304-2.34v1.285zm0 4.218c0 .947-3.846 3.165-11.304 3.165v-2.11c4.395 0 8.811-.798 11.304-2.337v1.282zm0 4.22c0 .945-3.846 3.163-11.304 3.163V62.419c4.395 0 8.811-.8 11.304-2.34v1.285zm0 3.163c0 1.252-4.388 4.219-11.304 4.219v-2.11c4.395 0 8.811-.798 11.304-2.34v.23zM101.978 41.84c-7.286 0-11.041-2.118-11.041-3.023 0-.904 3.755-3.024 11.041-3.024 7.286 0 11.042 2.12 11.042 3.024 0 .905-3.756 3.023-11.042 3.023zm11.042 0v1.009c0 .904-3.756 3.023-11.042 3.023s-11.041-2.12-11.041-3.023v-1.23c2.434 1.472 6.747 2.238 11.041 2.238 4.294 0 8.606-.766 11.042-2.238v.22zm0 5.04c0 .905-3.756 3.024-11.042 3.024s-11.041-2.12-11.041-3.024v-1.226c2.435 1.47 6.749 2.234 11.041 2.234 4.293 0 8.606-.763 11.042-2.234v1.226zm0 4.032c0 .904-3.756 3.023-11.042 3.023s-11.041-2.12-11.041-3.023v-1.227c2.435 1.472 6.749 2.234 11.041 2.234 4.293 0 8.606-.762 11.042-2.234v1.227zm0 4.03c0 .906-3.756 3.023-11.042 3.023s-11.041-2.117-11.041-3.022v-1.227c2.435 1.472 6.749 2.235 11.041 2.235 4.293 0 8.606-.763 11.042-2.235v1.227zm0 4.033c0 .903-3.756 3.023-11.042 3.023s-11.041-2.12-11.041-3.023v-1.227c2.435 1.47 6.749 2.234 11.041 2.234 4.293 0 8.606-.762 11.042-2.234v1.227zm0 4.03c0 .906-3.756 3.024-11.042 3.024s-11.041-2.118-11.041-3.024V61.78c2.435 1.472 6.749 2.235 11.041 2.235 4.293 0 8.606-.763 11.042-2.235v1.226zm0 4.032c0 .905-3.756 3.024-11.042 3.024s-11.041-2.12-11.041-3.024v-1.226c2.435 1.47 6.749 2.233 11.041 2.233 4.293 0 8.606-.762 11.042-2.233v1.226zm0 4.032c0 .904-3.756 3.022-11.042 3.022s-11.041-2.118-11.041-3.022v-1.228c2.435 1.473 6.749 2.236 11.041 2.236 4.293 0 8.606-.763 11.042-2.236v1.228zm0 3.022c0 1.198-4.287 4.032-11.042 4.032s-11.041-2.658-11.041-3.78v-.47c2.435 1.472 6.749 2.235 11.041 2.235 4.293 0 8.606-.763 11.042-2.235v.218zM88.708 34.997c-7.811 0-11.838-2.216-11.838-3.163v-1.288c2.61 1.54 7.234 2.342 11.838 2.342 4.604 0 9.227-.801 11.838-2.342v1.288c0 .947-4.027 3.163-11.838 3.163zm.222 3.82v.395c-.075 0-.146.004-.222.004-7.811 0-11.838-2.217-11.838-3.164v-1.283c2.611 1.539 7.236 2.337 11.838 2.337.304 0 .607-.012.91-.02-.44.516-.688 1.092-.688 1.732zm0 12.348v.703c-.075 0-.146.004-.222.004-7.811 0-11.838-2.218-11.838-3.163v-1.285c2.611 1.539 7.236 2.338 11.838 2.338.074 0 .147-.003.222-.005v1.156c0 .052.015.103.018.155-.003.034-.018.062-.018.097zm0 3.779v1.141c-.075.002-.146.004-.222.004-7.811 0-11.838-2.215-11.838-3.163v-1.284c2.611 1.54 7.236 2.339 11.838 2.339.074 0 .147-.003.222-.005v.968zm0 4.032v1.329c-.075 0-.146.004-.222.004-7.811 0-11.838-2.218-11.838-3.165v-1.282c2.611 1.539 7.236 2.337 11.838 2.337.074 0 .147-.003.222-.004v.78zm0 4.03v1.517c-.075.002-.146.004-.222.004-7.811 0-11.838-2.218-11.838-3.163V60.08c2.611 1.54 7.236 2.339 11.838 2.339.074 0 .147-.003.222-.005v.592zm0 4.032v1.702c-.075.002-.147.006-.222.006-7.242 0-11.838-2.782-11.838-3.955v-.494c2.611 1.54 7.236 2.339 11.838 2.339.074 0 .147-.003.222-.005v.407zm0-21.5v2.11c-.075.002-.146.004-.222.004-7.811 0-11.838-2.216-11.838-3.163v-1.282c2.611 1.539 7.236 2.336 11.838 2.336.074 0 .147-.002.222-.004zm-.222-2.104c-7.811 0-11.838-2.218-11.838-3.163v-1.284c2.611 1.54 7.236 2.339 11.838 2.339.074 0 .147-.003.222-.005v2.109c-.075.002-.146.004-.222.004zM72.658 24.29c-1.629-.768-3.823-1.297-6.233-1.59l.058.006C65.792 22.279 65 21.7 65 21.41v-1.287c2.425 1.542 6.722 2.34 10.999 2.34 4.278 0 8.574-.798 11.001-2.34v1.287c0 .285-.346.683-1.014 1.102-3.483.229-6.724.903-8.83 2.02-.385.014-.748.042-1.157.042-.811 0-2.321.098-3.341-.285zm-10.854 6.489c-7.667 0-11.621-2.218-11.621-3.164 0-.947 3.954-3.164 11.621-3.164 7.668 0 11.621 2.217 11.621 3.164 0 .946-3.953 3.164-11.621 3.164zm11.621 0v1.055c0 .947-3.953 3.163-11.621 3.163-7.667 0-11.621-2.216-11.621-3.163v-1.288c2.561 1.54 7.101 2.342 11.621 2.342 4.519 0 9.058-.801 11.621-2.342v.233zm0 5.273c0 .947-3.953 3.164-11.621 3.164-7.667 0-11.621-2.217-11.621-3.164v-1.283c2.563 1.539 7.103 2.337 11.621 2.337 4.517 0 9.058-.798 11.621-2.337v1.283zm0 4.219c0 .945-3.953 3.163-11.621 3.163-7.667 0-11.621-2.218-11.621-3.163v-1.284c2.563 1.54 7.103 2.339 11.621 2.339 4.517 0 9.058-.8 11.621-2.34v1.285zm0 4.218c0 .947-3.953 3.163-11.621 3.163-7.667 0-11.621-2.216-11.621-3.163v-1.282c2.563 1.539 7.103 2.336 11.621 2.336 4.517 0 9.058-.797 11.621-2.336v1.282zm0 4.22c0 .945-3.953 3.163-11.621 3.163-7.667 0-11.621-2.218-11.621-3.163v-1.285c2.563 1.539 7.103 2.338 11.621 2.338 4.517 0 9.058-.798 11.621-2.338v1.285zm0 4.217c0 .948-3.953 3.163-11.621 3.163-7.667 0-11.621-2.215-11.621-3.163v-1.284c2.563 1.54 7.103 2.339 11.621 2.339 4.517 0 9.058-.8 11.621-2.34v1.285zm0 4.218c0 .947-3.953 3.165-11.621 3.165-7.667 0-11.621-2.218-11.621-3.165v-1.282c2.563 1.539 7.103 2.337 11.621 2.337 4.517 0 9.058-.798 11.621-2.337v1.282zm0 4.22c0 .945-3.953 3.163-11.621 3.163-7.667 0-11.621-2.218-11.621-3.163V60.08c2.563 1.54 7.103 2.339 11.621 2.339 4.517 0 9.058-.8 11.621-2.34v1.285zm0 3.163c0 1.252-4.511 4.219-11.621 4.219s-11.621-2.782-11.621-3.955v-.494c2.563 1.54 7.103 2.339 11.621 2.339 4.517 0 9.058-.798 11.621-2.34v.23zM38.999 21.41v-1.287c2.426 1.542 6.723 2.34 11.001 2.34 4.277 0 8.573-.798 11-2.34v1.287c0 .274-.327.653-.944 1.054-3.789.163-7.39.862-9.638 2.094-.145.002-.271.016-.418.016-7.259 0-11.001-2.217-11.001-3.164zm9.071 6.204v1.105c-5.97-.35-9.071-2.233-9.071-3.09v-1.284c2.102 1.333 5.607 2.108 9.285 2.292-.129.31-.214.632-.214.977zm0 12.92v.84c-5.97-.35-9.071-2.233-9.071-3.09v-1.283c2.061 1.306 5.472 2.073 9.071 2.277v.992c0 .056.017.107.02.162-.003.035-.02.066-.02.102zm0 3.954v1.103c-5.97-.35-9.071-2.231-9.071-3.09V41.22c2.061 1.308 5.472 2.075 9.071 2.28v.99zm0 4.22v1.104c-5.97-.352-9.071-2.233-9.071-3.092v-1.282c2.061 1.307 5.472 2.073 9.071 2.277v.993zm0 4.217v1.105c-5.97-.351-9.071-2.234-9.071-3.09v-1.284c2.061 1.307 5.472 2.075 9.071 2.278v.99zm0 4.218v1.08c-5.594-.462-9.071-2.8-9.071-3.856v-.492c2.061 1.307 5.472 2.074 9.071 2.277v.99zm-9.071-24.36c2.061 1.306 5.472 2.073 9.071 2.277v2.096c-5.97-.351-9.071-2.233-9.071-3.09v-1.283zm0-4.22c2.061 1.308 5.472 2.075 9.071 2.278v2.096c-5.97-.351-9.071-2.233-9.071-3.09v-1.283zM50 14.03c7.258 0 11 2.217 11 3.162 0 .948-3.742 3.165-11 3.165-7.259 0-11.001-2.217-11.001-3.165 0-.945 3.742-3.162 11.001-3.162zm25.999 0C83.258 14.029 87 16.246 87 17.19c0 .948-3.742 3.165-11.001 3.165C68.741 20.356 65 18.139 65 17.19c0-.945 3.741-3.162 10.999-3.162zM88.708 24.45c7.811 0 11.838 2.217 11.838 3.164 0 .946-4.027 3.164-11.838 3.164-7.811 0-11.838-2.218-11.838-3.164 0-.947 4.027-3.164 11.838-3.164zm2.291-4.095v-.232c2.426 1.542 6.723 2.34 11 2.34 4.278 0 8.574-.798 11.001-2.34v1.287c0 .29-.354.697-1.044 1.123.145-.013.295-.008.44-.018-3.283.229-6.342.89-8.347 1.986-.653.04-1.325.073-2.05.073-.628 0-1.204-.032-1.778-.064-2.156-1.131-5.483-1.801-9.036-2.013.285.017.577.012.859.036-.691-.426-1.045-.833-1.045-1.123v-1.055zm11-6.327c7.259 0 11.001 2.217 11.001 3.162 0 .948-3.742 3.165-11.001 3.165-7.257 0-11-2.217-11-3.165 0-.945 3.743-3.162 11-3.162zm26.001 0c7.258 0 11 2.217 11 3.162 0 .948-3.742 3.165-11 3.165-7.259 0-11-2.217-11-3.165 0-.945 3.741-3.162 11-3.162zm12.999 3.162c0-6.921-25.999-6.921-25.999 0 0-6.921-26-6.921-26 0 0-6.921-26.001-6.921-26.001 0 0-6.921-25.999-6.921-25.999 0v12.657c0 .056.016.109.019.162-.003.036-.019.067-.019.102V54.368c0 2.926 4.985 5.518 11.07 5.983V64.79c0 3.23 6.416 6.064 13.734 6.064 6.06 0 11.645-2.145 13.256-4.803 1.422 2.672 7.187 4.803 13.648 4.803.074 0 .147-.003.222-.005v3.495c0 3.087 6.096 5.795 13.048 5.795 6.831 0 13.048-2.883 13.048-6.048V70.855c5.711 0 10.999-2.012 12.748-4.554 1.565 2.553 6.904 4.554 12.876 4.554 6.988 0 13.35-3.017 13.35-6.328v-4.095c6.805 0 13-3.015 13-6.328V17.19c0-6.921-26.001-6.921-26.001 0z"/>
    </g>
</svg>
