<svg xmlns="http://www.w3.org/2000/svg" width="204" height="92" viewBox="0 0 204 92">
    <g fill="none" fill-rule="nonzero">
        <ellipse cx="102.5" cy="82" fill="#E4E4E4" rx="32.5" ry="2"/>
        <path fill="#222" stroke="#222" d="M105.45 66.745c.561.21.848.843.64 1.412-.039.105-1.175 3.653-4.85 13.38h-2.32c3.795-10.034 5.097-14.038 5.136-14.144a1.082 1.082 0 0 1 1.393-.648zm-10.94.557a1.076 1.076 0 0 1 1.413-.601c.553.229.82.869.592 1.43L91.638 80.21a1.082 1.082 0 0 1-1.413.6 1.103 1.103 0 0 1-.593-1.431l4.878-12.077zm-7.677-9.938c.041-.037 5.974-5.694 8.193-9.672a1.078 1.078 0 0 1 1.48-.415c.518.299.702.968.408 1.496-2.41 4.32-8.516 10.12-8.647 10.238a1.073 1.073 0 0 1-1.529-.098 1.11 1.11 0 0 1 .095-1.55zm-.292-13.826c.005 1.784.2 2.535.327 2.8a.67.67 0 0 0 .497.245c1.2.019 3.143-.558 5.742-2.692a1.077 1.077 0 0 1 1.648.347c.241.465.1 1.043-.304 1.375a15.536 15.536 0 0 1-5.759 2.942l.773.939c.387.47.362 1.189-.099 1.583a1.072 1.072 0 0 1-1.533-.135l-2.348-2.857c-1.084-.992-1.07-2.773-.715-4.547h1.771zm-.984-17.348a1.105 1.105 0 0 1 1.112 1.08c.003.1-.178 4.189-.093 12.268h-1.744c-.14-7.927-.333-12.137-.335-12.235a1.083 1.083 0 0 1 1.06-1.113zm-.728-5.357a1.076 1.076 0 0 1 1.49.359l1.445 2.379a1.106 1.106 0 0 1-.354 1.51 1.075 1.075 0 0 1-1.49-.358l-1.446-2.378a1.108 1.108 0 0 1 .355-1.512zm4.35-13.986c1.582 3.432-1.21 6.1-1.33 6.21a1.065 1.065 0 0 1-.737.293 1.08 1.08 0 0 1-.797-.353 1.11 1.11 0 0 1 .057-1.548c.085-.08 1.744-1.715.843-3.674-1.49-3.235.42-6.557.501-6.698.305-.52.97-.692 1.485-.383.516.309.685.984.38 1.504-.014.022-1.403 2.479-.402 4.649zm2.282 10.438l-7.769.09h-.012a1.092 1.092 0 0 1-1.083-1.083 1.091 1.091 0 0 1 1.072-1.111l7.767-.093c.591-.016 1.088.48 1.095 1.086a1.091 1.091 0 0 1-1.07 1.11zm17.32 21.287h-2.45c.01.124.02.247.02.373.005.28.027 2.806-1.246 4.657l2.731 4.909c.207.37.182.828-.062 1.174-.702 1-6.955 9.807-10.377 11.348l-.234.106c-2.109.946-6.036 2.71-6.658 4.985-.22.804-.006 1.657.654 2.607a1.107 1.107 0 0 1-.262 1.53 1.075 1.075 0 0 1-1.509-.266c-1.043-1.501-1.37-3.001-.973-4.456.896-3.276 5.263-5.236 7.87-6.408l.232-.105c.808-.364 3.984-2.875 9.091-10.047l-2.166-3.895c-.634.322-3.35 1.488-4.149 1.488a1.092 1.092 0 0 1-1.085-1.098 1.09 1.09 0 0 1 1.085-1.097c.74 0 3.315-1.227 3.761-1.691.982-1.022 1.148-3.012 1.13-3.691l-.002-.034c0-1.89-1.455-3.428-3.245-3.431H100.928c-1.79.003-3.248 1.542-3.248 3.43 0 .607-.485 2.099-1.084 2.099-.598 0-1.083-1.492-1.083-2.098 0-.131.011-.26.018-.39h-3.45c-.275 0-.522-.106-.714-.276.17.876.384 1.725.655 2.53a1.103 1.103 0 0 1-.676 1.396 1.088 1.088 0 0 1-1.375-.686c-2.459-7.301-.752-15.432-.373-17.452l-.675-3.988a1.103 1.103 0 0 1 .572-1.441 1.08 1.08 0 0 1 1.423.58l.805 4.3c.086.206.108.435.063.654-.018.093-1.578 5.87-.64 12.742.186-.33.533-.554.934-.554h4.043c.241-.48.546-.92.903-1.306l-2.12-2.16a1.108 1.108 0 0 1 0-1.554 1.076 1.076 0 0 1 1.533 0l2.38 2.423a5.307 5.307 0 0 1 1.028-.332v-3.941c0-.607.486-1.098 1.084-1.098a1.09 1.09 0 0 1 1.083 1.098v3.94c.36.077.703.19 1.032.333l2.38-2.423a1.078 1.078 0 0 1 1.531 0 1.11 1.11 0 0 1 0 1.554l-2.12 2.16c.358.387.662.826.901 1.306h3.042c.6 0 1.083.492 1.083 1.098 0 .607-.483 1.098-1.083 1.098zm7.55 18.302l-3.788 6.189.31 6.499 7.085-10.92-3.608-1.768zm6.096 1.93l-3.308 5.095c-.028-.09-.885.375-.518.639.49.35-.655.504-1 1-.212.303-.66 2-1 2-.216 0-.81 1.136-1 1-.233-.167-.155.814-.13.982l-1.713 2.64a1.08 1.08 0 0 1-.76.486l.423 8.892h-2.169l-.89-18.711a1.11 1.11 0 0 1 .16-.632l1.684-2.753c-1.536-1.39-3.314-4.152-3.86-5.368a1.101 1.101 0 0 1 .534-1.454 1.077 1.077 0 0 1 1.436.54c.94 2.08 2.261 3.464 3.056 4.379l1.631-2.663a1.077 1.077 0 0 1 1.392-.41l5.6 2.745a1.1 1.1 0 0 1 .573.697c.082.305.031.63-.14.896z"/>
    </g>
</svg>
