<svg xmlns="http://www.w3.org/2000/svg" width="204" height="92" viewBox="0 0 204 92">
    <g fill="none" fill-rule="evenodd" transform="translate(65 16)">
        <ellipse cx="37" cy="53" fill="#E4E4E4" fill-rule="nonzero" rx="17" ry="8"/>
        <ellipse cx="57" cy="42" fill="#E4E4E4" fill-rule="nonzero" rx="17" ry="8"/>
        <ellipse cx="17" cy="42" fill="#E4E4E4" fill-rule="nonzero" rx="17" ry="8"/>
        <path fill="#222" fill-rule="nonzero" stroke="#222" d="M28 35.986c-2.426 1.473-6.724 2.235-11 2.235s-8.574-.762-11-2.235v1.228c0 .903 3.742 3.022 11 3.022s11-2.119 11-3.022v-1.228zm0-4.031c-2.426 1.471-6.724 2.234-11 2.234s-8.574-.763-11-2.234v1.226c0 .906 3.742 3.024 11 3.024s11-2.118 11-3.024v-1.226zm0-4.032c-2.426 1.472-6.724 2.235-11 2.235s-8.574-.763-11-2.235v1.227c0 .905 3.742 3.023 11 3.023s11-2.118 11-3.023v-1.227zm0-4.031c-2.426 1.472-6.724 2.235-11 2.235s-8.574-.764-11-2.235v1.227c0 .904 3.742 3.023 11 3.023s11-2.119 11-3.023v-1.227zm0-4.031c-2.426 1.472-6.724 2.234-11 2.234s-8.574-.762-11-2.234v1.227c0 .904 3.742 3.022 11 3.022s11-2.118 11-3.022v-1.227zm0-4.032c-2.426 1.472-6.724 2.235-11 2.235s-8.574-.763-11-2.235v1.227c0 .905 3.742 3.023 11 3.023s11-2.118 11-3.023v-1.227zm0-4.03c-2.426 1.47-6.724 2.233-11 2.233s-8.574-.763-11-2.233v1.226c0 .904 3.742 3.024 11 3.024s11-2.12 11-3.024v-1.226zm0-3.814v-.222c-2.426 1.473-6.722 2.239-11 2.239S8.425 9.236 6 7.763v1.23c0 .905 3.742 3.023 11 3.023s11-2.118 11-3.023V7.985zM17 1.938c-7.258 0-11 2.119-11 3.024 0 .904 3.742 3.023 11 3.023s11-2.119 11-3.023c0-.905-3.742-3.024-11-3.024zm0 42.329c6.73 0 11-2.834 11-4.031v-.219c-2.426 1.472-6.724 2.236-11 2.236s-8.574-.764-11-2.236v.471c0 1.122 4.271 3.779 11 3.779zm0 2.016c-6.926 0-13-2.708-13-5.795v-23.18c0-.034.016-.063.02-.096-.004-.053-.02-.103-.02-.156V4.962c0-6.616 26-6.616 26 0V40.236c0 3.165-6.195 6.047-13 6.047zM68 35.986c-2.426 1.473-6.724 2.235-11 2.235s-8.574-.762-11-2.235v1.228c0 .903 3.742 3.022 11 3.022s11-2.119 11-3.022v-1.228zm0-4.031c-2.426 1.471-6.724 2.234-11 2.234s-8.574-.763-11-2.234v1.226c0 .906 3.742 3.024 11 3.024s11-2.118 11-3.024v-1.226zm0-4.032c-2.426 1.472-6.724 2.235-11 2.235s-8.574-.763-11-2.235v1.227c0 .905 3.742 3.023 11 3.023s11-2.118 11-3.023v-1.227zm0-4.031c-2.426 1.472-6.724 2.235-11 2.235s-8.574-.764-11-2.235v1.227c0 .904 3.742 3.023 11 3.023s11-2.119 11-3.023v-1.227zm0-4.031c-2.426 1.472-6.724 2.234-11 2.234s-8.574-.762-11-2.234v1.227c0 .904 3.742 3.022 11 3.022s11-2.118 11-3.022v-1.227zm0-4.032c-2.426 1.472-6.724 2.235-11 2.235s-8.574-.763-11-2.235v1.227c0 .905 3.742 3.023 11 3.023s11-2.118 11-3.023v-1.227zm0-4.03c-2.426 1.47-6.724 2.233-11 2.233s-8.574-.763-11-2.233v1.226c0 .904 3.742 3.024 11 3.024s11-2.12 11-3.024v-1.226zm0-3.814v-.222c-2.426 1.473-6.722 2.239-11 2.239s-8.575-.766-11-2.239v1.23c0 .905 3.742 3.023 11 3.023s11-2.118 11-3.023V7.985zM57 1.938c-7.258 0-11 2.119-11 3.024 0 .904 3.742 3.023 11 3.023s11-2.119 11-3.023c0-.905-3.742-3.024-11-3.024zm0 42.329c6.73 0 11-2.834 11-4.031v-.219c-2.426 1.472-6.724 2.236-11 2.236s-8.574-.764-11-2.236v.471c0 1.122 4.271 3.779 11 3.779zm0 2.016c-6.926 0-13-2.708-13-5.795v-23.18c0-.034.016-.063.02-.096-.004-.053-.02-.103-.02-.156V4.962c0-6.616 26-6.616 26 0V40.236c0 3.165-6.195 6.047-13 6.047z"/>
        <path fill="#FFF" d="M26 51V14l5-2h13l5 2v36l-4 4-8 2-8-2z"/>
        <path fill="#222" fill-rule="nonzero" stroke="#222" d="M48 45.986c-2.426 1.473-6.724 2.235-11 2.235s-8.574-.762-11-2.235v1.228c0 .903 3.742 3.022 11 3.022s11-2.119 11-3.022v-1.228zm0-4.031c-2.426 1.471-6.724 2.234-11 2.234s-8.574-.763-11-2.234v1.226c0 .906 3.742 3.024 11 3.024s11-2.118 11-3.024v-1.226zm0-4.032c-2.426 1.472-6.724 2.235-11 2.235s-8.574-.763-11-2.235v1.227c0 .905 3.742 3.023 11 3.023s11-2.118 11-3.023v-1.227zm0-4.031c-2.426 1.472-6.724 2.235-11 2.235s-8.574-.764-11-2.235v1.227c0 .904 3.742 3.023 11 3.023s11-2.119 11-3.023v-1.227zm0-4.031c-2.426 1.472-6.724 2.234-11 2.234s-8.574-.762-11-2.234v1.227c0 .904 3.742 3.022 11 3.022s11-2.118 11-3.022v-1.227zm0-4.032c-2.426 1.472-6.724 2.235-11 2.235s-8.574-.763-11-2.235v1.227c0 .905 3.742 3.023 11 3.023s11-2.118 11-3.023v-1.227zm0-4.03c-2.426 1.47-6.724 2.233-11 2.233s-8.574-.763-11-2.233v1.226c0 .904 3.742 3.024 11 3.024s11-2.12 11-3.024v-1.226zm0-3.814v-.222c-2.426 1.473-6.722 2.239-11 2.239s-8.575-.766-11-2.239v1.23c0 .905 3.742 3.023 11 3.023s11-2.118 11-3.023v-1.008zm-11-6.047c-7.258 0-11 2.119-11 3.024 0 .904 3.742 3.023 11 3.023s11-2.119 11-3.023c0-.905-3.742-3.024-11-3.024zm0 42.329c6.73 0 11-2.834 11-4.031v-.219c-2.426 1.472-6.724 2.236-11 2.236s-8.574-.764-11-2.236v.471c0 1.122 4.271 3.779 11 3.779zm0 2.016c-6.926 0-13-2.708-13-5.795v-23.18c0-.034.016-.063.02-.096-.004-.053-.02-.103-.02-.156V14.962c0-6.616 26-6.616 26 0V50.236c0 3.165-6.195 6.047-13 6.047z"/>
    </g>
</svg>
