<svg xmlns="http://www.w3.org/2000/svg" width="204" height="92" viewBox="0 0 204 92">
    <g fill="none" fill-rule="nonzero">
        <ellipse cx="38.5" cy="22" fill="#E4E4E4" rx="38.5" ry="22" transform="translate(64 40)"/>
        <path fill="#222" stroke="#222" d="M123.583 20.985c-7.258 0-11-2.119-11-3.024 0-.904 3.742-3.023 11-3.023s11 2.12 11 3.023c0 .905-3.742 3.024-11 3.024zm11 0v1.008c0 .813-3.037 2.598-8.917 2.953-2.799-1.399-7.486-2.01-11.945-1.836-.741-.423-1.138-.83-1.138-1.117v-1.23c2.426 1.473 6.722 2.238 11 2.238s8.575-.765 11-2.238v.222zm0 5.04c0 .686-2.164 2.065-6.369 2.694v-.68c0-.458-.136-.882-.368-1.277 2.697-.337 5.132-.99 6.737-1.964v1.227zm0 4.031c0 .685-2.164 2.065-6.369 2.695v-1.998c2.551-.35 4.836-.994 6.369-1.924v1.227zm0 4.031c0 .686-2.164 2.066-6.369 2.694v-1.998c2.551-.35 4.836-.992 6.369-1.922v1.226zm0 4.032c0 .685-2.164 2.065-6.369 2.694v-1.999c2.551-.35 4.836-.992 6.369-1.922v1.227zm0 4.031c0 .686-2.164 2.065-6.369 2.694v-1.998c2.551-.35 4.836-.993 6.369-1.924v1.228zm0 4.031c0 .686-2.164 2.066-6.369 2.696v-1.999c2.551-.35 4.836-.994 6.369-1.923v1.226zm0 4.032c0 .685-2.164 2.065-6.369 2.694V50.91c2.551-.35 4.836-.992 6.369-1.923v1.227zm0 3.275c0 .836-2.376 2.522-6.369 3.328V54.94c2.551-.35 4.836-.993 6.369-1.923v.471zm-19.369-22.426c-7.258 0-11-2.118-11-3.023 0-.905 3.742-3.024 11-3.024s11 2.12 11 3.024c0 .905-3.742 3.023-11 3.023zm11 0v1.01c0 .903-3.742 3.021-11 3.021a33.854 33.854 0 0 1-2.634-.099c-1.777-.867-4.283-1.426-7.009-1.675l.011.001c-.902-.47-1.368-.934-1.368-1.249V30.84c2.425 1.473 6.722 2.24 11 2.24 4.277 0 8.574-.767 11-2.24v.222zm0 5.04c0 .904-3.742 3.024-11 3.024v-.999c0-.362-.091-.7-.238-1.023.08.001.159.006.238.006 4.275 0 8.574-.764 11-2.234v1.226zm0 4.031c0 .905-3.742 3.024-11 3.024v-2.016c4.276 0 8.574-.762 11-2.234v1.226zm0 4.032c0 .905-3.742 3.022-11 3.022V45.172c4.276 0 8.574-.762 11-2.234v1.227zm0 4.032c0 .903-3.742 3.022-11 3.022V49.204c4.276 0 8.574-.763 11-2.235v1.228zm0 4.03c0 .905-3.742 3.024-11 3.024V53.236c4.276 0 8.574-.764 11-2.235v1.226zm0 4.031c0 .906-3.742 3.025-11 3.025v-2.017c4.276 0 8.574-.762 11-2.233v1.225zm0 4.033c0 .904-3.742 3.022-11 3.022v-2.015c4.276 0 8.574-.762 11-2.235v1.228zm0 3.022c0 1.197-4.271 4.031-11 4.031V65.33c4.276 0 8.574-.764 11-2.236v.22zm-24-22.162c-7.258 0-11-2.119-11-3.024 0-.905 3.742-3.023 11-3.023s11 2.118 11 3.023c0 .905-3.742 3.024-11 3.024zm11 0v1.008c0 .905-3.742 3.023-11 3.023s-11-2.118-11-3.023v-1.231c2.425 1.474 6.722 2.24 11 2.24s8.574-.766 11-2.24v.223zm0 5.04c0 .903-3.742 3.023-11 3.023s-11-2.12-11-3.023v-1.227c2.426 1.471 6.724 2.234 11 2.234s8.574-.763 11-2.234v1.227zm0 4.03c0 .905-3.742 3.024-11 3.024s-11-2.119-11-3.024v-1.226c2.426 1.471 6.724 2.235 11 2.235s8.574-.764 11-2.235v1.226zm0 4.032c0 .905-3.742 3.023-11 3.023s-11-2.118-11-3.023v-1.226c2.426 1.471 6.724 2.233 11 2.233s8.574-.762 11-2.233v1.226zm0 4.032c0 .904-3.742 3.023-11 3.023s-11-2.119-11-3.023v-1.227c2.426 1.471 6.724 2.234 11 2.234s8.574-.762 11-2.234v1.227zm0 4.031c0 .904-3.742 3.023-11 3.023s-11-2.119-11-3.023V61.09c2.426 1.472 6.724 2.235 11 2.235s8.574-.763 11-2.235v1.227zm0 4.03c0 .906-3.742 3.025-11 3.025s-11-2.119-11-3.025v-1.225c2.426 1.47 6.724 2.234 11 2.234s8.574-.764 11-2.234v1.225zm0 4.033c0 .904-3.742 3.023-11 3.023s-11-2.119-11-3.023v-1.227c2.426 1.472 6.724 2.234 11 2.234s8.574-.762 11-2.234v1.227zm0 3.023c0 1.197-4.271 4.031-11 4.031-6.731 0-11-2.657-11-3.779v-.47c2.426 1.471 6.724 2.234 11 2.234s8.574-.763 11-2.235v.22zm-24-38.309c-7.258 0-11-2.118-11-3.022V30.84c2.425 1.473 6.722 2.24 11 2.24 4.277 0 8.574-.767 11-2.24v1.232c0 .314-.466.778-1.368 1.248-2.722.25-5.224.808-6.998 1.674h.002c-.821.063-1.698.1-2.636.1zm0 3.034v1c-7.258 0-11-2.12-11-3.025v-1.226c2.426 1.47 6.724 2.234 11 2.234.079 0 .158-.005.237-.006a2.458 2.458 0 0 0-.237 1.023zm0 12.347v.745c-7.258 0-11-2.119-11-3.022V46.97c2.426 1.471 6.724 2.235 11 2.235v1.017c0 .054.016.104.018.156-.002.034-.018.063-.018.097zm0 3.78v.997c-7.258 0-11-2.119-11-3.024v-1.226c2.426 1.471 6.724 2.235 11 2.235v1.017zm0 4.031v.998c-7.258 0-11-2.119-11-3.025v-1.225c2.426 1.471 6.724 2.233 11 2.233v1.02zm0 4.031v.997c-7.258 0-11-2.118-11-3.022v-1.228c2.426 1.473 6.724 2.235 11 2.235v1.018zm0 4.03v.998c-6.731 0-11-2.657-11-3.779v-.47c2.426 1.471 6.724 2.235 11 2.235v1.016zM70 53.488v-.47c1.502.91 3.727 1.544 6.214 1.9v1.862C72.318 55.962 70 54.313 70 53.488zm0-4.502c1.502.911 3.727 1.545 6.214 1.9v1.994C72.116 52.24 70 50.89 70 50.213v-1.227zm0-4.03c1.502.91 3.727 1.543 6.214 1.898v1.994C72.116 48.21 70 46.858 70 46.181v-1.226zm0-4.034c1.502.913 3.727 1.546 6.214 1.901V44.817C72.116 44.177 70 42.827 70 42.15v-1.228zm0-4.03c1.502.91 3.727 1.544 6.214 1.9v1.341c0 .053.016.104.018.156-.002.034-.018.062-.018.096v.401C72.116 40.146 70 38.796 70 38.12v-1.227zm0-4.03c1.502.91 3.727 1.543 6.214 1.897v1.995c-4.098-.64-6.214-1.99-6.214-2.667v-1.226zm0-4.033c1.502.911 3.727 1.545 6.214 1.9V32.722C72.116 32.083 70 30.732 70 30.056V28.83zm0-4.03c1.577.956 3.955 1.602 6.595 1.944-.24.4-.381.83-.381 1.296v.653c-4.098-.64-6.214-1.99-6.214-2.667v-1.227zm0-3.814v-.222c2.425 1.473 6.722 2.238 11 2.238 4.277 0 8.574-.765 11-2.238v1.23c0 .287-.4.698-1.149 1.124-4.492-.194-9.238.412-12.069 1.82-5.79-.375-8.782-2.138-8.782-2.944v-1.008zm11-6.047c7.258 0 11 2.12 11 3.023 0 .905-3.742 3.024-11 3.024s-11-2.119-11-3.024c0-.904 3.742-3.023 11-3.023zm8.214 30.234v2.015c-7.258 0-11-2.117-11-3.022v-1.227c2.426 1.472 6.724 2.234 11 2.234zm0-2.015c-7.258 0-11-2.119-11-3.024v-1.226c2.426 1.472 6.724 2.234 11 2.234v2.016zm11-15.118c0 .905-3.742 3.023-11 3.023s-11-2.118-11-3.023c0-.905 3.742-3.024 11-3.024s11 2.12 11 3.024zm10.369-10.078v5.41c-4.636.607-8.369 2.162-8.369 4.668 0-2.479-3.649-4.029-8.214-4.65v-5.428c0-6.615-26-6.615-26 0V30.056c0 .053.016.103.019.155-.003.034-.019.063-.019.097V53.488c0 2.342 3.503 4.457 8.214 5.346v4.731c0 3.088 6.074 5.796 13 5.796v4.293c0 3.087 6.074 5.795 13 5.795 6.805 0 13-2.882 13-6.047v-4.041c6.805 0 13-2.883 13-6.048v-4.449c4.79-.87 8.369-3.009 8.369-5.376v-23.18c0-.034-.016-.063-.019-.097.003-.052.019-.102.019-.155V17.961c0-6.615-26-6.615-26 0z"/>
    </g>
</svg>
