<svg xmlns="http://www.w3.org/2000/svg" width="204" height="92" viewBox="0 0 204 92">
    <g fill="none" fill-rule="nonzero">
        <ellipse cx="102.5" cy="72" fill="#E4E4E4" rx="22.5" ry="2"/>
        <path fill="#222" stroke="#222" d="M110.712 23.81a.869.869 0 0 1-1.059-.131l-4.587-4.587-4.587 4.587a.867.867 0 0 1-1.058.13l-6.115-3.669 3.628 7.26h16.264l3.63-7.26-6.116 3.67zm3.797 4.843a.867.867 0 0 1-.776.48H96.4a.866.866 0 0 1-.775-.48l-5.2-10.399a.864.864 0 0 1 .185-1.022.87.87 0 0 1 1.036-.108l8.087 4.851 4.72-4.722a.869.869 0 0 1 1.226 0l4.721 4.722 8.088-4.851a.866.866 0 0 1 1.221 1.13l-5.2 10.4zM96.4 30.866h17.333c.48 0 .866.386.866.867a.865.865 0 0 1-.866.866H96.4a.866.866 0 1 1 0-1.733zm21.016 26.256l-8.37 2.092-2.941.736a7.437 7.437 0 0 1-3.255.077l-9.483-1.896a.866.866 0 1 1 .339-1.699l9.48 1.895a5.721 5.721 0 0 0 2.5-.06l2.275-.567c-.089-2.219-1.126-3.304-3.707-3.95L85.23 49.525c-.635 3.702-1.766 8.366-2.592 11.588l15.544 5.18c4.024 1.52 4.543 1.548 13.603-2.165l11.102-5.046a5.182 5.182 0 0 0-5.47-1.96zm4.122-3.126l-.005-1.465c0-5.081-6.82-14.555-8.234-16.465H96.9c-.956 1.667-4.455 7.87-6.438 12.845l14.191 3.154c3.214.803 4.767 2.432 5.001 5.212l7.344-1.837a6.936 6.936 0 0 1 4.55.398 892.93 892.93 0 0 0-.01-1.842zm-46.805-8.9v17.898c1.952.094 4.25.463 5.438.673.124-.456.297-1.11.499-1.883a.854.854 0 0 1 .024-.407.839.839 0 0 1 .146-.253c1.022-3.96 2.623-10.538 3.044-14.362-1.44-.796-5.81-1.411-9.15-1.666zm50.219 14.66a.865.865 0 0 1-.46.498l-12.02 5.464C106.811 68.041 104.239 69 102.05 69c-1.403 0-2.649-.394-4.45-1.075l-15.4-5.132c-.312 1.187-.53 1.978-.564 2.101a.87.87 0 0 1-1.004.62c-.04-.009-4.15-.81-6.765-.81a.865.865 0 0 1-.867-.867V44.17a.87.87 0 0 1 .271-.631.897.897 0 0 1 .646-.234c1.589.093 9.607.655 11.473 2.42a.863.863 0 0 1 .267.706c-.037.42-.093.89-.16 1.377l3.25.722c2.322-5.929 6.718-13.448 6.906-13.77a.866.866 0 0 1 .747-.426h17.333c.27 0 .525.125.688.34.361.472 8.846 11.633 8.846 17.858l.004 1.458c.013 2.455.008 2.822-.01 2.973a7.002 7.002 0 0 1 1.648 2.117.88.88 0 0 1 .043.678z"/>
    </g>
</svg>
