<svg xmlns="http://www.w3.org/2000/svg" width="204" height="92" viewBox="0 0 204 92">
    <g fill="none" fill-rule="nonzero">
        <ellipse cx="102.5" cy="72" fill="#E4E4E4" rx="22.5" ry="2"/>
        <path fill="#222" stroke="#222" d="M82.799 68.4H120.6V63H82.799v5.4zm29.122-25.2h-1.822l.131 1.91c.108.846-.171 1.749-.769 2.425a3.154 3.154 0 0 1-2.361 1.066H96.3a3.154 3.154 0 0 1-3.125-3.541l.265-1.86h-1.961l-8.181 18h36.804l-8.181-18zm-16.962 2.098c-.047.374.069.752.329 1.047.261.294.619.456 1.012.456h10.8c.393 0 .751-.162 1.012-.456.26-.295.376-.673.327-1.062l-.437-6.35c-.079-.624-.656-1.132-1.335-1.132H97.2c-.679 0-1.255.508-1.339 1.182l-.002.015-.9 6.3zM111.6 32.401c0-1.987-1.615-3.6-3.6-3.6H95.4a3.603 3.603 0 0 0-3.6 3.6v9h1.8c.033 0 .062.015.094.018l.382-2.669A3.155 3.155 0 0 1 97.2 36h9.467a3.156 3.156 0 0 1 3.126 2.759l.182 2.642h1.625v-9zM121.5 72a.898.898 0 0 1-.9-.899V70.2H82.8v.901a.898.898 0 0 1-.9.899.899.899 0 0 1-.9-.899v-16.2a.9.9 0 1 1 1.8 0v3.045l7.2-15.84v-9.705A5.406 5.406 0 0 1 95.4 27H108c2.978 0 5.4 2.422 5.4 5.401v9.705l7.2 15.84v-3.045a.9.9 0 1 1 1.8 0v16.2a.899.899 0 0 1-.9.899z"/>
    </g>
</svg>
