<svg xmlns="http://www.w3.org/2000/svg" width="204" height="92" viewBox="0 0 204 92">
    <g fill="none" fill-rule="nonzero">
        <ellipse cx="102.5" cy="69" fill="#E4E4E4" rx="52.5" ry="2"/>
        <path fill="#222" stroke="#222" d="M104.977 54.005h-5.996a.998.998 0 0 1-.999-1c0-.553.445-1 1-1h5.995a.999.999 0 1 1 0 2zm10 0h-5.996a.998.998 0 0 1-.999-1c0-.553.445-1 1-1h5.995a.999.999 0 1 1 0 2zm9.991 0h-5.994c-.554 0-1-.447-1-1 0-.553.446-1 1-1h5.994c.554 0 1 .447 1 1 0 .553-.446 1-1 1zm9.993 0h-5.996a1 1 0 0 1 0-2h5.996c.553 0 1 .447 1 1 0 .553-.447 1-1 1zm-56.109-4l-3.997 6h58.108c.553 0 1 .447 1 1 0 .553-.447 1-1 1H65.56l-4.797 8h69.204c9.344 0 14.56-8.064 14.965-16h-66.08zm49.551-10H85.515l-5.33 8H133.2l-4.796-8zm-7.43-18h-5.127l.962 1.445a.995.995 0 0 1 0 1.11L115.85 26l5.123-.016v-3.979zm8.994 46H58.998c-.359 0-.693-.193-.87-.507a1.006 1.006 0 0 1 .014-1.008l5.994-9.999c.181-.3.507-.486.858-.486h7.46l3.997-6h-9.458a1 1 0 1 1 0-2h10.79l5.33-8h-8.126a1 1 0 1 1 0-2H120.973v-10.02l-6.993.02h-.002a.998.998 0 0 1-.83-1.555l1.628-2.445-1.629-2.446a.989.989 0 0 1-.049-1.026.997.997 0 0 1 .88-.528h7.994c.553 0 1 .447 1 1v17h5.996a1 1 0 0 1 .857.485l5.705 9.515h10.426a1 1 0 0 1 1 1c0 10.832-7.304 19-16.989 19z"/>
    </g>
</svg>
