<svg xmlns="http://www.w3.org/2000/svg" width="204" height="92" viewBox="0 0 204 92">
    <g fill="none" fill-rule="nonzero">
        <ellipse cx="102.5" cy="76" fill="#E4E4E4" rx="28.5" ry="2"/>
        <path fill="#222" stroke="#222" d="M88.974 31h4v-6h-4v6zm5 2h-6a1 1 0 0 1-1-1v-8c0-.553.446-1 1-1h6a1 1 0 0 1 1 1v8a1 1 0 0 1-1 1zm-5 14h4v-6h-4v6zm5 2h-6a1 1 0 0 1-1-1v-8c0-.553.446-1 1-1h6a1 1 0 0 1 1 1v8a1 1 0 0 1-1 1zm-5 14h4v-6h-4v6zm5 2h-6a1 1 0 0 1-1-1v-8c0-.553.446-1 1-1h6a1 1 0 0 1 1 1v8a1 1 0 0 1-1 1zm7-34h4v-6h-4v6zm5 2h-6a1 1 0 0 1-1-1v-8c0-.553.446-1 1-1h6a1 1 0 0 1 1 1v8a1 1 0 0 1-1 1zm-5 14h4v-6h-4v6zm5 2h-6a1 1 0 0 1-1-1v-8c0-.553.446-1 1-1h6a1 1 0 0 1 1 1v8a1 1 0 0 1-1 1zm7 14h4v-6h-4v6zm-1-8h6a1 1 0 0 1 1 1v8a1 1 0 0 1-1 1h-6a1 1 0 0 1-1-1v-8c0-.553.446-1 1-1zm1-8h4v-6h-4v6zm-1-8h6a1 1 0 0 1 1 1v8a1 1 0 0 1-1 1h-6a1 1 0 0 1-1-1v-8c0-.553.446-1 1-1zm1-8h4v-6h-4v6zm-1-8h6a1 1 0 0 1 1 1v8a1 1 0 0 1-1 1h-6a1 1 0 0 1-1-1v-8c0-.553.446-1 1-1zm9-2.479c0-.84-.674-1.521-1.5-1.521h-3.5a1 1 0 0 1-1-1v-1h-24v1a1 1 0 0 1-1 1h-3.5c-.827 0-1.5.681-1.5 1.521V73h12V56c0-.553.446-1 1-1h10a1 1 0 0 1 1 1v17h12V20.521zm5 54.479h-18a1 1 0 0 1-1-1V57h-8v17a1 1 0 0 1-1 1h-18a1 1 0 1 1 0-2h3V20.521c0-1.941 1.57-3.521 3.5-3.521h2.5v-1c0-.553.446-1 1-1h26a1 1 0 0 1 1 1v1h2.5c1.93 0 3.5 1.58 3.5 3.521V73h3a1 1 0 1 1 0 2z"/>
    </g>
</svg>
