<svg xmlns="http://www.w3.org/2000/svg" width="204" height="92" viewBox="0 0 204 92">
    <g fill="none" fill-rule="nonzero">
        <ellipse cx="102.5" cy="65" fill="#E4E4E4" rx="32.5" ry="2"/>
        <path fill="#222" stroke="#222" d="M110.046 48.601H95.669a.897.897 0 0 1-.898-.9c0-.498.4-.9.898-.9h14.377c.497 0 .899.402.899.9s-.402.9-.899.9zm17.074 10.528c-.773.237-3.49.482-7.188.686v1.836c0 .769.554 1.349 1.29 1.349h4.531a1.36 1.36 0 0 0 1.367-1.349v-2.522zm-.062-12.343l-.014.004c-.291.045-7.131 1.136-9.604 1.136a.683.683 0 0 0-.548.236c-.588.633-.701 2.263-.667 3.117 5.066-.296 9.221-.65 10.894-.799l.001-.079c0-.811-.001-2.242-.062-3.615zm-.566-3.474c-1.093-.281-1.681-1.154-2.25-1.999a18.902 18.902 0 0 0-.35-.512c-.187-.126-1.146-.154-1.66-.169-1.108-.032-2.242-.071-2.776-.782-1.964-.887-9.253-2.049-17.497-2.049-8.249 0-15.541 1.163-17.5 2.05-.535.71-1.667.749-2.771.781-.516.015-1.475.043-1.693.203l-.32.478c-.567.845-1.154 1.718-2.394 2.078-.156.201-.261.824-.334 1.633.076-.008.15-.024.226-.012.07.012 6.989 1.113 9.322 1.113.729 0 1.372.28 1.864.812 1.179 1.27 1.178 3.685 1.146 4.442 3.956.209 8.322.371 12.454.371 4.139 0 8.511-.162 12.47-.372-.032-.758-.032-3.172 1.146-4.441a2.479 2.479 0 0 1 1.865-.812c2.332 0 9.251-1.101 9.32-1.113.057-.009.111.006.168.009-.094-.83-.231-1.482-.436-1.709zm-8.09-5.718a.884.884 0 0 1-.345-.693v-.002c-1.37-2.726-3.503-6.627-4.123-7.118-.86-.445-7.993-.98-11.975-.98-3.98 0-11.116.535-12.007 1-.596.477-2.721 4.372-4.091 7.096l.001.004c0 .286-.14.529-.347.694l-.021.04C88.916 36.757 95.258 36 101.959 36c6.7 0 13.042.757 16.463 1.635a.772.772 0 0 0-.02-.041zm-41.554 9.181c-.05 1.371-.051 2.811-.051 3.626l.001.079c1.676.149 5.836.503 10.911.8.039-.959-.099-2.508-.667-3.118a.683.683 0 0 0-.547-.236c-2.474 0-9.314-1.091-9.605-1.136-.016-.002-.028-.012-.042-.015zm-.051 14.876A1.36 1.36 0 0 0 78.164 63h4.533c.736 0 1.289-.58 1.289-1.349v-1.836c-3.698-.204-6.415-.449-7.189-.686v2.522zm25.162-3.151c11.461 0 22.553-.682 24.393-1.011.277-.696.59-2.902.713-5.198-3.434.305-14.977 1.26-25.106 1.26-10.13 0-21.673-.955-25.104-1.26.124 2.32.44 4.546.72 5.216 1.55.293 12.777.993 24.384.993zm26.959 3.151c0 1.736-1.42 3.15-3.165 3.15h-4.531c-1.732 0-3.088-1.385-3.088-3.15v-1.743c-4.835.232-10.841.393-16.175.393-5.334 0-11.34-.161-16.175-.393v1.743c0 1.765-1.355 3.15-3.087 3.15h-4.533A3.162 3.162 0 0 1 75 61.651v-4.5a.89.89 0 0 1 .47-.776c-.313-1.721-.416-3.828-.451-5.02-.003-.048-.02-.092-.015-.141.001-.01.009-.018.01-.029-.013-.473-.014-.77-.014-.784 0-5.687.257-8.297 1.781-8.74.585-.168.883-.581 1.404-1.353.122-.182.248-.37.383-.559.608-.844 1.858-.881 3.067-.918.431-.011 1.123-.03 1.402-.121.078-.19.222-.509.408-.909H81.29a.897.897 0 0 1-.897-.9c0-.498.4-.901.897-.901h3.023c1.458-2.942 3.708-7.135 4.718-7.747C90.567 27.328 100.043 27 101.959 27c1.915 0 11.393.328 12.928 1.255 1.011.61 3.261 4.802 4.719 7.745h3.021a.9.9 0 0 1 0 1.801h-2.153c.185.4.329.719.407.909.278.091.972.11 1.401.121 1.209.037 2.459.074 3.068.918.135.189.261.377.384.559.519.772.819 1.185 1.403 1.353 1.524.443 1.781 3.053 1.781 8.74 0 .014-.001.312-.013.786.001.01.007.018.008.027.004.045-.011.084-.013.129-.034 1.191-.137 3.305-.452 5.031a.89.89 0 0 1 .47.777v4.5z"/>
    </g>
</svg>
