<svg xmlns="http://www.w3.org/2000/svg" width="204" height="92" viewBox="0 0 204 92">
    <g fill="none" fill-rule="nonzero">
        <ellipse cx="102.5" cy="68" fill="#E4E4E4" rx="32.5" ry="2"/>
        <path fill="#222" stroke="#222" d="M91.69 41.556c-.874 0-1.586.696-1.586 1.555s.712 1.556 1.586 1.556c.875 0 1.586-.697 1.586-1.556 0-.859-.71-1.555-1.586-1.555zm0 4.666c-1.75 0-3.172-1.396-3.172-3.11 0-1.716 1.423-3.112 3.172-3.112 1.75 0 3.173 1.396 3.173 3.111 0 1.715-1.423 3.111-3.173 3.111zm5.552 1.556a.785.785 0 0 1-.794-.778v-3.111c0-.43.356-.778.794-.778.439 0 .793.348.793.778V47c0 .43-.354.778-.793.778zm4.758 0a.785.785 0 0 1-.792-.778v-3.111c0-.43.354-.778.792-.778.44 0 .793.348.793.778V47c0 .43-.353.778-.793.778zm4.759 0a.785.785 0 0 1-.793-.778v-3.111c0-.43.355-.778.793-.778.438 0 .793.348.793.778V47c0 .43-.355.778-.793.778zm5.552-6.222c-.874 0-1.587.696-1.587 1.555s.713 1.556 1.587 1.556c.875 0 1.586-.697 1.586-1.556 0-.859-.71-1.555-1.586-1.555zm0 4.666c-1.75 0-3.173-1.396-3.173-3.11 0-1.716 1.424-3.112 3.173-3.112 1.75 0 3.173 1.396 3.173 3.111 0 1.715-1.423 3.111-3.173 3.111zm-19.035 9.334c-.874 0-1.586-.697-1.586-1.556 0-.858.712-1.556 1.586-1.556.876 0 1.587.698 1.587 1.556 0 .859-.711 1.556-1.587 1.556zm17.448 0c-.873 0-1.586-.697-1.586-1.556 0-.858.713-1.556 1.586-1.556.876 0 1.587.698 1.587 1.556 0 .859-.711 1.556-1.587 1.556zm12.69.48l-2.025.993a.816.816 0 0 1-.354.082h-3.966v8.185c0 .634.55 1.148 1.227 1.148h3.892c.676 0 1.226-.514 1.226-1.148v-9.26zm0-5.147H86.165l-5.578.175v3.234l2.567 1.258h6.157c.3 0 .576.167.71.43l1.366 2.68h21.227l1.367-2.68a.796.796 0 0 1 .71-.43h6.156l2.567-1.258v-3.41zm0-6.355l-3.323-.61-1.52-.024-.616 5.433h5.46v-4.799zm0-4.534v-3.111h-2.843c.15 1.107.272 2.17.368 3.111h2.475zm-4.037.26a82.465 82.465 0 0 0-.129-1.164c-.03.003-.057.015-.087.015a.764.764 0 0 1-.138-.012c-.129-.021-12.822-2.21-17.023-2.21-4.2 0-16.894 2.189-17.022 2.21-.076.014-.147.004-.22-.003-.05.416-.096.832-.138 1.242l.004 2.02 1.501-.025c.487-.017.752.29.8.684l.788 6.316h28.647l.714-6.308a.79.79 0 0 1 .788-.692h.015l1.5.024V40.26zm-2.548-11.807c-1.205-.433-9.751-.782-14.846-.897-5.059.115-13.607.464-14.849.914-.684.483-1.586 4.661-2.179 9.054 1.864-.318 12.99-2.19 17.045-2.19 4.058 0 15.194 1.874 17.05 2.191-.593-4.366-1.502-8.573-2.221-9.072zM80.602 44.531l.11 4.802h5.404l-.679-5.433-1.526.024-3.31.607zm-.015-7.634V40h2.479c.096-.939.216-1.988.362-3.078l-2.841-.025zm0 28.399c0 .634.55 1.148 1.226 1.148h3.893c.676 0 1.226-.514 1.226-1.148V57.11h-3.965a.819.819 0 0 1-.355-.082l-2.025-.993v9.26zM122.188 68h-3.892c-1.551 0-2.812-1.213-2.812-2.704V57.11h-.303l-1.367 2.681a.797.797 0 0 1-.71.43H90.897a.797.797 0 0 1-.71-.43l-1.366-2.68h-.303v8.184c0 1.49-1.262 2.704-2.812 2.704h-3.893C80.263 68 79 66.787 79 65.296V50.11c0-.153.057-.288.135-.407L79 43.907a.783.783 0 0 1 .648-.783l3.39-.622v-.946h-3.244a.786.786 0 0 1-.794-.778V36.11a.77.77 0 0 1 .235-.553c.15-.146.3-.188.567-.225l3.848.035c.606-3.924 1.549-7.854 2.934-8.356 1.9-.688 14.022-.98 15.399-1.012 1.412.032 13.534.324 15.434 1.012 1.385.502 2.327 4.425 2.93 8.321h3.86c.438 0 .793.348.793.778v4.667c0 .43-.355.778-.792.778h-3.247v.946l3.393.622c.374.068.646.39.646.765v21.407c0 1.49-1.261 2.704-2.812 2.704z"/>
    </g>
</svg>
