<svg xmlns="http://www.w3.org/2000/svg" width="204" height="92" viewBox="0 0 204 92">
    <g fill="none" fill-rule="nonzero">
        <ellipse cx="102.5" cy="68" fill="#E4E4E4" rx="32.5" ry="2"/>
        <path fill="#222" stroke="#222" d="M96.805 54.202h12.351l.868-5.4H95.936l.87 5.4zm14.275-7.2a.901.901 0 0 1 .89 1.042l-1.159 7.2a.899.899 0 0 1-.888.758H96.038a.899.899 0 0 1-.888-.758l-1.158-7.2a.9.9 0 0 1 .888-1.042h16.2zm13.781-12.53l-1.7 2.96 1.24.54c1.78-.297 3.556-.891 3.806-1.286-.027-.805-.265-1.44-.757-1.82-.716-.552-1.918-.503-2.589-.394zm-21.88-9.07c-5.414 0-10.104.603-10.952 1.019-1.69.826-5.297 5.577-7.108 10.565 3.844.29 13.858 1.016 17.668 1.016 4.098 0 15.377-.84 18.428-1.072-1.816-4.97-5.4-9.687-7.085-10.51-.849-.415-5.538-1.018-10.952-1.018zm-21.879 9.07c-.24-.04-.54-.07-.86-.07-.6 0-1.269.107-1.735.468-.49.379-.726 1.013-.726 1.939.223.279 2 .869 3.781 1.164l.868-.38a.899.899 0 0 1 .217-.426l-1.545-2.695zm-1.384 17.93h8.793c-.316-2.052-1.699-3.6-3.35-3.6h-5.4c-.039 0-.07-.017-.107-.022-.038.41-.074.82-.074 1.216 0 .803.054 1.61.138 2.406zm2.86 6.91l7.015 1.104c2.52.315 8.473.986 13.387.986 4.916 0 10.87-.671 13.393-.987l1.228-.161 2.99-.487 3.502-.571c.804-.945 1.488-2.817 1.895-4.994h-9.508a.9.9 0 0 1-.9-.9c0-3.473 2.341-6.3 5.22-6.3h5.244c-.635-3.032-2.133-6.112-3.998-8.093l-.497-.216c-2.353.183-14.535 1.11-18.96 1.11-4.102 0-14.868-.797-18.295-1.06l-.38.166c-1.865 1.98-3.362 5.06-3.998 8.093h5.244c2.88 0 5.22 2.827 5.22 6.3a.9.9 0 0 1-.9.9h-9.507c.405 2.177 1.09 4.049 1.894 4.994l.711.116zm.602 1.92v3.77c0 .993.81 1.8 1.8 1.8h1.801c.991 0 1.8-.807 1.8-1.8v-2.901a67.384 67.384 0 0 1-.479-.065l-.019-.003-4.903-.8zm34.2 3.77c0 .993.808 1.8 1.8 1.8h1.8c.993 0 1.801-.807 1.801-1.8v-3.77l-4.904.8a.062.062 0 0 1-.02.004l-.025.003c-.056.008-.206.029-.452.06v2.904zm3.42-16.2c-1.65 0-3.033 1.548-3.35 3.6h8.792c.084-.795.138-1.603.138-2.406 0-.395-.035-.805-.073-1.216-.037.005-.068.023-.106.023h-5.4zm7.38 1.194c0 3.844-1.033 8.748-3.01 10.683a.895.895 0 0 1-.484.243l-.106.017v4.064a3.603 3.603 0 0 1-3.6 3.599h-1.8a3.605 3.605 0 0 1-3.6-3.6v-2.678c-2.938.346-8.173.878-12.6.878-4.429 0-9.669-.533-12.6-.878v2.679a3.603 3.603 0 0 1-3.599 3.599h-1.8a3.603 3.603 0 0 1-3.6-3.6V60.94l-.106-.017a.888.888 0 0 1-.485-.243c-1.977-1.935-3.009-6.84-3.009-10.683 0-3.423 1.28-7.331 3.227-10.295-2.09-.363-5.028-1.173-5.028-2.892 0-1.503.482-2.636 1.432-3.368 1.747-1.344 4.386-.67 4.497-.64a.894.894 0 0 1 .551.422l1.193 2.077c1.906-4.576 5.29-9.374 7.585-10.494.364-.18 5.9-1.806 11.762-1.806s11.36 1.626 11.723 1.806c2.295 1.12 5.68 5.918 7.585 10.494l1.192-2.077a.897.897 0 0 1 .551-.422c.111-.032 2.752-.706 4.497.64.95.732 1.432 1.865 1.432 3.368 0 1.719-2.937 2.53-5.028 2.892 1.948 2.964 3.228 6.872 3.228 10.295z"/>
    </g>
</svg>
