<svg xmlns="http://www.w3.org/2000/svg" width="204" height="92" viewBox="0 0 204 92">
    <g fill="none" fill-rule="nonzero">
        <ellipse cx="102.5" cy="72.5" fill="#E4E4E4" rx="35.5" ry="3.5"/>
        <path fill="#222" stroke="#222" stroke-width=".81" d="M89.854 60.459h2.512c.67 0 1.213.527 1.213 1.18 0 .653-.543 1.18-1.213 1.18h-2.512c-.67 0-1.212-.527-1.212-1.18 0-.653.543-1.18 1.212-1.18zm0-4.724h2.512c.67 0 1.213.528 1.213 1.182 0 .65-.543 1.18-1.213 1.18h-2.512c-.67 0-1.212-.53-1.212-1.18 0-.654.543-1.182 1.212-1.182zm0-4.723h2.512c.67 0 1.213.529 1.213 1.181 0 .653-.543 1.181-1.213 1.181h-2.512c-.67 0-1.212-.528-1.212-1.181 0-.652.543-1.181 1.212-1.181zm0-4.723h2.512c.67 0 1.213.529 1.213 1.182 0 .652-.543 1.18-1.213 1.18h-2.512c-.67 0-1.212-.528-1.212-1.18 0-.653.543-1.182 1.212-1.182zm0-4.723h2.512c.67 0 1.213.529 1.213 1.181s-.543 1.18-1.213 1.18h-2.512c-.67 0-1.212-.528-1.212-1.18 0-.652.543-1.18 1.212-1.18zm0-4.723h2.512c.67 0 1.213.529 1.213 1.182 0 .652-.543 1.18-1.213 1.18h-2.512c-.67 0-1.212-.528-1.212-1.18 0-.653.543-1.182 1.212-1.182zm0-4.723h2.512c.67 0 1.213.528 1.213 1.182 0 .652-.543 1.18-1.213 1.18h-2.512c-.67 0-1.212-.528-1.212-1.18 0-.654.543-1.182 1.212-1.182zm15.856 37.784h16.972v-4.722H105.71v4.722zm16.972-37.784H105.71v30.7h2.424v-22.5c0-.652.543-1.18 1.214-1.18.669 0 1.212.528 1.212 1.18v22.5h2.425v-22.5c0-.652.54-1.18 1.211-1.18.67 0 1.212.528 1.212 1.18v22.5h2.425v-22.5c0-.652.542-1.18 1.213-1.18.67 0 1.211.528 1.211 1.18v22.5h2.425v-30.7zM98.436 19.658L83.89 27.494v42.41h14.546V19.658zm31.52 52.607H76.617c-.67 0-1.212-.528-1.212-1.18 0-.653.541-1.18 1.212-1.18h4.848V26.796c0-.429.24-.825.625-1.032l16.972-9.142a1.253 1.253 0 0 1 1.203.016c.37.213.597.6.597 1.017v52.248h2.423V30.94c0-.652.543-1.18 1.214-1.18h8.486V21.41c0-.653.54-1.182 1.211-1.182.67 0 1.212.529 1.212 1.182v8.348h8.487c.67 0 1.211.528 1.211 1.18v38.965h4.85c.67 0 1.211.528 1.211 1.181 0 .652-.54 1.18-1.211 1.18z"/>
    </g>
</svg>
