<svg width="100" height="35" viewBox="0 0 100 35" fill="none" xmlns="http://www.w3.org/2000/svg">
<path d="M1.24456 22V21.024L7.72456 11.856H1.24456V10.72H9.32456V11.696L2.82856 20.864H9.54856V22H1.24456ZM13.4062 22.144C12.8729 22.144 12.3929 22.0427 11.9662 21.84C11.5502 21.6267 11.2195 21.3387 10.9742 20.976C10.7289 20.6133 10.6062 20.208 10.6062 19.76C10.6062 19.1947 10.7502 18.7467 11.0382 18.416C11.3369 18.0853 11.8222 17.8507 12.4942 17.712C13.1769 17.5627 14.1049 17.488 15.2782 17.488H15.7902V16.992C15.7902 16.3307 15.6515 15.856 15.3742 15.568C15.1075 15.2693 14.6755 15.12 14.0782 15.12C13.6089 15.12 13.1555 15.1893 12.7182 15.328C12.2809 15.456 11.8329 15.6693 11.3742 15.968L10.9262 15.024C11.3315 14.736 11.8222 14.5067 12.3982 14.336C12.9849 14.1653 13.5449 14.08 14.0782 14.08C15.0809 14.08 15.8222 14.3253 16.3022 14.816C16.7929 15.3067 17.0382 16.0693 17.0382 17.104V22H15.8222V20.656C15.6195 21.1147 15.3049 21.4773 14.8782 21.744C14.4622 22.0107 13.9715 22.144 13.4062 22.144ZM13.6142 21.168C14.2542 21.168 14.7769 20.9493 15.1822 20.512C15.5875 20.064 15.7902 19.4987 15.7902 18.816V18.336H15.2942C14.4302 18.336 13.7475 18.3787 13.2462 18.464C12.7555 18.5387 12.4089 18.6773 12.2062 18.88C12.0142 19.072 11.9182 19.3387 11.9182 19.68C11.9182 20.1173 12.0675 20.4747 12.3662 20.752C12.6755 21.0293 13.0915 21.168 13.6142 21.168ZM19.4746 22V14.224H20.7386V15.536C20.9732 15.0667 21.2986 14.7093 21.7146 14.464C22.1306 14.208 22.6159 14.08 23.1706 14.08C24.3866 14.08 25.1652 14.608 25.5066 15.664C25.7412 15.1733 26.0879 14.7893 26.5466 14.512C27.0052 14.224 27.5332 14.08 28.1306 14.08C29.8586 14.08 30.7226 15.104 30.7226 17.152V22H29.4266V17.216C29.4266 16.5013 29.2986 15.9787 29.0426 15.648C28.7972 15.3067 28.3866 15.136 27.8106 15.136C27.1812 15.136 26.6799 15.36 26.3066 15.808C25.9332 16.256 25.7466 16.8533 25.7466 17.6V22H24.4506V17.216C24.4506 16.5013 24.3226 15.9787 24.0666 15.648C23.8212 15.3067 23.4106 15.136 22.8346 15.136C22.1946 15.136 21.6879 15.36 21.3146 15.808C20.9519 16.256 20.7706 16.8533 20.7706 17.6V22H19.4746ZM33.1457 22V10.72H34.4417V17.68H34.4737L38.0737 14.224H39.7217L35.8177 17.968L40.0577 22H38.4097L34.4737 18.352H34.4417V22H33.1457ZM41.1457 22V14.224H42.4097V15.552C42.6657 15.0613 43.0284 14.6933 43.4977 14.448C43.967 14.2027 44.495 14.08 45.0817 14.08C46.927 14.08 47.8497 15.104 47.8497 17.152V22H46.5537V17.232C46.5537 16.5067 46.4097 15.9787 46.1217 15.648C45.8444 15.3067 45.3964 15.136 44.7777 15.136C44.063 15.136 43.4924 15.36 43.0657 15.808C42.6497 16.2453 42.4417 16.832 42.4417 17.568V22H41.1457ZM50.0794 12.288V10.832H51.6794V12.288H50.0794ZM50.2394 22V14.224H51.5354V22H50.2394ZM53.8462 12.288V10.832H55.4462V12.288H53.8462ZM51.9422 25.088L51.8462 24.08L52.5342 24.016C53.5155 23.9307 54.0062 23.3387 54.0062 22.24V14.224H55.3022V22.112C55.3022 23.04 55.0835 23.744 54.6462 24.224C54.2089 24.704 53.5369 24.976 52.6302 25.04L51.9422 25.088Z" fill="white"/>
<g filter="url(#filter0_dd_50_37940)">
<rect width="32" height="32" transform="translate(67 1)" fill="white"/>
<path d="M88 12L78 22" stroke="#2F2F2F" stroke-width="1.5" stroke-linecap="round" stroke-linejoin="round"/>
<path d="M78 12L88 22" stroke="#2F2F2F" stroke-width="1.5" stroke-linecap="round" stroke-linejoin="round"/>
</g>
<defs>
<filter id="filter0_dd_50_37940" x="66" y="0" width="34" height="35" filterUnits="userSpaceOnUse" color-interpolation-filters="sRGB">
<feFlood flood-opacity="0" result="BackgroundImageFix"/>
<feColorMatrix in="SourceAlpha" type="matrix" values="0 0 0 0 0 0 0 0 0 0 0 0 0 0 0 0 0 0 127 0" result="hardAlpha"/>
<feOffset/>
<feGaussianBlur stdDeviation="0.5"/>
<feColorMatrix type="matrix" values="0 0 0 0 0.0392157 0 0 0 0 0.105882 0 0 0 0 0.219608 0 0 0 0.32 0"/>
<feBlend mode="normal" in2="BackgroundImageFix" result="effect1_dropShadow_50_37940"/>
<feColorMatrix in="SourceAlpha" type="matrix" values="0 0 0 0 0 0 0 0 0 0 0 0 0 0 0 0 0 0 127 0" result="hardAlpha"/>
<feOffset dy="1"/>
<feGaussianBlur stdDeviation="0.5"/>
<feColorMatrix type="matrix" values="0 0 0 0 0.0392157 0 0 0 0 0.105882 0 0 0 0 0.219608 0 0 0 0.24 0"/>
<feBlend mode="normal" in2="effect1_dropShadow_50_37940" result="effect2_dropShadow_50_37940"/>
<feBlend mode="normal" in="SourceGraphic" in2="effect2_dropShadow_50_37940" result="shape"/>
</filter>
</defs>
</svg>
