<svg xmlns="http://www.w3.org/2000/svg" width="204" height="92" viewBox="0 0 204 92">
    <g fill="none" fill-rule="nonzero">
        <ellipse cx="102.5" cy="73.5" fill="#E4E4E4" rx="35.5" ry="3.5"/>
        <path fill="#222" stroke="#222" d="M89.399 31.6H93v-5.4h-3.601v5.4zm4.501 1.8h-5.4a.899.899 0 0 1-.9-.9v-7.2a.9.9 0 0 1 .9-.9h5.4a.9.9 0 0 1 .9.9v7.2c0 .498-.402.9-.9.9zm-4.501 9H93V37h-3.601v5.4zm4.501 1.8h-5.4a.899.899 0 0 1-.9-.9v-7.199a.9.9 0 0 1 .9-.901h5.4a.9.9 0 0 1 .9.901V43.3c0 .498-.402.9-.9.9zm-4.501 9H93v-5.4h-3.601v5.4zM93.9 55h-5.4a.898.898 0 0 1-.9-.899V46.9c0-.498.402-.9.9-.9h5.4c.498 0 .9.402.9.9v7.201a.898.898 0 0 1-.9.899zm6.3-23.4h3.6v-5.4h-3.6v5.4zm4.5 1.8h-5.4a.899.899 0 0 1-.9-.9v-7.2a.9.9 0 0 1 .9-.9h5.4a.9.9 0 0 1 .9.9v7.2c0 .498-.402.9-.9.9zm-4.5 9h3.6V37h-3.6v5.4zm4.5 1.8h-5.4a.899.899 0 0 1-.9-.9v-7.199a.9.9 0 0 1 .9-.901h5.4a.9.9 0 0 1 .9.901V43.3c0 .498-.402.9-.9.9zm-4.5 9h3.6v-5.4h-3.6v5.4zm4.5 1.8h-5.4a.898.898 0 0 1-.9-.899V46.9c0-.498.402-.9.9-.9h5.4c.498 0 .9.402.9.9v7.201a.898.898 0 0 1-.9.899zm6.3-23.4h3.6v-5.4H111v5.4zm4.5 1.8h-5.4a.899.899 0 0 1-.9-.9v-7.2a.9.9 0 0 1 .9-.9h5.4a.9.9 0 0 1 .9.9v7.2a.9.9 0 0 1-.9.9zm-4.5 9h3.6V37H111v5.4zm4.5 1.8h-5.4a.899.899 0 0 1-.9-.9v-7.199a.9.9 0 0 1 .9-.901h5.4a.9.9 0 0 1 .9.901V43.3a.9.9 0 0 1-.9.9zm-4.5 9h3.6v-5.4H111v5.4zm4.5 1.8h-5.4a.898.898 0 0 1-.9-.899V46.9c0-.498.402-.9.9-.9h5.4a.9.9 0 0 1 .9.9v7.201a.899.899 0 0 1-.9.899zm11.7 3.601h-8.1a.9.9 0 0 1-.9-.901V20.8H85.8v36.9a.9.9 0 0 1-.9.901h-8.1V71.2h1.8v-8.099a.9.9 0 0 1 .9-.901h10.8a.9.9 0 0 1 .9.901V71.2H93V57.7a.9.9 0 0 1 .9-.9h16.2a.9.9 0 0 1 .9.9v13.5h1.8v-8.099a.9.9 0 0 1 .9-.901h10.8a.9.9 0 0 1 .9.901V71.2h1.8V58.601zM80.4 71.2h9V64h-9v7.2zm14.4.001h14.4v-12.6H94.8v12.6zm19.8-.001h9V64h-9v7.2zm13.5 1.8H75.9a.9.9 0 0 1-.9-.899V57.7a.9.9 0 0 1 .9-.9H84V19.9a.9.9 0 0 1 .9-.9h34.2a.9.9 0 0 1 .9.9v36.9h8.1c.498 0 .9.402.9.9v14.401a.899.899 0 0 1-.9.899z"/>
    </g>
</svg>
