<svg xmlns="http://www.w3.org/2000/svg" width="204" height="92" viewBox="0 0 204 92">
    <g fill="none" fill-rule="nonzero">
        <ellipse cx="101.5" cy="74" fill="#E4E4E4" rx="24.5" ry="2"/>
        <path fill="#222" stroke="#222" d="M87.569 60.34h7.182v-8.988h-7.182v8.987zm8.08 1.797h-8.978a.897.897 0 0 1-.897-.899V50.454c0-.497.4-.899.897-.899h8.979c.496 0 .896.402.896.9v10.783c0 .497-.4.9-.896.9zm6.285-30.556a3.597 3.597 0 0 0-3.592 3.594 3.597 3.597 0 0 0 3.592 3.596 3.598 3.598 0 0 0 3.59-3.596 3.598 3.598 0 0 0-3.59-3.594zm0 8.987a5.396 5.396 0 0 1-5.388-5.393 5.396 5.396 0 0 1 5.388-5.39 5.396 5.396 0 0 1 5.387 5.39 5.396 5.396 0 0 1-5.387 5.393zm0-19.42L78.12 44.162h3.165c.167 0 .315.058.449.136a.884.884 0 0 1 .449-.136h43.562l-23.811-23.016zm14.363 3.244h-3.591v4.492c0 .053-.02.098-.03.148l3.62 3.5v-8.14zM82.183 71.124h17.955V55.846c0-.497.4-.899.897-.899h12.569c.497 0 .898.402.898.9v15.277h5.387V45.96H82.183v25.164zm21.546 0h8.977V56.745h-10.772v14.38h1.795zM128.8 45.4a.897.897 0 0 1-.833.561h-6.283v26.062a.898.898 0 0 1-.9.898h-39.5a.896.896 0 0 1-.897-.898V45.96h-4.49a.897.897 0 1 1-.624-1.545l26.036-25.164a.9.9 0 0 1 1.248 0l8.352 8.074v-3.832c0-.497.403-.898.899-.898h5.387c.496 0 .896.401.896.898v10.774l10.499 10.148a.898.898 0 0 1 .21.984z"/>
    </g>
</svg>
