<svg xmlns="http://www.w3.org/2000/svg" width="204" height="92" viewBox="0 0 204 92">
    <g fill="none" fill-rule="nonzero">
        <ellipse cx="102.5" cy="74" fill="#E4E4E4" rx="32.5" ry="2"/>
        <path fill="#222" stroke="#222" d="M86.734 21.844a1.966 1.966 0 0 0 0 3.932 1.966 1.966 0 0 0 0-3.932zm0 5.897a3.931 3.931 0 0 1 0-7.862 3.931 3.931 0 0 1 0 7.862zm1.962 3.931h-4.905a.982.982 0 0 1-.981-.983c0-.543.439-.983.981-.983h4.905a3.931 3.931 0 0 0 3.924-3.93v-2.949a.981.981 0 1 1 1.962 0v2.949c0 3.251-2.64 5.896-5.886 5.896zm29.431-3.931a3.931 3.931 0 0 0-3.924-3.931H98.505v5.896h19.622v-1.965zm.981 3.931H97.525a.982.982 0 0 1-.981-.983v-7.862c0-.543.439-.983.981-.983h16.678c3.246 0 5.885 2.646 5.885 5.897v2.948a.98.98 0 0 1-.98.983zM98.505 55.258h19.622v-1.965a3.93 3.93 0 0 0-3.924-3.931H98.505v5.896zm-.98-7.862h16.678c3.246 0 5.885 2.645 5.885 5.897v2.948a.98.98 0 0 1-.98.982H97.525a.98.98 0 0 1-.981-.982v-7.862c0-.544.439-.983.981-.983zm-13.734 7.862h4.905a3.931 3.931 0 0 0 3.924-3.931v-2.948a.98.98 0 1 1 1.962 0v2.948c0 3.252-2.64 5.896-5.886 5.896h-4.905a.982.982 0 1 1 0-1.965zm2.943-3.931a1.966 1.966 0 0 0 0-3.931 1.966 1.966 0 0 0 0 3.931zm0-5.897a3.932 3.932 0 0 1 0 7.863 3.932 3.932 0 0 1 0-7.863zm41.31-28.446a2.02 2.02 0 0 0-2.016-2.019 2.02 2.02 0 0 0-2.016 2.019v54.981h4.032V16.984zm-47.09 43.188h41.096V40.517H80.954v19.655zm.001-21.621h41.042v-1.965H80.955v1.965zm0 25.552h41.042v-1.966H80.955v1.966zm-1.962 1.966V16.984a2.02 2.02 0 0 0-2.016-2.019 2.02 2.02 0 0 0-2.015 2.019v54.981h4.031v-5.896zm43.057 7.861v-7.861H80.955v7.861H73V16.984A3.985 3.985 0 0 1 76.977 13a3.986 3.986 0 0 1 3.978 3.984V34.62h41.095V16.984A3.986 3.986 0 0 1 126.028 13a3.985 3.985 0 0 1 3.977 3.984V73.93h-7.955z"/>
    </g>
</svg>
