<svg xmlns="http://www.w3.org/2000/svg" width="204" height="92" viewBox="0 0 204 92">
    <g fill="none" fill-rule="nonzero">
        <ellipse cx="102.5" cy="69" fill="#E4E4E4" rx="32.5" ry="2"/>
        <path fill="#222" stroke="#222" d="M77.8 65.4h48.6V60H77.8v5.4zm39.921-25.199h-2.406l.259 1.845a3.16 3.16 0 0 1-.763 2.49 3.154 3.154 0 0 1-2.361 1.065h-6.3a3.153 3.153 0 0 1-3.15-3.15v-2.25h-1.8v2.25a3.154 3.154 0 0 1-3.149 3.15H91.75a3.154 3.154 0 0 1-3.126-3.542l.261-1.858h-2.406l-8.18 18h47.603l-8.181-18zm-12.92 2.25a1.35 1.35 0 0 0 1.349 1.349h6.3c.392 0 .752-.162 1.012-.457.259-.294.376-.672.327-1.06l-.88-6.287-.002-.013a1.352 1.352 0 0 0-1.34-1.183h-5.417c-.744 0-1.349.607-1.349 1.351v6.3zm-5.401-6.3c0-.744-.605-1.351-1.349-1.351h-5.417c-.681 0-1.257.509-1.341 1.183l-.002.013-.882 6.299c-.047.376.069.754.329 1.048.26.295.62.457 1.012.457h6.301a1.35 1.35 0 0 0 1.349-1.349v-6.3zm18-6.75a3.605 3.605 0 0 0-3.599-3.601H90.4a3.604 3.604 0 0 0-3.599 3.601v9h2.336l.372-2.649A3.152 3.152 0 0 1 92.634 33h5.417a3.155 3.155 0 0 1 3.149 3.151v2.25h1.8v-2.25A3.155 3.155 0 0 1 106.15 33h5.417a3.154 3.154 0 0 1 3.125 2.752l.371 2.649h2.337v-9zM127.301 69a.9.9 0 0 1-.901-.899v-.9H77.801v.9a.9.9 0 0 1-1.801 0v-18a.9.9 0 0 1 1.801 0v4.845L85 39.106v-9.705A5.406 5.406 0 0 1 90.4 24h23.401a5.406 5.406 0 0 1 5.399 5.401v9.705l7.2 15.84v-4.845a.9.9 0 1 1 1.8 0v18a.898.898 0 0 1-.899.899z"/>
    </g>
</svg>
