<svg xmlns="http://www.w3.org/2000/svg" width="204" height="92" viewBox="0 0 204 92">
    <g fill="none" fill-rule="nonzero">
        <ellipse cx="102.5" cy="72.5" fill="#E4E4E4" rx="35.5" ry="3.5"/>
        <path fill="#222" stroke="#222" d="M84.59 64.45c2.864 0 5.195-1.714 5.195-3.822 0-2.106-2.331-3.82-5.195-3.82-2.863 0-5.195 1.714-5.195 3.82 0 2.108 2.332 3.822 5.195 3.822m-7.963-3.822c0-3.62 3.57-6.566 7.963-6.566 4.392 0 7.965 2.945 7.965 6.566 0 3.623-3.573 6.57-7.965 6.57-4.392 0-7.963-2.947-7.963-6.57m-1.928 11.78c.947 0 1.656-.542 1.656-1.025 0-.485-.71-1.028-1.656-1.028-.948 0-1.655.543-1.655 1.028 0 .483.707 1.025 1.655 1.025m0-4.8c2.44 0 4.425 1.693 4.425 3.775 0 2.079-1.985 3.772-4.425 3.772-2.44 0-4.424-1.693-4.424-3.772 0-2.082 1.983-3.774 4.424-3.774m55.792-32.165c-.277-2.506-1.962-4.75-4.623-6.15a1.367 1.367 0 0 1-.733-1.299c.15-2.393-.69-4.684-2.365-6.45-1.924-2.03-4.736-3.194-7.718-3.194l-.379.007c-.478.032-.94-.22-1.206-.622-1.628-2.48-4.526-3.96-7.757-3.96-2.528 0-4.916.91-6.725 2.556-.281.257-.65.387-1.034.36a1.388 1.388 0 0 1-.975-.499c-1.135-1.373-2.798-2.13-4.684-2.13-2.76 0-5.896 1.757-6.272 5.018a1.376 1.376 0 0 1-1.051 1.18c-7.52 1.798-12.612 8.38-11.848 15.317.748 6.767 6.744 11.929 14.26 12.275.343.014.668.155.912.396 1.925 1.898 5.927 2.168 8.551.54a1.389 1.389 0 0 1 1.628.116c1.651 1.384 3.921 2.146 6.397 2.146 4.007 0 7.703-1.975 9.197-4.913.279-.546.89-.844 1.496-.732 4.755.913 9.853-.679 12.762-3.899 1.152-1.274 2.465-3.361 2.167-6.063m-.104 7.898c-2.871 3.177-7.383 5.07-12.068 5.07-.765 0-1.532-.05-2.292-.148-2.191 3.393-6.451 5.534-11.158 5.534-2.769 0-5.364-.778-7.414-2.205-3.43 1.687-8.036 1.248-10.713-1.028-8.647-.617-15.496-6.724-16.374-14.685-.885-8.029 4.687-15.64 13.064-18.058.998-4.235 5.168-6.507 8.86-6.507 2.244 0 4.281.752 5.864 2.14 2.156-1.571 4.794-2.428 7.554-2.428 3.894 0 7.438 1.699 9.634 4.581 3.637.072 7.063 1.544 9.443 4.055 2.002 2.107 3.096 4.793 3.134 7.632 3.048 1.858 4.974 4.677 5.323 7.848.32 2.898-.694 5.81-2.857 8.199"/>
    </g>
</svg>
