<svg xmlns="http://www.w3.org/2000/svg" width="204" height="92" viewBox="0 0 204 92">
    <g fill="none" fill-rule="nonzero">
        <ellipse cx="102.5" cy="72.5" fill="#E4E4E4" rx="35.5" ry="3.5"/>
        <path fill="#222" stroke="#222" d="M83.355 69.161c1.643 1.657 4.501 1.657 6.143 0 2.65-2.672 7.272-2.672 9.922 0a4.316 4.316 0 0 0 6.141 0c2.65-2.672 7.275-2.672 9.923 0 1.641 1.653 4.495 1.657 6.139 0a6.99 6.99 0 0 1 9.927 0 1.359 1.359 0 0 1 0 1.909 1.328 1.328 0 0 1-1.893 0 4.327 4.327 0 0 0-6.142 0 6.932 6.932 0 0 1-4.96 2.074 6.94 6.94 0 0 1-4.962-2.074c-1.642-1.652-4.499-1.652-6.14 0-2.649 2.676-7.275 2.676-9.925 0-1.64-1.652-4.497-1.652-6.138 0a6.985 6.985 0 0 1-9.925 0c-1.642-1.652-4.498-1.652-6.138 0a1.33 1.33 0 0 1-1.894 0 1.359 1.359 0 0 1 0-1.909c2.65-2.672 7.273-2.672 9.922 0zm13.877-43.783l-3.185.696a1.337 1.337 0 0 1-1.589-1.034 1.346 1.346 0 0 1 1.025-1.604l3.184-.697a1.332 1.332 0 0 1 1.588 1.033 1.35 1.35 0 0 1-1.023 1.606zm6.85-.057H100.9c-.74 0-1.339-.603-1.339-1.349 0-.747.6-1.35 1.339-1.35h3.183c.74 0 1.338.603 1.338 1.35 0 .746-.599 1.349-1.338 1.349zm2.645-1.549a1.332 1.332 0 0 1 1.589-1.033l3.183.697a1.345 1.345 0 0 1 1.024 1.604 1.336 1.336 0 0 1-1.588 1.034l-3.183-.696a1.35 1.35 0 0 1-1.025-1.606zm-6.789 17.07l-1.443.965a1.33 1.33 0 0 1-1.852-.376 1.353 1.353 0 0 1 .374-1.872l1.442-.967a1.33 1.33 0 0 1 1.853.379c.41.62.242 1.458-.374 1.87zm7.288 1.192c-.255 0-.511-.073-.739-.227l-1.443-.966a1.354 1.354 0 0 1-.373-1.87 1.33 1.33 0 0 1 1.853-.379l1.441.967c.617.413.785 1.251.374 1.873-.256.39-.68.602-1.113.602zm16.807 5.77l-8.09-6.076c-.045-.034-.091-.06-.13-.098l-7.771-5.838c-2.94-1.996-4.21-2.822-5.551-2.822-1.342 0-2.626.837-5.66 2.898L80.94 47.86l7.899 15.445c.232-.157.454-.337.659-.543 2.65-2.675 7.272-2.675 9.922 0a4.327 4.327 0 0 0 6.141 0c2.65-2.675 7.275-2.675 9.923 0 .203.204.424.382.66.535l7.89-15.492zM113.8 22.784c-.006-1.757-1.264-3.09-2.807-3.09H93.988c-1.544 0-2.8 1.333-2.8 2.968L89.847 37.77l5.433-4.1c3.244-2.203 4.999-3.395 7.21-3.395 2.211 0 3.95 1.177 7.099 3.317l5.545 4.181-1.334-14.99zm15.857 41.887a4.325 4.325 0 0 0-6.142 0 6.938 6.938 0 0 1-4.96 2.073 6.946 6.946 0 0 1-4.962-2.073c-1.639-1.653-4.494-1.658-6.14 0a6.988 6.988 0 0 1-9.925 0c-1.64-1.653-4.494-1.658-6.138 0a6.927 6.927 0 0 1-2.529 1.614l-.004.003c-.012.007-.027.004-.04.01-2.48.904-5.365.375-7.352-1.627-1.642-1.656-4.498-1.651-6.138 0a1.33 1.33 0 0 1-1.894 0 1.358 1.358 0 0 1 0-1.908c2.65-2.675 7.273-2.675 9.922 0a4.299 4.299 0 0 0 2.845 1.257l-7.63-14.982a2.654 2.654 0 0 1 .767-3.34l7.63-5.755 1.55-17.401c-.005-3.005 2.453-5.546 5.47-5.546h5.76v-6.307c0-.748.599-1.35 1.338-1.35.74 0 1.339.602 1.339 1.35v6.307h2.693v-2.986c0-.746.599-1.35 1.338-1.35.74 0 1.339.604 1.339 1.35v2.986h3.199c3.02 0 5.476 2.54 5.476 5.666l1.546 17.284 7.632 5.754a2.662 2.662 0 0 1 .767 3.337l-7.61 14.943c1.039-.057 2.06-.452 2.819-1.217 2.65-2.675 7.276-2.675 9.927 0a1.358 1.358 0 0 1 0 1.908 1.33 1.33 0 0 1-1.893 0z"/>
    </g>
</svg>
