<svg xmlns="http://www.w3.org/2000/svg" width="204" height="92" viewBox="0 0 204 92">
    <g fill="none" fill-rule="nonzero">
        <ellipse cx="102.5" cy="72.5" fill="#E4E4E4" rx="35.5" ry="3.5"/>
        <path fill="#222" stroke="#222" stroke-width=".81" d="M85.533 51.416c.639 0 1.156.528 1.156 1.181V71.36c0 .654-.517 1.18-1.156 1.18a1.166 1.166 0 0 1-1.154-1.18V52.597c0-.653.516-1.18 1.154-1.18m0-32.627c-1.192 0-2.164.993-2.164 2.213 0 1.367 1.12 3.311 2.164 3.311 1.048 0 2.167-1.944 2.167-3.31 0-1.22-.973-2.214-2.167-2.214m0 7.886c-2.69 0-4.475-3.416-4.475-5.673 0-2.522 2.008-4.574 4.475-4.574 2.468 0 4.477 2.052 4.477 4.574 0 2.257-1.785 5.673-4.477 5.673m7.888 22.073c-.36.318-.784.37-1.179.357l-1.259 22.32a1.165 1.165 0 0 1-1.152 1.113c-.02 0-.043 0-.066-.003a1.169 1.169 0 0 1-1.087-1.244l1.313-23.296c.019-.32.217-.737.451-.944.353-.314.772-.363 1.153-.365.39-11.796-.235-15.356-.533-16.361-.241-.01-.546-.02-.817-.033l-.678-.03c-.084-.012-.259.136-.327.263-.661 1.312-2.082 2.125-3.707 2.125-1.623 0-3.044-.813-3.705-2.122-.065-.133-.198-.283-.32-.266l-.686.03c-.282.013-.6.025-.861.038-.222.822-.887 4.26-.485 16.356.383 0 .8.05 1.152.365.24.213.437.64.452.967l1.31 23.273c.035.65-.45 1.208-1.088 1.244-.698.102-1.181-.46-1.218-1.11l-1.259-22.32c-.367.038-.818-.035-1.179-.36-.242-.214-.433-.633-.445-.957-.65-17.753.837-19.052 1.324-19.479.13-.111.28-.194.44-.24.217-.061.496-.083 1.765-.136l.631-.026c1.036-.064 2.012.52 2.522 1.542.515 1.02 2.786 1.023 3.305-.006.512-1.019 1.506-1.636 2.526-1.536l.624.026c1.268.053 1.547.075 1.764.136.16.046.307.125.433.235.49.423 1.98 1.708 1.333 19.486-.013.328-.205.743-.447.958m8.31-2.921c-.877 0-1.59.727-1.59 1.624 0 1.089.907 2.532 1.59 2.532.684 0 1.589-1.443 1.589-2.532 0-.897-.714-1.624-1.589-1.624m0 6.517c-2.38 0-3.9-2.898-3.9-4.893 0-2.197 1.75-3.987 3.9-3.987s3.898 1.79 3.898 3.987c0 1.95-1.555 4.893-3.898 4.893m0 4.204c-1.684 0-3.108 2.076-3.108 4.531 0 3.497 2.066 8.919 3.108 8.919 1.043 0 3.106-5.422 3.106-8.919 0-2.455-1.424-4.531-3.106-4.531m0 15.81c-3.728 0-5.418-8.653-5.418-11.279 0-3.8 2.432-6.891 5.418-6.891 2.987 0 5.417 3.092 5.417 6.891 0 2.626-1.689 11.28-5.417 11.28m18.593-53.056c-1.103 0-2 .994-2 2.213 0 1.455 1.122 3.312 2 3.312.877 0 1.996-1.857 1.996-3.312 0-1.22-.896-2.213-1.996-2.213m0 7.886c-2.59 0-4.309-3.415-4.309-5.673 0-2.522 1.933-4.574 4.309-4.574 2.374 0 4.305 2.052 4.305 4.574 0 2.258-1.716 5.673-4.305 5.673m9.94 30.726a1.147 1.147 0 0 1-.956.519h-5.49V71.17c0 .652-.517 1.18-1.156 1.18a1.167 1.167 0 0 1-1.154-1.18V57.254c0-.653.516-1.18 1.154-1.18h4.94l-4.529-11.605a1.209 1.209 0 0 1-.061-.657l1.015-5.497c.149-4.932-.01-6.798-.126-7.48l-2.728 3.014c-.44.48-1.26.484-1.698 0l-2.729-3.013c-.114.692-.27 2.587-.107 7.66l.996 5.316a1.2 1.2 0 0 1-.061.657l-4.532 11.605h4.94c.64 0 1.155.527 1.155 1.18V71.17c0 .652-.516 1.18-1.155 1.18a1.167 1.167 0 0 1-1.154-1.18V58.435h-5.49c-.384 0-.743-.194-.956-.52a1.21 1.21 0 0 1-.119-1.098l5.039-12.904-.953-5.16c-.31-9.278.3-9.721 1.164-10.07.061-.032.125-.057.193-.079.8-.239 1.762-.448 2.312.16l2.306 2.544 2.302-2.544c.55-.602 1.51-.4 2.313-.16.07.02.137.047.201.083.86.35 1.468.8 1.176 9.886l-.974 5.338 5.04 12.906c.139.364.096.776-.118 1.099"/>
    </g>
</svg>
