<svg xmlns="http://www.w3.org/2000/svg" width="204" height="92" viewBox="0 0 204 92">
    <g fill="none" fill-rule="nonzero">
        <ellipse cx="102.5" cy="72.5" fill="#E4E4E4" rx="35.5" ry="3.5"/>
        <path fill="#222" stroke="#222" stroke-width=".802" d="M96.671 36.974a4.066 4.066 0 0 1-.681-.941c-.199.36-.425.685-.681.94-.26.259-.584.486-.947.683.363.198.69.423.947.681.256.257.486.579.681.943a4 4 0 0 1 .681-.943c.258-.258.583-.483.945-.681a4.14 4.14 0 0 1-.945-.682zm5.707 1.925c-1.242.146-3.352.63-3.933 1.21-.582.582-1.066 2.688-1.208 3.925a1.257 1.257 0 0 1-2.494.002c-.146-1.242-.628-3.349-1.209-3.927-.583-.583-2.69-1.065-3.934-1.21a1.251 1.251 0 0 1 0-2.488c1.244-.145 3.353-.63 3.934-1.21s1.063-2.685 1.209-3.926a1.254 1.254 0 0 1 1.247-1.109c.637 0 1.175.477 1.247 1.109.144 1.241.628 3.347 1.208 3.927.584.581 2.691 1.065 3.933 1.21a1.252 1.252 0 0 1 0 2.487zm15.391-12.77c-.67-.672-1.198-1.687-1.607-2.78-.41 1.093-.937 2.107-1.608 2.78-.671.67-1.686 1.197-2.78 1.605 1.094.407 2.109.933 2.78 1.604.67.67 1.198 1.687 1.608 2.778.409-1.092.936-2.108 1.607-2.778.672-.67 1.69-1.197 2.78-1.604-1.09-.408-2.108-.935-2.78-1.605zm8.462 2.848c-1.992.231-5.568 1.016-6.687 2.133-1.122 1.122-1.907 4.691-2.134 6.679a1.256 1.256 0 0 1-2.495 0c-.231-1.988-1.015-5.56-2.135-6.68-1.123-1.12-4.698-1.9-6.687-2.132a1.252 1.252 0 0 1 0-2.488c1.991-.23 5.57-1.016 6.687-2.133 1.123-1.12 1.908-4.691 2.135-6.679a1.257 1.257 0 0 1 2.494-.001c.231 1.99 1.016 5.563 2.135 6.68 1.122 1.12 4.698 1.902 6.687 2.133a1.253 1.253 0 0 1 0 2.488zM127.6 64.08h-6.202l-1.646 5.013h9.494L127.6 64.08zm-7.213-7.52h-6.2l-1.648 5.013h9.492l-1.644-5.014zm-7.602-7.519h-6.204l-1.644 5.014H114.43l-1.645-5.014zm-12.176 0l1.646 5.014h.04l1.645-5.014h-3.33zm-2.641 0h-6.203l-1.645 5.014h9.492l-1.644-5.014zm-9.58 7.518h-3.836l-1.647 5.014h9.494l-1.646-5.014h-2.365zm-7.215 7.521H76.95l-1.648 5.013h9.494l-1.645-5.013h-1.978zm6.285 5.07l1.664-5.07h-3.331l1.667 5.07zm9.271-12.59h-3.336l1.649 5.013h.04l1.647-5.014zm2.883 12.533l-1.644-5.013H91.765l-1.645 5.013h9.492zm2.663.06l1.665-5.073h-3.33l1.665 5.073zm4.942-7.58l-1.648-5.014H101.394c-.013 0-.033.002-.048 0h-1.977l-1.647 5.014H107.217zm4.33-5.014h-3.338l1.65 5.014h.04l1.647-5.014zm2.883 12.534l-1.645-5.013h-6.204l-1.644 5.013h9.493zm2.661.062l1.668-5.075h-3.332l1.664 5.075zm13.937 2.442a.135.135 0 0 1-.049 0h-12.96c-.345 0-.656-.163-.89-.41a1.238 1.238 0 0 1-.967.41h-12.958c-.344 0-.656-.163-.893-.411a1.24 1.24 0 0 1-.965.411H88.388c-.347 0-.656-.163-.891-.41a1.24 1.24 0 0 1-.967.41H73.57a1.253 1.253 0 0 1-1.192-1.643l2.472-7.518c.169-.516.65-.863 1.19-.863h4.225l2.188-6.657a1.25 1.25 0 0 1 1.19-.861h3.834l2.184-6.656c.17-.518.653-.864 1.194-.864H107.085l-2.39-5.88a1.252 1.252 0 0 1 .688-1.633 1.251 1.251 0 0 1 1.634.692l2.777 6.82h3.9c.543 0 1.025.347 1.194.865l2.183 6.656h4.225c.542 0 1.024.346 1.194.861l2.183 6.657h3.836c.54 0 1.022.347 1.19.863l2.37 7.208a1.254 1.254 0 0 1-1.041 1.953z"/>
    </g>
</svg>
