<svg xmlns="http://www.w3.org/2000/svg" width="204" height="92" viewBox="0 0 204 92">
    <g fill="none" fill-rule="nonzero">
        <ellipse cx="102.5" cy="73.5" fill="#E4E4E4" rx="35.5" ry="3.5"/>
        <path fill="#222" stroke="#222" d="M108.07 41.764c.916.916 1.359 1.831 1.356 2.802-.003.585-.167 1.126-.441 1.641 1.28-.816 2.124-1.729 2.337-2.605.189-.776-.114-1.55-.928-2.366-.47-.471-1.004-.639-1.466-.639-.447 0-.828.158-1.022.354-.096.095-.145.192-.142.285.004.145.116.336.307.528M105.64 49.6a.898.898 0 0 1-.635-1.536l.452-.451c1.116-1.102 2.17-2.144 2.173-3.054 0-.465-.27-.962-.83-1.522-.666-.669-.82-1.323-.831-1.752-.016-.592.22-1.162.666-1.61 1.147-1.144 3.438-1.306 5.029.289 1.59 1.593 1.64 3.09 1.403 4.064-.537 2.209-3.212 4.277-7.155 5.53a.956.956 0 0 1-.272.042m-8.995 16.779a.894.894 0 0 1 1.232.309.899.899 0 0 1-.308 1.234c-1.034.622-1.745 2.275-1.81 4.208a.897.897 0 0 1-.896.87h-.031a.9.9 0 0 1-.868-.93c.086-2.607 1.089-4.735 2.68-5.691m22.54-35.902c-2.281-1.219-4.641-2.477-6.36-2.477-3.68 0-10.216 4.306-10.282 4.351-.034.022-.073.027-.11.044-.056.027-.111.054-.173.069-.053.013-.105.015-.16.018a.922.922 0 0 1-.181-.001c-.057-.009-.108-.028-.162-.047-.042-.014-.085-.015-.125-.036-.085-.044-8.425-4.398-12.158-4.398-1.676 0-3.502 1.184-5.434 2.438-1.164.756-2.348 1.524-3.58 2.088 4.334 1.055 12.473 2.675 21.588 2.675 9.002 0 17.052-1.58 21.424-2.634-1.421-.561-2.867-1.333-4.287-2.09M102.047 20.8a4.5 4.5 0 0 0 0 9 4.5 4.5 0 0 0 0-9M95.34 41c-.193-.203-.587-.372-1.056-.372-.468 0-1.01.167-1.503.629-.972.913-.937 1.678-.824 2.175.25 1.104 1.27 2.264 2.647 3.336-.33-.54-.564-1.098-.665-1.666-.151-.858-.067-2.136 1.199-3.351.478-.46.292-.656.202-.751m32.126-7.642c-.114.036-11.19 3.475-24.521 3.627v13.811c.186.073.388.15.605.233 2.677 1.023 7.154 2.737 7.53 5.982.25 2.175-1.364 4.408-4.937 6.834a.896.896 0 0 1-1.247-.241.9.9 0 0 1 .24-1.249c2.883-1.957 4.322-3.734 4.159-5.136-.248-2.15-4.198-3.672-6.35-4.494v11.531c7.496 2.52 7.2 7.69 7.183 7.916a.9.9 0 1 1-1.791-.144c.009-.155.153-3.782-5.392-5.877V72.1a.899.899 0 1 1-1.796 0v-6.544c-6.131-1.901-9.28-4.034-9.555-6.516-.217-1.957 1.339-3.884 4.625-5.726a.896.896 0 0 1 1.223.347.902.902 0 0 1-.345 1.225c-2.524 1.413-3.844 2.818-3.717 3.953.103.931 1.285 2.758 7.769 4.84V52.198c-3.308-1.093-10.06-4.454-10.944-8.369-.223-.988-.17-2.463 1.348-3.887 1.669-1.564 3.98-1.355 5.09-.18.749.793.959 2.114-.261 3.287-.572.55-.786 1.102-.674 1.738.317 1.794 3.056 3.883 5.44 5.167V36.985c-13.331-.152-24.406-3.591-24.52-3.627a.9.9 0 0 1 .27-1.758c2.046 0 4.14-1.359 6.164-2.672 2.066-1.341 4.203-2.727 6.41-2.727 1.834 0 4.494.851 6.93 1.822a6.246 6.246 0 0 1-.642-2.723c0-3.473 2.82-6.3 6.287-6.3 3.466 0 6.287 2.827 6.287 6.3 0 .75-.154 1.46-.395 2.128 1.685-.699 3.435-1.227 4.886-1.227 2.167 0 4.613 1.305 7.204 2.686 2.498 1.335 5.08 2.713 7.167 2.713a.9.9 0 1 1 .27 1.758"/>
    </g>
</svg>
