<svg xmlns="http://www.w3.org/2000/svg" width="204" height="92" viewBox="0 0 204 92">
    <g fill="none" fill-rule="nonzero">
        <ellipse cx="102.5" cy="70.5" fill="#E4E4E4" rx="35.5" ry="3.5"/>
        <path fill="#222" stroke="#222" d="M86.801 40.2h5.4v-5.399h-5.4V40.2zm6.3 1.8h-7.2a.9.9 0 0 1-.901-.9v-7.2a.9.9 0 0 1 .901-.9h7.2a.9.9 0 0 1 .899.9v7.2a.9.9 0 0 1-.899.9zm-6.3 12.6h5.4v-5.4h-5.4v5.4zm6.3 1.8h-7.2a.9.9 0 0 1-.901-.9v-7.199a.9.9 0 0 1 .901-.901h7.2a.9.9 0 0 1 .899.901V55.5a.9.9 0 0 1-.899.9zM107.5 43.801a.899.899 0 0 1-.899-.901v-4.5h-9v4.5a.9.9 0 1 1-1.801 0V30.301a.9.9 0 1 1 1.801 0V36.6h9v-6.299a.9.9 0 1 1 1.8 0V42.9a.9.9 0 0 1-.901.901zM112 54.6h5.4v-5.4H112v5.4zm-.899-7.2h7.199a.9.9 0 0 1 .901.901V55.5a.9.9 0 0 1-.901.9h-7.199a.9.9 0 0 1-.9-.9v-7.199a.9.9 0 0 1 .9-.901zm.899-7.2h5.4v-5.399H112V40.2zm-.899-7.2h7.199a.9.9 0 0 1 .901.9v7.2a.9.9 0 0 1-.901.9h-7.199a.9.9 0 0 1-.9-.9v-7.2a.9.9 0 0 1 .9-.9zm15.3 32.4H77.8v1.8h48.601v-1.8zm-28.8-1.8h9V49.2h-9v14.4zM122.8 31.2h-11.699a.9.9 0 0 1-.9-.899v-4.5H94v4.5a.9.9 0 0 1-.899.899h-11.7v32.4H95.8V48.301a.9.9 0 0 1 .901-.901H107.5a.9.9 0 0 1 .901.901V63.6H122.8V31.2zm4.5 37.8H76.901a.9.9 0 0 1-.901-.9v-3.6a.9.9 0 0 1 .901-.9h2.7V30.301c0-.499.401-.901.899-.901h11.701v-4.5a.9.9 0 0 1 .9-.9h18a.9.9 0 0 1 .899.9v4.5h11.701a.9.9 0 0 1 .9.901V63.6h2.699a.9.9 0 0 1 .901.9v3.6a.9.9 0 0 1-.901.9z"/>
    </g>
</svg>
