<svg xmlns="http://www.w3.org/2000/svg" width="204" height="92" viewBox="0 0 204 92">
    <g fill="none" fill-rule="nonzero">
        <ellipse cx="102.5" cy="70.5" fill="#E4E4E4" rx="35.5" ry="3.5"/>
        <path fill="#222" stroke="#222" d="M93.968 48.186v3.598h4.498c.497 0 .899.402.899.899v4.498h3.598v-4.498c0-.497.401-.899.899-.899h4.497v-3.598h-4.497a.898.898 0 0 1-.899-.9v-4.497h-3.598v4.497c0 .498-.402.9-.899.9h-4.498zm3.598-6.296a.9.9 0 0 1 .9-.9h5.396c.497 0 .899.402.899.9v4.497h4.497c.498 0 .899.403.899.899v5.397c0 .498-.401.9-.899.9h-4.497v4.498a.898.898 0 0 1-.899.899h-5.396a.9.9 0 0 1-.9-.899v-4.498h-4.497a.899.899 0 0 1-.899-.9v-5.397c0-.496.402-.899.899-.899h4.497V41.89zm3.598 18.889c5.951 0 10.793-4.842 10.793-10.794 0-5.952-4.842-10.794-10.793-10.794s-10.793 4.842-10.793 10.794c0 5.952 4.842 10.794 10.793 10.794zm0-23.387c6.942 0 12.591 5.65 12.591 12.593s-5.649 12.593-12.591 12.593c-6.942 0-12.592-5.65-12.592-12.593s5.65-12.593 12.592-12.593zm25.239-5.397H77.799v36.008h48.604V31.995zm-18.044-5.847c0-.743-.606-1.349-1.349-1.349h-9.895c-.741 0-1.348.606-1.348 1.349v4.048h12.592v-4.048zm18.944 43.654H76.899a.899.899 0 0 1-.899-.9V31.095c0-.496.402-.899.899-.899h17.069v-4.048A3.152 3.152 0 0 1 97.115 23h9.895a3.15 3.15 0 0 1 3.147 3.148v4.048h17.146c.497 0 .899.403.899.899v37.807c0 .498-.402.9-.899.9z"/>
    </g>
</svg>
