<svg xmlns="http://www.w3.org/2000/svg" width="204" height="92" viewBox="0 0 204 92">
    <g fill="none" fill-rule="nonzero">
        <ellipse cx="102.5" cy="72.5" fill="#E4E4E4" rx="35.5" ry="3.5"/>
        <path fill="#222" stroke="#222" stroke-width=".81" d="M89.175 55.366h4.993v-5.014h-4.993v5.014zm6.212 2.456h-7.43c-.673 0-1.219-.55-1.219-1.228v-7.472c0-.678.546-1.227 1.219-1.227h7.43c.674 0 1.22.55 1.22 1.227v7.472c0 .678-.546 1.228-1.22 1.228zm28.053-20.019l-21.996-18.778-21.998 18.78v32.143h21.868V49.122c0-.678.544-1.227 1.218-1.227h12.32c.672 0 1.218.55 1.218 1.227v20.826h7.37V37.803zM103.75 69.948h9.881V50.352h-9.88v19.596zm26.66-27.804a1.211 1.211 0 0 1-.93.434c-.279 0-.559-.096-.789-.29l-2.816-2.403v31.29c0 .68-.544 1.23-1.218 1.23H78.229c-.675 0-1.22-.55-1.22-1.23v-31.29l-2.815 2.403a1.214 1.214 0 0 1-1.717-.144 1.239 1.239 0 0 1 .142-1.733l28.037-23.933a1.214 1.214 0 0 1 1.575 0l28.037 23.933c.514.44.577 1.214.143 1.733z"/>
    </g>
</svg>
