<svg xmlns="http://www.w3.org/2000/svg" width="204" height="92" viewBox="0 0 204 92">
    <g fill="none" fill-rule="nonzero">
        <ellipse cx="102.5" cy="77.5" fill="#E4E4E4" rx="68.5" ry="2.5"/>
        <path fill="#222" stroke="#222" d="M62.603 31.999h4v-4h-4v4zm5 2h-6c-.554 0-1-.447-1-1v-6a.998.998 0 0 1 1-.998h6c.553 0 1 .446 1 .999v5.999a1 1 0 0 1-1 1zm-5 7.998h4v-3.998h-4v3.998zm5 2h-6c-.554 0-1-.446-1-1v-5.998c0-.553.446-1 1-1h6a1 1 0 0 1 1 1v5.998c0 .554-.447 1-1 1zm-5 7.999h4v-4h-4v4zm5 2h-6c-.554 0-1-.446-1-1v-6c0-.552.446-1 1-1h6a1 1 0 0 1 1 1v6c0 .554-.447 1-1 1zm-5 7.999h4v-4h-4v4zm5 2h-6c-.554 0-1-.446-1-1v-6c0-.552.446-1 1-1h6a1 1 0 0 1 1 1v6c0 .554-.447 1-1 1zm5-31.996h4v-4h-4v4zm5 2h-6c-.554 0-1-.447-1-1v-6a.998.998 0 0 1 1-.998h6c.553 0 1 .446 1 .999v5.999a1 1 0 0 1-1 1zm-5 7.998h4v-3.998h-4v3.998zm5 2h-6c-.554 0-1-.446-1-1v-5.998c0-.553.446-1 1-1h6a1 1 0 0 1 1 1v5.998c0 .554-.447 1-1 1zm-5 7.999h4v-4h-4v4zm5 2h-6c-.554 0-1-.446-1-1v-6c0-.552.446-1 1-1h6a1 1 0 0 1 1 1v6c0 .554-.447 1-1 1zm-5 7.999h4v-4h-4v4zm5 2h-6c-.554 0-1-.446-1-1v-6c0-.552.446-1 1-1h6a1 1 0 0 1 1 1v6c0 .554-.447 1-1 1zm5-31.996h4v-4h-4v4zm5 2h-6c-.554 0-1-.447-1-1v-6a.998.998 0 0 1 1-.998h6c.553 0 1 .446 1 .999v5.999a1 1 0 0 1-1 1zm-5 7.998h4v-3.998h-4v3.998zm5 2h-6c-.554 0-1-.446-1-1v-5.998c0-.553.446-1 1-1h6a1 1 0 0 1 1 1v5.998c0 .554-.447 1-1 1zm-5 7.999h4v-4h-4v4zm5 2h-6c-.554 0-1-.446-1-1v-6c0-.552.446-1 1-1h6a1 1 0 0 1 1 1v6c0 .554-.447 1-1 1zm-5 7.999h4v-4h-4v4zm5 2h-6c-.554 0-1-.446-1-1v-6c0-.552.446-1 1-1h6a1 1 0 0 1 1 1v6c0 .554-.447 1-1 1zm21.008-12.001h6v-6.002h-6v6.002zm7 2h-8c-.554 0-1-.445-1-1v-8.002a1 1 0 0 1 1-1.001h8a1 1 0 0 1 1 1v8.004a1 1 0 0 1-1 1zm13.002-2h6v-6.002h-6v6.002zm7 2h-8c-.554 0-1-.445-1-1v-8.002a1 1 0 0 1 1-1.001h8a1 1 0 0 1 1 1v8.004a1 1 0 0 1-1 1zm23.003-.255l-19.29-5.788c-.018-.006-.03-.02-.046-.025-.07-.025-.126-.062-.187-.1-.051-.031-.103-.06-.146-.1-.05-.044-.084-.096-.124-.15-.037-.05-.077-.097-.104-.153-.025-.056-.038-.115-.054-.174-.017-.068-.037-.133-.041-.203-.001-.02-.01-.034-.01-.054V41.99H104.61v32.014h10V60.999c0-.554.447-1 1-1h12.002a1 1 0 0 1 1 1v13.005h10V56.996a1 1 0 0 1 1-1h16.002a1 1 0 0 1 1 1v17.008h2V53.739zm-42.004 20.265h10V61.999h-10v12.005zm24.003-12.005h14v-4.002h-14v4.002zm0 6.003h14V64h-14v4.002zm0 6.002h14v-4.001h-14v4zm-38.012-45.927l-8-.068v1.99h5a.998.998 0 1 1 0 2h-5v6h5a1 1 0 1 1 0 2h-5v5.998h5a1 1 0 1 1 0 2h-5v5.999h5a1 1 0 1 1 0 2h-5v5.999h5a1 1 0 1 1 0 2h-5v5.999h5a1 1 0 1 1 0 2h-5v2h8V28.077zm-10-1.077v-5.19l-18-3.788-18 3.789v52.183h8v-7a.998.998 0 0 1 1-1h18c.553 0 1 .448 1 1v7h8V27zm-26 46.994h16v-6h-16v6zm-12-2h-5c-.554 0-1-.447-1-1 0-.553.446-1 1-1h5v-6h-5c-.554 0-1-.445-1-1 0-.552.446-1 1-1h5v-5.998h-5c-.554 0-1-.446-1-1 0-.553.446-1 1-1h5v-6h-5c-.554 0-1-.445-1-1 0-.552.446-1 1-1h5V40h-5a1 1 0 1 1 0-2h5v-6h-5c-.554 0-1-.447-1-1 0-.553.446-1 1-1h5v-2h-8v45.995h8v-2zm105.013 4.01H103.61c-.02 0-.036-.01-.055-.011H45.603c-.554 0-1-.446-1-1V27a.998.998 0 0 1 1-1h9v-5c0-.473.33-.881.795-.978l19-4a.972.972 0 0 1 .409 0l19 4a1 1 0 0 1 .796.979v5.008l9.008.078a1 1 0 0 1 .992 1v13.046l16.495-.005a.996.996 0 0 1 1.027 0l17.996.005c.035.019.057.05.088.075.05.037.1.072.144.12.034.04.058.086.088.132.058.092.099.189.127.299.014.06.034.12.037.183 0 .018.01.03.01.048v5.259l19.289 5.787c.017.007.029.02.046.026.069.025.126.062.186.099.052.032.104.06.147.1.049.044.084.097.124.15.037.05.076.098.103.154.027.055.038.115.055.175.017.067.037.13.04.2.002.02.01.036.01.055v22.01a1 1 0 0 1-1 1z"/>
    </g>
</svg>
