<svg xmlns="http://www.w3.org/2000/svg" width="204" height="92" viewBox="0 0 204 92">
    <g fill="none" fill-rule="nonzero">
        <ellipse cx="102.5" cy="76" fill="#E4E4E4" rx="53.5" ry="2"/>
        <path fill="#222" stroke="#222" d="M69.559 61.394h7.182v-8.986h-7.182v8.986zm8.08 1.798h-8.978a.897.897 0 0 1-.897-.9V51.51c0-.497.4-.9.897-.9h8.979c.496 0 .896.403.896.9v10.784c0 .497-.4.899-.896.899zm6.285-30.556a3.598 3.598 0 0 0-3.592 3.594 3.599 3.599 0 0 0 3.592 3.596 3.598 3.598 0 0 0 3.59-3.596 3.596 3.596 0 0 0-3.59-3.594zm0 8.987a5.396 5.396 0 0 1-5.388-5.393 5.396 5.396 0 0 1 5.388-5.391 5.396 5.396 0 0 1 5.387 5.39 5.396 5.396 0 0 1-5.387 5.394zm0-19.421L60.11 45.218h3.165c.167 0 .315.058.449.136a.88.88 0 0 1 .448-.136h43.564L83.924 22.202zm14.363 3.244h-3.59v4.493c0 .053-.021.098-.031.148l3.62 3.499v-8.14zM64.173 72.179h17.955V56.9c0-.497.402-.9.898-.9h12.569c.496 0 .897.403.897.9v15.278h5.387V47.015H64.173v25.164zm21.546 0h8.978v-14.38H83.924v14.38h1.795zm24.239-25.164h-6.283v26.062a.897.897 0 0 1-.898.898H63.276a.897.897 0 0 1-.898-.898V47.015h-4.49a.897.897 0 1 1-.624-1.545L83.3 20.305a.902.902 0 0 1 1.248 0l8.354 8.075v-3.832c0-.497.4-.9.897-.9h5.387c.496 0 .897.403.897.9v10.774l10.499 10.148a.897.897 0 0 1-.624 1.545zm24.02-28.941l-7.993 24.85 2.873 9.092c.018-.001.035-.01.053-.01h6.003v-5a1 1 0 1 1 2 0v5h9.574l-12.51-33.932zm-9.897 25.469a.996.996 0 0 1-.161-.513l-4.013-12.703-10.641 33.679h9.64v-5a1 1 0 1 1 2 0v5h9.64l-6.465-20.463zm24.66 10.035a1.003 1.003 0 0 1-.82.428h-11.006v5a1 1 0 1 1-2.001 0v-5h-5.428l3.38 10.699a.997.997 0 0 1-.954 1.3h-11.005v7a1 1 0 0 1-2.001 0v-7H107.9a1.002 1.002 0 0 1-.954-1.3l12.006-38c.263-.832 1.646-.832 1.908 0l4.085 12.927 8.018-24.932a.997.997 0 0 1 .93-.694c.486.003.812.254.96.654l14.007 38a.995.995 0 0 1-.118.918z"/>
    </g>
</svg>
