<svg xmlns="http://www.w3.org/2000/svg" width="204" height="92" viewBox="0 0 204 92">
    <g fill="none" fill-rule="nonzero">
        <ellipse cx="102" cy="77.5" fill="#E4E4E4" rx="96" ry="2.5"/>
        <path fill="#222" stroke="#222" d="M33 31.999h4v-4h-4v4zm5 2h-6a1 1 0 0 1-1-1v-6a.998.998 0 0 1 1-.998h6c.553 0 1 .446 1 .999v5.999a1 1 0 0 1-1 1zm-5 7.998h4v-3.998h-4v3.998zm5 2h-6c-.554 0-1-.447-1-1v-5.998c0-.553.446-1 1-1h6a1 1 0 0 1 1 1v5.998a1 1 0 0 1-1 1zm-5 7.999h4v-4h-4v4zm5 2h-6c-.554 0-1-.447-1-1v-6c0-.552.446-1 1-1h6a1 1 0 0 1 1 1v6a1 1 0 0 1-1 1zm-5 7.999h4v-4h-4v4zm5 2h-6c-.554 0-1-.446-1-1v-6c0-.552.446-1 1-1h6a1 1 0 0 1 1 1v6c0 .554-.447 1-1 1zm5-31.996h4v-4h-4v4zm5 2h-6a1 1 0 0 1-1-1v-6a.998.998 0 0 1 1-.998h6c.553 0 1 .446 1 .999v5.999a1 1 0 0 1-1 1zm-5 7.998h4v-3.998h-4v3.998zm5 2h-6c-.554 0-1-.447-1-1v-5.998c0-.553.446-1 1-1h6a1 1 0 0 1 1 1v5.998a1 1 0 0 1-1 1zm-5 7.999h4v-4h-4v4zm5 2h-6c-.554 0-1-.447-1-1v-6c0-.552.446-1 1-1h6a1 1 0 0 1 1 1v6a1 1 0 0 1-1 1zm-5 7.999h4v-4h-4v4zm5 2h-6c-.554 0-1-.446-1-1v-6c0-.552.446-1 1-1h6a1 1 0 0 1 1 1v6c0 .554-.447 1-1 1zm5-31.996h4v-4h-4v4zm5 2h-6a1 1 0 0 1-1-1v-6a.998.998 0 0 1 1-.998h6c.553 0 1 .446 1 .999v5.999a1 1 0 0 1-1 1zm-5 7.998h4v-3.998h-4v3.998zm5 2h-6c-.554 0-1-.447-1-1v-5.998c0-.553.446-1 1-1h6a1 1 0 0 1 1 1v5.998a1 1 0 0 1-1 1zm-5 7.999h4v-4h-4v4zm5 2h-6c-.554 0-1-.447-1-1v-6c0-.552.446-1 1-1h6a1 1 0 0 1 1 1v6a1 1 0 0 1-1 1zm-5 7.999h4v-4h-4v4zm-2 1v-6c0-.552.446-1 1-1h6a1 1 0 0 1 1 1v6c0 .554-.447 1-1 1h-6c-.554 0-1-.446-1-1zm28.008-11.001h6.001v-6.002h-6.001v6.002zm7.001 2h-8.001c-.553 0-1-.445-1-1v-8.002a1 1 0 0 1 1-1.001h8.001a1 1 0 0 1 1 1v8.004c0 .554-.447 1-1 1zm13.001-2h6.001v-6.002H99.01v6.002zm7.001 2H98.01c-.553 0-1-.445-1-1v-8.002a1 1 0 0 1 1-1.001h8.001a1 1 0 0 1 1 1v8.004c0 .554-.447 1-1 1zM147 32h4v-4h-4v4zm5 2h-6a1 1 0 0 1-1-1v-6a.998.998 0 0 1 1-.998h6c.553 0 1 .446 1 .999v5.999a1 1 0 0 1-1 1zm-5 7.998h4v-3.998h-4v3.998zm5 2h-6c-.554 0-1-.447-1-1v-5.998c0-.553.446-1 1-1h6a1 1 0 0 1 1 1v5.998a1 1 0 0 1-1 1zm-5 7.999h4v-4h-4v4zm5 2h-6c-.554 0-1-.447-1-1v-6c0-.552.446-1 1-1h6a1 1 0 0 1 1 1v6a1 1 0 0 1-1 1zm-5 7.999h4v-4h-4v4zm5 2h-6c-.554 0-1-.446-1-1v-6c0-.552.446-1 1-1h6a1 1 0 0 1 1 1v6c0 .554-.447 1-1 1zm5-31.996h4v-4h-4v4zm5 2h-6a1 1 0 0 1-1-1v-6a.998.998 0 0 1 1-.998h6c.553 0 1 .446 1 .999v5.999a1 1 0 0 1-1 1zm-5 7.998h4v-3.998h-4v3.998zm5 2h-6c-.554 0-1-.447-1-1v-5.998c0-.553.446-1 1-1h6a1 1 0 0 1 1 1v5.998a1 1 0 0 1-1 1zm-5 7.999h4v-4h-4v4zm5 2h-6c-.554 0-1-.447-1-1v-6c0-.552.446-1 1-1h6a1 1 0 0 1 1 1v6a1 1 0 0 1-1 1zm-5 7.999h4v-4h-4v4zm5 2h-6c-.554 0-1-.446-1-1v-6c0-.552.446-1 1-1h6a1 1 0 0 1 1 1v6c0 .554-.447 1-1 1zm5-31.996h4v-4h-4v4zm5 2h-6a1 1 0 0 1-1-1v-6a.998.998 0 0 1 1-.998h6c.553 0 1 .446 1 .999v5.999a1 1 0 0 1-1 1zm-5 7.998h4v-3.998h-4v3.998zm5 2h-6c-.554 0-1-.447-1-1v-5.998c0-.553.446-1 1-1h6a1 1 0 0 1 1 1v5.998a1 1 0 0 1-1 1zm-5 7.999h4v-4h-4v4zm5 2h-6c-.554 0-1-.447-1-1v-6c0-.552.446-1 1-1h6a1 1 0 0 1 1 1v6a1 1 0 0 1-1 1zm-5 7.999h4v-4h-4v4zm5 2h-6c-.554 0-1-.446-1-1v-6c0-.552.446-1 1-1h6a1 1 0 0 1 1 1v6c0 .554-.447 1-1 1zm15-35.918l-8-.07V30h5a.998.998 0 1 1 0 1.999h-5v6h5a1 1 0 0 1 0 2h-5v5.998h5a1 1 0 1 1 0 2h-5v5.999h5a1 1 0 1 1 0 2h-5v5.999h5a1 1 0 1 1 0 2h-5v5.999h5a1 1 0 1 1 0 2h-5v2h8V28.077zM177 27v-5.19l-18-3.788-18 3.789v52.183h8v-7a.998.998 0 0 1 1-1h18c.553 0 1 .448 1 1v7h8V27zm-26 46.994h16v-6h-16v6zm-12-2h-5c-.554 0-1-.447-1-1 0-.553.446-1 1-1h5v-6h-5c-.554 0-1-.445-1-1 0-.552.446-1 1-1h5v-5.998h-5c-.554 0-1-.447-1-1 0-.553.446-1 1-1h5v-6h-5c-.554 0-1-.446-1-1 0-.552.446-1 1-1h5V40h-5a1 1 0 1 1 0-2h5v-6h-5a.999.999 0 1 1 0-2h5v-2h-8v24.862a.487.487 0 0 1 .005.052c.003.027.009.054.009.082v20.999H139v-2zm-10-18.26l-19.276-5.783c-.008-.003-.013-.01-.022-.012a.994.994 0 0 1-.557-.455c-.007-.013-.014-.024-.021-.04a.967.967 0 0 1-.099-.317l-.006-.054c-.002-.026-.008-.053-.008-.081V41.99H75.008v32.014h10.001V60.999c0-.554.447-1 1-1H98.01c.553 0 1 .446 1 1v13.005h10.001V56.996a1 1 0 0 1 1-1h16.002a1 1 0 0 1 1 1v17.008H129v-20.27zm-41.991 20.27H97.01V61.999H87.009v12.005zm24.003-12.005h14.001v-4.002h-14.001v4.002zm0 6.003h14.001V64h-14.001v4.002zm0 6.002h14.001v-4.001h-14.001v4zM73 28.077l-8-.07V30h5a.998.998 0 1 1 0 1.999h-5v6h5a1 1 0 0 1 0 2h-5v5.998h5a1 1 0 1 1 0 2h-5v5.999h5a1 1 0 1 1 0 2h-5v5.999h5a1 1 0 1 1 0 2h-5v5.999h5a1 1 0 1 1 0 2h-5v2h8V28.077zM63 27v-5.19l-18-3.788-18 3.789v52.183h8v-7a.998.998 0 0 1 1-1h18c.553 0 1 .448 1 1v7h8V27zM37 73.994h16v-6H37v6zm-12-2h-5c-.554 0-1-.447-1-1 0-.553.446-1 1-1h5v-6h-5c-.554 0-1-.445-1-1 0-.552.446-1 1-1h5v-5.998h-5c-.554 0-1-.447-1-1 0-.553.446-1 1-1h5v-6h-5c-.554 0-1-.446-1-1 0-.552.446-1 1-1h5V40h-5a1 1 0 1 1 0-2h5v-6h-5a.999.999 0 1 1 0-2h5v-2h-8v45.995h8v-2zm163 3.999h-57.879c-.036.004-.071.012-.108.012H74.008c-.037 0-.072-.008-.107-.012H16c-.554 0-1-.446-1-1V27a.998.998 0 0 1 1-1h9v-5a1 1 0 0 1 .795-.978l19-4a.977.977 0 0 1 .41 0l19 4A1 1 0 0 1 65 21v5.007l9.008.079a1 1 0 0 1 .992 1v13.045l16.496-.004a.996.996 0 0 1 1.027 0l17.995.004a.996.996 0 0 1 .494.858v5.259L129 51.646V27a.998.998 0 0 1 1-1h9v-5a1 1 0 0 1 .795-.978l19-4a.977.977 0 0 1 .41 0l19 4A1 1 0 0 1 179 21v5.007l9.008.079a1 1 0 0 1 .992 1v47.907a.998.998 0 0 1-1 .999z"/>
    </g>
</svg>
