<svg xmlns="http://www.w3.org/2000/svg" width="204" height="92" viewBox="0 0 204 92">
    <g fill="none" fill-rule="nonzero">
        <ellipse cx="102.5" cy="73" fill="#E4E4E4" rx="32.5" ry="2"/>
        <path fill="#222" stroke="#222" d="M119.93 21.526a1.12 1.12 0 0 1-1.115-1.125c0-.621.5-1.124 1.114-1.124.614 0 1.112.503 1.112 1.124 0 .622-.498 1.125-1.112 1.125zm9-3.69h-13.823a.953.953 0 0 1-.636-.236.977.977 0 0 1-.29-1.036c.115-.362.175-.718.175-1.057 0-1.132-.642-2.18-1.159-2.842-.517.662-1.158 1.71-1.158 2.842 0 .391.078.803.231 1.224a.972.972 0 0 1-.606 1.284c-1.23.443-2.055 2.893-2.055 4.215v5.924c0 2.524-2.035 4.577-4.535 4.577l-.838.399c-3.975 1.76-11.613 5.673-13.483 6.634.411.089 2.62.561 3.706.561 4.16 0 7.741 2.532 9.324 6.146l8.564 6.981a11.972 11.972 0 0 0 2.75-2.775h-2.504c-1.852 0-3.358-1.522-3.358-3.392v-6.487c0-1.869 1.506-3.391 3.358-3.391 1.853 0 3.36 1.522 3.36 3.391v3.095h1.341c.001-.062.004-.124.004-.187V33.029c0-2.984 2.328-6.7 5.246-6.853a.917.917 0 0 1 .2-.038 8.139 8.139 0 0 0 5.331-2.625c1.405-1.531 2.177-2.252 2.178-4.341 0-.737-.594-1.336-1.324-1.336zM86.193 49.345c0 4.601 3.708 8.345 8.265 8.345 2.98 0 5.401 2.446 5.401 5.452v5.428c0 .41.331.744.738.744h8.556a.081.081 0 0 0 .081-.08c0-1.483-1.197-2.689-2.665-2.689h-2.88a.97.97 0 0 1-.964-.974V50.616a8.383 8.383 0 0 0-.627-3.181l-.404-.324.212-.092c-1.334-2.805-4.166-4.748-7.448-4.748-4.557 0-8.265 2.472-8.265 7.074zm-2.799 16.59H74.81c-.924 0-1.674.758-1.674 1.69 0 .932.75 1.69 1.674 1.69h14.933c2.643 0 4.793-2.171 4.793-4.84v-4.837l-.076-.002c-1.803 0-3.499-.477-4.97-1.311v1.457c0 3.392-2.735 6.154-6.094 6.154zm21.258-8.258v6.92l1.37.001V57.66c-.212.01-.422.017-.634.017h-.736zm6.162-3.266l-6.237-4.991c.045.393.076.79.076 1.196v5.115h.735a11.8 11.8 0 0 0 5.426-1.32zm11.716-5.68c.79 0 1.664-.661 1.664-1.458 0-.797-.874-1.435-1.664-1.435h-7.54a.966.966 0 0 1-.965-.972v-4.068c0-.796-.644-1.445-1.433-1.445s-1.432.649-1.432 1.445v6.487a1.44 1.44 0 0 0 1.432 1.446h9.938zm-11.374 20.583h1.293a.08.08 0 0 0 .08-.08c0-1.32-.949-2.419-2.193-2.645.52.75.824 1.662.824 2.645 0 .027-.003.054-.004.08zm18.333-44.478a10.053 10.053 0 0 1-6.309 3.213.984.984 0 0 1-.346.065c-1.989 0-3.608 2.906-3.608 4.915v10.677c0 .062-.003.125-.004.187h4.062c1.854 0 2.361 1.522 2.361 3.392 0 1.87-.507 3.392-2.36 3.392h-5.904c-2.039 3.574-5.49 6.014-9.432 6.758v7.163h1.916c2.532 0 4.59 2.08 4.59 4.636a2.017 2.017 0 0 1-2.006 2.026h-11.852c-1.47 0-2.665-1.206-2.665-2.69v-5.428c0-1.18-.582-2.226-1.47-2.861v4.195c0 3.741-3.015 6.785-6.72 6.785H74.808c-1.985 0-3.602-1.632-3.602-3.636 0-2.004 1.617-3.635 3.602-3.635h8.585c2.298 0 4.168-1.888 4.168-4.208v-2.868a10.307 10.307 0 0 1-3.295-7.569c0-3.224 1.03-6.847 3.78-7.993 2.937-4.618 8.61-6.683 12.377-8.222l4.65-2.344c1.436 0 2.606-1.181 2.606-2.632V22.23c0-1.844.99-4.79 2.538-5.678a5.279 5.279 0 0 1-.106-1.045c0-2.768 2.341-4.919 2.442-5.009a.954.954 0 0 1 1.284 0c.101.09 2.445 2.241 2.445 5.009 0 .128-.005.255-.015.382h12.661c1.793 0 3.252 1.473 3.252 3.283 0 2.58-.956 3.772-2.69 5.664z"/>
    </g>
</svg>
