<svg xmlns="http://www.w3.org/2000/svg" width="204" height="92" viewBox="0 0 204 92">
    <g fill="none" fill-rule="nonzero">
        <ellipse cx="102.5" cy="72" fill="#E4E4E4" rx="22.5" ry="2"/>
        <path fill="#222" stroke="#222" d="M125 25.963a.98.98 0 0 1-.387.078h-7.48c1.467 4.114 2.347 8.887 2.45 14h9.979c-.191-5.195-1.827-10.029-4.562-14.078zm-14.73-10.776c2.42 2.093 4.502 5.14 6.086 8.854h7.207a26.972 26.972 0 0 0-13.292-8.854zm-28.607 8.854h7.207c1.584-3.715 3.666-6.76 6.085-8.854a26.972 26.972 0 0 0-13.292 8.854zm-1.436 1.922c-2.736 4.05-4.372 8.883-4.563 14.078h9.98c.102-5.113.982-9.886 2.448-14h-7.48a.975.975 0 0 1-.385-.078zM78.96 54.041h8.477c-1.074-3.634-1.71-7.695-1.794-12h-9.98c.16 4.335 1.32 8.417 3.297 12zm16.002 12.862c-2.844-2.459-5.222-6.235-6.871-10.862h-7.914a27.03 27.03 0 0 0 14.785 10.862zm30.085-10.862h-7.914c-1.65 4.627-4.027 8.403-6.871 10.862a27.03 27.03 0 0 0 14.785-10.862zm-21.435-14v12h12.14c1.099-3.583 1.743-7.665 1.832-12h-13.972zm0-16v14h13.972c-.106-5.164-1.006-9.968-2.508-14h-11.464zm0-11.909v9.91h10.639c-2.555-5.656-6.354-9.396-10.64-9.91zm-2 25.91v-14H90.149c-1.502 4.031-2.402 8.835-2.508 14h13.972zm0 14v-12H87.64c.089 4.334.734 8.416 1.832 12h12.14zm0 13.908V56.041H90.149c2.519 6.761 6.69 11.338 11.464 11.91zm13.464-11.909h-11.464v11.91c4.773-.572 8.945-5.15 11.464-11.91zm-24.103-32h10.639v-9.909c-4.285.514-8.084 4.254-10.64 9.91zm38.588 18h-9.98c-.085 4.305-.72 8.366-1.794 12h8.476c1.978-3.583 3.139-7.665 3.298-12zm-26.95 28c-15.99 0-29-13.01-29-29 0-15.989 13.01-29 29-29 15.992 0 29 13.011 29 29 0 15.99-13.008 29-29 29z"/>
    </g>
</svg>
