<svg xmlns="http://www.w3.org/2000/svg" width="204" height="92" viewBox="0 0 204 92">
    <g fill="none" fill-rule="nonzero">
        <ellipse cx="102.5" cy="84" fill="#E4E4E4" rx="32.5" ry="2"/>
        <path fill="#222" stroke="#222" d="M115.327 80.448h1.06c1.695 0 3.411-.823 3.411-2.397 0-1.591-1.148-2.397-3.41-2.397a.825.825 0 0 1-.73-.445.856.856 0 0 1 .041-.866c.02-.03 1.98-3.198 1.98-9.252 0-1.49-.373-2.781-1.105-3.841a.854.854 0 0 1 .2-1.175.817.817 0 0 1 1.151.205c.934 1.35 1.408 2.969 1.408 4.81 0 4.133-.828 7.012-1.522 8.699l-.11.269.28.056c2.238.443 3.471 1.84 3.471 3.937 0 2.365-2.13 4.083-5.065 4.083h-1.06a.837.837 0 0 1-.827-.843c0-.465.371-.843.827-.843zm-19.066-6.42l.212-.024-.007-.218a67.366 67.366 0 0 0-.509-6.41.846.846 0 0 1 .711-.948.834.834 0 0 1 .928.726c.351 2.692.48 5.066.524 6.584l.007.23h.246c.456 0 .827.377.827.843a.836.836 0 0 1-.827.843h-1.06c-2.264 0-3.41.806-3.41 2.397 0 1.574 1.715 2.397 3.41 2.397h1.06c1.881 0 3.412-1.561 3.412-3.477v-8.64c0-.465.371-.843.826-.843.456 0 .827.378.827.843v8.64c0 1.916 1.531 3.477 3.412 3.477h1.06c1.695 0 3.411-.823 3.411-2.397 0-1.591-1.148-2.397-3.412-2.397h-1.059a.836.836 0 0 1-.827-.843c0-.466.371-.843.827-.843h.246l.007-.23c.036-1.245.154-3.757.524-6.596a.835.835 0 0 1 .927-.725.815.815 0 0 1 .548.323.85.85 0 0 1 .163.623 67.729 67.729 0 0 0-.508 6.422l-.007.218.212.025c2.55.306 4.013 1.773 4.013 4.023 0 2.366-2.13 4.083-5.066 4.083h-1.06c-1.606 0-3.084-.754-4.05-2.07l-.188-.251-.186.252c-.969 1.315-2.446 2.069-4.052 2.069h-1.06c-2.935 0-5.065-1.717-5.065-4.083 0-2.25 1.463-3.717 4.013-4.022zM73.177 54.068c.012-.151.063-.396.227-.688.071-.125.202-.326.407-.514v.33c-.012.507-.215.789-.634.872zm1.1-2.07l-.347.199c-.51.292-.8.719-.93.947-.335.594-.335 1.122-.228 1.307l.071.123.14-.006c.815-.037 1.274-.521 1.294-1.363v-1.206zm6.895 1.364c-.703 3.943-.276 7.032 1.272 9.178a7.041 7.041 0 0 0 3.152 2.439l.306.12.01-.334c.055-1.73.523-3.24 1.39-4.492a.811.811 0 0 1 1.152-.201.832.832 0 0 1 .338.545.843.843 0 0 1-.14.628c-.735 1.063-1.108 2.357-1.108 3.847 0 3.142.531 5.476.976 6.879.492 1.554.984 2.343 1.006 2.375a.857.857 0 0 1 .036.864.824.824 0 0 1-.726.445c-2.264 0-3.41.806-3.41 2.397 0 1.574 1.714 2.397 3.41 2.397h1.06c.456 0 .827.378.827.843a.837.837 0 0 1-.827.843h-1.06c-2.935 0-5.065-1.718-5.065-4.083 0-2.096 1.233-3.494 3.47-3.937l.281-.056-.11-.27c-.543-1.32-1.235-3.563-1.45-6.754l-.01-.166-.159-.046c-1.09-.312-3.149-1.156-4.683-3.284-1.827-2.536-2.353-6.061-1.565-10.478.331-1.851-.532-2.766-1.45-3.006a1.935 1.935 0 0 0-.482-.061c-.649 0-1.328.334-1.665 1.16l-.018.044v2.013c0 1.207-.784 3.003-2.946 3.003-.599 0-1.12-.235-1.469-.663-.3-.37-.46-.861-.46-1.421 0-2.028 1.748-3.584 3.368-3.863l.112-.02.054-.102c.877-1.666 2.6-2.065 3.917-1.722 1.633.426 3.164 2.154 2.666 4.939zm14.485-24.304a.83.83 0 0 0-.82.837.83.83 0 0 0 .82.837.83.83 0 0 0 .822-.837.83.83 0 0 0-.822-.837zm1.644 3.349a.809.809 0 0 1-.586-.252 2.404 2.404 0 0 1-1.058.252c-1.359 0-2.464-1.127-2.464-2.512 0-.111.018-.218.032-.325-1.194.37-2.41.845-3.002 1.097a.818.818 0 0 1-1.074-.448.842.842 0 0 1 .44-1.096c.417-.178 4.13-1.74 6.068-1.74 1.358 0 2.465 1.127 2.465 2.512v1.675a.828.828 0 0 1-.82.837zm11.502-1.675a.83.83 0 0 0 .821-.837.83.83 0 0 0-.82-.837.83.83 0 0 0-.823.837.83.83 0 0 0 .822.837zm2.465-.837c0 1.385-1.106 2.512-2.465 2.512-.38 0-.736-.095-1.058-.252a.809.809 0 0 1-.586.252.828.828 0 0 1-.82-.837v-1.675c0-1.385 1.105-2.512 2.464-2.512 1.938 0 5.651 1.562 6.07 1.74a.843.843 0 0 1 .438 1.096.818.818 0 0 1-1.075.448 34.677 34.677 0 0 0-3-1.097c.013.107.032.214.032.325zm-9.038-9.211c-11.098 0-14.818 7.437-15.52 9.132l4.384 7.445 4.303-1.461a.807.807 0 0 1 .881.246c.217.255.263.62.114.922l-3.089 6.297 3.462 6.13 4.643-1.857V44.36l-2.93-2.054a.846.846 0 0 1 .098-1.44l3.287-1.674a.811.811 0 0 1 .734 0l3.287 1.675a.846.846 0 0 1 .098 1.439l-2.93 2.054v3.176l4.642 1.858 3.463-6.131-3.089-6.297a.85.85 0 0 1 .13-.941.814.814 0 0 1 .91-.21l3.458 1.409 4.385-7.448c-.529-1.67-3.512-9.094-14.72-9.094zm1.674 21.049l-1.674-.853-1.674.853 1.674 1.172 1.674-1.172zm-5.382 10.77h7.416l.927-1.64-4.635-1.855-4.635 1.856.927 1.64zM113.615 38.7a.818.818 0 0 1-1.009.347l-2.102-.857 2.32 4.729a.853.853 0 0 1-.022.792l-5.676 10.049a.822.822 0 0 1-.713.418h-8.366a.822.822 0 0 1-.713-.418l-5.676-10.05a.853.853 0 0 1-.022-.791l2.4-4.891-3.048 1.035a.812.812 0 0 1-.965-.363l-4.929-8.374a.856.856 0 0 1-.077-.692c.035-.106 3.573-10.625 17.213-10.625 13.688 0 16.382 10.58 16.408 10.687a.86.86 0 0 1-.093.63l-4.93 8.374zm-4.066-26.39c-3.595 0-4.795.276-7.072 1.008a.817.817 0 0 1-.494 0c-2.277-.732-3.477-1.008-7.072-1.008-2.446 0-14.864 3.129-14.864 18.004 0 12.553 3.05 20.099 4.93 23.56v-2.207c0-.35.212-.661.532-.784a.81.81 0 0 1 .907.233l5.084 5.92 1.856-2.521a.817.817 0 0 1 .658-.337c.145 0 .291.04.422.12l7.794 4.767 7.794-4.766a.81.81 0 0 1 1.08.216l1.856 2.522 5.084-5.921a.808.808 0 0 1 .907-.233c.32.123.532.435.532.784v2.19c1.881-3.477 4.93-11.043 4.93-23.543 0-14.684-12.553-18.004-14.864-18.004zm9.735 44.927a.81.81 0 0 1-.908.24.838.838 0 0 1-.536-.786v-2.796l-4.312 5.022a.801.801 0 0 1-.648.286.82.82 0 0 1-.627-.335l-2.02-2.745-7.58 4.636a.812.812 0 0 1-.845 0l-7.58-4.636-2.02 2.745a.82.82 0 0 1-.628.335.786.786 0 0 1-.649-.286l-4.31-5.022v2.796a.838.838 0 0 1-.537.786.811.811 0 0 1-.908-.24c-.278-.328-6.772-8.248-6.772-26.923 0-15.015 12.1-19.68 16.507-19.68 3.675 0 5.068.294 7.32 1.008 2.25-.714 3.643-1.007 7.318-1.007 4.231 0 16.507 4.844 16.507 19.679 0 18.675-6.494 26.595-6.772 26.923z"/>
    </g>
</svg>
