<svg xmlns="http://www.w3.org/2000/svg" width="204" height="92" viewBox="0 0 204 92">
    <g fill="none" fill-rule="nonzero" transform="translate(62 15)">
        <ellipse cx="28.5" cy="61" fill="#E4E4E4" rx="28.5" ry="2"/>
        <path fill="#222" stroke="#222" d="M13.974 16h4v-6h-4v6zm5 2h-6a1 1 0 0 1-1-1V9c0-.553.446-1 1-1h6a1 1 0 0 1 1 1v8a1 1 0 0 1-1 1zm-5 14h4v-6h-4v6zm5 2h-6a1 1 0 0 1-1-1v-8c0-.553.446-1 1-1h6a1 1 0 0 1 1 1v8a1 1 0 0 1-1 1zm-5 14h4v-6h-4v6zm5 2h-6a1 1 0 0 1-1-1v-8c0-.553.446-1 1-1h6a1 1 0 0 1 1 1v8a1 1 0 0 1-1 1zm7-34h4v-6h-4v6zm5 2h-6a1 1 0 0 1-1-1V9c0-.553.446-1 1-1h6a1 1 0 0 1 1 1v8a1 1 0 0 1-1 1zm-5 14h4v-6h-4v6zm5 2h-6a1 1 0 0 1-1-1v-8c0-.553.446-1 1-1h6a1 1 0 0 1 1 1v8a1 1 0 0 1-1 1zm7 14h4v-6h-4v6zm-1-8h6a1 1 0 0 1 1 1v8a1 1 0 0 1-1 1h-6a1 1 0 0 1-1-1v-8c0-.553.446-1 1-1zm1-8h4v-6h-4v6zm-1-8h6a1 1 0 0 1 1 1v8a1 1 0 0 1-1 1h-6a1 1 0 0 1-1-1v-8c0-.553.446-1 1-1zm1-8h4v-6h-4v6zm-1-8h6a1 1 0 0 1 1 1v8a1 1 0 0 1-1 1h-6a1 1 0 0 1-1-1V9c0-.553.446-1 1-1zm9-2.479c0-.84-.674-1.521-1.5-1.521h-3.5a1 1 0 0 1-1-1V2h-24v1a1 1 0 0 1-1 1h-3.5c-.827 0-1.5.681-1.5 1.521V58h12V41c0-.553.446-1 1-1h10a1 1 0 0 1 1 1v17h12V5.521zm5 54.479h-18a1 1 0 0 1-1-1V42h-8v17a1 1 0 0 1-1 1h-18a1 1 0 1 1 0-2h3V5.521C7.974 3.58 9.544 2 11.474 2h2.5V1c0-.553.446-1 1-1h26a1 1 0 0 1 1 1v1h2.5c1.93 0 3.5 1.58 3.5 3.521V58h3a1 1 0 1 1 0 2zM81.419 55.659a7.038 7.038 0 0 1-5.98 3.27c-2.547 0-4.758-1.321-5.98-3.27a7.038 7.038 0 0 1-5.98 3.27 1.008 1.008 0 0 1-1.007-1.008c0-.56.45-1.01 1.008-1.01 2.74 0 4.972-2.085 4.972-4.648a1.008 1.008 0 1 1 2.016 0c0 2.563 2.228 4.648 4.97 4.648 2.742 0 4.972-2.085 4.972-4.648a1.009 1.009 0 1 1 2.017 0c0 2.563 2.228 4.648 4.97 4.648 2.742 0 4.973-2.085 4.973-4.648a1.008 1.008 0 1 1 2.016 0c0 2.563 2.23 4.648 4.972 4.648.557 0 1.007.45 1.007 1.01 0 .558-.45 1.009-1.007 1.009-2.548 0-4.76-1.322-5.98-3.271a7.039 7.039 0 0 1-5.981 3.27 7.035 7.035 0 0 1-5.978-3.27z"/>
    </g>
</svg>
