<svg xmlns="http://www.w3.org/2000/svg" width="204" height="92" viewBox="0 0 204 92">
    <g fill="none" fill-rule="nonzero">
        <g transform="translate(52 59)">
            <ellipse cx="38.5" cy="10" fill="#E4E4E4" rx="38.5" ry="2"/>
            <path fill="#222" stroke="#222" d="M91.419 4.659a7.038 7.038 0 0 1-5.98 3.27c-2.547 0-4.758-1.321-5.98-3.27a7.038 7.038 0 0 1-5.98 3.27 1.008 1.008 0 0 1-1.007-1.008c0-.56.45-1.01 1.008-1.01 2.74 0 4.972-2.085 4.972-4.648a1.008 1.008 0 1 1 2.016 0c0 2.563 2.228 4.648 4.97 4.648 2.742 0 4.972-2.085 4.972-4.648a1.009 1.009 0 1 1 2.017 0c0 2.563 2.228 4.648 4.97 4.648 2.742 0 4.973-2.085 4.973-4.648a1.008 1.008 0 1 1 2.016 0c0 2.563 2.23 4.648 4.972 4.648.557 0 1.007.45 1.007 1.01 0 .558-.45 1.009-1.007 1.009-2.548 0-4.76-1.322-5.98-3.271a7.039 7.039 0 0 1-5.981 3.27 7.035 7.035 0 0 1-5.978-3.27z"/>
        </g>
        <path fill="#222" stroke="#222" d="M117.78 65.908V49.94H98.855a.978.978 0 0 1-.394-.082c-.02-.008-.035-.027-.055-.037a1.023 1.023 0 0 1-.272-.195c-.005-.007-.014-.009-.02-.015L80.926 30.475l-7.043 7.842a.992.992 0 0 1-.47.522l-9.421 10.488v16.581h9.961v-2.994c0-3.853 3.128-6.986 6.973-6.986 3.844 0 6.972 3.133 6.972 6.986v2.994h9.961V54.929c0-.55.445-.997.996-.997h15.937c.55 0 .996.447.996.997v10.979h1.992zM99.852 59.92h13.944v-3.992H99.852v3.992zm0 5.988h13.944v-3.992H99.852v3.992zm-13.946 0v-2.994a4.99 4.99 0 0 0-4.98-4.989 4.989 4.989 0 0 0-4.981 4.989v2.994h9.961zM67.977 31.977v9.929l3.984-4.435v-5.494h-3.984zm44.132 1.996h-25.36l12.55 13.972h18.041l-5.231-13.972zm7.599 14.619c.02.053.016.108.026.162.013.063.038.122.038.188v17.964a.997.997 0 0 1-.996.998h-55.78a.997.997 0 0 1-.996-.998V48.942c0-.045.02-.084.026-.127.01-.078.017-.155.046-.23.025-.065.066-.117.104-.174.028-.045.042-.096.079-.137l3.756-4.182c-.006-.047-.027-.09-.027-.139V30.979c0-.551.445-.998.996-.998h5.977c.551 0 .996.447.996.998v4.274l6.231-6.938c.381-.42 1.101-.42 1.483 0l3.289 3.662h27.845c.413 0 .785.259.931.648l5.961 15.928.002.002.013.037zm-45.754 3.344h13.945V45.95H73.954v5.987zm14.94-7.983c.55 0 .997.446.997.998v7.983a.997.997 0 0 1-.996.998H72.957a.996.996 0 0 1-.996-.998v-7.983c0-.552.445-.998.996-.998h15.938z"/>
    </g>
</svg>
