<svg xmlns="http://www.w3.org/2000/svg" width="204" height="92" viewBox="0 0 204 92">
    <g fill="none" fill-rule="nonzero">
        <ellipse cx="102.5" cy="72.5" fill="#E4E4E4" rx="35.5" ry="3.5"/>
        <path fill="#222" stroke="#222" d="M100.464 69.23h2.785V52.584h-2.785v16.648zM99.072 49.81h5.57c.769 0 1.392.619 1.392 1.386v19.422a1.39 1.39 0 0 1-1.392 1.388h-5.57a1.39 1.39 0 0 1-1.394-1.388V51.195c0-.767.623-1.386 1.394-1.386zM86.537 69.23h2.786v-8.323h-2.786v8.323zm-1.39-11.098h5.569c.77 0 1.392.62 1.392 1.386v11.098c0 .767-.622 1.388-1.392 1.388h-5.57c-.771 0-1.392-.62-1.392-1.388V59.519c0-.766.62-1.386 1.392-1.386zM72.607 69.231h2.787v-5.548h-2.787v5.548zm-1.39-8.323h5.569c.77 0 1.392.62 1.392 1.387v8.322c0 .767-.622 1.388-1.392 1.388h-5.57c-.77 0-1.392-.62-1.392-1.388v-8.322c0-.767.621-1.387 1.392-1.387zm10.258-37.72c1.173.341 4.823 1.404 4.823 4.676 0 2.174-1.636 3.993-3.846 4.55v.633a1.39 1.39 0 0 1-1.393 1.387 1.39 1.39 0 0 1-1.393-1.387v-.627c-1.35-.318-2.807-1.037-3.883-1.97a1.384 1.384 0 0 1-.136-1.958 1.397 1.397 0 0 1 1.963-.135c.952.826 2.466 1.473 3.449 1.473 1.351 0 2.453-.88 2.453-1.966 0-.326 0-1.191-2.844-2.02-1.47-.457-4.85-1.511-4.85-4.684 0-2.175 1.635-3.993 3.848-4.55v-.634a1.39 1.39 0 0 1 1.393-1.388c.77 0 1.393.621 1.393 1.388v.622c1.287.323 2.418 1.08 3.114 2.14.421.64.242 1.5-.4 1.921a1.399 1.399 0 0 1-1.928-.402c-.432-.655-1.268-1.061-2.179-1.061-1.355 0-2.457.88-2.457 1.964 0 .588.35 1.24 2.873 2.028zm-.341-9.302c-6.016 0-10.908 4.873-10.908 10.865 0 5.993 4.892 10.867 10.908 10.867 6.012 0 10.903-4.874 10.903-10.867 0-5.992-4.891-10.865-10.903-10.865zm0 24.507c-7.552 0-13.693-6.119-13.693-13.642 0-7.522 6.141-13.641 13.693-13.641 7.546 0 13.687 6.12 13.687 13.64 0 7.524-6.141 13.643-13.687 13.643zm34.949-20.713l-4.67-4.62v3.363c0 34.404-37.776 35.962-38.157 35.974h-.043a1.391 1.391 0 0 1-1.393-1.344 1.39 1.39 0 0 1 1.349-1.43c1.447-.046 35.46-1.5 35.46-33.2v-3.361l-4.668 4.618a1.4 1.4 0 0 1-1.97-.006 1.384 1.384 0 0 1 .006-1.964l7.042-6.967c.032-.032.076-.044.11-.073.105-.086.213-.171.34-.223a1.41 1.41 0 0 1 1.062 0c.129.052.235.137.341.223.033.029.078.041.11.073l7.045 6.967c.543.542.549 1.418.005 1.962a1.395 1.395 0 0 1-1.97.008zm-1.694 51.55h2.785V38.706h-2.785V69.23zm4.177 2.775h-5.57c-.77 0-1.392-.62-1.392-1.388V37.319c0-.768.621-1.387 1.392-1.387h5.57c.77 0 1.393.62 1.393 1.387v33.298a1.39 1.39 0 0 1-1.393 1.388zm9.751-2.775h2.786V13.728h-2.786V69.23zm4.178 2.775h-5.57a1.39 1.39 0 0 1-1.393-1.388V12.342a1.39 1.39 0 0 1 1.393-1.388h5.57c.77 0 1.391.622 1.391 1.388v58.275c0 .767-.621 1.388-1.39 1.388z"/>
    </g>
</svg>
