<svg xmlns="http://www.w3.org/2000/svg" width="204" height="92" viewBox="0 0 204 92">
    <path fill="#222" fill-rule="nonzero" stroke="#222" d="M118.07 18.005a1 1 0 0 1 1 1v16a1 1 0 1 1-2 0v-16a1 1 0 0 1 1-1zm0 38a1 1 0 0 1 1 1v16a1 1 0 1 1-2 0v-16a1 1 0 0 1 1-1zm.352-6.063a1.003 1.003 0 0 1-1.289-.585 1.002 1.002 0 0 1 .584-1.288c.131-.052 1.353-.584 1.353-2.064 0-1.479-1.222-2.012-1.362-2.068a1.004 1.004 0 0 1-.565-1.29.988.988 0 0 1 1.28-.578c.106.04 2.647 1.026 2.647 3.936s-2.54 3.896-2.648 3.937zm-8.352-9.937c-7.979 0-18.147 1.75-24.432 3.25a1.004 1.004 0 0 1-.798-.148 1.004 1.004 0 0 1-.425-.692c-.349-2.607-.997-3.955-1.34-4.334-.393.455-1.12 2.23-1.388 5.748a1.004 1.004 0 0 1-.603.844c-1.879.805-2.013 1.332-2.013 1.332v.004c.001 0 .14.525 2.013 1.328.341.148.575.473.603.844.267 3.52.995 5.293 1.387 5.748.344-.379.992-1.727 1.341-4.334.037-.278.192-.53.425-.69.232-.159.521-.21.798-.15 6.285 1.5 16.453 3.25 24.432 3.25 15 0 15-4.516 15-6s0-6-15-6zm5-13c0-.683-.684-1.238-1.405-.904a1.001 1.001 0 0 1-1.408-.78l-.513-3.904a3.936 3.936 0 0 0-3.895-3.412 3.9 3.9 0 0 0-3.91 3.578l-2.78 16.97c3.063-.337 6.117-.548 8.911-.548 1.378 0 2.667.04 3.875.116l-1.194-9.05c-.04-.318.07-.635.3-.855.231-.219.552-.31.865-.262.032.006.184.041.216.051.49 0 .938-.449.938-1zm-11.142 43.346c.187 2.115 1.87 3.654 3.921 3.654a3.936 3.936 0 0 0 3.895-3.41l.513-3.906a1.004 1.004 0 0 1 1.408-.78c.717.33 1.404-.22 1.405-.904 0-.55-.448-1-1-1-.312.057-.712-.017-.94-.236-.232-.22-.42-.512-.379-.828l1.194-9.052a61.758 61.758 0 0 1-3.875.116c-2.794 0-5.848-.21-8.912-.547l2.77 16.893zm23.142-24.346c0 4.354-3.642 6.897-11.085 7.71l-1.107 8.401a3.006 3.006 0 0 1 2.192 2.89 3.002 3.002 0 0 1-2.969 3l-.375 2.848c-.384 2.936-2.91 5.151-5.877 5.151a5.889 5.889 0 0 1-5.903-5.406L99.09 53.213a139.5 139.5 0 0 1-12.864-2.267c-.41 2.25-1.295 5.06-3.156 5.06-2.27 0-3.056-4.189-3.326-7.079-1.277-.606-2.674-1.526-2.674-2.922 0-1.396 1.397-2.316 2.674-2.922.27-2.889 1.055-7.078 3.326-7.078 1.861 0 2.746 2.811 3.156 5.06a139.5 139.5 0 0 1 12.864-2.268l2.866-17.462c.258-3.006 2.795-5.33 5.893-5.33a5.94 5.94 0 0 1 5.877 5.152l.375 2.848a3.003 3.003 0 0 1 2.97 3c0 1.375-.93 2.535-2.193 2.89l1.107 8.4c7.443.814 11.085 3.356 11.085 7.71z"/>
</svg>
