<svg xmlns="http://www.w3.org/2000/svg" width="204" height="92" viewBox="0 0 204 92">
    <g fill="none" fill-rule="nonzero">
        <ellipse cx="102.5" cy="72.5" fill="#E4E4E4" rx="35.5" ry="3.5"/>
        <path fill="#222" stroke="#222" d="M113.62 71.81l-4.256-6.208 11.817-8.21h.002s.003-.004.005-.004l1.626-1.13 4.252 6.212-13.446 9.34zM98.684 39.74c-.323-1.019-.67-2.104-1.034-3.228-.003-.004-.003-.01-.004-.016a444.48 444.48 0 0 0-.449-1.383c-.228-.698-.13-1.298.298-1.782.483-.547 1.319-.818 2.006-.682.613.128 1.043.557 1.285 1.287l3.467 10.139c.111.33.349.601.656.758 2.703 1.383 4.768 1.44 6.132.173 1.937-1.803 1.348-5.582.148-8.516-.995-2.44-2.731-4.714-4.691-6.272l.011-5.632c4.24 2.19 11.901 7.531 11.825 17.552-.063 8.221.151 11.908.494 13.638l-8.577 5.958c-6.939-7.57-8.648-12.805-11.567-21.993zm5.085 19.592l-4.89.008c.393-1.713 1.512-3.24 3.099-4.188a40.443 40.443 0 0 0 1.79 2.807v1.373zm-26.645-4.994c2.6.487 4.665 2.479 5.213 5.025l-5.21.007-.003-5.032zm4.962-40.551a6.36 6.36 0 0 1-1.705 3.147c-.92.93-2.052 1.555-3.273 1.783l-.002-4.923 4.98-.007zm21.777 5.394a6.774 6.774 0 0 1-5.364-5.417l5.372-.009-.008 5.426zm2.627 14.714c.846.985 1.66 2.19 2.243 3.612 1.11 2.722 1.129 4.951.503 5.534-.301.283-1.157.316-2.65-.365l-.11-.324.014-8.457zm-18.089 4.464c-.533 1.05-1.013 1.249-1.459 1.249-.746 0-1.369-.514-1.737-1.249h3.196zm7.11-6.807c-.13.147-.213.318-.319.474a3.98 3.98 0 0 0-1.435-.267c-2.634 0-3.826 2.378-4.373 3.926h-4.218c.192-.395.471-.727.813-.953a1.343 1.343 0 0 0 .382-1.853 1.323 1.323 0 0 0-1.835-.387c-1.08.71-1.847 1.871-2.163 3.193h-.381c-.735 0-1.328.598-1.328 1.337s.593 1.337 1.328 1.337h.398c.535 2.253 2.37 3.927 4.562 3.927 2.593 0 3.763-2.286 4.358-3.927h4.155c.242.757.474 1.49.699 2.198 1.51 4.752 2.726 8.568 4.545 12.244-2.432 1.425-4.117 3.847-4.54 6.542l-11.157.016c-.605-4.014-3.82-7.154-7.879-7.697l-.013-30.288a8.809 8.809 0 0 0 5.156-2.551 9.018 9.018 0 0 0 2.498-5.04l11.08-.017c.59 4.166 3.864 7.48 8.013 8.093l-.025 12.767-.527-1.546c-.533-1.618-1.722-2.731-3.266-3.052-1.633-.343-3.408.26-4.528 1.524zm-.89 4.133h-2.35c.64-1.25 1.224-1.25 1.486-1.25.243 0 .465.077.683.197.016.347.084.698.18 1.053zm35.386 26.367l-5.761-8.413a1.321 1.321 0 0 0-1.847-.343l-1.136.789c-.16-1.657-.324-5.046-.272-11.924.096-12.524-10.192-18.575-14.477-20.55l.018-9.193c0-.356-.14-.696-.39-.948a1.318 1.318 0 0 0-.94-.392l-21.679.03-.002-.002-.002.002-7.745.012c-.73.001-1.326.6-1.326 1.336l.022 48.253c0 .356.14.698.39.948.248.25.585.39.938.39h.002l8.01-.01h.005l21.285-.029a1.32 1.32 0 0 0 1.173-.747c.536.647 1.164 1.328 1.775 2.001l-1.287.896c-.288.2-.488.51-.554.86a1.35 1.35 0 0 0 .216 1.002l5.764 8.413a1.323 1.323 0 0 0 1.847.341l15.637-10.861c.6-.42.754-1.254.336-1.861z"/>
    </g>
</svg>
