<svg xmlns="http://www.w3.org/2000/svg" width="204" height="92" viewBox="0 0 204 92">
    <g fill="none" fill-rule="nonzero">
        <path fill="#222" stroke="#222" d="M121.72 29.957a.905.905 0 0 1-1.054-.704l-.897-4.488c-.51-1.771-2.691-1.97-3.606-1.97h-6.28c-1.081 0-2.725.631-3.267.838l-22.774 8.136h4.51c2.32 0 4.67 1.863 5.348 4.242a.898.898 0 0 1-.615 1.109.9.9 0 0 1-1.11-.616c-.462-1.621-2.088-2.94-3.623-2.94h-6.278c-1.603 0-2.291.516-2.728 2.041l-3.283 12.32h.627a.896.896 0 1 1 0 1.794h-1.795a.871.871 0 0 1-.217-.027c-.037-.008-.063-.033-.1-.047a.826.826 0 0 1-.326-.22c-.02-.022-.05-.032-.068-.056-.01-.013-.01-.028-.018-.041a.893.893 0 0 1-.116-.255c-.01-.032-.027-.06-.034-.093a.87.87 0 0 1 .01-.376l.003-.013v-.006l3.585-14.34c.439-1.552 1.527-2.656 3.24-3.313l25.139-8.982c1.052-.404 2.624-.95 3.89-.95h6.28c2.75 0 4.75 1.249 5.348 3.344l.914 4.556a.896.896 0 0 1-.704 1.057zm-7.684-5.303a.895.895 0 0 1 1.165.501.896.896 0 0 1-.5 1.166l-17.942 7.18a.897.897 0 0 1-.665-1.667l17.942-7.18zm9.685 16.303a.903.903 0 0 1-1.054-.704l-.898-4.487c-.51-1.773-2.691-1.972-3.606-1.972h-6.28c-1.081 0-2.725.632-3.267.838L85.842 42.77h4.51c2.32 0 4.67 1.862 5.348 4.241a.899.899 0 0 1-.615 1.11.9.9 0 0 1-1.11-.617c-.462-1.621-2.088-2.94-3.623-2.94h-6.278c-1.603 0-2.291.516-2.728 2.041l-3.284 12.32h.628a.896.896 0 1 1 0 1.795h-1.795a.831.831 0 0 1-.217-.029c-.036-.008-.062-.032-.097-.046a.856.856 0 0 1-.327-.218c-.02-.023-.051-.033-.07-.058-.01-.013-.01-.029-.02-.041a.925.925 0 0 1-.115-.256c-.01-.032-.026-.059-.033-.092a.886.886 0 0 1 .009-.376l.004-.013v-.005l3.585-14.341c.439-1.552 1.527-2.656 3.24-3.313l25.139-8.982c1.052-.404 2.624-.95 3.89-.95h6.28c2.75 0 4.75 1.25 5.348 3.344l.914 4.557a.895.895 0 0 1-.704 1.056zm-7.685-5.304a.897.897 0 1 1 .666 1.668l-17.943 7.18a.899.899 0 0 1-.665-1.668l17.942-7.18zm-14.021 19.682a.898.898 0 0 1-.283-1.749l16.147-5.385a.9.9 0 0 1 1.136.568.898.898 0 0 1-.567 1.134l-16.15 5.385a.876.876 0 0 1-.283.047zm22.463-7.831c-.463-1.621-2.09-2.94-3.624-2.94h-6.28c-1.081 0-2.726.632-3.267.837L90.603 53.54h3.339c2.418 0 3.788 1.03 4.449 3.344l4.175 12.521 25.278-10.114-3.366-11.787zM85.91 55.409c-1.006.452-1.618 1.074-1.873 1.964l-.001.003-3.693 12.319h20.427l-4.093-12.281c-.446-1.564-1.136-2.079-2.736-2.079h-7.18c-.32 0-.597.028-.851.074zm43.35 5.246l-26.914 10.77a.846.846 0 0 1-.282.052c-.018.001-.032.012-.05.012H79.138c-.063 0-.118-.029-.18-.042a.895.895 0 0 1-1.12-1.139l4.487-13.463c.002-.01.008-.019.01-.03.52-1.766 1.478-2.765 3.013-3.119.07-.029.125-.069.198-.097l25.112-9.87c1.079-.414 2.65-.959 3.917-.959h6.279c2.32 0 4.67 1.862 5.348 4.241l3.588 12.565a.894.894 0 0 1-.53 1.079z"/>
        <ellipse cx="102.5" cy="76" fill="#E4E4E4" rx="15.5" ry="2"/>
    </g>
</svg>
