<svg xmlns="http://www.w3.org/2000/svg" width="204" height="92" viewBox="0 0 204 92">
    <g fill="none" fill-rule="nonzero">
        <path fill="#222" stroke="#222" d="M122.721 34.957a.903.903 0 0 1-1.054-.704l-.898-4.487c-.51-1.773-2.691-1.972-3.606-1.972h-6.28c-1.081 0-2.725.632-3.267.838l-22.774 8.137h4.51c2.32 0 4.67 1.863 5.348 4.242a.899.899 0 0 1-.615 1.11.9.9 0 0 1-1.109-.617c-.463-1.621-2.089-2.94-3.624-2.94h-6.278c-1.603 0-2.291.516-2.728 2.041l-3.284 12.32h.627a.896.896 0 1 1 0 1.795h-1.794a.831.831 0 0 1-.217-.029c-.036-.008-.062-.032-.097-.046a.856.856 0 0 1-.327-.218c-.021-.023-.051-.033-.07-.058-.009-.013-.01-.029-.019-.041a.925.925 0 0 1-.116-.256c-.009-.032-.027-.059-.033-.092a.902.902 0 0 1 .008-.376l.005-.013.001-.005 3.584-14.341c.439-1.552 1.527-2.656 3.241-3.313l25.138-8.982c1.052-.404 2.624-.95 3.89-.95h6.28c2.751 0 4.75 1.25 5.348 3.344l.914 4.557a.895.895 0 0 1-.704 1.056zm-7.685-5.304a.897.897 0 1 1 .666 1.668l-17.943 7.18a.899.899 0 0 1-.665-1.668l17.942-7.18zm-14.021 19.682a.899.899 0 0 1-.284-1.749l16.148-5.385a.897.897 0 1 1 .569 1.702l-16.149 5.385a.876.876 0 0 1-.284.047zm22.463-7.831c-.463-1.621-2.089-2.94-3.624-2.94h-6.279c-1.081 0-2.727.632-3.268.837L89.603 47.54h3.338c2.419 0 3.789 1.03 4.45 3.344l4.175 12.521 25.278-10.114-3.366-11.787zm-38.567 7.905c-1.006.452-1.618 1.074-1.872 1.964l-.001.003-3.694 12.319h20.427l-4.093-12.281c-.447-1.564-1.136-2.079-2.737-2.079h-7.178a4.71 4.71 0 0 0-.852.074zm43.35 5.246l-26.913 10.77a.857.857 0 0 1-.284.052c-.017.001-.031.012-.049.012H78.138c-.063 0-.118-.029-.179-.042a.897.897 0 0 1-1.121-1.139l4.487-13.463c.002-.01.008-.019.011-.03.519-1.766 1.477-2.765 3.013-3.119.07-.029.125-.069.197-.097l25.112-9.87c1.079-.414 2.65-.96 3.917-.96h6.279c2.32 0 4.67 1.863 5.348 4.242l3.588 12.565a.895.895 0 0 1-.529 1.079z"/>
        <ellipse cx="102.5" cy="70" fill="#E4E4E4" rx="15.5" ry="2"/>
    </g>
</svg>
