<svg xmlns="http://www.w3.org/2000/svg" width="204" height="92" viewBox="0 0 204 92">
    <g fill="none" fill-rule="nonzero">
        <ellipse cx="102.5" cy="70" fill="#E4E4E4" rx="15.5" ry="2"/>
        <path fill="#222" stroke="#222" d="M100.223 44.565a.898.898 0 0 1-.283-1.749l16.148-5.384a.897.897 0 0 1 .568 1.701l-16.15 5.386a.927.927 0 0 1-.283.046zm22.464-7.831c-.463-1.621-2.09-2.94-3.623-2.94h-6.28c-1.082 0-2.728.631-3.27.838L88.814 42.77h3.337c2.418 0 3.79 1.029 4.45 3.344l4.175 12.52 25.277-10.113-3.365-11.787zm-38.568 7.905c-1.004.451-1.616 1.073-1.871 1.961l-.002.007-3.694 12.317H98.98l-4.094-12.28c-.446-1.564-1.135-2.079-2.736-2.079h-7.178a4.64 4.64 0 0 0-.853.074zm43.35 5.246l-26.913 10.771a.873.873 0 0 1-.283.052c-.018.001-.031.011-.05.011H77.346c-.061 0-.117-.029-.178-.042a.87.87 0 0 1-.552-.005.896.896 0 0 1-.57-1.133l4.487-13.463c.003-.011.009-.02.012-.032.52-1.766 1.478-2.764 3.014-3.119.069-.028.124-.068.195-.095l25.114-9.87c1.077-.415 2.648-.96 3.916-.96h6.28c2.319 0 4.67 1.863 5.347 4.242l3.588 12.564a.896.896 0 0 1-.53 1.079z"/>
    </g>
</svg>
