<svg xmlns="http://www.w3.org/2000/svg" width="204" height="92" viewBox="0 0 204 92">
    <g fill="none" fill-rule="nonzero">
        <ellipse cx="102.5" cy="73.5" fill="#E4E4E4" rx="35.5" ry="3.5"/>
        <path fill="#222" stroke="#222" d="M98 39c0 .553-.446 1-1 1-.832 0-1.925-.6-3-1.461C92.925 39.4 91.832 40 91 40a1 1 0 1 1 0-2c.367 0 .928-.322 1.539-.8C91.118 35.718 90 34.004 90 33a1 1 0 1 1 2 0c.042.551.943 1.77 1.999 2.866 1.058-1.097 1.959-2.319 2.001-2.874.041-.535.504-.967 1.036-.957.538.019.964.428.964.965 0 1.004-1.118 2.718-2.539 4.2.612.478 1.172.8 1.539.8a1 1 0 0 1 1 1zm16 0c0 .553-.446 1-1 1-.832 0-1.925-.6-3-1.461-1.075.861-2.168 1.461-3 1.461a1 1 0 1 1 0-2c.367 0 .928-.322 1.539-.8C107.118 35.718 106 34.004 106 33a1 1 0 1 1 2 0c.042.551.943 1.77 1.999 2.866 1.058-1.097 1.959-2.319 2.001-2.874.041-.535.5-.967 1.036-.957.538.019.964.428.964.965 0 1.004-1.118 2.718-2.539 4.2.612.478 1.172.8 1.539.8a1 1 0 0 1 1 1zm11.667-1c-5.306 0-9.225 8.021-9.632 14h6.021c.346-3.146 2.272-5.334 3.611-5.334A4.336 4.336 0 0 0 130 42.334 4.337 4.337 0 0 0 125.667 38zM124 31.666c0-5.33-4.405-9.666-9.822-9.666H89.823C84.406 22 80 26.336 80 31.666v4.545c5.837 1.343 9.593 9.511 9.96 15.789h24.08c.368-6.278 4.123-14.446 9.96-15.789v-4.545zM74 42.334a4.337 4.337 0 0 0 4.333 4.332c1.339 0 3.266 2.188 3.612 5.334h6.02c-.406-5.979-4.325-14-9.632-14A4.338 4.338 0 0 0 74 42.334zM79 54c-1.653 0-3 1.346-3 3v2c0 1.654 1.347 3 3 3h46c1.654 0 3-1.346 3-3v-2c0-1.654-1.346-3-3-3H79zm3 14.334c0 .918.748 1.666 1.667 1.666h2.666c.919 0 1.667-.748 1.667-1.666V64h-6v4.334zm34 0c0 .918.748 1.666 1.667 1.666h2.666c.919 0 1.667-.748 1.667-1.666V64h-6v4.334zm9.667-19.668c-.206.114-1.313 1.244-1.598 3.334H125c2.757 0 5 2.243 5 5v2c0 2.758-2.243 5-5 5h-1v4.334A3.67 3.67 0 0 1 120.333 72h-2.666A3.672 3.672 0 0 1 114 68.334V64H90v4.334A3.67 3.67 0 0 1 86.333 72h-2.666A3.672 3.672 0 0 1 80 68.334V64h-1c-2.757 0-5-2.242-5-5v-2c0-2.757 2.243-5 5-5h.932c-.287-2.091-1.411-3.223-1.745-3.354l-.039.001c-3.328 0-6.148-2.835-6.148-6.313 0-3.378 2.665-6.123 6-6.301v-4.367C78 25.232 83.305 20 89.823 20h24.355C120.696 20 126 25.232 126 31.666v4.367c3.335.178 6 2.923 6 6.301a6.34 6.34 0 0 1-6.333 6.332z"/>
    </g>
</svg>
