<svg xmlns="http://www.w3.org/2000/svg" width="204" height="92" viewBox="0 0 204 92">
    <g fill="none" fill-rule="nonzero">
        <ellipse cx="102.5" cy="73.5" fill="#E4E4E4" rx="35.5" ry="3.5"/>
        <path fill="#222" stroke="#222" d="M89.925 57.718c1.695 0 3.075 1.421 3.075 3.168 0 1.848-1.084 3.09-2.7 3.09h-1.8a.9.9 0 0 1 0-1.799h1.8c.598 0 .9-.435.9-1.29 0-.757-.571-1.37-1.275-1.37H88.5a.9.9 0 0 1-.9-.9V54.08c0-.496.403-.898.9-.898h3.6a.898.898 0 1 1 0 1.8h-2.7v2.736h.525zm9.375 6.258a.9.9 0 0 1-.9-.9v-.899h-2.7a.9.9 0 0 1-.805-1.302l3.6-7.196a.899.899 0 1 1 1.61.804l-2.95 5.895H99.3c.498 0 .9.402.9.9v1.798a.9.9 0 0 1-.9.9zm0 3.597H88.5a.898.898 0 1 1 0-1.798h10.8a.899.899 0 1 1 0 1.798zm19.8-10.793h-12.6a.9.9 0 0 1 0-1.799h12.6a.9.9 0 1 1 0 1.8zm0 5.397h-12.6a.9.9 0 1 1 0-1.799h12.6a.9.9 0 1 1 0 1.8zm0 5.396h-12.6a.898.898 0 1 1 0-1.798h12.6a.9.9 0 1 1 0 1.798zm8.1-21.249l-1.444 1.46h1.444v-1.46zm0-3.937h-5.345a.879.879 0 0 1-.208.375l-4.909 5.021h6.487l3.975-4.016v-1.38zm-14.081 0l-5.357 5.396h6.46l5.275-5.396h-6.378zm-9.19 0a.895.895 0 0 1-.189.29l-5 5.106h6.483l5.357-5.396h-6.651zm-8.799 0l-5.176 5.396h6.268l5.284-5.396H95.13zm-9.33 0c0 2.32-1.479 4.285-3.539 5.047l-.017.35h5.262c.031-.047.05-.1.09-.142l5.04-5.255H85.8zm4.486-4.612l-4.798-3.335-4.663 1.702.215.215a.887.887 0 0 1 .246.708c1.624.271 2.987 1.281 3.774 2.663a.876.876 0 0 1 .369-.264l4.857-1.689zm8.997-3.128l-5.286-3.27c-.014-.009-.021-.022-.033-.03l-6.411 2.34 4.832 3.358 6.898-2.398zm2.184-.759l5.875-2.043-5.471-3.385-5.769 2.106 5.355 3.313c.004.002.006.006.01.01zm7.878-2.739l5.979-2.079-5.412-3.348c-.062-.038-.103-.093-.152-.143l-5.741 2.097 5.005 3.096a.87.87 0 0 1 .321.377zm8.132-2.828l5.646-1.962-5.749-3.558-5.513 2.012 5.511 3.41c.043.025.069.066.105.098zm4.651-7.256l-2.604.951 3.624 2.242-1.02-3.193zM76.8 42.387a3.605 3.605 0 0 0 3.6 3.6c1.985 0 3.6-1.617 3.6-3.6a3.605 3.605 0 0 0-3.6-3.599 3.605 3.605 0 0 0-3.6 3.6zM84 71.172h39.6V49.584H84v21.588zm44.1-21.588h-2.7v22.488a.9.9 0 0 1-.9.9H83.1a.9.9 0 0 1-.9-.9V49.584h-.9a.9.9 0 0 1-.898-.944l.041-.86c-.014 0-.028.003-.043.003a5.403 5.403 0 0 1-5.4-5.396c0-2.584 1.828-4.745 4.259-5.27l-.7-.708a.898.898 0 0 1 .331-1.476l38.094-13.906c.1-.06.208-.099.322-.118l5.084-1.855a.901.901 0 0 1 1.168.571l2.175 6.804a.904.904 0 0 1-.563 1.125L87.676 40.588H128.1a.9.9 0 0 1 .9.9v7.196a.9.9 0 0 1-.9.9z"/>
    </g>
</svg>
