<svg xmlns="http://www.w3.org/2000/svg" width="204" height="92" viewBox="0 0 204 92">
    <g fill="none" fill-rule="nonzero">
        <ellipse cx="102.5" cy="73.5" fill="#E4E4E4" rx="35.5" ry="3.5"/>
        <path fill="#222" stroke="#222" d="M84 30.767c-1.985 0-3.6 1.61-3.6 3.589 0 .413.074.818.216 1.203 1.9-1.55 4.87-1.55 6.77 0a3.49 3.49 0 0 0 .215-1.203A3.6 3.6 0 0 0 84 30.766zm3.58 7.179a.902.902 0 0 1-.718-.356c-1.383-1.828-4.337-1.83-5.722 0a.903.903 0 0 1-1.437 0 5.32 5.32 0 0 1-1.102-3.234c0-2.97 2.421-5.384 5.399-5.384 2.979 0 5.4 2.415 5.4 5.384a5.324 5.324 0 0 1-1.101 3.234.902.902 0 0 1-.719.356zm9.021 8.077v-1.795c0-.496.403-.897.899-.897.498 0 .9.4.9.897v1.795c0 3.463-2.827 6.282-6.299 6.282H88.5c-3.473 0-6.3-2.82-6.3-6.282v-1.795c0-.496.403-.897.901-.897s.899.4.899.897v1.795c0 2.474 2.019 4.487 4.5 4.487h3.601c2.48 0 4.5-2.013 4.5-4.487zm0-15.256A3.598 3.598 0 0 0 93 34.356c0 .413.073.818.217 1.203 1.898-1.55 4.87-1.55 6.767 0 .144-.385.216-.79.216-1.203a3.597 3.597 0 0 0-3.599-3.59zm3.58 7.179a.898.898 0 0 1-.718-.356c-1.387-1.828-4.339-1.83-5.724 0a.899.899 0 0 1-1.435 0 5.31 5.31 0 0 1-1.104-3.234c0-2.97 2.422-5.384 5.401-5.384 2.976 0 5.399 2.415 5.399 5.384a5.32 5.32 0 0 1-1.103 3.234.894.894 0 0 1-.716.356zm21.62 24.23v1.794a.9.9 0 0 1-1.801 0v-1.794c0-2.474-2.019-4.487-4.5-4.487h-3.6c-2.48 0-4.5 2.013-4.5 4.487v1.794a.9.9 0 0 1-1.799 0v-1.794c0-3.463 2.826-6.282 6.299-6.282h3.6c3.474 0 6.301 2.819 6.301 6.282zm1.585-18.253c-1.9 1.55-4.871 1.55-6.77 0a3.464 3.464 0 0 0-.216 1.203 3.6 3.6 0 0 0 3.6 3.589 3.6 3.6 0 0 0 3.601-3.59c0-.413-.074-.817-.215-1.202zM120 50.51c-2.978 0-5.399-2.416-5.399-5.384 0-1.164.381-2.282 1.102-3.235a.903.903 0 0 1 1.437.002c1.385 1.829 4.338 1.827 5.722 0a.904.904 0 0 1 1.437-.002 5.325 5.325 0 0 1 1.101 3.235c0 2.968-2.421 5.384-5.4 5.384zm5.404-12.501a2.009 2.009 0 0 0-1.039-1.596 2.038 2.038 0 0 0-1.912-.045c-2.191 1.077-4.973 1.578-8.753 1.578-3.148 0-6.315-.582-8.674-1.567l.571 5.969c0 .147-.021.288-.025.434 1.546.933 3.601.55 4.691-.89a.898.898 0 0 1 1.434-.002 5.315 5.315 0 0 1 1.104 3.236c0 2.968-2.423 5.384-5.401 5.384a5.394 5.394 0 0 1-3.405-1.223 14.973 14.973 0 0 1-3.963 4.992.863.863 0 0 1 .168.493v1.122c0 7.059 4.712 14.358 12.601 14.358h.899c7.319 0 13.5-6.575 13.5-14.358l-1.796-17.885zm-20.665 9.526A3.597 3.597 0 0 0 111 45.126c0-.414-.072-.818-.216-1.203-1.47 1.198-3.593 1.538-5.368.814-.031.219-.084.432-.125.648-.041.212-.073.427-.122.636a15.115 15.115 0 0 1-.43 1.514zm-2.734-23.888a2.019 2.019 0 0 0-1.038-1.593 2.04 2.04 0 0 0-1.913-.046c-2.193 1.078-4.974 1.58-8.753 1.58-3.817 0-6.599-.494-8.752-1.553a2.029 2.029 0 0 0-1.912.045 2.015 2.015 0 0 0-1.04 1.593l-1.801 19.07c.005 7.46 5.808 13.15 13.505 13.15 5.819 0 10.658-3.501 12.591-8.547.496-1.303.791-2.692.87-4.131l.001-.003c.013-.26.038-.515.038-.778l-1.796-18.787zm11.695 48.4h-.899c-8.074 0-14.401-7.094-14.401-16.153v-.474a15.395 15.395 0 0 1-8.099 2.269C81.721 57.689 75 51.086 75 42.657l1.805-19.153a3.836 3.836 0 0 1 1.955-2.991 3.864 3.864 0 0 1 3.585-.09c1.897.935 4.426 1.37 7.956 1.37 3.493 0 6.021-.442 7.957-1.394a3.859 3.859 0 0 1 3.585.088 3.834 3.834 0 0 1 1.953 2.989l1.041 10.905a.913.913 0 0 1 .262.068c2.136 1.05 5.433 1.703 8.601 1.703 3.494 0 6.023-.443 7.957-1.394a3.858 3.858 0 0 1 3.585.087 3.834 3.834 0 0 1 1.954 2.99l1.799 17.97c.005 8.845-7.002 16.243-15.295 16.243z"/>
    </g>
</svg>
