<svg xmlns="http://www.w3.org/2000/svg" width="204" height="92" viewBox="0 0 204 92">
    <g fill="none" fill-rule="nonzero">
        <ellipse cx="91.5" cy="72.5" fill="#E4E4E4" rx="27.5" ry="5.5"/>
        <g fill="#222" stroke="#222">
            <path d="M136.419 70.659a7.038 7.038 0 0 1-5.98 3.27c-2.547 0-4.758-1.321-5.98-3.27a7.038 7.038 0 0 1-5.98 3.27 1.008 1.008 0 0 1-1.007-1.008c0-.56.45-1.01 1.008-1.01 2.74 0 4.972-2.085 4.972-4.648a1.008 1.008 0 1 1 2.016 0c0 2.563 2.228 4.648 4.97 4.648 2.742 0 4.972-2.085 4.972-4.648a1.009 1.009 0 1 1 2.017 0c0 2.563 2.228 4.648 4.97 4.648 2.742 0 4.973-2.085 4.973-4.648a1.008 1.008 0 1 1 2.016 0c0 2.563 2.23 4.648 4.972 4.648.557 0 1.007.45 1.007 1.01 0 .558-.45 1.009-1.007 1.009-2.548 0-4.76-1.322-5.98-3.271a7.039 7.039 0 0 1-5.981 3.27 7.035 7.035 0 0 1-5.978-3.27zM105.652 19.074l-7.977 24.85 2.867 9.092c.02-.001.035-.01.054-.01h5.99v-5a.998.998 0 1 1 1.997 0v5h9.55l-12.48-33.932zM91.61 31.327L80.992 65.006h9.62v-5a.999.999 0 1 1 1.996 0v5h9.62l-6.45-20.463a.964.964 0 0 1-.163-.513L91.61 31.327zm-6.935 14.005l-8.999-26.138-10.658 33.812h9.618v-5a1 1 0 1 1 1.997 0v5h5.991c.02 0 .035.009.053.01l2.294-7.271a.962.962 0 0 1-.296-.413zm35.708 9.246a.999.999 0 0 1-.818.428h-10.982v5a.999.999 0 0 1-1.997 0v-5h-5.417l3.373 10.7a.999.999 0 0 1-.952 1.3H92.608v7a.999.999 0 1 1-1.997 0v-7H79.63a1 1 0 0 1-.952-1.3l3.373-10.7h-5.417v5a.998.998 0 1 1-1.997 0v-5h-10.98a1 1 0 0 1-.952-1.301l11.98-38a.996.996 0 0 1 .938-.7h.012c.427 0 .807.27.945.673l9.33 27.096 4.75-15.07c.261-.831 1.64-.831 1.903 0l4.074 12.928 8.002-24.931a.995.995 0 0 1 .928-.695c.485.003.811.254.957.654l13.978 38a.998.998 0 0 1-.118.918z"/>
        </g>
    </g>
</svg>
