<svg xmlns="http://www.w3.org/2000/svg" width="204" height="92" viewBox="0 0 204 92">
    <g fill="none" fill-rule="nonzero">
        <ellipse cx="102.5" cy="72" fill="#E4E4E4" rx="53.5" ry="2"/>
        <path fill="#222" stroke="#222" d="M120.144 47.293a1 1 0 0 1 .23 1.059c-.77 2.051-1.41 16.356-1.029 21.648h11.781c-1.294-4.761-5.689-21.205-5.689-25 0-.245.09-.481.254-.666 2.388-2.676 7.02-3.729 12.111-4.121-3.004-.281-6.549-.326-9.324-.214-.48.05-.888-.291-1.008-.747-.105-.4-2.09-8.086-2.268-14.259-2.187 4.723-4.765 12.769-5.806 16.29a1 1 0 0 1-.959.717h-7.924c3.446 1.321 7.537 3.2 9.631 5.293zm-15.98-5.331a1 1 0 0 1 .273-1.962h13.256c1.076-3.568 5.232-16.902 8.037-19.707a1 1 0 0 1 1.689.897c-.928 4.802 1.137 14.053 1.793 16.782 3.483-.107 13.446-.164 15.932 2.321a1 1 0 0 1-.707 1.707c-4.076 0-13.479 0-16.985 3.386.256 3.928 3.96 18.139 5.95 25.347a1.004 1.004 0 0 1-.965 1.267h-14a1 1 0 0 1-.992-.876c-.465-3.716-.068-18.638.867-22.804-3.937-3.414-14.045-6.329-14.149-6.358zm-21.8-27.299c-.758-.748-2.109-.756-2.88.003L54.388 39.942h1.6c.552 0 .997.445.997.996v28.844H72.95V53.895c0-.551.447-.996.998-.996h13.956c.553 0 .998.445.998.996v15.887h15.967V54h1.994v16.777c0 .55-.446.995-.998.995h-17.96a.995.995 0 0 1-.998-.995V54.889h-11.96v15.888c0 .55-.447.995-.999.995h-17.96a.995.995 0 0 1-.998-.995V41.931h-2.992a.994.994 0 0 1-.709-1.694l26.782-26.973.01-.008c1.522-1.505 4.17-1.502 5.692 0l13.308 13.4-.373 2.454-14.345-14.447zM153.436 39c0 8.272-6.728 15-15 15-.319 0-.633-.02-.944-.044-.453.024-.753.044-1.056.044-1.319 0-2.678-.192-4.146-.588a.997.997 0 0 1-.705-1.225 1.007 1.007 0 0 1 1.224-.707c1.59.429 3.021.582 4.385.484.048-.004.267-.021.312-.012.395.028.66.048.93.048 7.168 0 13-5.832 13-13 0-2.728-.848-5.348-2.45-7.575a1 1 0 0 1-.136-.903c.39-1.151.586-2.335.586-3.522 0-6.066-4.936-11-11-11a10.93 10.93 0 0 0-6.14 1.873 1.004 1.004 0 0 1-.649.167c-.64-.059-.858.002-.86.002-.486.272-1.033.072-1.302-.406-1.274-2.242-3.639-3.636-6.174-3.636-3.127 0-5.924 2.112-6.799 5.136a.997.997 0 0 1-.619.661.989.989 0 0 1-.897-.108 9.957 9.957 0 0 0-5.56-1.689c-5.514 0-10 4.486-10 10 0 1.218.23 2.428.678 3.596a.998.998 0 0 1-.14.968c-1.66 2.161-2.538 4.689-2.538 7.311 0 6.687 5.44 12.125 12.125 12.125 1.178 0 2.357-.191 3.605-.584a.69.69 0 0 1 .305-.046l1.31.005a1 1 0 0 1 .995 1.004c-.002.552-.42 1.067-1.004.996l-1.155-.004c-9.505 2.884-18.18-4.373-18.18-13.496 0-2.887.903-5.672 2.622-8.085a11.895 11.895 0 0 1-.623-3.79c0-6.617 5.383-12 12-12 1.965 0 3.877.477 5.594 1.383 1.451-3.223 4.695-5.383 8.281-5.383 3.01 0 5.83 1.524 7.523 4.024.19-.013.401-.012.637-.002A12.94 12.94 0 0 1 138.437 14c7.168 0 13 5.832 13 13 0 1.237-.18 2.471-.537 3.674A14.873 14.873 0 0 1 153.437 39z"/>
    </g>
</svg>
