<svg xmlns="http://www.w3.org/2000/svg" width="204" height="92" viewBox="0 0 204 92">
    <g fill="none" fill-rule="nonzero">
        <ellipse cx="102.5" cy="70" fill="#E4E4E4" rx="32.5" ry="2"/>
        <path fill="#222" stroke="#222" d="M102.977 56.005h-5.995a1 1 0 1 1 0-2h5.995a1 1 0 1 1 0 2zm9.992 0h-5.995a.998.998 0 0 1-.999-1c0-.553.446-1 1-1h5.994c.553 0 1 .447 1 1 0 .553-.447 1-1 1zm9.993 0h-5.996a1 1 0 0 1 0-2h5.996c.553 0 1 .447 1 1 0 .553-.447 1-1 1zm-30.109-4l-3.997 6h32.107c.554 0 1 .447 1 1 0 .553-.446 1-1 1H79.561l-4.798 8h40.204c9.344 0 14.56-8.064 14.965-16H92.853zm20.55-10H99.516l-5.33 8H118.2l-4.797-8zm-5.429-18h-5.127l.962 1.445a1 1 0 0 1 0 1.11L102.85 28l5.124-.016v-3.979zm6.993 46H72.998c-.358 0-.692-.193-.87-.507a1.006 1.006 0 0 1 .014-1.008l5.996-9.999a1 1 0 0 1 .857-.486h7.46l3.996-6h-9.458a.999.999 0 1 1 0-2h10.791l5.33-8h-8.127a.999.999 0 1 1 0-2H107.974v-10.02l-6.993.02h-.002a.995.995 0 0 1-.88-.527.995.995 0 0 1 .048-1.028l1.63-2.445-1.63-2.446a.991.991 0 0 1-.048-1.026.996.996 0 0 1 .88-.528h7.994c.552 0 1 .447 1 1v17h3.995c.353 0 .678.186.858.485l5.705 9.515h10.425a1 1 0 0 1 1 1c0 10.832-7.303 19-16.989 19z"/>
    </g>
</svg>
