<svg xmlns="http://www.w3.org/2000/svg" width="204" height="92" viewBox="0 0 204 92">
    <g fill="none" fill-rule="nonzero">
        <ellipse cx="102.5" cy="72" fill="#E4E4E4" rx="42.5" ry="5"/>
        <path fill="#222" stroke="#222" d="M86.01 39.827l-5.987.147V52h5.998l-.012-12.173zM87.022 54h-8a1 1 0 0 1-1-1V39c0-.543.434-.986.975-1l7.984-.198c.322.008.531.095.723.284a.994.994 0 0 1 .302.715l.016 14.198a1.002 1.002 0 0 1-1 1.001zm5-24h6V18h-6v12zm7 2h-8a1 1 0 0 1-1-1V17a1 1 0 0 1 1-1h8a1 1 0 0 1 1 1v14a1 1 0 0 1-1 1zm19 20h6V40h-6v12zm-1-14h8a1 1 0 0 1 1 1v14a1 1 0 0 1-1 1h-8a1 1 0 0 1-1-1V39a1 1 0 0 1 1-1zm-11-8h6V18h-6v12zm-2 1V17a1 1 0 0 1 1-1h8a1 1 0 0 1 1 1v14a1 1 0 0 1-1 1h-8a1 1 0 0 1-1-1zm-2 7.01l-5.994.856c.125 7.929 1.99 11.999 5.994 13.102 4.004-1.103 5.87-5.173 5.994-13.102l-5.994-.856zm.234 15.961a.974.974 0 0 1-.468 0c-6.883-1.663-7.766-9.41-7.766-15.971 0-.498.365-.92.86-.99l7-1a.952.952 0 0 1 .281 0l7 1c.494.07.86.492.86.99 0 6.561-.884 14.308-7.767 15.971zM130.023 36h-11a1 1 0 0 1-1-1V14h-32v21a1 1 0 0 1-1 1h-11v34h22v-9a1 1 0 0 1 1-1h10a1 1 0 0 1 1 1v9h22V36zm1 36h-24a1 1 0 0 1-1-1v-9h-8v9a1 1 0 0 1-1 1h-24a1 1 0 0 1-1-1V35a1 1 0 0 1 1-1h11V13a1 1 0 0 1 1-1h34a1 1 0 0 1 1 1v21h11a1 1 0 0 1 1 1v36a1 1 0 0 1-1 1z"/>
    </g>
</svg>
