<svg xmlns="http://www.w3.org/2000/svg" width="204" height="92" viewBox="0 0 204 92">
    <path fill="#222" fill-rule="nonzero" stroke="#222" d="M123.483 49.007c-.15 0-.302-.035-.446-.104a1.005 1.005 0 0 1-.45-1.343c.658-1.313.658-3.794 0-5.107a1.003 1.003 0 0 1 .45-1.34.997.997 0 0 1 1.34.447c.933 1.868.933 5.024 0 6.893a.998.998 0 0 1-.894.553m6.97-4.248c-.547-2.889-3.365-4.918-6.46-4.746l-10.406.99a1.015 1.015 0 0 1-.908-.415l-14.985-21c-1.261-1.575-3.26-2.58-5.18-2.58h-3.38L100.4 39.56a1 1 0 0 1-.782 1.44l-17.982 2a.972.972 0 0 1-1.06-.677l-3.631-10.907-2.316 1.158 1.888 12.28c.016.1.016.205 0 .304L74.629 57.44l2.316 1.157 3.63-10.906a.994.994 0 0 1 1.06-.678l17.983 2a1.001 1.001 0 0 1 .782 1.441L89.134 73.006h4.378c1.8 0 2.794-.847 4.215-2.625l14.952-20.956c.209-.29.56-.44.912-.414l10.423 1.022c3.129.19 5.892-1.854 6.437-4.742.02-.103.033-.192.033-.268 0-.078-.013-.165-.031-.265m1.96.91c-.727 3.868-4.403 6.635-8.555 6.36l-9.887-.969-14.65 20.528c-1.455 1.822-2.965 3.42-5.81 3.42h-5.993c-.345 0-.667-.18-.851-.476a1.005 1.005 0 0 1-.043-.97l11.349-22.719-15.756-1.753-3.741 11.233a1.001 1.001 0 0 1-1.395.58l-3.996-2a1.002 1.002 0 0 1-.54-1.047l1.974-12.849-1.974-12.847a1.001 1.001 0 0 1 .54-1.048l3.996-2c.26-.128.562-.137.829-.029.268.112.474.333.566.61l3.74 11.231 15.757-1.753-11.35-22.717a1.005 1.005 0 0 1 .044-.97c.184-.296.506-.477.85-.477h4.997c2.515 0 5.11 1.293 6.774 3.375l14.683 20.576 9.852-.936a.198.198 0 0 1 .035-.003c4.16-.252 7.828 2.491 8.556 6.364.047.235.068.452.068.641 0 .184-.021.402-.068.644"/>
</svg>
