<svg xmlns="http://www.w3.org/2000/svg" width="204" height="92" viewBox="0 0 204 92">
    <g fill="none" fill-rule="nonzero">
        <ellipse cx="102.5" cy="72" fill="#E4E4E4" rx="42.5" ry="5"/>
        <path fill="#222" stroke="#222" d="M78.06 58.389h7.986v-5.991H78.06v5.991zm8.985 1.998h-9.984a.998.998 0 0 1-.998-.999v-7.989c0-.552.447-.998.998-.998h9.984c.552 0 .999.446.999.998v7.989a.999.999 0 0 1-.999.999zm16.974-17.975c-.191 0-.384-.055-.555-.167l-1.997-1.331a1.005 1.005 0 0 1-.443-.831v-2.664a.998.998 0 1 1 1.996 0v2.129l1.552 1.035a.997.997 0 0 1-.553 1.829zm-1.997-7.988a5.997 5.997 0 0 0-5.991 5.992 5.999 5.999 0 0 0 5.991 5.991 5.998 5.998 0 0 0 5.99-5.991 5.996 5.996 0 0 0-5.99-5.992zm0 13.979c-4.405 0-7.987-3.583-7.987-7.987 0-4.407 3.582-7.991 7.987-7.991s7.986 3.584 7.986 7.991c0 4.404-3.581 7.987-7.986 7.987zm15.974 9.986h7.988v-5.991h-7.988v5.991zm-.998-7.988h9.984c.552 0 .999.446.999.998v7.989a.999.999 0 0 1-.999.999h-9.984a.998.998 0 0 1-.998-.999v-7.989c0-.552.446-.998.998-.998zm-2.996 15.979h15.975V44.41h-15.975v21.97zm12.303-31.956h-12.303v7.988h15.499l-3.196-7.988zm-34.267-3.996v39.946h3.993V57.391c0-.551.447-.998.999-.998h9.984c.552 0 .998.447.998.998v12.983h3.993V30.428H92.038zm9.984-15.516L89.351 28.431h25.342l-12.671-13.519zM77.738 34.424l-3.196 7.988h15.499v-7.988H77.738zM74.066 66.38h15.975V44.41H74.066v21.97zm23.962 3.993h7.988V58.389h-7.988v11.984zm32.948-1.996h-16.974v1.997h1.867a.998.998 0 1 1 0 1.998H87.045a1 1 0 0 1 0-1.998h2.996v-1.997H73.068a1 1 0 0 1-.999-.998V43.411c0-.117.03-.227.067-.33.005-.014 0-.028.005-.04l.006-.014.003-.009 3.985-9.965a.997.997 0 0 1 .926-.628h12.98v-1.997h-2.996a1 1 0 0 1-.729-1.68l14.977-15.98c.377-.402 1.08-.402 1.458 0l14.976 15.98a1 1 0 0 1-.729 1.68h-2.996v1.997h12.98c.408 0 .775.249.926.628l3.986 9.965.003.008.005.015c.006.012.001.026.006.04a.98.98 0 0 1 .066.33v23.968c0 .55-.446.998-.998.998z"/>
    </g>
</svg>
