<svg xmlns="http://www.w3.org/2000/svg" width="204" height="92" viewBox="0 0 204 92">
    <g fill="none" fill-rule="nonzero">
        <ellipse cx="102.5" cy="68" fill="#E4E4E4" rx="32.5" ry="2"/>
        <path fill="#222" stroke="#222" d="M95.825 54h12.351l.868-5.399H94.956L95.825 54zM93.9 46.8h16.2a.901.901 0 0 1 .889 1.042l-1.158 7.2a.899.899 0 0 1-.888.758H95.058a.899.899 0 0 1-.888-.758l-1.158-7.2A.9.9 0 0 1 93.9 46.8zm32.57-12.136c-.716-.552-1.918-.503-2.589-.394l-1.7 2.96 1.239.541c1.781-.298 3.557-.892 3.807-1.287-.027-.805-.265-1.44-.757-1.82zm-13.518-8.445c-.849-.416-5.538-1.019-10.952-1.019-5.413 0-10.103.603-10.951 1.019-1.69.826-5.297 5.577-7.108 10.565 3.844.29 13.858 1.016 17.668 1.016 4.098 0 15.377-.84 18.428-1.072-1.816-4.969-5.401-9.687-7.085-10.509zm-5.406-5.584c-.282-.549-.744-.835-1.259-.835H97.5c-.514 0-.977.286-1.208.747l-1.94 3.246c2.192-.241 4.937-.393 7.648-.393 2.688 0 5.411.149 7.594.387l-2.048-3.152zM80.122 34.27c-.24-.04-.541-.07-.861-.07-.6 0-1.268.107-1.734.468-.49.379-.726 1.013-.726 1.939.223.279 1.999.869 3.781 1.164l.868-.38a.899.899 0 0 1 .217-.426l-1.545-2.695zM78.6 49.794c0 .803.054 1.611.138 2.406h8.793c-.316-2.052-1.699-3.599-3.351-3.599h-5.4c-.038 0-.069-.018-.106-.023-.038.411-.074.821-.074 1.216zm2.287 9.2l.711.116 7.015 1.104.004.001c2.516.314 8.469.985 13.383.985 4.916 0 10.869-.671 13.393-.987l1.228-.161 2.989-.487 3.503-.571c.804-.945 1.488-2.817 1.895-4.994H115.5a.9.9 0 0 1-.9-.899c0-3.474 2.341-6.301 5.22-6.301h5.244c-.635-3.032-2.133-6.112-3.998-8.093l-.497-.216c-2.353.183-14.535 1.11-18.96 1.11-4.102 0-14.868-.797-18.295-1.059l-.38.165c-1.865 1.981-3.362 5.061-3.998 8.093h5.244c2.879 0 5.22 2.827 5.22 6.301a.9.9 0 0 1-.9.899h-9.507c.405 2.177 1.09 4.049 1.894 4.994zm6.215 2.837l-4.902-.8v3.77c0 .992.809 1.8 1.8 1.8h1.801c.991 0 1.799-.808 1.799-1.8v-2.902a67.384 67.384 0 0 1-.478-.065l-.019-.003h-.001zm29.298 2.97c0 .992.808 1.8 1.8 1.8h1.8c.993 0 1.801-.808 1.801-1.8v-3.77l-4.904.8a.062.062 0 0 1-.021.003l-.024.003c-.056.008-.206.029-.452.061v2.903zm8.821-16.2h-5.401c-1.651 0-3.033 1.547-3.351 3.599h8.793c.084-.795.138-1.603.138-2.406 0-.395-.035-.805-.073-1.216-.037.005-.068.023-.106.023zm-1.249-9.102c1.948 2.964 3.228 6.872 3.228 10.295 0 3.844-1.033 8.748-3.01 10.683a.895.895 0 0 1-.484.243l-.106.017v4.064A3.603 3.603 0 0 1 120 68.4h-1.8a3.605 3.605 0 0 1-3.6-3.599v-2.679c-2.938.346-8.173.878-12.6.878-4.429 0-9.669-.533-12.6-.878v2.679a3.603 3.603 0 0 1-3.599 3.599H84a3.603 3.603 0 0 1-3.6-3.599v-4.064l-.105-.017a.888.888 0 0 1-.485-.243c-1.977-1.935-3.009-6.839-3.009-10.683 0-3.423 1.279-7.331 3.227-10.295C77.937 39.136 75 38.326 75 36.607c0-1.503.482-2.636 1.432-3.368 1.747-1.344 4.386-.67 4.497-.64a.894.894 0 0 1 .551.422l1.193 2.077c1.906-4.576 5.29-9.374 7.585-10.494.364-.18 1.021-.349 1.877-.501a.88.88 0 0 1 .092-.265l2.489-4.156C95.22 18.668 96.301 18 97.5 18h8.787c1.201 0 2.281.668 2.818 1.742l2.651 4.069a.887.887 0 0 1 .115.293c.852.151 1.508.32 1.872.5 2.295 1.12 5.68 5.918 7.585 10.494l1.192-2.077a.897.897 0 0 1 .551-.422c.111-.032 2.752-.706 4.497.64.95.732 1.432 1.865 1.432 3.368 0 1.719-2.937 2.53-5.028 2.892z"/>
    </g>
</svg>
