<svg xmlns="http://www.w3.org/2000/svg" width="204" height="92" viewBox="0 0 204 92">
    <g fill="none" fill-rule="nonzero">
        <ellipse cx="102.5" cy="74" fill="#E4E4E4" rx="26.5" ry="2"/>
        <path fill="#222" stroke="#222" d="M114.7 58.588a.9.9 0 1 0-.003-1.801.9.9 0 0 0 .003 1.801zm0-3.603a2.704 2.704 0 0 1 2.699 2.702 2.704 2.704 0 0 1-2.699 2.702 2.704 2.704 0 0 1-2.7-2.702 2.704 2.704 0 0 1 2.7-2.702zm-25.2 3.603a.9.9 0 1 0-.003-1.801.9.9 0 0 0 .003 1.801zm0-3.603c1.488 0 2.7 1.212 2.7 2.702a2.704 2.704 0 0 1-2.7 2.702 2.704 2.704 0 0 1-2.7-2.702 2.704 2.704 0 0 1 2.7-2.702zm25.2-30.62H89.5a.902.902 0 0 0 0 1.801h25.2a.9.9 0 0 0 0-1.801zm0 3.603H89.5a2.705 2.705 0 0 1-2.7-2.703 2.704 2.704 0 0 1 2.7-2.702h25.2a2.704 2.704 0 0 1 0 5.405zm2.699 6.303c0-.495-.403-.9-.899-.9H87.7c-.496 0-.9.405-.9.9v12.608c0 .497.404.902.9.902h28.8a.902.902 0 0 0 .899-.902V34.271zm-.899 15.311H87.7a2.704 2.704 0 0 1-2.7-2.703V34.271a2.703 2.703 0 0 1 2.7-2.701h28.8c1.489 0 2.7 1.211 2.7 2.701v12.608a2.704 2.704 0 0 1-2.7 2.703zm9.899-9.007c0-1.739-1.549-3.194-3.599-3.529v7.132h1.799c.976 0 1.8-.619 1.8-1.351v-2.252zM121 23.503a2.704 2.704 0 0 0-2.7-2.702H85.899a2.704 2.704 0 0 0-2.699 2.702V63.13a2.697 2.697 0 0 0 2.571 2.688c.044-.006.083-.026.128-.026.07 0 .13.025.194.039h8.614c.063-.014.124-.039.192-.039.069 0 .13.025.194.039h14.013c.065-.014.125-.039.194-.039s.129.025.193.039h8.613c.065-.014.125-.039.194-.039.046 0 .085.02.129.026A2.697 2.697 0 0 0 121 63.13V23.503zM86.8 69.395c0 .976.618 1.801 1.349 1.801h4.5c.733 0 1.351-.825 1.351-1.801v-1.763h-7.2v1.763zm23.4 0c0 .976.618 1.801 1.35 1.801h4.5c.732 0 1.349-.825 1.349-1.801v-1.763H110.2v1.763zM81.399 37.046c-2.051.335-3.599 1.79-3.599 3.529v2.252c0 .732.825 1.351 1.799 1.351h1.8v-7.132zm43.2 8.933H122.8V63.13a4.508 4.508 0 0 1-3.6 4.411v1.854c0 1.986-1.413 3.602-3.15 3.602h-4.5c-1.737 0-3.151-1.616-3.151-3.602v-1.763H95.8v1.763c0 1.986-1.413 3.602-3.151 3.602h-4.5c-1.736 0-3.149-1.616-3.149-3.602v-1.854a4.51 4.51 0 0 1-3.601-4.411V45.979h-1.8c-1.984 0-3.599-1.413-3.599-3.152v-2.252c0-2.715 2.354-4.946 5.399-5.325V23.503a4.507 4.507 0 0 1 4.5-4.503H118.3c2.482 0 4.5 2.019 4.5 4.503V35.25c3.045.379 5.4 2.61 5.4 5.325v2.252c0 1.739-1.615 3.152-3.601 3.152z"/>
    </g>
</svg>
