<svg xmlns="http://www.w3.org/2000/svg" width="204" height="92" viewBox="0 0 204 92">
    <g fill="none" fill-rule="nonzero">
        <ellipse cx="102.5" cy="72.5" fill="#E4E4E4" rx="35.5" ry="3.5"/>
        <path fill="#222" stroke="#222" d="M104.299 65.012c.165-.724.87-1.182 1.592-1 .71.17 1.149.897.981 1.621l-1.446 6.234a1.33 1.33 0 0 1-1.288 1.038c-.1 0-.201-.012-.305-.037a1.35 1.35 0 0 1-.982-1.622l1.448-6.234zm-6.01-1.441c.164-.723.871-1.188 1.591-1 .71.17 1.149.898.982 1.621l-1.781 7.675a1.329 1.329 0 0 1-1.287 1.038c-.1 0-.201-.012-.306-.037a1.35 1.35 0 0 1-.981-1.622l1.781-7.675zm-6.012-1.444c.167-.726.887-1.189 1.592-1 .713.172 1.153.898.98 1.623l-2.105 9.027a1.325 1.325 0 0 1-1.591 1.001 1.345 1.345 0 0 1-.982-1.622l2.106-9.029zm20.064-34.32l-14.896-3.57-2.971 12.8 3.436.824 1.484-6.403c.166-.723.872-1.191 1.592-1.001.71.172 1.15.898.981 1.622l-1.483 6.4 3.436.823 1.485-6.403c.165-.724.868-1.186 1.592-1.002.71.171 1.15.9.982 1.623l-1.483 6.4 3.434.822 1.485-6.403c.167-.724.875-1.192 1.593-1 .71.17 1.15.897.982 1.621l-1.485 6.4 3.436.824 2.97-12.802-6.57-1.575zm-8.285-15.279l-2.313 9.968 1.59.381 1.157-4.986c.166-.725.866-1.184 1.592-1.002.711.171 1.15.899.981 1.623l-1.156 4.984 1.59.379 1.16-4.984c.166-.725.867-1.186 1.59-1 .71.171 1.151.896.981 1.62l-1.156 4.982 1.592.38 1.157-4.983c.169-.725.868-1.19 1.593-1.002.71.172 1.15.897.981 1.623l-1.157 4.98 1.59.38 2.314-9.964-14.086-3.379zM90.935 52.283l3.437.823 1.443-6.223c.165-.725.868-1.189 1.59-1.002a1.35 1.35 0 0 1 .983 1.623l-1.441 6.22 3.435.825 1.444-6.227c.166-.72.873-1.181 1.592-.998.71.169 1.149.897.982 1.621l-1.443 6.221 3.435.823 1.445-6.223c.165-.724.867-1.19 1.59-1 .713.17 1.151.897.984 1.622l-1.445 6.22 3.438.824 2.929-12.625-4.713-1.131-.013-.001-.007-.003-5.988-1.435c-.004-.001-.009 0-.013-.002a.043.043 0 0 0-.008-.003l-10.725-2.573-2.931 12.624zm33.26-23.019a1.325 1.325 0 0 1-1.286 1.04c-.099 0-.202-.01-.303-.037l-1.12-.267-2.97 12.801 1.115.268c.713.168 1.153.896.986 1.62a1.327 1.327 0 0 1-1.288 1.04 1.16 1.16 0 0 1-.304-.037l-1.117-.268-2.93 12.625 1.115.27c.713.166 1.153.895.985 1.618a1.325 1.325 0 0 1-1.287 1.04 1.17 1.17 0 0 1-.303-.037l-1.118-.268-2.213 9.535h10.462c.731 0 1.323.604 1.323 1.348 0 .745-.592 1.35-1.323 1.35h-12.134c-.1 0-.202-.012-.304-.037-.037-.009-.064-.035-.098-.046a1.26 1.26 0 0 1-.25-.118 1.33 1.33 0 0 1-.197-.135 1.376 1.376 0 0 1-.177-.194 1.413 1.413 0 0 1-.133-.204 1.136 1.136 0 0 1-.089-.243 1.126 1.126 0 0 1-.052-.26c-.003-.038-.023-.072-.023-.113 0-.055.026-.102.032-.157.006-.052-.008-.1.005-.152l2.597-11.192-4.71-1.13h-.017l-.01-.006-5.997-1.437h-.001l-.001-.002-5.996-1.438c-.007 0-.01 0-.015-.002l-.006-.002-4.716-1.132-3.937 16.962c-.009.038-.033.065-.046.1-.029.09-.066.169-.112.25a1.264 1.264 0 0 1-.14.21 1.172 1.172 0 0 1-.17.162c-.073.06-.146.115-.233.16-.06.032-.123.052-.19.074a1.197 1.197 0 0 1-.302.062c-.032.003-.061.02-.095.02h-4.755c-.731 0-1.323-.605-1.323-1.35 0-.744.592-1.348 1.323-1.348h3.71l3.693-15.919-1.114-.27c-.715-.168-1.153-.894-.986-1.619.166-.721.876-1.185 1.59-1l1.119.267 2.93-12.625-1.116-.267c-.713-.169-1.153-.895-.985-1.62.165-.722.868-1.19 1.59-1.003l1.12.268 2.97-12.802-1.115-.267c-.714-.17-1.153-.896-.986-1.62.166-.722.875-1.186 1.59-1.005l2.406.578 2.404.577 2.313-9.973-.378-.09a1.343 1.343 0 0 1-.984-1.619c.166-.722.868-1.185 1.588-1.004l19.998 4.796c.713.167 1.153.895.984 1.619a1.326 1.326 0 0 1-1.286 1.041c-.098 0-.203-.01-.302-.038l-.382-.09-2.315 9.97 4.807 1.152c.715.168 1.153.897.985 1.62z"/>
    </g>
</svg>
