<svg xmlns="http://www.w3.org/2000/svg" width="204" height="92" viewBox="0 0 204 92">
    <g fill="none" fill-rule="nonzero">
        <ellipse cx="102.5" cy="82" fill="#E4E4E4" rx="32.5" ry="2"/>
        <path fill="#222" stroke="#222" d="M102.839 5.215c-.405.455-.754.847-.919 1.609-.053.253-.02.347-.02.347.023.019.246.143.754.143.138 0 .235-.009.258-.012.308-.038.338-.117.354-.164.147-.416-.052-1.216-.361-1.997-.021.026-.045.051-.066.074zm-.185 4.53c-1.169 0-2.079-.366-2.63-1.058-.345-.433-.701-1.196-.447-2.38.297-1.394 1.01-2.191 1.481-2.721.443-.496.443-.496.366-.739-.064-.193-.253-.793.138-1.336.225-.313.607-.511.99-.511 1.54 0 3.06 4.025 3.149 5.542.102 1.757-.854 2.973-2.498 3.172 0 0-.223.031-.549.031zM123.6 69.368c-.61.429-1.648.672-2.326.672h-.026c-2.592-.018-4.228-3.256-4.407-3.625-.447-.907-1.488-2.26-2.292-2.262-.611 0-1.378.827-2.102 2.279-1.2 2.396-2.625 3.608-4.235 3.608h-.024c-2.585-.018-4.221-3.238-4.405-3.62-.451-.912-1.492-2.265-2.295-2.267h-.003c-.609 0-1.375.827-2.101 2.279-1.199 2.396-2.625 3.608-4.234 3.608h-.023c-2.593-.018-4.231-3.256-4.41-3.625-.447-.907-1.485-2.26-2.29-2.262-.613 0-1.379.827-2.103 2.279-1.2 2.396-2.625 3.608-4.235 3.608h-.024c-.784-.004-1.869-.247-2.465-.672v10h44v-10zm0-10c0-1.647-1.634-2.953-3.145-3H82.742c-1.51.047-3.142 1.353-3.142 3v6c.502.878 1.775 2.239 2.484 2.242h.005c.604 0 1.368-.828 2.093-2.28 1.202-2.396 2.629-3.609 4.241-3.609h.022c2.599.015 4.249 3.252 4.427 3.623.445.912 1.477 2.263 2.273 2.266.629.018 1.372-.822 2.098-2.28 1.2-2.396 2.627-3.609 4.242-3.609h.019c2.599.015 4.252 3.252 4.43 3.623.445.912 1.476 2.263 2.273 2.266.61 0 1.374-.828 2.097-2.28 1.201-2.396 2.628-3.609 4.243-3.609h.019c2.599.015 4.251 3.252 4.43 3.623.445.912 1.475 2.263 2.273 2.266.563 0 1.657-.99 2.331-2.242v-6zm-5-10h-33v5h33v-5zm0-7c0-1.649-1.638-2.956-3.151-3H88.748c-1.512.044-3.148 1.351-3.148 3v4h33v-4zm-5-10h-23v5h23v-5zm0-5c0-1.678-1.696-3.009-3.231-3.009H93.827c-1.533 0-3.227 1.331-3.227 3.009v2h23v-2zm11 54h-49c-.663 0-1.6-.374-1.6-1.046 0-.673.937-.954 1.6-.954h2V66.197a1.226 1.226 0 0 1 0-.71v-6.033c0-2.059.892-3.72 2.377-4.547.542-.36.933-.482 1.623-.539h2v-7.17a1.23 1.23 0 0 1 0-.711v-4.033c0-1.574.572-2.87 1.514-3.764.15-.18 1.607-1.322 2.812-1.322h.674v-7.17a1.23 1.23 0 0 1 0-.711v-2.034c0-3.046 2.117-5.085 5-5.085h8v-8c0-.672.334-1.638.997-1.638s1.003.966 1.003 1.638v8h7c2.885 0 5 2.039 5 5.085v2.222c.025.139.026.279 0 .422v7.271h.307c1.763 0 2.772.841 3.255 1.322.943.893 1.438 2.189 1.438 3.764v4.22c.025.14.026.28 0 .424v7.27h.426c.222 0 2.064.16 3.1 1.321.943.894 1.474 2.191 1.474 3.765v6.22c.025.14.026.28 0 .424v13.27h2c.662 0 1.6.281 1.6.954 0 .672-.938 1.046-1.6 1.046h-3z"/>
    </g>
</svg>
