<svg xmlns="http://www.w3.org/2000/svg" width="204" height="92" viewBox="0 0 204 92">
    <g fill="none" fill-rule="nonzero">
        <ellipse cx="102.5" cy="74" fill="#E4E4E4" rx="32.5" ry="2"/>
        <path fill="#222" stroke="#222" d="M91.507 23.938c-.02.026-.045.05-.065.073-.406.456-.754.848-.919 1.608-.053.254-.02.35-.02.35.023.018.245.141.753.141.14 0 .237-.009.26-.01.307-.039.336-.117.352-.165.148-.416-.05-1.216-.36-1.997zm.298 4.574s-.223.03-.549.03c-1.169 0-2.078-.365-2.63-1.059-.344-.432-.699-1.197-.446-2.379.297-1.395 1.01-2.192 1.48-2.72.444-.498.444-.498.367-.74-.065-.194-.253-.793.137-1.336.226-.314.608-.51.991-.51 1.54 0 3.06 4.023 3.15 5.541.101 1.757-.855 2.973-2.5 3.173zm10.503-4.574c-.022.026-.045.05-.067.073-.405.456-.754.848-.919 1.608-.052.254-.019.35-.019.35.022.018.245.141.754.141.137 0 .236-.009.258-.01.308-.039.337-.117.353-.165.148-.416-.052-1.216-.36-1.997zm.298 4.574s-.224.03-.549.03c-1.169 0-2.079-.365-2.63-1.059-.345-.432-.7-1.197-.447-2.379.297-1.395 1.01-2.192 1.48-2.72.443-.498.443-.498.366-.74-.063-.194-.253-.793.138-1.336.226-.314.607-.51.991-.51 1.54 0 3.06 4.023 3.15 5.541.101 1.757-.855 2.973-2.499 3.173zm10.513-4.574c-.02.026-.045.05-.065.073-.406.456-.756.848-.919 1.608-.055.254-.022.35-.022.352.025.016.246.14.755.14.136 0 .237-.01.257-.012.311-.038.338-.116.356-.164.146-.416-.052-1.216-.362-1.997zm.297 4.574s-.223.03-.548.03c-1.17 0-2.079-.365-2.632-1.059-.34-.434-.7-1.197-.445-2.379.297-1.395 1.01-2.192 1.482-2.72.441-.498.441-.498.365-.74-.064-.194-.253-.793.138-1.336.225-.314.607-.51.992-.51 1.54 0 3.057 4.023 3.146 5.541.105 1.757-.85 2.973-2.498 3.173zm10.586 32.652c-.609.43-1.647.674-2.327.674h-.025c-2.59-.019-4.228-3.257-4.406-3.627-.448-.907-1.489-2.26-2.292-2.262h-.003c-.609 0-1.376.83-2.099 2.28-1.2 2.395-2.625 3.61-4.236 3.61h-.023c-2.586-.02-4.22-3.24-4.405-3.623-.452-.912-1.493-2.265-2.295-2.267h-.003c-.61 0-1.375.83-2.1 2.28-1.2 2.395-2.626 3.61-4.235 3.61h-.024c-2.59-.02-4.23-3.258-4.409-3.628-.448-.907-1.485-2.26-2.289-2.262h-.003c-.612 0-1.378.83-2.1 2.28-1.2 2.395-2.626 3.61-4.237 3.61h-.024c-.784-.007-1.868-.249-2.465-.675v10h44v-10zm0-10c0-1.677-1.695-3.008-3.23-3.008H83.23c-1.534 0-3.228 1.331-3.228 3.008v6c.502.878 1.776 2.24 2.484 2.242h.005c.605 0 1.37-.828 2.092-2.28 1.203-2.395 2.63-3.609 4.243-3.609h.022c2.598.015 4.25 3.254 4.427 3.623.445.912 1.476 2.263 2.272 2.266.63.02 1.372-.822 2.1-2.28 1.2-2.395 2.626-3.609 4.241-3.609h.018c2.6.015 4.252 3.254 4.43 3.623.445.912 1.477 2.263 2.273 2.266h.005c.606 0 1.37-.828 2.093-2.28 1.2-2.395 2.627-3.609 4.242-3.609h.02c2.598.015 4.252 3.254 4.43 3.623.445.912 1.475 2.263 2.272 2.266h.002c.561 0 1.655-.989 2.33-2.242v-6zm4 22h-52c-.663 0-1.599-.375-1.599-1.046 0-.672.936-.954 1.6-.954h2v-13.17c-.064-.24-.078-.486 0-.71v-6.035c0-3.046 2.116-5.085 5-5.085h7v-13.42c0-.673.536-1.217 1.2-1.217.663 0 .8.965.8 1.637v13h9v-13c0-.672.333-1.637.997-1.637.663 0 1.002.965 1.002 1.637v13h9v-13c0-.672.138-1.637.801-1.637.662 0 1.2.544 1.2 1.216v13.421h7c2.885 0 5 2.04 5 5.085v6.222c.024.14.025.28 0 .423v13.27h2c.663 0 1.6.282 1.6.954 0 .671-.937 1.046-1.6 1.046z"/>
    </g>
</svg>
