<svg xmlns="http://www.w3.org/2000/svg" width="204" height="92" viewBox="0 0 204 92">
    <g fill="none" fill-rule="nonzero">
        <ellipse cx="102.5" cy="79" fill="#E4E4E4" rx="32.5" ry="2"/>
        <path fill="#222" stroke="#222" d="M92.039 18.214c-.406.456-.754.85-.919 1.609-.053.255-.021.348-.021.348.024.02.245.144.754.144.139 0 .237-.01.259-.013.308-.037.337-.115.353-.163.148-.416-.051-1.217-.361-1.997-.021.025-.045.05-.065.072zm-.186 4.532c-1.169 0-2.078-.366-2.63-1.059-.344-.433-.701-1.197-.446-2.379.297-1.395 1.01-2.192 1.48-2.723.444-.495.444-.495.367-.737-.065-.195-.254-.793.137-1.336.226-.314.608-.512.991-.512 1.54 0 3.059 4.025 3.149 5.542.102 1.757-.854 2.974-2.498 3.172 0 0-.224.032-.55.032zm10.985-4.532c-.405.456-.755.85-.919 1.609-.052.255-.019.348-.019.348.022.02.244.144.754.144.138 0 .236-.01.258-.013.308-.037.337-.115.353-.163.149-.416-.052-1.217-.36-1.997-.022.025-.045.05-.067.072zm-.184 4.532c-1.17 0-2.079-.366-2.631-1.059-.344-.433-.699-1.197-.446-2.379.297-1.395 1.009-2.192 1.48-2.723.443-.495.443-.495.366-.737-.063-.195-.254-.793.138-1.336.226-.314.607-.512.991-.512 1.54 0 3.06 4.025 3.149 5.542.102 1.757-.854 2.974-2.499 3.172 0 0-.223.032-.548.032zm10.997-4.532c-.406.456-.756.85-.92 1.609-.054.255-.021.348-.021.351.025.017.247.141.755.141.136 0 .237-.01.258-.013.31-.037.337-.115.355-.163.146-.416-.052-1.217-.362-1.997-.02.025-.045.05-.065.072zm-.186 4.532c-1.17 0-2.079-.366-2.632-1.059-.342-.435-.701-1.197-.445-2.379.297-1.395 1.01-2.192 1.482-2.723.442-.495.442-.495.365-.737-.064-.195-.254-.793.139-1.336.224-.314.606-.512.991-.512 1.54 0 3.058 4.025 3.147 5.542.104 1.757-.852 2.974-2.499 3.172 0 0-.222.032-.548.032zm10.134 42.622c-.609.428-1.647.673-2.327.673h-.024c-2.592-.018-4.229-3.257-4.407-3.626-.448-.908-1.489-2.26-2.293-2.262-.611 0-1.378.829-2.101 2.28-1.2 2.395-2.625 3.608-4.236 3.608h-.024c-2.585-.018-4.22-3.24-4.404-3.622-.451-.912-1.491-2.264-2.295-2.266-.613 0-1.378.829-2.104 2.28-1.199 2.395-2.625 3.608-4.234 3.608h-.024c-2.591-.018-4.231-3.257-4.409-3.626-.448-.908-1.486-2.26-2.289-2.262-.615 0-1.381.829-2.104 2.28-1.201 2.395-2.625 3.608-4.237 3.608h-.023c-.784-.005-1.868-.248-2.465-.673v10h44v-10zm0-10c0-1.646-1.634-2.953-3.144-3H82.741c-1.51.047-3.142 1.354-3.142 3v6c.502.878 1.776 2.239 2.484 2.242h.004c.606 0 1.37-.828 2.093-2.28 1.203-2.396 2.63-3.609 4.243-3.609h.022c2.598.014 4.249 3.253 4.427 3.623.445.912 1.476 2.263 2.273 2.266.628.018 1.371-.822 2.098-2.28 1.2-2.396 2.627-3.609 4.242-3.609h.018c2.599.014 4.252 3.253 4.43 3.623.445.912 1.477 2.263 2.274 2.266.61 0 1.374-.828 2.097-2.28 1.2-2.396 2.627-3.609 4.242-3.609h.02c2.599.014 4.251 3.253 4.429 3.623.446.912 1.476 2.263 2.273 2.266.564 0 1.657-.989 2.331-2.242v-6zm-5-10h-33v5h33v-5zm0-7c0-1.677-1.695-3.009-3.23-3.009h-.77v.009h-2v-.009h-9v.009h-2v-.009h-9v.009h-2v-.009h-1.772c-1.534 0-3.228 1.332-3.228 3.009v4h33v-4zm6 39h-49c-.663 0-1.599-.375-1.599-1.045 0-.673.936-.955 1.599-.955h2v-13.17a1.247 1.247 0 0 1 0-.711v-6.034c0-2.058.93-3.44 2.361-4.495.574-.39 1.367-.59 1.909-.59h1.73v-7.171a1.235 1.235 0 0 1 0-.71v-4.033c0-3.048 2.117-5.086 5-5.086h2v-6.421c0-.672.537-1.216 1.2-1.216.663 0 .8.965.8 1.637v6h9v-6c0-.672.335-1.637.998-1.637s1.002.965 1.002 1.637v6h9v-6c0-.672.138-1.637.801-1.637.662 0 1.199.544 1.199 1.216v6.421h1c2.886 0 5 2.038 5 5.086v4.22c.026.141.026.28 0 .425v7.269h.262c.663 0 2.09.264 3.224 1.322.944.893 1.514 2.189 1.514 3.763v6.222c.026.14.026.28 0 .423v13.27h2c.663 0 1.601.282 1.601.955 0 .67-.938 1.045-1.601 1.045h-3z"/>
    </g>
</svg>
