<svg width="46" height="72" viewBox="0 0 46 72" fill="none" xmlns="http://www.w3.org/2000/svg">
    <path d="M19.9813 36H18.9813V37H19.9813V36ZM19.9813 6H20.9813V5H19.9813V6ZM0.425781 6L10.4258 11.7735V0.226497L0.425781 6ZM40.4258 35H19.9813V37H40.4258V35ZM20.9813 36V6H18.9813V36H20.9813ZM19.9813 5H9.42578V7H19.9813V5Z" fill="#055A60"/>
    <path d="M19.9813 36H18.9813V35H19.9813V36ZM19.9813 66H20.9813V67H19.9813V66ZM0.425781 66L10.4258 60.2265V71.7735L0.425781 66ZM40.4258 37H19.9813V35H40.4258V37ZM20.9813 36V66H18.9813V36H20.9813ZM19.9813 67H9.42578V65H19.9813V67Z" fill="#055A60"/>
</svg>
