<svg xmlns="http://www.w3.org/2000/svg" width="204" height="92" viewBox="0 0 204 92">
    <g fill="none" fill-rule="nonzero">
        <g transform="translate(93 10)">
            <ellipse cx="12.5" cy="66.175" fill="#E4E4E4" rx="12.5" ry="2.975"/>
            <path stroke="#222" stroke-linecap="round" stroke-linejoin="round" stroke-width="3" d="M21 23v-4c-1.53-5.706-5.655-6.375-10.504-6.375C5.656 12.625 0 17 0 21.521v13.92c0 4.423 4.007 4.423 4.007 0V25.246l2.333 40.13 4.344-21.555C12.276 47.89 13.381 49.95 14 50c.94.078 2.122-3.432 2.26-5.798.245-4.213.825-11.28 1.74-21.202 0 5.832-.638 9.493-.638 12.441 0 4.423 3.638 4.423 3.638 0V21.55"/>
            <rect width="9" height="8.925" x="6" y=".725" stroke="#222" stroke-width="3" rx="4.463"/>
        </g>
        <path stroke="#222" stroke-linecap="round" stroke-linejoin="round" stroke-width="3" d="M111 33h3l-1 43-3-27"/>
    </g>
</svg>
