<svg xmlns="http://www.w3.org/2000/svg" width="204" height="92" viewBox="0 0 204 92">
    <g fill="none" fill-rule="evenodd" stroke="#222" stroke-linecap="round" stroke-width="3">
        <path d="M128 64h-11.25c-2.5-.485-3.75-3.152-3.75-8"/>
        <path stroke-linejoin="round" d="M121.695 50.9c-4.53 9.308-9.814 1.552-15.854 1.552-6.04 0-8.304 7.756-11.324 7.756-3.02 0-12.08.775-18.874-13.185-1.58-3.246-1.857-9.274-1.51-12.41C75.278 24.267 84.508 16 101.31 16c21.894 0 26.424 17.838 26.424 20.94 0 3.103-1.51 3.103-1.51 4.654 0 1.034 1.258 2.585 3.775 4.653-6.04 6.722-6.291 9.566-.755 8.532-.755 0-.755 3.102-3.02 5.429 3.02 3.102 1.51 13.96 0 16.287-1.51 2.327-21.894-3.878-23.404-8.532-1.006-3.102-.547-8.014 1.378-14.735"/>
        <path d="M124 41c-3.81 1.5-5.442 3.5-4.898 6M114.857 29c6.04 4.765 9.06 3.97 2.265 11.118-4.53 3.176-3.02 4.764-4.53 6.353-1.007 1.058-5.538.529-13.592-1.589"/>
    </g>
</svg>
